G04 #@! TF.GenerationSoftware,KiCad,Pcbnew,5.1.9*
G04 #@! TF.CreationDate,2021-01-14T22:06:05+01:00*
G04 #@! TF.ProjectId,bluetoothkiste,626c7565-746f-46f7-9468-6b697374652e,rev?*
G04 #@! TF.SameCoordinates,Original*
G04 #@! TF.FileFunction,Soldermask,Top*
G04 #@! TF.FilePolarity,Negative*
%FSLAX46Y46*%
G04 Gerber Fmt 4.6, Leading zero omitted, Abs format (unit mm)*
G04 Created by KiCad (PCBNEW 5.1.9) date 2021-01-14 22:06:05*
%MOMM*%
%LPD*%
G01*
G04 APERTURE LIST*
%ADD10O,1.702000X1.702000*%
%ADD11C,2.102000*%
%ADD12C,1.702000*%
%ADD13C,3.302000*%
%ADD14O,2.007000X2.102000*%
%ADD15C,4.102000*%
%ADD16C,3.352000*%
%ADD17C,1.602000*%
%ADD18O,2.602000X1.302000*%
%ADD19C,1.626000*%
%ADD20O,1.902000X1.502000*%
%ADD21O,1.802000X1.802000*%
%ADD22C,2.602000*%
%ADD23O,1.902000X1.902000*%
G04 APERTURE END LIST*
G36*
G01*
X174409000Y-42830000D02*
X174409000Y-41230000D01*
G75*
G02*
X174460000Y-41179000I51000J0D01*
G01*
X176060000Y-41179000D01*
G75*
G02*
X176111000Y-41230000I0J-51000D01*
G01*
X176111000Y-42830000D01*
G75*
G02*
X176060000Y-42881000I-51000J0D01*
G01*
X174460000Y-42881000D01*
G75*
G02*
X174409000Y-42830000I0J51000D01*
G01*
G37*
D10*
X182880000Y-59810000D03*
X175260000Y-44570000D03*
X182880000Y-57270000D03*
X175260000Y-47110000D03*
X182880000Y-54730000D03*
X175260000Y-49650000D03*
X182880000Y-52190000D03*
X175260000Y-52190000D03*
X182880000Y-49650000D03*
X175260000Y-54730000D03*
X182880000Y-47110000D03*
X175260000Y-57270000D03*
X182880000Y-44570000D03*
X175260000Y-59810000D03*
X182880000Y-42030000D03*
G36*
G01*
X171471500Y-55688106D02*
X171471500Y-54371894D01*
G75*
G02*
X171739394Y-54104000I267894J0D01*
G01*
X172730606Y-54104000D01*
G75*
G02*
X172998500Y-54371894I0J-267894D01*
G01*
X172998500Y-55688106D01*
G75*
G02*
X172730606Y-55956000I-267894J0D01*
G01*
X171739394Y-55956000D01*
G75*
G02*
X171471500Y-55688106I0J267894D01*
G01*
G37*
G36*
G01*
X168496500Y-55688106D02*
X168496500Y-54371894D01*
G75*
G02*
X168764394Y-54104000I267894J0D01*
G01*
X169755606Y-54104000D01*
G75*
G02*
X170023500Y-54371894I0J-267894D01*
G01*
X170023500Y-55688106D01*
G75*
G02*
X169755606Y-55956000I-267894J0D01*
G01*
X168764394Y-55956000D01*
G75*
G02*
X168496500Y-55688106I0J267894D01*
G01*
G37*
G36*
G01*
X168601894Y-41749000D02*
X169918106Y-41749000D01*
G75*
G02*
X170186000Y-42016894I0J-267894D01*
G01*
X170186000Y-43008106D01*
G75*
G02*
X169918106Y-43276000I-267894J0D01*
G01*
X168601894Y-43276000D01*
G75*
G02*
X168334000Y-43008106I0J267894D01*
G01*
X168334000Y-42016894D01*
G75*
G02*
X168601894Y-41749000I267894J0D01*
G01*
G37*
G36*
G01*
X168601894Y-44724000D02*
X169918106Y-44724000D01*
G75*
G02*
X170186000Y-44991894I0J-267894D01*
G01*
X170186000Y-45983106D01*
G75*
G02*
X169918106Y-46251000I-267894J0D01*
G01*
X168601894Y-46251000D01*
G75*
G02*
X168334000Y-45983106I0J267894D01*
G01*
X168334000Y-44991894D01*
G75*
G02*
X168601894Y-44724000I267894J0D01*
G01*
G37*
G36*
G01*
X171601894Y-51754000D02*
X172918106Y-51754000D01*
G75*
G02*
X173186000Y-52021894I0J-267894D01*
G01*
X173186000Y-53013106D01*
G75*
G02*
X172918106Y-53281000I-267894J0D01*
G01*
X171601894Y-53281000D01*
G75*
G02*
X171334000Y-53013106I0J267894D01*
G01*
X171334000Y-52021894D01*
G75*
G02*
X171601894Y-51754000I267894J0D01*
G01*
G37*
G36*
G01*
X171601894Y-48779000D02*
X172918106Y-48779000D01*
G75*
G02*
X173186000Y-49046894I0J-267894D01*
G01*
X173186000Y-50038106D01*
G75*
G02*
X172918106Y-50306000I-267894J0D01*
G01*
X171601894Y-50306000D01*
G75*
G02*
X171334000Y-50038106I0J267894D01*
G01*
X171334000Y-49046894D01*
G75*
G02*
X171601894Y-48779000I267894J0D01*
G01*
G37*
G36*
G01*
X171601894Y-42779000D02*
X172918106Y-42779000D01*
G75*
G02*
X173186000Y-43046894I0J-267894D01*
G01*
X173186000Y-44038106D01*
G75*
G02*
X172918106Y-44306000I-267894J0D01*
G01*
X171601894Y-44306000D01*
G75*
G02*
X171334000Y-44038106I0J267894D01*
G01*
X171334000Y-43046894D01*
G75*
G02*
X171601894Y-42779000I267894J0D01*
G01*
G37*
G36*
G01*
X171601894Y-45754000D02*
X172918106Y-45754000D01*
G75*
G02*
X173186000Y-46021894I0J-267894D01*
G01*
X173186000Y-47013106D01*
G75*
G02*
X172918106Y-47281000I-267894J0D01*
G01*
X171601894Y-47281000D01*
G75*
G02*
X171334000Y-47013106I0J267894D01*
G01*
X171334000Y-46021894D01*
G75*
G02*
X171601894Y-45754000I267894J0D01*
G01*
G37*
D11*
X174880000Y-35210000D03*
X169800000Y-35200000D03*
G36*
G01*
X184841894Y-40649000D02*
X186158106Y-40649000D01*
G75*
G02*
X186426000Y-40916894I0J-267894D01*
G01*
X186426000Y-41908106D01*
G75*
G02*
X186158106Y-42176000I-267894J0D01*
G01*
X184841894Y-42176000D01*
G75*
G02*
X184574000Y-41908106I0J267894D01*
G01*
X184574000Y-40916894D01*
G75*
G02*
X184841894Y-40649000I267894J0D01*
G01*
G37*
G36*
G01*
X184841894Y-43624000D02*
X186158106Y-43624000D01*
G75*
G02*
X186426000Y-43891894I0J-267894D01*
G01*
X186426000Y-44883106D01*
G75*
G02*
X186158106Y-45151000I-267894J0D01*
G01*
X184841894Y-45151000D01*
G75*
G02*
X184574000Y-44883106I0J267894D01*
G01*
X184574000Y-43891894D01*
G75*
G02*
X184841894Y-43624000I267894J0D01*
G01*
G37*
D12*
X192000000Y-29000000D03*
X187000000Y-29000000D03*
D13*
X197500000Y-27500000D03*
D12*
X186900000Y-32000000D03*
X191900000Y-32000000D03*
G36*
G01*
X182596500Y-26000000D02*
X182596500Y-24000000D01*
G75*
G02*
X182647500Y-23949000I51000J0D01*
G01*
X184552500Y-23949000D01*
G75*
G02*
X184603500Y-24000000I0J-51000D01*
G01*
X184603500Y-26000000D01*
G75*
G02*
X184552500Y-26051000I-51000J0D01*
G01*
X182647500Y-26051000D01*
G75*
G02*
X182596500Y-26000000I0J51000D01*
G01*
G37*
D14*
X186140000Y-25000000D03*
X188680000Y-25000000D03*
D13*
X197500000Y-101900000D03*
X159000000Y-101900000D03*
X159000000Y-27500000D03*
D15*
X163330000Y-36920000D03*
G36*
G01*
X163800000Y-54149000D02*
X165400000Y-54149000D01*
G75*
G02*
X165451000Y-54200000I0J-51000D01*
G01*
X165451000Y-55800000D01*
G75*
G02*
X165400000Y-55851000I-51000J0D01*
G01*
X163800000Y-55851000D01*
G75*
G02*
X163749000Y-55800000I0J51000D01*
G01*
X163749000Y-54200000D01*
G75*
G02*
X163800000Y-54149000I51000J0D01*
G01*
G37*
D12*
X164600000Y-52230000D03*
X164600000Y-49460000D03*
X164600000Y-46690000D03*
X164600000Y-43920000D03*
X162060000Y-53615000D03*
X162060000Y-50845000D03*
X162060000Y-48075000D03*
X162060000Y-45305000D03*
D15*
X163330000Y-62000000D03*
D16*
X162800000Y-94155000D03*
X162800000Y-82725000D03*
G36*
G01*
X168266534Y-83199000D02*
X169333466Y-83199000D01*
G75*
G02*
X169601000Y-83466534I0J-267534D01*
G01*
X169601000Y-84533466D01*
G75*
G02*
X169333466Y-84801000I-267534J0D01*
G01*
X168266534Y-84801000D01*
G75*
G02*
X167999000Y-84533466I0J267534D01*
G01*
X167999000Y-83466534D01*
G75*
G02*
X168266534Y-83199000I267534J0D01*
G01*
G37*
D17*
X171340000Y-85260000D03*
X168800000Y-86540000D03*
X171340000Y-87800000D03*
X168800000Y-89080000D03*
X171340000Y-90340000D03*
X168800000Y-91620000D03*
D18*
X165800000Y-80695000D03*
D17*
X171340000Y-92880000D03*
D18*
X165800000Y-96185000D03*
D19*
X164600000Y-72000000D03*
X166600000Y-72000000D03*
X168600000Y-72000000D03*
X170600000Y-72000000D03*
D20*
X170800000Y-69000000D03*
X170800000Y-75000000D03*
X163800000Y-69000000D03*
X163800000Y-75000000D03*
G36*
G01*
X170190000Y-99849000D02*
X171890000Y-99849000D01*
G75*
G02*
X171941000Y-99900000I0J-51000D01*
G01*
X171941000Y-101600000D01*
G75*
G02*
X171890000Y-101651000I-51000J0D01*
G01*
X170190000Y-101651000D01*
G75*
G02*
X170139000Y-101600000I0J51000D01*
G01*
X170139000Y-99900000D01*
G75*
G02*
X170190000Y-99849000I51000J0D01*
G01*
G37*
D21*
X168500000Y-100750000D03*
G36*
G01*
X165599000Y-26250000D02*
X165599000Y-23750000D01*
G75*
G02*
X165650000Y-23699000I51000J0D01*
G01*
X168150000Y-23699000D01*
G75*
G02*
X168201000Y-23750000I0J-51000D01*
G01*
X168201000Y-26250000D01*
G75*
G02*
X168150000Y-26301000I-51000J0D01*
G01*
X165650000Y-26301000D01*
G75*
G02*
X165599000Y-26250000I0J51000D01*
G01*
G37*
D22*
X171900000Y-25000000D03*
X176900000Y-25000000D03*
G36*
G01*
X184300000Y-39651000D02*
X182500000Y-39651000D01*
G75*
G02*
X182449000Y-39600000I0J51000D01*
G01*
X182449000Y-37800000D01*
G75*
G02*
X182500000Y-37749000I51000J0D01*
G01*
X184300000Y-37749000D01*
G75*
G02*
X184351000Y-37800000I0J-51000D01*
G01*
X184351000Y-39600000D01*
G75*
G02*
X184300000Y-39651000I-51000J0D01*
G01*
G37*
D23*
X183400000Y-31080000D03*
X179800000Y-31080000D03*
G36*
G01*
X180700000Y-39651000D02*
X178900000Y-39651000D01*
G75*
G02*
X178849000Y-39600000I0J51000D01*
G01*
X178849000Y-37800000D01*
G75*
G02*
X178900000Y-37749000I51000J0D01*
G01*
X180700000Y-37749000D01*
G75*
G02*
X180751000Y-37800000I0J-51000D01*
G01*
X180751000Y-39600000D01*
G75*
G02*
X180700000Y-39651000I-51000J0D01*
G01*
G37*
D21*
X188380000Y-69000000D03*
X190920000Y-69000000D03*
X193460000Y-69000000D03*
G36*
G01*
X195150000Y-68099000D02*
X196850000Y-68099000D01*
G75*
G02*
X196901000Y-68150000I0J-51000D01*
G01*
X196901000Y-69850000D01*
G75*
G02*
X196850000Y-69901000I-51000J0D01*
G01*
X195150000Y-69901000D01*
G75*
G02*
X195099000Y-69850000I0J51000D01*
G01*
X195099000Y-68150000D01*
G75*
G02*
X195150000Y-68099000I51000J0D01*
G01*
G37*
G36*
G01*
X180850000Y-77901000D02*
X179150000Y-77901000D01*
G75*
G02*
X179099000Y-77850000I0J51000D01*
G01*
X179099000Y-76150000D01*
G75*
G02*
X179150000Y-76099000I51000J0D01*
G01*
X180850000Y-76099000D01*
G75*
G02*
X180901000Y-76150000I0J-51000D01*
G01*
X180901000Y-77850000D01*
G75*
G02*
X180850000Y-77901000I-51000J0D01*
G01*
G37*
X182540000Y-77000000D03*
X185080000Y-77000000D03*
X187620000Y-77000000D03*
X195000000Y-96080000D03*
X195000000Y-93540000D03*
G36*
G01*
X194099000Y-91850000D02*
X194099000Y-90150000D01*
G75*
G02*
X194150000Y-90099000I51000J0D01*
G01*
X195850000Y-90099000D01*
G75*
G02*
X195901000Y-90150000I0J-51000D01*
G01*
X195901000Y-91850000D01*
G75*
G02*
X195850000Y-91901000I-51000J0D01*
G01*
X194150000Y-91901000D01*
G75*
G02*
X194099000Y-91850000I0J51000D01*
G01*
G37*
G36*
G01*
X194099000Y-82350000D02*
X194099000Y-80650000D01*
G75*
G02*
X194150000Y-80599000I51000J0D01*
G01*
X195850000Y-80599000D01*
G75*
G02*
X195901000Y-80650000I0J-51000D01*
G01*
X195901000Y-82350000D01*
G75*
G02*
X195850000Y-82401000I-51000J0D01*
G01*
X194150000Y-82401000D01*
G75*
G02*
X194099000Y-82350000I0J51000D01*
G01*
G37*
X195000000Y-84040000D03*
X195000000Y-86580000D03*
G36*
G01*
X195310000Y-76901000D02*
X193610000Y-76901000D01*
G75*
G02*
X193559000Y-76850000I0J51000D01*
G01*
X193559000Y-75150000D01*
G75*
G02*
X193610000Y-75099000I51000J0D01*
G01*
X195310000Y-75099000D01*
G75*
G02*
X195361000Y-75150000I0J-51000D01*
G01*
X195361000Y-76850000D01*
G75*
G02*
X195310000Y-76901000I-51000J0D01*
G01*
G37*
X197000000Y-76000000D03*
M02*
