G04 #@! TF.GenerationSoftware,KiCad,Pcbnew,5.1.4*
G04 #@! TF.CreationDate,2019-10-01T21:08:12+02:00*
G04 #@! TF.ProjectId,bluetoothkiste,626c7565-746f-46f7-9468-6b697374652e,rev?*
G04 #@! TF.SameCoordinates,Original*
G04 #@! TF.FileFunction,Soldermask,Top*
G04 #@! TF.FilePolarity,Negative*
%FSLAX46Y46*%
G04 Gerber Fmt 4.6, Leading zero omitted, Abs format (unit mm)*
G04 Created by KiCad (PCBNEW 5.1.4) date 2019-10-01 21:08:12*
%MOMM*%
%LPD*%
G04 APERTURE LIST*
%ADD10C,0.100000*%
G04 APERTURE END LIST*
D10*
G36*
X197875256Y-100291298D02*
G01*
X197981579Y-100312447D01*
X198282042Y-100436903D01*
X198552451Y-100617585D01*
X198782415Y-100847549D01*
X198963097Y-101117958D01*
X199075858Y-101390186D01*
X199087553Y-101418422D01*
X199120975Y-101586442D01*
X199151000Y-101737391D01*
X199151000Y-102062609D01*
X199087553Y-102381579D01*
X198963097Y-102682042D01*
X198782415Y-102952451D01*
X198552451Y-103182415D01*
X198282042Y-103363097D01*
X197981579Y-103487553D01*
X197875256Y-103508702D01*
X197662611Y-103551000D01*
X197337389Y-103551000D01*
X197124744Y-103508702D01*
X197018421Y-103487553D01*
X196717958Y-103363097D01*
X196447549Y-103182415D01*
X196217585Y-102952451D01*
X196036903Y-102682042D01*
X195912447Y-102381579D01*
X195849000Y-102062609D01*
X195849000Y-101737391D01*
X195879026Y-101586442D01*
X195912447Y-101418422D01*
X195924143Y-101390186D01*
X196036903Y-101117958D01*
X196217585Y-100847549D01*
X196447549Y-100617585D01*
X196717958Y-100436903D01*
X197018421Y-100312447D01*
X197124744Y-100291298D01*
X197337389Y-100249000D01*
X197662611Y-100249000D01*
X197875256Y-100291298D01*
X197875256Y-100291298D01*
G37*
G36*
X159375256Y-100291298D02*
G01*
X159481579Y-100312447D01*
X159782042Y-100436903D01*
X160052451Y-100617585D01*
X160282415Y-100847549D01*
X160463097Y-101117958D01*
X160575858Y-101390186D01*
X160587553Y-101418422D01*
X160620975Y-101586442D01*
X160651000Y-101737391D01*
X160651000Y-102062609D01*
X160587553Y-102381579D01*
X160463097Y-102682042D01*
X160282415Y-102952451D01*
X160052451Y-103182415D01*
X159782042Y-103363097D01*
X159481579Y-103487553D01*
X159375256Y-103508702D01*
X159162611Y-103551000D01*
X158837389Y-103551000D01*
X158624744Y-103508702D01*
X158518421Y-103487553D01*
X158217958Y-103363097D01*
X157947549Y-103182415D01*
X157717585Y-102952451D01*
X157536903Y-102682042D01*
X157412447Y-102381579D01*
X157349000Y-102062609D01*
X157349000Y-101737391D01*
X157379026Y-101586442D01*
X157412447Y-101418422D01*
X157424143Y-101390186D01*
X157536903Y-101117958D01*
X157717585Y-100847549D01*
X157947549Y-100617585D01*
X158217958Y-100436903D01*
X158518421Y-100312447D01*
X158624744Y-100291298D01*
X158837389Y-100249000D01*
X159162611Y-100249000D01*
X159375256Y-100291298D01*
X159375256Y-100291298D01*
G37*
G36*
X168610442Y-99855518D02*
G01*
X168676627Y-99862037D01*
X168846466Y-99913557D01*
X169002991Y-99997222D01*
X169038729Y-100026552D01*
X169140186Y-100109814D01*
X169223448Y-100211271D01*
X169252778Y-100247009D01*
X169336443Y-100403534D01*
X169387963Y-100573373D01*
X169405359Y-100750000D01*
X169387963Y-100926627D01*
X169336443Y-101096466D01*
X169252778Y-101252991D01*
X169223448Y-101288729D01*
X169140186Y-101390186D01*
X169038729Y-101473448D01*
X169002991Y-101502778D01*
X168846466Y-101586443D01*
X168676627Y-101637963D01*
X168610442Y-101644482D01*
X168544260Y-101651000D01*
X168455740Y-101651000D01*
X168389557Y-101644481D01*
X168323373Y-101637963D01*
X168153534Y-101586443D01*
X167997009Y-101502778D01*
X167961271Y-101473448D01*
X167859814Y-101390186D01*
X167776552Y-101288729D01*
X167747222Y-101252991D01*
X167663557Y-101096466D01*
X167612037Y-100926627D01*
X167594641Y-100750000D01*
X167612037Y-100573373D01*
X167663557Y-100403534D01*
X167747222Y-100247009D01*
X167776552Y-100211271D01*
X167859814Y-100109814D01*
X167961271Y-100026552D01*
X167997009Y-99997222D01*
X168153534Y-99913557D01*
X168323373Y-99862037D01*
X168389557Y-99855519D01*
X168455740Y-99849000D01*
X168544260Y-99849000D01*
X168610442Y-99855518D01*
X168610442Y-99855518D01*
G37*
G36*
X171941000Y-101651000D02*
G01*
X170139000Y-101651000D01*
X170139000Y-99849000D01*
X171941000Y-99849000D01*
X171941000Y-101651000D01*
X171941000Y-101651000D01*
G37*
G36*
X166513855Y-95537140D02*
G01*
X166577618Y-95543420D01*
X166668404Y-95570960D01*
X166700336Y-95580646D01*
X166813425Y-95641094D01*
X166912554Y-95722446D01*
X166993906Y-95821575D01*
X167054354Y-95934664D01*
X167054355Y-95934668D01*
X167091580Y-96057382D01*
X167104149Y-96185000D01*
X167091580Y-96312618D01*
X167064040Y-96403404D01*
X167054354Y-96435336D01*
X166993906Y-96548425D01*
X166912554Y-96647554D01*
X166813425Y-96728906D01*
X166700336Y-96789354D01*
X166668404Y-96799040D01*
X166577618Y-96826580D01*
X166513855Y-96832860D01*
X166481974Y-96836000D01*
X165118026Y-96836000D01*
X165086145Y-96832860D01*
X165022382Y-96826580D01*
X164931596Y-96799040D01*
X164899664Y-96789354D01*
X164786575Y-96728906D01*
X164687446Y-96647554D01*
X164606094Y-96548425D01*
X164545646Y-96435336D01*
X164535960Y-96403404D01*
X164508420Y-96312618D01*
X164495851Y-96185000D01*
X164508420Y-96057382D01*
X164545645Y-95934668D01*
X164545646Y-95934664D01*
X164606094Y-95821575D01*
X164687446Y-95722446D01*
X164786575Y-95641094D01*
X164899664Y-95580646D01*
X164931596Y-95570960D01*
X165022382Y-95543420D01*
X165086145Y-95537140D01*
X165118026Y-95534000D01*
X166481974Y-95534000D01*
X166513855Y-95537140D01*
X166513855Y-95537140D01*
G37*
G36*
X163073592Y-92500586D02*
G01*
X163288871Y-92543408D01*
X163593883Y-92669748D01*
X163868387Y-92853166D01*
X164101834Y-93086613D01*
X164285252Y-93361117D01*
X164411592Y-93666129D01*
X164476000Y-93989928D01*
X164476000Y-94320072D01*
X164411592Y-94643871D01*
X164285252Y-94948883D01*
X164101834Y-95223387D01*
X163868387Y-95456834D01*
X163593883Y-95640252D01*
X163288871Y-95766592D01*
X162965073Y-95831000D01*
X162634927Y-95831000D01*
X162311129Y-95766592D01*
X162006117Y-95640252D01*
X161731613Y-95456834D01*
X161498166Y-95223387D01*
X161314748Y-94948883D01*
X161188408Y-94643871D01*
X161124000Y-94320072D01*
X161124000Y-93989928D01*
X161188408Y-93666129D01*
X161314748Y-93361117D01*
X161498166Y-93086613D01*
X161731613Y-92853166D01*
X162006117Y-92669748D01*
X162311129Y-92543408D01*
X162526408Y-92500586D01*
X162634927Y-92479000D01*
X162965073Y-92479000D01*
X163073592Y-92500586D01*
X163073592Y-92500586D01*
G37*
G36*
X171573642Y-92109781D02*
G01*
X171719414Y-92170162D01*
X171719416Y-92170163D01*
X171850608Y-92257822D01*
X171962178Y-92369392D01*
X171996661Y-92421000D01*
X172049838Y-92500586D01*
X172110219Y-92646358D01*
X172141000Y-92801107D01*
X172141000Y-92958893D01*
X172110219Y-93113642D01*
X172049838Y-93259414D01*
X172049837Y-93259416D01*
X171962178Y-93390608D01*
X171850608Y-93502178D01*
X171719416Y-93589837D01*
X171719415Y-93589838D01*
X171719414Y-93589838D01*
X171573642Y-93650219D01*
X171418893Y-93681000D01*
X171261107Y-93681000D01*
X171106358Y-93650219D01*
X170960586Y-93589838D01*
X170960585Y-93589838D01*
X170960584Y-93589837D01*
X170829392Y-93502178D01*
X170717822Y-93390608D01*
X170630163Y-93259416D01*
X170630162Y-93259414D01*
X170569781Y-93113642D01*
X170539000Y-92958893D01*
X170539000Y-92801107D01*
X170569781Y-92646358D01*
X170630162Y-92500586D01*
X170683339Y-92421000D01*
X170717822Y-92369392D01*
X170829392Y-92257822D01*
X170960584Y-92170163D01*
X170960586Y-92170162D01*
X171106358Y-92109781D01*
X171261107Y-92079000D01*
X171418893Y-92079000D01*
X171573642Y-92109781D01*
X171573642Y-92109781D01*
G37*
G36*
X169033642Y-90849781D02*
G01*
X169179414Y-90910162D01*
X169179416Y-90910163D01*
X169310608Y-90997822D01*
X169422178Y-91109392D01*
X169509837Y-91240584D01*
X169509838Y-91240586D01*
X169570219Y-91386358D01*
X169601000Y-91541107D01*
X169601000Y-91698893D01*
X169570219Y-91853642D01*
X169509838Y-91999414D01*
X169509837Y-91999416D01*
X169422178Y-92130608D01*
X169310608Y-92242178D01*
X169179416Y-92329837D01*
X169179415Y-92329838D01*
X169179414Y-92329838D01*
X169033642Y-92390219D01*
X168878893Y-92421000D01*
X168721107Y-92421000D01*
X168566358Y-92390219D01*
X168420586Y-92329838D01*
X168420585Y-92329838D01*
X168420584Y-92329837D01*
X168289392Y-92242178D01*
X168177822Y-92130608D01*
X168090163Y-91999416D01*
X168090162Y-91999414D01*
X168029781Y-91853642D01*
X167999000Y-91698893D01*
X167999000Y-91541107D01*
X168029781Y-91386358D01*
X168090162Y-91240586D01*
X168090163Y-91240584D01*
X168177822Y-91109392D01*
X168289392Y-90997822D01*
X168420584Y-90910163D01*
X168420586Y-90910162D01*
X168566358Y-90849781D01*
X168721107Y-90819000D01*
X168878893Y-90819000D01*
X169033642Y-90849781D01*
X169033642Y-90849781D01*
G37*
G36*
X171573642Y-89569781D02*
G01*
X171719414Y-89630162D01*
X171719416Y-89630163D01*
X171850608Y-89717822D01*
X171962178Y-89829392D01*
X171996661Y-89881000D01*
X172049838Y-89960586D01*
X172110219Y-90106358D01*
X172141000Y-90261107D01*
X172141000Y-90418893D01*
X172110219Y-90573642D01*
X172049838Y-90719414D01*
X172049837Y-90719416D01*
X171962178Y-90850608D01*
X171850608Y-90962178D01*
X171719416Y-91049837D01*
X171719415Y-91049838D01*
X171719414Y-91049838D01*
X171573642Y-91110219D01*
X171418893Y-91141000D01*
X171261107Y-91141000D01*
X171106358Y-91110219D01*
X170960586Y-91049838D01*
X170960585Y-91049838D01*
X170960584Y-91049837D01*
X170829392Y-90962178D01*
X170717822Y-90850608D01*
X170630163Y-90719416D01*
X170630162Y-90719414D01*
X170569781Y-90573642D01*
X170539000Y-90418893D01*
X170539000Y-90261107D01*
X170569781Y-90106358D01*
X170630162Y-89960586D01*
X170683339Y-89881000D01*
X170717822Y-89829392D01*
X170829392Y-89717822D01*
X170960584Y-89630163D01*
X170960586Y-89630162D01*
X171106358Y-89569781D01*
X171261107Y-89539000D01*
X171418893Y-89539000D01*
X171573642Y-89569781D01*
X171573642Y-89569781D01*
G37*
G36*
X169033642Y-88309781D02*
G01*
X169179414Y-88370162D01*
X169179416Y-88370163D01*
X169310608Y-88457822D01*
X169422178Y-88569392D01*
X169509837Y-88700584D01*
X169509838Y-88700586D01*
X169570219Y-88846358D01*
X169601000Y-89001107D01*
X169601000Y-89158893D01*
X169570219Y-89313642D01*
X169509838Y-89459414D01*
X169509837Y-89459416D01*
X169422178Y-89590608D01*
X169310608Y-89702178D01*
X169179416Y-89789837D01*
X169179415Y-89789838D01*
X169179414Y-89789838D01*
X169033642Y-89850219D01*
X168878893Y-89881000D01*
X168721107Y-89881000D01*
X168566358Y-89850219D01*
X168420586Y-89789838D01*
X168420585Y-89789838D01*
X168420584Y-89789837D01*
X168289392Y-89702178D01*
X168177822Y-89590608D01*
X168090163Y-89459416D01*
X168090162Y-89459414D01*
X168029781Y-89313642D01*
X167999000Y-89158893D01*
X167999000Y-89001107D01*
X168029781Y-88846358D01*
X168090162Y-88700586D01*
X168090163Y-88700584D01*
X168177822Y-88569392D01*
X168289392Y-88457822D01*
X168420584Y-88370163D01*
X168420586Y-88370162D01*
X168566358Y-88309781D01*
X168721107Y-88279000D01*
X168878893Y-88279000D01*
X169033642Y-88309781D01*
X169033642Y-88309781D01*
G37*
G36*
X171573642Y-87029781D02*
G01*
X171719414Y-87090162D01*
X171719416Y-87090163D01*
X171850608Y-87177822D01*
X171962178Y-87289392D01*
X171996661Y-87341000D01*
X172049838Y-87420586D01*
X172110219Y-87566358D01*
X172141000Y-87721107D01*
X172141000Y-87878893D01*
X172110219Y-88033642D01*
X172049838Y-88179414D01*
X172049837Y-88179416D01*
X171962178Y-88310608D01*
X171850608Y-88422178D01*
X171719416Y-88509837D01*
X171719415Y-88509838D01*
X171719414Y-88509838D01*
X171573642Y-88570219D01*
X171418893Y-88601000D01*
X171261107Y-88601000D01*
X171106358Y-88570219D01*
X170960586Y-88509838D01*
X170960585Y-88509838D01*
X170960584Y-88509837D01*
X170829392Y-88422178D01*
X170717822Y-88310608D01*
X170630163Y-88179416D01*
X170630162Y-88179414D01*
X170569781Y-88033642D01*
X170539000Y-87878893D01*
X170539000Y-87721107D01*
X170569781Y-87566358D01*
X170630162Y-87420586D01*
X170683339Y-87341000D01*
X170717822Y-87289392D01*
X170829392Y-87177822D01*
X170960584Y-87090163D01*
X170960586Y-87090162D01*
X171106358Y-87029781D01*
X171261107Y-86999000D01*
X171418893Y-86999000D01*
X171573642Y-87029781D01*
X171573642Y-87029781D01*
G37*
G36*
X169033642Y-85769781D02*
G01*
X169179414Y-85830162D01*
X169179416Y-85830163D01*
X169310608Y-85917822D01*
X169422178Y-86029392D01*
X169509837Y-86160584D01*
X169509838Y-86160586D01*
X169570219Y-86306358D01*
X169601000Y-86461107D01*
X169601000Y-86618893D01*
X169570219Y-86773642D01*
X169509838Y-86919414D01*
X169509837Y-86919416D01*
X169422178Y-87050608D01*
X169310608Y-87162178D01*
X169179416Y-87249837D01*
X169179415Y-87249838D01*
X169179414Y-87249838D01*
X169033642Y-87310219D01*
X168878893Y-87341000D01*
X168721107Y-87341000D01*
X168566358Y-87310219D01*
X168420586Y-87249838D01*
X168420585Y-87249838D01*
X168420584Y-87249837D01*
X168289392Y-87162178D01*
X168177822Y-87050608D01*
X168090163Y-86919416D01*
X168090162Y-86919414D01*
X168029781Y-86773642D01*
X167999000Y-86618893D01*
X167999000Y-86461107D01*
X168029781Y-86306358D01*
X168090162Y-86160586D01*
X168090163Y-86160584D01*
X168177822Y-86029392D01*
X168289392Y-85917822D01*
X168420584Y-85830163D01*
X168420586Y-85830162D01*
X168566358Y-85769781D01*
X168721107Y-85739000D01*
X168878893Y-85739000D01*
X169033642Y-85769781D01*
X169033642Y-85769781D01*
G37*
G36*
X171573642Y-84489781D02*
G01*
X171679106Y-84533466D01*
X171719416Y-84550163D01*
X171850608Y-84637822D01*
X171962178Y-84749392D01*
X171996661Y-84801000D01*
X172049838Y-84880586D01*
X172110219Y-85026358D01*
X172141000Y-85181107D01*
X172141000Y-85338893D01*
X172110219Y-85493642D01*
X172049838Y-85639414D01*
X172049837Y-85639416D01*
X171962178Y-85770608D01*
X171850608Y-85882178D01*
X171719416Y-85969837D01*
X171719415Y-85969838D01*
X171719414Y-85969838D01*
X171573642Y-86030219D01*
X171418893Y-86061000D01*
X171261107Y-86061000D01*
X171106358Y-86030219D01*
X170960586Y-85969838D01*
X170960585Y-85969838D01*
X170960584Y-85969837D01*
X170829392Y-85882178D01*
X170717822Y-85770608D01*
X170630163Y-85639416D01*
X170630162Y-85639414D01*
X170569781Y-85493642D01*
X170539000Y-85338893D01*
X170539000Y-85181107D01*
X170569781Y-85026358D01*
X170630162Y-84880586D01*
X170683339Y-84801000D01*
X170717822Y-84749392D01*
X170829392Y-84637822D01*
X170960584Y-84550163D01*
X171000894Y-84533466D01*
X171106358Y-84489781D01*
X171261107Y-84459000D01*
X171418893Y-84459000D01*
X171573642Y-84489781D01*
X171573642Y-84489781D01*
G37*
G36*
X169452546Y-83203134D02*
G01*
X169487010Y-83213589D01*
X169518761Y-83230560D01*
X169546597Y-83253403D01*
X169569440Y-83281239D01*
X169586411Y-83312990D01*
X169596866Y-83347454D01*
X169601000Y-83389425D01*
X169601000Y-84610575D01*
X169596866Y-84652546D01*
X169586411Y-84687010D01*
X169569440Y-84718761D01*
X169546597Y-84746597D01*
X169518761Y-84769440D01*
X169487010Y-84786411D01*
X169452546Y-84796866D01*
X169410575Y-84801000D01*
X168189425Y-84801000D01*
X168147454Y-84796866D01*
X168112990Y-84786411D01*
X168081239Y-84769440D01*
X168053403Y-84746597D01*
X168030560Y-84718761D01*
X168013589Y-84687010D01*
X168003134Y-84652546D01*
X167999000Y-84610575D01*
X167999000Y-83389425D01*
X168003134Y-83347454D01*
X168013589Y-83312990D01*
X168030560Y-83281239D01*
X168053403Y-83253403D01*
X168081239Y-83230560D01*
X168112990Y-83213589D01*
X168147454Y-83203134D01*
X168189425Y-83199000D01*
X169410575Y-83199000D01*
X169452546Y-83203134D01*
X169452546Y-83203134D01*
G37*
G36*
X163126971Y-81081204D02*
G01*
X163288871Y-81113408D01*
X163593883Y-81239748D01*
X163868387Y-81423166D01*
X164101834Y-81656613D01*
X164285252Y-81931117D01*
X164411592Y-82236129D01*
X164476000Y-82559928D01*
X164476000Y-82890072D01*
X164411592Y-83213871D01*
X164285252Y-83518883D01*
X164101834Y-83793387D01*
X163868387Y-84026834D01*
X163593883Y-84210252D01*
X163288871Y-84336592D01*
X162965073Y-84401000D01*
X162634927Y-84401000D01*
X162473029Y-84368796D01*
X162311129Y-84336592D01*
X162006117Y-84210252D01*
X161731613Y-84026834D01*
X161498166Y-83793387D01*
X161314748Y-83518883D01*
X161188408Y-83213871D01*
X161124000Y-82890072D01*
X161124000Y-82559928D01*
X161188408Y-82236129D01*
X161314748Y-81931117D01*
X161498166Y-81656613D01*
X161731613Y-81423166D01*
X162006117Y-81239748D01*
X162311129Y-81113408D01*
X162634927Y-81049000D01*
X162965073Y-81049000D01*
X163126971Y-81081204D01*
X163126971Y-81081204D01*
G37*
G36*
X166513855Y-80047140D02*
G01*
X166577618Y-80053420D01*
X166668404Y-80080960D01*
X166700336Y-80090646D01*
X166813425Y-80151094D01*
X166912554Y-80232446D01*
X166993906Y-80331575D01*
X167054354Y-80444664D01*
X167054355Y-80444668D01*
X167091580Y-80567382D01*
X167104149Y-80695000D01*
X167091580Y-80822618D01*
X167064040Y-80913404D01*
X167054354Y-80945336D01*
X166993906Y-81058425D01*
X166912554Y-81157554D01*
X166813425Y-81238906D01*
X166700336Y-81299354D01*
X166668404Y-81309040D01*
X166577618Y-81336580D01*
X166513855Y-81342860D01*
X166481974Y-81346000D01*
X165118026Y-81346000D01*
X165086145Y-81342860D01*
X165022382Y-81336580D01*
X164931596Y-81309040D01*
X164899664Y-81299354D01*
X164786575Y-81238906D01*
X164687446Y-81157554D01*
X164606094Y-81058425D01*
X164545646Y-80945336D01*
X164535960Y-80913404D01*
X164508420Y-80822618D01*
X164495851Y-80695000D01*
X164508420Y-80567382D01*
X164545645Y-80444668D01*
X164545646Y-80444664D01*
X164606094Y-80331575D01*
X164687446Y-80232446D01*
X164786575Y-80151094D01*
X164899664Y-80090646D01*
X164931596Y-80080960D01*
X165022382Y-80053420D01*
X165086145Y-80047140D01*
X165118026Y-80044000D01*
X166481974Y-80044000D01*
X166513855Y-80047140D01*
X166513855Y-80047140D01*
G37*
G36*
X187730443Y-76105519D02*
G01*
X187796627Y-76112037D01*
X187966466Y-76163557D01*
X188122991Y-76247222D01*
X188158729Y-76276552D01*
X188260186Y-76359814D01*
X188343448Y-76461271D01*
X188372778Y-76497009D01*
X188456443Y-76653534D01*
X188507963Y-76823373D01*
X188525359Y-77000000D01*
X188507963Y-77176627D01*
X188456443Y-77346466D01*
X188372778Y-77502991D01*
X188343448Y-77538729D01*
X188260186Y-77640186D01*
X188158729Y-77723448D01*
X188122991Y-77752778D01*
X187966466Y-77836443D01*
X187796627Y-77887963D01*
X187730442Y-77894482D01*
X187664260Y-77901000D01*
X187575740Y-77901000D01*
X187509558Y-77894482D01*
X187443373Y-77887963D01*
X187273534Y-77836443D01*
X187117009Y-77752778D01*
X187081271Y-77723448D01*
X186979814Y-77640186D01*
X186896552Y-77538729D01*
X186867222Y-77502991D01*
X186783557Y-77346466D01*
X186732037Y-77176627D01*
X186714641Y-77000000D01*
X186732037Y-76823373D01*
X186783557Y-76653534D01*
X186867222Y-76497009D01*
X186896552Y-76461271D01*
X186979814Y-76359814D01*
X187081271Y-76276552D01*
X187117009Y-76247222D01*
X187273534Y-76163557D01*
X187443373Y-76112037D01*
X187509557Y-76105519D01*
X187575740Y-76099000D01*
X187664260Y-76099000D01*
X187730443Y-76105519D01*
X187730443Y-76105519D01*
G37*
G36*
X185190443Y-76105519D02*
G01*
X185256627Y-76112037D01*
X185426466Y-76163557D01*
X185582991Y-76247222D01*
X185618729Y-76276552D01*
X185720186Y-76359814D01*
X185803448Y-76461271D01*
X185832778Y-76497009D01*
X185916443Y-76653534D01*
X185967963Y-76823373D01*
X185985359Y-77000000D01*
X185967963Y-77176627D01*
X185916443Y-77346466D01*
X185832778Y-77502991D01*
X185803448Y-77538729D01*
X185720186Y-77640186D01*
X185618729Y-77723448D01*
X185582991Y-77752778D01*
X185426466Y-77836443D01*
X185256627Y-77887963D01*
X185190442Y-77894482D01*
X185124260Y-77901000D01*
X185035740Y-77901000D01*
X184969558Y-77894482D01*
X184903373Y-77887963D01*
X184733534Y-77836443D01*
X184577009Y-77752778D01*
X184541271Y-77723448D01*
X184439814Y-77640186D01*
X184356552Y-77538729D01*
X184327222Y-77502991D01*
X184243557Y-77346466D01*
X184192037Y-77176627D01*
X184174641Y-77000000D01*
X184192037Y-76823373D01*
X184243557Y-76653534D01*
X184327222Y-76497009D01*
X184356552Y-76461271D01*
X184439814Y-76359814D01*
X184541271Y-76276552D01*
X184577009Y-76247222D01*
X184733534Y-76163557D01*
X184903373Y-76112037D01*
X184969557Y-76105519D01*
X185035740Y-76099000D01*
X185124260Y-76099000D01*
X185190443Y-76105519D01*
X185190443Y-76105519D01*
G37*
G36*
X182650443Y-76105519D02*
G01*
X182716627Y-76112037D01*
X182886466Y-76163557D01*
X183042991Y-76247222D01*
X183078729Y-76276552D01*
X183180186Y-76359814D01*
X183263448Y-76461271D01*
X183292778Y-76497009D01*
X183376443Y-76653534D01*
X183427963Y-76823373D01*
X183445359Y-77000000D01*
X183427963Y-77176627D01*
X183376443Y-77346466D01*
X183292778Y-77502991D01*
X183263448Y-77538729D01*
X183180186Y-77640186D01*
X183078729Y-77723448D01*
X183042991Y-77752778D01*
X182886466Y-77836443D01*
X182716627Y-77887963D01*
X182650442Y-77894482D01*
X182584260Y-77901000D01*
X182495740Y-77901000D01*
X182429558Y-77894482D01*
X182363373Y-77887963D01*
X182193534Y-77836443D01*
X182037009Y-77752778D01*
X182001271Y-77723448D01*
X181899814Y-77640186D01*
X181816552Y-77538729D01*
X181787222Y-77502991D01*
X181703557Y-77346466D01*
X181652037Y-77176627D01*
X181634641Y-77000000D01*
X181652037Y-76823373D01*
X181703557Y-76653534D01*
X181787222Y-76497009D01*
X181816552Y-76461271D01*
X181899814Y-76359814D01*
X182001271Y-76276552D01*
X182037009Y-76247222D01*
X182193534Y-76163557D01*
X182363373Y-76112037D01*
X182429557Y-76105519D01*
X182495740Y-76099000D01*
X182584260Y-76099000D01*
X182650443Y-76105519D01*
X182650443Y-76105519D01*
G37*
G36*
X180901000Y-77901000D02*
G01*
X179099000Y-77901000D01*
X179099000Y-76099000D01*
X180901000Y-76099000D01*
X180901000Y-77901000D01*
X180901000Y-77901000D01*
G37*
G36*
X171073665Y-74252622D02*
G01*
X171147222Y-74259867D01*
X171288786Y-74302810D01*
X171419252Y-74372546D01*
X171449040Y-74396992D01*
X171533607Y-74466393D01*
X171603008Y-74550960D01*
X171627454Y-74580748D01*
X171697190Y-74711214D01*
X171740133Y-74852778D01*
X171754633Y-75000000D01*
X171740133Y-75147222D01*
X171697190Y-75288786D01*
X171627454Y-75419252D01*
X171603008Y-75449040D01*
X171533607Y-75533607D01*
X171449040Y-75603008D01*
X171419252Y-75627454D01*
X171288786Y-75697190D01*
X171147222Y-75740133D01*
X171073665Y-75747378D01*
X171036888Y-75751000D01*
X170563112Y-75751000D01*
X170526335Y-75747378D01*
X170452778Y-75740133D01*
X170311214Y-75697190D01*
X170180748Y-75627454D01*
X170150960Y-75603008D01*
X170066393Y-75533607D01*
X169996992Y-75449040D01*
X169972546Y-75419252D01*
X169902810Y-75288786D01*
X169859867Y-75147222D01*
X169845367Y-75000000D01*
X169859867Y-74852778D01*
X169902810Y-74711214D01*
X169972546Y-74580748D01*
X169996992Y-74550960D01*
X170066393Y-74466393D01*
X170150960Y-74396992D01*
X170180748Y-74372546D01*
X170311214Y-74302810D01*
X170452778Y-74259867D01*
X170526335Y-74252622D01*
X170563112Y-74249000D01*
X171036888Y-74249000D01*
X171073665Y-74252622D01*
X171073665Y-74252622D01*
G37*
G36*
X164073665Y-74252622D02*
G01*
X164147222Y-74259867D01*
X164288786Y-74302810D01*
X164419252Y-74372546D01*
X164449040Y-74396992D01*
X164533607Y-74466393D01*
X164603008Y-74550960D01*
X164627454Y-74580748D01*
X164697190Y-74711214D01*
X164740133Y-74852778D01*
X164754633Y-75000000D01*
X164740133Y-75147222D01*
X164697190Y-75288786D01*
X164627454Y-75419252D01*
X164603008Y-75449040D01*
X164533607Y-75533607D01*
X164449040Y-75603008D01*
X164419252Y-75627454D01*
X164288786Y-75697190D01*
X164147222Y-75740133D01*
X164073665Y-75747378D01*
X164036888Y-75751000D01*
X163563112Y-75751000D01*
X163526335Y-75747378D01*
X163452778Y-75740133D01*
X163311214Y-75697190D01*
X163180748Y-75627454D01*
X163150960Y-75603008D01*
X163066393Y-75533607D01*
X162996992Y-75449040D01*
X162972546Y-75419252D01*
X162902810Y-75288786D01*
X162859867Y-75147222D01*
X162845367Y-75000000D01*
X162859867Y-74852778D01*
X162902810Y-74711214D01*
X162972546Y-74580748D01*
X162996992Y-74550960D01*
X163066393Y-74466393D01*
X163150960Y-74396992D01*
X163180748Y-74372546D01*
X163311214Y-74302810D01*
X163452778Y-74259867D01*
X163526335Y-74252622D01*
X163563112Y-74249000D01*
X164036888Y-74249000D01*
X164073665Y-74252622D01*
X164073665Y-74252622D01*
G37*
G36*
X164837142Y-71218242D02*
G01*
X164985101Y-71279529D01*
X165118255Y-71368499D01*
X165231501Y-71481745D01*
X165320471Y-71614899D01*
X165381758Y-71762858D01*
X165413000Y-71919925D01*
X165413000Y-72080075D01*
X165381758Y-72237142D01*
X165320471Y-72385101D01*
X165231501Y-72518255D01*
X165118255Y-72631501D01*
X164985101Y-72720471D01*
X164837142Y-72781758D01*
X164680075Y-72813000D01*
X164519925Y-72813000D01*
X164362858Y-72781758D01*
X164214899Y-72720471D01*
X164081745Y-72631501D01*
X163968499Y-72518255D01*
X163879529Y-72385101D01*
X163818242Y-72237142D01*
X163787000Y-72080075D01*
X163787000Y-71919925D01*
X163818242Y-71762858D01*
X163879529Y-71614899D01*
X163968499Y-71481745D01*
X164081745Y-71368499D01*
X164214899Y-71279529D01*
X164362858Y-71218242D01*
X164519925Y-71187000D01*
X164680075Y-71187000D01*
X164837142Y-71218242D01*
X164837142Y-71218242D01*
G37*
G36*
X168837142Y-71218242D02*
G01*
X168985101Y-71279529D01*
X169118255Y-71368499D01*
X169231501Y-71481745D01*
X169320471Y-71614899D01*
X169381758Y-71762858D01*
X169413000Y-71919925D01*
X169413000Y-72080075D01*
X169381758Y-72237142D01*
X169320471Y-72385101D01*
X169231501Y-72518255D01*
X169118255Y-72631501D01*
X168985101Y-72720471D01*
X168837142Y-72781758D01*
X168680075Y-72813000D01*
X168519925Y-72813000D01*
X168362858Y-72781758D01*
X168214899Y-72720471D01*
X168081745Y-72631501D01*
X167968499Y-72518255D01*
X167879529Y-72385101D01*
X167818242Y-72237142D01*
X167787000Y-72080075D01*
X167787000Y-71919925D01*
X167818242Y-71762858D01*
X167879529Y-71614899D01*
X167968499Y-71481745D01*
X168081745Y-71368499D01*
X168214899Y-71279529D01*
X168362858Y-71218242D01*
X168519925Y-71187000D01*
X168680075Y-71187000D01*
X168837142Y-71218242D01*
X168837142Y-71218242D01*
G37*
G36*
X170837142Y-71218242D02*
G01*
X170985101Y-71279529D01*
X171118255Y-71368499D01*
X171231501Y-71481745D01*
X171320471Y-71614899D01*
X171381758Y-71762858D01*
X171413000Y-71919925D01*
X171413000Y-72080075D01*
X171381758Y-72237142D01*
X171320471Y-72385101D01*
X171231501Y-72518255D01*
X171118255Y-72631501D01*
X170985101Y-72720471D01*
X170837142Y-72781758D01*
X170680075Y-72813000D01*
X170519925Y-72813000D01*
X170362858Y-72781758D01*
X170214899Y-72720471D01*
X170081745Y-72631501D01*
X169968499Y-72518255D01*
X169879529Y-72385101D01*
X169818242Y-72237142D01*
X169787000Y-72080075D01*
X169787000Y-71919925D01*
X169818242Y-71762858D01*
X169879529Y-71614899D01*
X169968499Y-71481745D01*
X170081745Y-71368499D01*
X170214899Y-71279529D01*
X170362858Y-71218242D01*
X170519925Y-71187000D01*
X170680075Y-71187000D01*
X170837142Y-71218242D01*
X170837142Y-71218242D01*
G37*
G36*
X166837142Y-71218242D02*
G01*
X166985101Y-71279529D01*
X167118255Y-71368499D01*
X167231501Y-71481745D01*
X167320471Y-71614899D01*
X167381758Y-71762858D01*
X167413000Y-71919925D01*
X167413000Y-72080075D01*
X167381758Y-72237142D01*
X167320471Y-72385101D01*
X167231501Y-72518255D01*
X167118255Y-72631501D01*
X166985101Y-72720471D01*
X166837142Y-72781758D01*
X166680075Y-72813000D01*
X166519925Y-72813000D01*
X166362858Y-72781758D01*
X166214899Y-72720471D01*
X166081745Y-72631501D01*
X165968499Y-72518255D01*
X165879529Y-72385101D01*
X165818242Y-72237142D01*
X165787000Y-72080075D01*
X165787000Y-71919925D01*
X165818242Y-71762858D01*
X165879529Y-71614899D01*
X165968499Y-71481745D01*
X166081745Y-71368499D01*
X166214899Y-71279529D01*
X166362858Y-71218242D01*
X166519925Y-71187000D01*
X166680075Y-71187000D01*
X166837142Y-71218242D01*
X166837142Y-71218242D01*
G37*
G36*
X196901000Y-69901000D02*
G01*
X195099000Y-69901000D01*
X195099000Y-68099000D01*
X196901000Y-68099000D01*
X196901000Y-69901000D01*
X196901000Y-69901000D01*
G37*
G36*
X188490443Y-68105519D02*
G01*
X188556627Y-68112037D01*
X188726466Y-68163557D01*
X188882991Y-68247222D01*
X188918729Y-68276552D01*
X189020186Y-68359814D01*
X189103448Y-68461271D01*
X189132778Y-68497009D01*
X189216443Y-68653534D01*
X189267963Y-68823373D01*
X189285359Y-69000000D01*
X189267963Y-69176627D01*
X189216443Y-69346466D01*
X189132778Y-69502991D01*
X189107653Y-69533606D01*
X189020186Y-69640186D01*
X188950725Y-69697190D01*
X188882991Y-69752778D01*
X188726466Y-69836443D01*
X188556627Y-69887963D01*
X188490443Y-69894481D01*
X188424260Y-69901000D01*
X188335740Y-69901000D01*
X188269557Y-69894481D01*
X188203373Y-69887963D01*
X188033534Y-69836443D01*
X187877009Y-69752778D01*
X187809275Y-69697190D01*
X187739814Y-69640186D01*
X187652347Y-69533606D01*
X187627222Y-69502991D01*
X187543557Y-69346466D01*
X187492037Y-69176627D01*
X187474641Y-69000000D01*
X187492037Y-68823373D01*
X187543557Y-68653534D01*
X187627222Y-68497009D01*
X187656552Y-68461271D01*
X187739814Y-68359814D01*
X187841271Y-68276552D01*
X187877009Y-68247222D01*
X188033534Y-68163557D01*
X188203373Y-68112037D01*
X188269557Y-68105519D01*
X188335740Y-68099000D01*
X188424260Y-68099000D01*
X188490443Y-68105519D01*
X188490443Y-68105519D01*
G37*
G36*
X193570443Y-68105519D02*
G01*
X193636627Y-68112037D01*
X193806466Y-68163557D01*
X193962991Y-68247222D01*
X193998729Y-68276552D01*
X194100186Y-68359814D01*
X194183448Y-68461271D01*
X194212778Y-68497009D01*
X194296443Y-68653534D01*
X194347963Y-68823373D01*
X194365359Y-69000000D01*
X194347963Y-69176627D01*
X194296443Y-69346466D01*
X194212778Y-69502991D01*
X194187653Y-69533606D01*
X194100186Y-69640186D01*
X194030725Y-69697190D01*
X193962991Y-69752778D01*
X193806466Y-69836443D01*
X193636627Y-69887963D01*
X193570443Y-69894481D01*
X193504260Y-69901000D01*
X193415740Y-69901000D01*
X193349557Y-69894481D01*
X193283373Y-69887963D01*
X193113534Y-69836443D01*
X192957009Y-69752778D01*
X192889275Y-69697190D01*
X192819814Y-69640186D01*
X192732347Y-69533606D01*
X192707222Y-69502991D01*
X192623557Y-69346466D01*
X192572037Y-69176627D01*
X192554641Y-69000000D01*
X192572037Y-68823373D01*
X192623557Y-68653534D01*
X192707222Y-68497009D01*
X192736552Y-68461271D01*
X192819814Y-68359814D01*
X192921271Y-68276552D01*
X192957009Y-68247222D01*
X193113534Y-68163557D01*
X193283373Y-68112037D01*
X193349557Y-68105519D01*
X193415740Y-68099000D01*
X193504260Y-68099000D01*
X193570443Y-68105519D01*
X193570443Y-68105519D01*
G37*
G36*
X191030443Y-68105519D02*
G01*
X191096627Y-68112037D01*
X191266466Y-68163557D01*
X191422991Y-68247222D01*
X191458729Y-68276552D01*
X191560186Y-68359814D01*
X191643448Y-68461271D01*
X191672778Y-68497009D01*
X191756443Y-68653534D01*
X191807963Y-68823373D01*
X191825359Y-69000000D01*
X191807963Y-69176627D01*
X191756443Y-69346466D01*
X191672778Y-69502991D01*
X191647653Y-69533606D01*
X191560186Y-69640186D01*
X191490725Y-69697190D01*
X191422991Y-69752778D01*
X191266466Y-69836443D01*
X191096627Y-69887963D01*
X191030443Y-69894481D01*
X190964260Y-69901000D01*
X190875740Y-69901000D01*
X190809557Y-69894481D01*
X190743373Y-69887963D01*
X190573534Y-69836443D01*
X190417009Y-69752778D01*
X190349275Y-69697190D01*
X190279814Y-69640186D01*
X190192347Y-69533606D01*
X190167222Y-69502991D01*
X190083557Y-69346466D01*
X190032037Y-69176627D01*
X190014641Y-69000000D01*
X190032037Y-68823373D01*
X190083557Y-68653534D01*
X190167222Y-68497009D01*
X190196552Y-68461271D01*
X190279814Y-68359814D01*
X190381271Y-68276552D01*
X190417009Y-68247222D01*
X190573534Y-68163557D01*
X190743373Y-68112037D01*
X190809557Y-68105519D01*
X190875740Y-68099000D01*
X190964260Y-68099000D01*
X191030443Y-68105519D01*
X191030443Y-68105519D01*
G37*
G36*
X171073665Y-68252622D02*
G01*
X171147222Y-68259867D01*
X171288786Y-68302810D01*
X171419252Y-68372546D01*
X171449040Y-68396992D01*
X171533607Y-68466393D01*
X171603008Y-68550960D01*
X171627454Y-68580748D01*
X171697190Y-68711214D01*
X171740133Y-68852778D01*
X171754633Y-69000000D01*
X171740133Y-69147222D01*
X171697190Y-69288786D01*
X171627454Y-69419252D01*
X171603008Y-69449040D01*
X171533607Y-69533607D01*
X171449040Y-69603008D01*
X171419252Y-69627454D01*
X171288786Y-69697190D01*
X171147222Y-69740133D01*
X171073665Y-69747378D01*
X171036888Y-69751000D01*
X170563112Y-69751000D01*
X170526335Y-69747378D01*
X170452778Y-69740133D01*
X170311214Y-69697190D01*
X170180748Y-69627454D01*
X170150960Y-69603008D01*
X170066393Y-69533607D01*
X169996992Y-69449040D01*
X169972546Y-69419252D01*
X169902810Y-69288786D01*
X169859867Y-69147222D01*
X169845367Y-69000000D01*
X169859867Y-68852778D01*
X169902810Y-68711214D01*
X169972546Y-68580748D01*
X169996992Y-68550960D01*
X170066393Y-68466393D01*
X170150960Y-68396992D01*
X170180748Y-68372546D01*
X170311214Y-68302810D01*
X170452778Y-68259867D01*
X170526335Y-68252622D01*
X170563112Y-68249000D01*
X171036888Y-68249000D01*
X171073665Y-68252622D01*
X171073665Y-68252622D01*
G37*
G36*
X164073665Y-68252622D02*
G01*
X164147222Y-68259867D01*
X164288786Y-68302810D01*
X164419252Y-68372546D01*
X164449040Y-68396992D01*
X164533607Y-68466393D01*
X164603008Y-68550960D01*
X164627454Y-68580748D01*
X164697190Y-68711214D01*
X164740133Y-68852778D01*
X164754633Y-69000000D01*
X164740133Y-69147222D01*
X164697190Y-69288786D01*
X164627454Y-69419252D01*
X164603008Y-69449040D01*
X164533607Y-69533607D01*
X164449040Y-69603008D01*
X164419252Y-69627454D01*
X164288786Y-69697190D01*
X164147222Y-69740133D01*
X164073665Y-69747378D01*
X164036888Y-69751000D01*
X163563112Y-69751000D01*
X163526335Y-69747378D01*
X163452778Y-69740133D01*
X163311214Y-69697190D01*
X163180748Y-69627454D01*
X163150960Y-69603008D01*
X163066393Y-69533607D01*
X162996992Y-69449040D01*
X162972546Y-69419252D01*
X162902810Y-69288786D01*
X162859867Y-69147222D01*
X162845367Y-69000000D01*
X162859867Y-68852778D01*
X162902810Y-68711214D01*
X162972546Y-68580748D01*
X162996992Y-68550960D01*
X163066393Y-68466393D01*
X163150960Y-68396992D01*
X163180748Y-68372546D01*
X163311214Y-68302810D01*
X163452778Y-68259867D01*
X163526335Y-68252622D01*
X163563112Y-68249000D01*
X164036888Y-68249000D01*
X164073665Y-68252622D01*
X164073665Y-68252622D01*
G37*
G36*
X163928254Y-60027818D02*
G01*
X164301511Y-60182426D01*
X164301513Y-60182427D01*
X164455138Y-60285076D01*
X164637436Y-60406884D01*
X164923116Y-60692564D01*
X165147574Y-61028489D01*
X165302182Y-61401746D01*
X165381000Y-61797993D01*
X165381000Y-62202007D01*
X165302182Y-62598254D01*
X165147574Y-62971511D01*
X165147573Y-62971513D01*
X164923116Y-63307436D01*
X164637436Y-63593116D01*
X164301513Y-63817573D01*
X164301512Y-63817574D01*
X164301511Y-63817574D01*
X163928254Y-63972182D01*
X163532007Y-64051000D01*
X163127993Y-64051000D01*
X162731746Y-63972182D01*
X162358489Y-63817574D01*
X162358488Y-63817574D01*
X162358487Y-63817573D01*
X162022564Y-63593116D01*
X161736884Y-63307436D01*
X161512427Y-62971513D01*
X161512426Y-62971511D01*
X161357818Y-62598254D01*
X161279000Y-62202007D01*
X161279000Y-61797993D01*
X161357818Y-61401746D01*
X161512426Y-61028489D01*
X161736884Y-60692564D01*
X162022564Y-60406884D01*
X162204862Y-60285076D01*
X162358487Y-60182427D01*
X162358489Y-60182426D01*
X162731746Y-60027818D01*
X163127993Y-59949000D01*
X163532007Y-59949000D01*
X163928254Y-60027818D01*
X163928254Y-60027818D01*
G37*
G36*
X183046823Y-58971313D02*
G01*
X183207242Y-59019976D01*
X183339906Y-59090886D01*
X183355078Y-59098996D01*
X183484659Y-59205341D01*
X183591004Y-59334922D01*
X183591005Y-59334924D01*
X183670024Y-59482758D01*
X183718687Y-59643177D01*
X183735117Y-59810000D01*
X183718687Y-59976823D01*
X183670024Y-60137242D01*
X183645872Y-60182427D01*
X183591004Y-60285078D01*
X183484659Y-60414659D01*
X183355078Y-60521004D01*
X183355076Y-60521005D01*
X183207242Y-60600024D01*
X183046823Y-60648687D01*
X182921804Y-60661000D01*
X182838196Y-60661000D01*
X182713177Y-60648687D01*
X182552758Y-60600024D01*
X182404924Y-60521005D01*
X182404922Y-60521004D01*
X182275341Y-60414659D01*
X182168996Y-60285078D01*
X182114128Y-60182427D01*
X182089976Y-60137242D01*
X182041313Y-59976823D01*
X182024883Y-59810000D01*
X182041313Y-59643177D01*
X182089976Y-59482758D01*
X182168995Y-59334924D01*
X182168996Y-59334922D01*
X182275341Y-59205341D01*
X182404922Y-59098996D01*
X182420094Y-59090886D01*
X182552758Y-59019976D01*
X182713177Y-58971313D01*
X182838196Y-58959000D01*
X182921804Y-58959000D01*
X183046823Y-58971313D01*
X183046823Y-58971313D01*
G37*
G36*
X175426823Y-58971313D02*
G01*
X175587242Y-59019976D01*
X175719906Y-59090886D01*
X175735078Y-59098996D01*
X175864659Y-59205341D01*
X175971004Y-59334922D01*
X175971005Y-59334924D01*
X176050024Y-59482758D01*
X176098687Y-59643177D01*
X176115117Y-59810000D01*
X176098687Y-59976823D01*
X176050024Y-60137242D01*
X176025872Y-60182427D01*
X175971004Y-60285078D01*
X175864659Y-60414659D01*
X175735078Y-60521004D01*
X175735076Y-60521005D01*
X175587242Y-60600024D01*
X175426823Y-60648687D01*
X175301804Y-60661000D01*
X175218196Y-60661000D01*
X175093177Y-60648687D01*
X174932758Y-60600024D01*
X174784924Y-60521005D01*
X174784922Y-60521004D01*
X174655341Y-60414659D01*
X174548996Y-60285078D01*
X174494128Y-60182427D01*
X174469976Y-60137242D01*
X174421313Y-59976823D01*
X174404883Y-59810000D01*
X174421313Y-59643177D01*
X174469976Y-59482758D01*
X174548995Y-59334924D01*
X174548996Y-59334922D01*
X174655341Y-59205341D01*
X174784922Y-59098996D01*
X174800094Y-59090886D01*
X174932758Y-59019976D01*
X175093177Y-58971313D01*
X175218196Y-58959000D01*
X175301804Y-58959000D01*
X175426823Y-58971313D01*
X175426823Y-58971313D01*
G37*
G36*
X183046823Y-56431313D02*
G01*
X183207242Y-56479976D01*
X183339906Y-56550886D01*
X183355078Y-56558996D01*
X183484659Y-56665341D01*
X183591004Y-56794922D01*
X183591005Y-56794924D01*
X183670024Y-56942758D01*
X183718687Y-57103177D01*
X183735117Y-57270000D01*
X183718687Y-57436823D01*
X183670024Y-57597242D01*
X183599114Y-57729906D01*
X183591004Y-57745078D01*
X183484659Y-57874659D01*
X183355078Y-57981004D01*
X183355076Y-57981005D01*
X183207242Y-58060024D01*
X183046823Y-58108687D01*
X182921804Y-58121000D01*
X182838196Y-58121000D01*
X182713177Y-58108687D01*
X182552758Y-58060024D01*
X182404924Y-57981005D01*
X182404922Y-57981004D01*
X182275341Y-57874659D01*
X182168996Y-57745078D01*
X182160886Y-57729906D01*
X182089976Y-57597242D01*
X182041313Y-57436823D01*
X182024883Y-57270000D01*
X182041313Y-57103177D01*
X182089976Y-56942758D01*
X182168995Y-56794924D01*
X182168996Y-56794922D01*
X182275341Y-56665341D01*
X182404922Y-56558996D01*
X182420094Y-56550886D01*
X182552758Y-56479976D01*
X182713177Y-56431313D01*
X182838196Y-56419000D01*
X182921804Y-56419000D01*
X183046823Y-56431313D01*
X183046823Y-56431313D01*
G37*
G36*
X175426823Y-56431313D02*
G01*
X175587242Y-56479976D01*
X175719906Y-56550886D01*
X175735078Y-56558996D01*
X175864659Y-56665341D01*
X175971004Y-56794922D01*
X175971005Y-56794924D01*
X176050024Y-56942758D01*
X176098687Y-57103177D01*
X176115117Y-57270000D01*
X176098687Y-57436823D01*
X176050024Y-57597242D01*
X175979114Y-57729906D01*
X175971004Y-57745078D01*
X175864659Y-57874659D01*
X175735078Y-57981004D01*
X175735076Y-57981005D01*
X175587242Y-58060024D01*
X175426823Y-58108687D01*
X175301804Y-58121000D01*
X175218196Y-58121000D01*
X175093177Y-58108687D01*
X174932758Y-58060024D01*
X174784924Y-57981005D01*
X174784922Y-57981004D01*
X174655341Y-57874659D01*
X174548996Y-57745078D01*
X174540886Y-57729906D01*
X174469976Y-57597242D01*
X174421313Y-57436823D01*
X174404883Y-57270000D01*
X174421313Y-57103177D01*
X174469976Y-56942758D01*
X174548995Y-56794924D01*
X174548996Y-56794922D01*
X174655341Y-56665341D01*
X174784922Y-56558996D01*
X174800094Y-56550886D01*
X174932758Y-56479976D01*
X175093177Y-56431313D01*
X175218196Y-56419000D01*
X175301804Y-56419000D01*
X175426823Y-56431313D01*
X175426823Y-56431313D01*
G37*
G36*
X169873062Y-54108181D02*
G01*
X169907981Y-54118774D01*
X169940163Y-54135976D01*
X169968373Y-54159127D01*
X169991524Y-54187337D01*
X170008726Y-54219519D01*
X170019319Y-54254438D01*
X170023500Y-54296895D01*
X170023500Y-55763105D01*
X170019319Y-55805562D01*
X170008726Y-55840481D01*
X169991524Y-55872663D01*
X169968373Y-55900873D01*
X169940163Y-55924024D01*
X169907981Y-55941226D01*
X169873062Y-55951819D01*
X169830605Y-55956000D01*
X168689395Y-55956000D01*
X168646938Y-55951819D01*
X168612019Y-55941226D01*
X168579837Y-55924024D01*
X168551627Y-55900873D01*
X168528476Y-55872663D01*
X168511274Y-55840481D01*
X168500681Y-55805562D01*
X168496500Y-55763105D01*
X168496500Y-54296895D01*
X168500681Y-54254438D01*
X168511274Y-54219519D01*
X168528476Y-54187337D01*
X168551627Y-54159127D01*
X168579837Y-54135976D01*
X168612019Y-54118774D01*
X168646938Y-54108181D01*
X168689395Y-54104000D01*
X169830605Y-54104000D01*
X169873062Y-54108181D01*
X169873062Y-54108181D01*
G37*
G36*
X172848062Y-54108181D02*
G01*
X172882981Y-54118774D01*
X172915163Y-54135976D01*
X172943373Y-54159127D01*
X172966524Y-54187337D01*
X172983726Y-54219519D01*
X172994319Y-54254438D01*
X172998500Y-54296895D01*
X172998500Y-55763105D01*
X172994319Y-55805562D01*
X172983726Y-55840481D01*
X172966524Y-55872663D01*
X172943373Y-55900873D01*
X172915163Y-55924024D01*
X172882981Y-55941226D01*
X172848062Y-55951819D01*
X172805605Y-55956000D01*
X171664395Y-55956000D01*
X171621938Y-55951819D01*
X171587019Y-55941226D01*
X171554837Y-55924024D01*
X171526627Y-55900873D01*
X171503476Y-55872663D01*
X171486274Y-55840481D01*
X171475681Y-55805562D01*
X171471500Y-55763105D01*
X171471500Y-54296895D01*
X171475681Y-54254438D01*
X171486274Y-54219519D01*
X171503476Y-54187337D01*
X171526627Y-54159127D01*
X171554837Y-54135976D01*
X171587019Y-54118774D01*
X171621938Y-54108181D01*
X171664395Y-54104000D01*
X172805605Y-54104000D01*
X172848062Y-54108181D01*
X172848062Y-54108181D01*
G37*
G36*
X165451000Y-55851000D02*
G01*
X163749000Y-55851000D01*
X163749000Y-54149000D01*
X165451000Y-54149000D01*
X165451000Y-55851000D01*
X165451000Y-55851000D01*
G37*
G36*
X183046823Y-53891313D02*
G01*
X183207242Y-53939976D01*
X183339906Y-54010886D01*
X183355078Y-54018996D01*
X183484659Y-54125341D01*
X183591004Y-54254922D01*
X183591005Y-54254924D01*
X183670024Y-54402758D01*
X183718687Y-54563177D01*
X183735117Y-54730000D01*
X183718687Y-54896823D01*
X183670024Y-55057242D01*
X183599114Y-55189906D01*
X183591004Y-55205078D01*
X183484659Y-55334659D01*
X183355078Y-55441004D01*
X183355076Y-55441005D01*
X183207242Y-55520024D01*
X183046823Y-55568687D01*
X182921804Y-55581000D01*
X182838196Y-55581000D01*
X182713177Y-55568687D01*
X182552758Y-55520024D01*
X182404924Y-55441005D01*
X182404922Y-55441004D01*
X182275341Y-55334659D01*
X182168996Y-55205078D01*
X182160886Y-55189906D01*
X182089976Y-55057242D01*
X182041313Y-54896823D01*
X182024883Y-54730000D01*
X182041313Y-54563177D01*
X182089976Y-54402758D01*
X182168995Y-54254924D01*
X182168996Y-54254922D01*
X182275341Y-54125341D01*
X182404922Y-54018996D01*
X182420094Y-54010886D01*
X182552758Y-53939976D01*
X182713177Y-53891313D01*
X182838196Y-53879000D01*
X182921804Y-53879000D01*
X183046823Y-53891313D01*
X183046823Y-53891313D01*
G37*
G36*
X175426823Y-53891313D02*
G01*
X175587242Y-53939976D01*
X175719906Y-54010886D01*
X175735078Y-54018996D01*
X175864659Y-54125341D01*
X175971004Y-54254922D01*
X175971005Y-54254924D01*
X176050024Y-54402758D01*
X176098687Y-54563177D01*
X176115117Y-54730000D01*
X176098687Y-54896823D01*
X176050024Y-55057242D01*
X175979114Y-55189906D01*
X175971004Y-55205078D01*
X175864659Y-55334659D01*
X175735078Y-55441004D01*
X175735076Y-55441005D01*
X175587242Y-55520024D01*
X175426823Y-55568687D01*
X175301804Y-55581000D01*
X175218196Y-55581000D01*
X175093177Y-55568687D01*
X174932758Y-55520024D01*
X174784924Y-55441005D01*
X174784922Y-55441004D01*
X174655341Y-55334659D01*
X174548996Y-55205078D01*
X174540886Y-55189906D01*
X174469976Y-55057242D01*
X174421313Y-54896823D01*
X174404883Y-54730000D01*
X174421313Y-54563177D01*
X174469976Y-54402758D01*
X174548995Y-54254924D01*
X174548996Y-54254922D01*
X174655341Y-54125341D01*
X174784922Y-54018996D01*
X174800094Y-54010886D01*
X174932758Y-53939976D01*
X175093177Y-53891313D01*
X175218196Y-53879000D01*
X175301804Y-53879000D01*
X175426823Y-53891313D01*
X175426823Y-53891313D01*
G37*
G36*
X162308228Y-52796703D02*
G01*
X162463100Y-52860853D01*
X162602481Y-52953985D01*
X162721015Y-53072519D01*
X162814147Y-53211900D01*
X162878297Y-53366772D01*
X162911000Y-53531184D01*
X162911000Y-53698816D01*
X162878297Y-53863228D01*
X162814147Y-54018100D01*
X162721015Y-54157481D01*
X162602481Y-54276015D01*
X162463100Y-54369147D01*
X162308228Y-54433297D01*
X162143816Y-54466000D01*
X161976184Y-54466000D01*
X161811772Y-54433297D01*
X161656900Y-54369147D01*
X161517519Y-54276015D01*
X161398985Y-54157481D01*
X161305853Y-54018100D01*
X161241703Y-53863228D01*
X161209000Y-53698816D01*
X161209000Y-53531184D01*
X161241703Y-53366772D01*
X161305853Y-53211900D01*
X161398985Y-53072519D01*
X161517519Y-52953985D01*
X161656900Y-52860853D01*
X161811772Y-52796703D01*
X161976184Y-52764000D01*
X162143816Y-52764000D01*
X162308228Y-52796703D01*
X162308228Y-52796703D01*
G37*
G36*
X173035562Y-51758181D02*
G01*
X173070481Y-51768774D01*
X173102663Y-51785976D01*
X173130873Y-51809127D01*
X173154024Y-51837337D01*
X173171226Y-51869519D01*
X173181819Y-51904438D01*
X173186000Y-51946895D01*
X173186000Y-53088105D01*
X173181819Y-53130562D01*
X173171226Y-53165481D01*
X173154024Y-53197663D01*
X173130873Y-53225873D01*
X173102663Y-53249024D01*
X173070481Y-53266226D01*
X173035562Y-53276819D01*
X172993105Y-53281000D01*
X171526895Y-53281000D01*
X171484438Y-53276819D01*
X171449519Y-53266226D01*
X171417337Y-53249024D01*
X171389127Y-53225873D01*
X171365976Y-53197663D01*
X171348774Y-53165481D01*
X171338181Y-53130562D01*
X171334000Y-53088105D01*
X171334000Y-51946895D01*
X171338181Y-51904438D01*
X171348774Y-51869519D01*
X171365976Y-51837337D01*
X171389127Y-51809127D01*
X171417337Y-51785976D01*
X171449519Y-51768774D01*
X171484438Y-51758181D01*
X171526895Y-51754000D01*
X172993105Y-51754000D01*
X173035562Y-51758181D01*
X173035562Y-51758181D01*
G37*
G36*
X164848228Y-51411703D02*
G01*
X165003100Y-51475853D01*
X165142481Y-51568985D01*
X165261015Y-51687519D01*
X165354147Y-51826900D01*
X165418297Y-51981772D01*
X165451000Y-52146184D01*
X165451000Y-52313816D01*
X165418297Y-52478228D01*
X165354147Y-52633100D01*
X165261015Y-52772481D01*
X165142481Y-52891015D01*
X165003100Y-52984147D01*
X164848228Y-53048297D01*
X164683816Y-53081000D01*
X164516184Y-53081000D01*
X164351772Y-53048297D01*
X164196900Y-52984147D01*
X164057519Y-52891015D01*
X163938985Y-52772481D01*
X163845853Y-52633100D01*
X163781703Y-52478228D01*
X163749000Y-52313816D01*
X163749000Y-52146184D01*
X163781703Y-51981772D01*
X163845853Y-51826900D01*
X163938985Y-51687519D01*
X164057519Y-51568985D01*
X164196900Y-51475853D01*
X164351772Y-51411703D01*
X164516184Y-51379000D01*
X164683816Y-51379000D01*
X164848228Y-51411703D01*
X164848228Y-51411703D01*
G37*
G36*
X183046823Y-51351313D02*
G01*
X183207242Y-51399976D01*
X183339906Y-51470886D01*
X183355078Y-51478996D01*
X183484659Y-51585341D01*
X183591004Y-51714922D01*
X183591005Y-51714924D01*
X183670024Y-51862758D01*
X183718687Y-52023177D01*
X183735117Y-52190000D01*
X183718687Y-52356823D01*
X183670024Y-52517242D01*
X183599114Y-52649906D01*
X183591004Y-52665078D01*
X183484659Y-52794659D01*
X183355078Y-52901004D01*
X183355076Y-52901005D01*
X183207242Y-52980024D01*
X183207239Y-52980025D01*
X183193647Y-52984148D01*
X183046823Y-53028687D01*
X182921804Y-53041000D01*
X182838196Y-53041000D01*
X182713177Y-53028687D01*
X182566353Y-52984148D01*
X182552761Y-52980025D01*
X182552758Y-52980024D01*
X182404924Y-52901005D01*
X182404922Y-52901004D01*
X182275341Y-52794659D01*
X182168996Y-52665078D01*
X182160886Y-52649906D01*
X182089976Y-52517242D01*
X182041313Y-52356823D01*
X182024883Y-52190000D01*
X182041313Y-52023177D01*
X182089976Y-51862758D01*
X182168995Y-51714924D01*
X182168996Y-51714922D01*
X182275341Y-51585341D01*
X182404922Y-51478996D01*
X182420094Y-51470886D01*
X182552758Y-51399976D01*
X182713177Y-51351313D01*
X182838196Y-51339000D01*
X182921804Y-51339000D01*
X183046823Y-51351313D01*
X183046823Y-51351313D01*
G37*
G36*
X175426823Y-51351313D02*
G01*
X175587242Y-51399976D01*
X175719906Y-51470886D01*
X175735078Y-51478996D01*
X175864659Y-51585341D01*
X175971004Y-51714922D01*
X175971005Y-51714924D01*
X176050024Y-51862758D01*
X176098687Y-52023177D01*
X176115117Y-52190000D01*
X176098687Y-52356823D01*
X176050024Y-52517242D01*
X175979114Y-52649906D01*
X175971004Y-52665078D01*
X175864659Y-52794659D01*
X175735078Y-52901004D01*
X175735076Y-52901005D01*
X175587242Y-52980024D01*
X175587239Y-52980025D01*
X175573647Y-52984148D01*
X175426823Y-53028687D01*
X175301804Y-53041000D01*
X175218196Y-53041000D01*
X175093177Y-53028687D01*
X174946353Y-52984148D01*
X174932761Y-52980025D01*
X174932758Y-52980024D01*
X174784924Y-52901005D01*
X174784922Y-52901004D01*
X174655341Y-52794659D01*
X174548996Y-52665078D01*
X174540886Y-52649906D01*
X174469976Y-52517242D01*
X174421313Y-52356823D01*
X174404883Y-52190000D01*
X174421313Y-52023177D01*
X174469976Y-51862758D01*
X174548995Y-51714924D01*
X174548996Y-51714922D01*
X174655341Y-51585341D01*
X174784922Y-51478996D01*
X174800094Y-51470886D01*
X174932758Y-51399976D01*
X175093177Y-51351313D01*
X175218196Y-51339000D01*
X175301804Y-51339000D01*
X175426823Y-51351313D01*
X175426823Y-51351313D01*
G37*
G36*
X162308228Y-50026703D02*
G01*
X162463100Y-50090853D01*
X162602481Y-50183985D01*
X162721015Y-50302519D01*
X162814147Y-50441900D01*
X162878297Y-50596772D01*
X162911000Y-50761184D01*
X162911000Y-50928816D01*
X162878297Y-51093228D01*
X162814147Y-51248100D01*
X162721015Y-51387481D01*
X162602481Y-51506015D01*
X162463100Y-51599147D01*
X162308228Y-51663297D01*
X162143816Y-51696000D01*
X161976184Y-51696000D01*
X161811772Y-51663297D01*
X161656900Y-51599147D01*
X161517519Y-51506015D01*
X161398985Y-51387481D01*
X161305853Y-51248100D01*
X161241703Y-51093228D01*
X161209000Y-50928816D01*
X161209000Y-50761184D01*
X161241703Y-50596772D01*
X161305853Y-50441900D01*
X161398985Y-50302519D01*
X161517519Y-50183985D01*
X161656900Y-50090853D01*
X161811772Y-50026703D01*
X161976184Y-49994000D01*
X162143816Y-49994000D01*
X162308228Y-50026703D01*
X162308228Y-50026703D01*
G37*
G36*
X175426823Y-48811313D02*
G01*
X175557380Y-48850917D01*
X175578965Y-48857465D01*
X175587242Y-48859976D01*
X175694897Y-48917519D01*
X175735078Y-48938996D01*
X175864659Y-49045341D01*
X175971004Y-49174922D01*
X175971005Y-49174924D01*
X176050024Y-49322758D01*
X176098687Y-49483177D01*
X176115117Y-49650000D01*
X176098687Y-49816823D01*
X176050024Y-49977242D01*
X176023585Y-50026705D01*
X175971004Y-50125078D01*
X175864659Y-50254659D01*
X175735078Y-50361004D01*
X175735076Y-50361005D01*
X175587242Y-50440024D01*
X175426823Y-50488687D01*
X175301804Y-50501000D01*
X175218196Y-50501000D01*
X175093177Y-50488687D01*
X174932758Y-50440024D01*
X174784924Y-50361005D01*
X174784922Y-50361004D01*
X174655341Y-50254659D01*
X174548996Y-50125078D01*
X174496415Y-50026705D01*
X174469976Y-49977242D01*
X174421313Y-49816823D01*
X174404883Y-49650000D01*
X174421313Y-49483177D01*
X174469976Y-49322758D01*
X174548995Y-49174924D01*
X174548996Y-49174922D01*
X174655341Y-49045341D01*
X174784922Y-48938996D01*
X174825103Y-48917519D01*
X174932758Y-48859976D01*
X174941036Y-48857465D01*
X174962620Y-48850917D01*
X175093177Y-48811313D01*
X175218196Y-48799000D01*
X175301804Y-48799000D01*
X175426823Y-48811313D01*
X175426823Y-48811313D01*
G37*
G36*
X183046823Y-48811313D02*
G01*
X183177380Y-48850917D01*
X183198965Y-48857465D01*
X183207242Y-48859976D01*
X183314897Y-48917519D01*
X183355078Y-48938996D01*
X183484659Y-49045341D01*
X183591004Y-49174922D01*
X183591005Y-49174924D01*
X183670024Y-49322758D01*
X183718687Y-49483177D01*
X183735117Y-49650000D01*
X183718687Y-49816823D01*
X183670024Y-49977242D01*
X183643585Y-50026705D01*
X183591004Y-50125078D01*
X183484659Y-50254659D01*
X183355078Y-50361004D01*
X183355076Y-50361005D01*
X183207242Y-50440024D01*
X183046823Y-50488687D01*
X182921804Y-50501000D01*
X182838196Y-50501000D01*
X182713177Y-50488687D01*
X182552758Y-50440024D01*
X182404924Y-50361005D01*
X182404922Y-50361004D01*
X182275341Y-50254659D01*
X182168996Y-50125078D01*
X182116415Y-50026705D01*
X182089976Y-49977242D01*
X182041313Y-49816823D01*
X182024883Y-49650000D01*
X182041313Y-49483177D01*
X182089976Y-49322758D01*
X182168995Y-49174924D01*
X182168996Y-49174922D01*
X182275341Y-49045341D01*
X182404922Y-48938996D01*
X182445103Y-48917519D01*
X182552758Y-48859976D01*
X182561036Y-48857465D01*
X182582620Y-48850917D01*
X182713177Y-48811313D01*
X182838196Y-48799000D01*
X182921804Y-48799000D01*
X183046823Y-48811313D01*
X183046823Y-48811313D01*
G37*
G36*
X164848228Y-48641703D02*
G01*
X165003100Y-48705853D01*
X165142481Y-48798985D01*
X165261015Y-48917519D01*
X165354147Y-49056900D01*
X165418297Y-49211772D01*
X165451000Y-49376184D01*
X165451000Y-49543816D01*
X165418297Y-49708228D01*
X165354147Y-49863100D01*
X165261015Y-50002481D01*
X165142481Y-50121015D01*
X165003100Y-50214147D01*
X164848228Y-50278297D01*
X164683816Y-50311000D01*
X164516184Y-50311000D01*
X164351772Y-50278297D01*
X164196900Y-50214147D01*
X164057519Y-50121015D01*
X163938985Y-50002481D01*
X163845853Y-49863100D01*
X163781703Y-49708228D01*
X163749000Y-49543816D01*
X163749000Y-49376184D01*
X163781703Y-49211772D01*
X163845853Y-49056900D01*
X163938985Y-48917519D01*
X164057519Y-48798985D01*
X164196900Y-48705853D01*
X164351772Y-48641703D01*
X164516184Y-48609000D01*
X164683816Y-48609000D01*
X164848228Y-48641703D01*
X164848228Y-48641703D01*
G37*
G36*
X173035562Y-48783181D02*
G01*
X173070481Y-48793774D01*
X173102663Y-48810976D01*
X173130873Y-48834127D01*
X173154024Y-48862337D01*
X173171226Y-48894519D01*
X173181819Y-48929438D01*
X173186000Y-48971895D01*
X173186000Y-50113105D01*
X173181819Y-50155562D01*
X173171226Y-50190481D01*
X173154024Y-50222663D01*
X173130873Y-50250873D01*
X173102663Y-50274024D01*
X173070481Y-50291226D01*
X173035562Y-50301819D01*
X172993105Y-50306000D01*
X171526895Y-50306000D01*
X171484438Y-50301819D01*
X171449519Y-50291226D01*
X171417337Y-50274024D01*
X171389127Y-50250873D01*
X171365976Y-50222663D01*
X171348774Y-50190481D01*
X171338181Y-50155562D01*
X171334000Y-50113105D01*
X171334000Y-48971895D01*
X171338181Y-48929438D01*
X171348774Y-48894519D01*
X171365976Y-48862337D01*
X171389127Y-48834127D01*
X171417337Y-48810976D01*
X171449519Y-48793774D01*
X171484438Y-48783181D01*
X171526895Y-48779000D01*
X172993105Y-48779000D01*
X173035562Y-48783181D01*
X173035562Y-48783181D01*
G37*
G36*
X162308228Y-47256703D02*
G01*
X162463100Y-47320853D01*
X162602481Y-47413985D01*
X162721015Y-47532519D01*
X162814147Y-47671900D01*
X162878297Y-47826772D01*
X162911000Y-47991184D01*
X162911000Y-48158816D01*
X162878297Y-48323228D01*
X162814147Y-48478100D01*
X162721015Y-48617481D01*
X162602481Y-48736015D01*
X162463100Y-48829147D01*
X162308228Y-48893297D01*
X162143816Y-48926000D01*
X161976184Y-48926000D01*
X161811772Y-48893297D01*
X161656900Y-48829147D01*
X161517519Y-48736015D01*
X161398985Y-48617481D01*
X161305853Y-48478100D01*
X161241703Y-48323228D01*
X161209000Y-48158816D01*
X161209000Y-47991184D01*
X161241703Y-47826772D01*
X161305853Y-47671900D01*
X161398985Y-47532519D01*
X161517519Y-47413985D01*
X161656900Y-47320853D01*
X161811772Y-47256703D01*
X161976184Y-47224000D01*
X162143816Y-47224000D01*
X162308228Y-47256703D01*
X162308228Y-47256703D01*
G37*
G36*
X183046823Y-46271313D02*
G01*
X183207242Y-46319976D01*
X183339906Y-46390886D01*
X183355078Y-46398996D01*
X183484659Y-46505341D01*
X183591004Y-46634922D01*
X183591005Y-46634924D01*
X183670024Y-46782758D01*
X183718687Y-46943177D01*
X183735117Y-47110000D01*
X183718687Y-47276823D01*
X183670024Y-47437242D01*
X183632045Y-47508295D01*
X183591004Y-47585078D01*
X183484659Y-47714659D01*
X183355078Y-47821004D01*
X183355076Y-47821005D01*
X183207242Y-47900024D01*
X183046823Y-47948687D01*
X182921804Y-47961000D01*
X182838196Y-47961000D01*
X182713177Y-47948687D01*
X182552758Y-47900024D01*
X182404924Y-47821005D01*
X182404922Y-47821004D01*
X182275341Y-47714659D01*
X182168996Y-47585078D01*
X182127955Y-47508295D01*
X182089976Y-47437242D01*
X182041313Y-47276823D01*
X182024883Y-47110000D01*
X182041313Y-46943177D01*
X182089976Y-46782758D01*
X182168995Y-46634924D01*
X182168996Y-46634922D01*
X182275341Y-46505341D01*
X182404922Y-46398996D01*
X182420094Y-46390886D01*
X182552758Y-46319976D01*
X182713177Y-46271313D01*
X182838196Y-46259000D01*
X182921804Y-46259000D01*
X183046823Y-46271313D01*
X183046823Y-46271313D01*
G37*
G36*
X175426823Y-46271313D02*
G01*
X175587242Y-46319976D01*
X175719906Y-46390886D01*
X175735078Y-46398996D01*
X175864659Y-46505341D01*
X175971004Y-46634922D01*
X175971005Y-46634924D01*
X176050024Y-46782758D01*
X176098687Y-46943177D01*
X176115117Y-47110000D01*
X176098687Y-47276823D01*
X176050024Y-47437242D01*
X176012045Y-47508295D01*
X175971004Y-47585078D01*
X175864659Y-47714659D01*
X175735078Y-47821004D01*
X175735076Y-47821005D01*
X175587242Y-47900024D01*
X175426823Y-47948687D01*
X175301804Y-47961000D01*
X175218196Y-47961000D01*
X175093177Y-47948687D01*
X174932758Y-47900024D01*
X174784924Y-47821005D01*
X174784922Y-47821004D01*
X174655341Y-47714659D01*
X174548996Y-47585078D01*
X174507955Y-47508295D01*
X174469976Y-47437242D01*
X174421313Y-47276823D01*
X174404883Y-47110000D01*
X174421313Y-46943177D01*
X174469976Y-46782758D01*
X174548995Y-46634924D01*
X174548996Y-46634922D01*
X174655341Y-46505341D01*
X174784922Y-46398996D01*
X174800094Y-46390886D01*
X174932758Y-46319976D01*
X175093177Y-46271313D01*
X175218196Y-46259000D01*
X175301804Y-46259000D01*
X175426823Y-46271313D01*
X175426823Y-46271313D01*
G37*
G36*
X164848228Y-45871703D02*
G01*
X165003100Y-45935853D01*
X165142481Y-46028985D01*
X165261015Y-46147519D01*
X165354147Y-46286900D01*
X165418297Y-46441772D01*
X165451000Y-46606184D01*
X165451000Y-46773816D01*
X165418297Y-46938228D01*
X165354147Y-47093100D01*
X165261015Y-47232481D01*
X165142481Y-47351015D01*
X165003100Y-47444147D01*
X164848228Y-47508297D01*
X164683816Y-47541000D01*
X164516184Y-47541000D01*
X164351772Y-47508297D01*
X164196900Y-47444147D01*
X164057519Y-47351015D01*
X163938985Y-47232481D01*
X163845853Y-47093100D01*
X163781703Y-46938228D01*
X163749000Y-46773816D01*
X163749000Y-46606184D01*
X163781703Y-46441772D01*
X163845853Y-46286900D01*
X163938985Y-46147519D01*
X164057519Y-46028985D01*
X164196900Y-45935853D01*
X164351772Y-45871703D01*
X164516184Y-45839000D01*
X164683816Y-45839000D01*
X164848228Y-45871703D01*
X164848228Y-45871703D01*
G37*
G36*
X173035562Y-45758181D02*
G01*
X173070481Y-45768774D01*
X173102663Y-45785976D01*
X173130873Y-45809127D01*
X173154024Y-45837337D01*
X173171226Y-45869519D01*
X173181819Y-45904438D01*
X173186000Y-45946895D01*
X173186000Y-47088105D01*
X173181819Y-47130562D01*
X173171226Y-47165481D01*
X173154024Y-47197663D01*
X173130873Y-47225873D01*
X173102663Y-47249024D01*
X173070481Y-47266226D01*
X173035562Y-47276819D01*
X172993105Y-47281000D01*
X171526895Y-47281000D01*
X171484438Y-47276819D01*
X171449519Y-47266226D01*
X171417337Y-47249024D01*
X171389127Y-47225873D01*
X171365976Y-47197663D01*
X171348774Y-47165481D01*
X171338181Y-47130562D01*
X171334000Y-47088105D01*
X171334000Y-45946895D01*
X171338181Y-45904438D01*
X171348774Y-45869519D01*
X171365976Y-45837337D01*
X171389127Y-45809127D01*
X171417337Y-45785976D01*
X171449519Y-45768774D01*
X171484438Y-45758181D01*
X171526895Y-45754000D01*
X172993105Y-45754000D01*
X173035562Y-45758181D01*
X173035562Y-45758181D01*
G37*
G36*
X170035562Y-44728181D02*
G01*
X170070481Y-44738774D01*
X170102663Y-44755976D01*
X170130873Y-44779127D01*
X170154024Y-44807337D01*
X170171226Y-44839519D01*
X170181819Y-44874438D01*
X170186000Y-44916895D01*
X170186000Y-46058105D01*
X170181819Y-46100562D01*
X170171226Y-46135481D01*
X170154024Y-46167663D01*
X170130873Y-46195873D01*
X170102663Y-46219024D01*
X170070481Y-46236226D01*
X170035562Y-46246819D01*
X169993105Y-46251000D01*
X168526895Y-46251000D01*
X168484438Y-46246819D01*
X168449519Y-46236226D01*
X168417337Y-46219024D01*
X168389127Y-46195873D01*
X168365976Y-46167663D01*
X168348774Y-46135481D01*
X168338181Y-46100562D01*
X168334000Y-46058105D01*
X168334000Y-44916895D01*
X168338181Y-44874438D01*
X168348774Y-44839519D01*
X168365976Y-44807337D01*
X168389127Y-44779127D01*
X168417337Y-44755976D01*
X168449519Y-44738774D01*
X168484438Y-44728181D01*
X168526895Y-44724000D01*
X169993105Y-44724000D01*
X170035562Y-44728181D01*
X170035562Y-44728181D01*
G37*
G36*
X162308228Y-44486703D02*
G01*
X162463100Y-44550853D01*
X162602481Y-44643985D01*
X162721015Y-44762519D01*
X162814147Y-44901900D01*
X162878297Y-45056772D01*
X162911000Y-45221184D01*
X162911000Y-45388816D01*
X162878297Y-45553228D01*
X162814147Y-45708100D01*
X162721015Y-45847481D01*
X162602481Y-45966015D01*
X162463100Y-46059147D01*
X162308228Y-46123297D01*
X162143816Y-46156000D01*
X161976184Y-46156000D01*
X161811772Y-46123297D01*
X161656900Y-46059147D01*
X161517519Y-45966015D01*
X161398985Y-45847481D01*
X161305853Y-45708100D01*
X161241703Y-45553228D01*
X161209000Y-45388816D01*
X161209000Y-45221184D01*
X161241703Y-45056772D01*
X161305853Y-44901900D01*
X161398985Y-44762519D01*
X161517519Y-44643985D01*
X161656900Y-44550853D01*
X161811772Y-44486703D01*
X161976184Y-44454000D01*
X162143816Y-44454000D01*
X162308228Y-44486703D01*
X162308228Y-44486703D01*
G37*
G36*
X175426823Y-43731313D02*
G01*
X175587242Y-43779976D01*
X175719906Y-43850886D01*
X175735078Y-43858996D01*
X175864659Y-43965341D01*
X175971004Y-44094922D01*
X175971005Y-44094924D01*
X176050024Y-44242758D01*
X176098687Y-44403177D01*
X176115117Y-44570000D01*
X176098687Y-44736823D01*
X176050024Y-44897242D01*
X176017492Y-44958105D01*
X175971004Y-45045078D01*
X175864659Y-45174659D01*
X175735078Y-45281004D01*
X175735076Y-45281005D01*
X175587242Y-45360024D01*
X175426823Y-45408687D01*
X175301804Y-45421000D01*
X175218196Y-45421000D01*
X175093177Y-45408687D01*
X174932758Y-45360024D01*
X174784924Y-45281005D01*
X174784922Y-45281004D01*
X174655341Y-45174659D01*
X174548996Y-45045078D01*
X174502508Y-44958105D01*
X174469976Y-44897242D01*
X174421313Y-44736823D01*
X174404883Y-44570000D01*
X174421313Y-44403177D01*
X174469976Y-44242758D01*
X174548995Y-44094924D01*
X174548996Y-44094922D01*
X174655341Y-43965341D01*
X174784922Y-43858996D01*
X174800094Y-43850886D01*
X174932758Y-43779976D01*
X175093177Y-43731313D01*
X175218196Y-43719000D01*
X175301804Y-43719000D01*
X175426823Y-43731313D01*
X175426823Y-43731313D01*
G37*
G36*
X183046823Y-43731313D02*
G01*
X183207242Y-43779976D01*
X183339906Y-43850886D01*
X183355078Y-43858996D01*
X183484659Y-43965341D01*
X183591004Y-44094922D01*
X183591005Y-44094924D01*
X183670024Y-44242758D01*
X183718687Y-44403177D01*
X183735117Y-44570000D01*
X183718687Y-44736823D01*
X183670024Y-44897242D01*
X183637492Y-44958105D01*
X183591004Y-45045078D01*
X183484659Y-45174659D01*
X183355078Y-45281004D01*
X183355076Y-45281005D01*
X183207242Y-45360024D01*
X183046823Y-45408687D01*
X182921804Y-45421000D01*
X182838196Y-45421000D01*
X182713177Y-45408687D01*
X182552758Y-45360024D01*
X182404924Y-45281005D01*
X182404922Y-45281004D01*
X182275341Y-45174659D01*
X182168996Y-45045078D01*
X182122508Y-44958105D01*
X182089976Y-44897242D01*
X182041313Y-44736823D01*
X182024883Y-44570000D01*
X182041313Y-44403177D01*
X182089976Y-44242758D01*
X182168995Y-44094924D01*
X182168996Y-44094922D01*
X182275341Y-43965341D01*
X182404922Y-43858996D01*
X182420094Y-43850886D01*
X182552758Y-43779976D01*
X182713177Y-43731313D01*
X182838196Y-43719000D01*
X182921804Y-43719000D01*
X183046823Y-43731313D01*
X183046823Y-43731313D01*
G37*
G36*
X186275562Y-43628181D02*
G01*
X186310481Y-43638774D01*
X186342663Y-43655976D01*
X186370873Y-43679127D01*
X186394024Y-43707337D01*
X186411226Y-43739519D01*
X186421819Y-43774438D01*
X186426000Y-43816895D01*
X186426000Y-44958105D01*
X186421819Y-45000562D01*
X186411226Y-45035481D01*
X186394024Y-45067663D01*
X186370873Y-45095873D01*
X186342663Y-45119024D01*
X186310481Y-45136226D01*
X186275562Y-45146819D01*
X186233105Y-45151000D01*
X184766895Y-45151000D01*
X184724438Y-45146819D01*
X184689519Y-45136226D01*
X184657337Y-45119024D01*
X184629127Y-45095873D01*
X184605976Y-45067663D01*
X184588774Y-45035481D01*
X184578181Y-45000562D01*
X184574000Y-44958105D01*
X184574000Y-43816895D01*
X184578181Y-43774438D01*
X184588774Y-43739519D01*
X184605976Y-43707337D01*
X184629127Y-43679127D01*
X184657337Y-43655976D01*
X184689519Y-43638774D01*
X184724438Y-43628181D01*
X184766895Y-43624000D01*
X186233105Y-43624000D01*
X186275562Y-43628181D01*
X186275562Y-43628181D01*
G37*
G36*
X164848228Y-43101703D02*
G01*
X165003100Y-43165853D01*
X165142481Y-43258985D01*
X165261015Y-43377519D01*
X165354147Y-43516900D01*
X165418297Y-43671772D01*
X165451000Y-43836184D01*
X165451000Y-44003816D01*
X165418297Y-44168228D01*
X165354147Y-44323100D01*
X165261015Y-44462481D01*
X165142481Y-44581015D01*
X165003100Y-44674147D01*
X164848228Y-44738297D01*
X164683816Y-44771000D01*
X164516184Y-44771000D01*
X164351772Y-44738297D01*
X164196900Y-44674147D01*
X164057519Y-44581015D01*
X163938985Y-44462481D01*
X163845853Y-44323100D01*
X163781703Y-44168228D01*
X163749000Y-44003816D01*
X163749000Y-43836184D01*
X163781703Y-43671772D01*
X163845853Y-43516900D01*
X163938985Y-43377519D01*
X164057519Y-43258985D01*
X164196900Y-43165853D01*
X164351772Y-43101703D01*
X164516184Y-43069000D01*
X164683816Y-43069000D01*
X164848228Y-43101703D01*
X164848228Y-43101703D01*
G37*
G36*
X173035562Y-42783181D02*
G01*
X173070481Y-42793774D01*
X173102663Y-42810976D01*
X173130873Y-42834127D01*
X173154024Y-42862337D01*
X173171226Y-42894519D01*
X173181819Y-42929438D01*
X173186000Y-42971895D01*
X173186000Y-44113105D01*
X173181819Y-44155562D01*
X173171226Y-44190481D01*
X173154024Y-44222663D01*
X173130873Y-44250873D01*
X173102663Y-44274024D01*
X173070481Y-44291226D01*
X173035562Y-44301819D01*
X172993105Y-44306000D01*
X171526895Y-44306000D01*
X171484438Y-44301819D01*
X171449519Y-44291226D01*
X171417337Y-44274024D01*
X171389127Y-44250873D01*
X171365976Y-44222663D01*
X171348774Y-44190481D01*
X171338181Y-44155562D01*
X171334000Y-44113105D01*
X171334000Y-42971895D01*
X171338181Y-42929438D01*
X171348774Y-42894519D01*
X171365976Y-42862337D01*
X171389127Y-42834127D01*
X171417337Y-42810976D01*
X171449519Y-42793774D01*
X171484438Y-42783181D01*
X171526895Y-42779000D01*
X172993105Y-42779000D01*
X173035562Y-42783181D01*
X173035562Y-42783181D01*
G37*
G36*
X170035562Y-41753181D02*
G01*
X170070481Y-41763774D01*
X170102663Y-41780976D01*
X170130873Y-41804127D01*
X170154024Y-41832337D01*
X170171226Y-41864519D01*
X170181819Y-41899438D01*
X170186000Y-41941895D01*
X170186000Y-43083105D01*
X170181819Y-43125562D01*
X170171226Y-43160481D01*
X170154024Y-43192663D01*
X170130873Y-43220873D01*
X170102663Y-43244024D01*
X170070481Y-43261226D01*
X170035562Y-43271819D01*
X169993105Y-43276000D01*
X168526895Y-43276000D01*
X168484438Y-43271819D01*
X168449519Y-43261226D01*
X168417337Y-43244024D01*
X168389127Y-43220873D01*
X168365976Y-43192663D01*
X168348774Y-43160481D01*
X168338181Y-43125562D01*
X168334000Y-43083105D01*
X168334000Y-41941895D01*
X168338181Y-41899438D01*
X168348774Y-41864519D01*
X168365976Y-41832337D01*
X168389127Y-41804127D01*
X168417337Y-41780976D01*
X168449519Y-41763774D01*
X168484438Y-41753181D01*
X168526895Y-41749000D01*
X169993105Y-41749000D01*
X170035562Y-41753181D01*
X170035562Y-41753181D01*
G37*
G36*
X183046823Y-41191313D02*
G01*
X183207242Y-41239976D01*
X183339906Y-41310886D01*
X183355078Y-41318996D01*
X183484659Y-41425341D01*
X183591004Y-41554922D01*
X183591005Y-41554924D01*
X183670024Y-41702758D01*
X183718687Y-41863177D01*
X183735117Y-42030000D01*
X183718687Y-42196823D01*
X183670024Y-42357242D01*
X183599114Y-42489906D01*
X183591004Y-42505078D01*
X183484659Y-42634659D01*
X183355078Y-42741004D01*
X183355076Y-42741005D01*
X183207242Y-42820024D01*
X183046823Y-42868687D01*
X182921804Y-42881000D01*
X182838196Y-42881000D01*
X182713177Y-42868687D01*
X182552758Y-42820024D01*
X182404924Y-42741005D01*
X182404922Y-42741004D01*
X182275341Y-42634659D01*
X182168996Y-42505078D01*
X182160886Y-42489906D01*
X182089976Y-42357242D01*
X182041313Y-42196823D01*
X182024883Y-42030000D01*
X182041313Y-41863177D01*
X182089976Y-41702758D01*
X182168995Y-41554924D01*
X182168996Y-41554922D01*
X182275341Y-41425341D01*
X182404922Y-41318996D01*
X182420094Y-41310886D01*
X182552758Y-41239976D01*
X182713177Y-41191313D01*
X182838196Y-41179000D01*
X182921804Y-41179000D01*
X183046823Y-41191313D01*
X183046823Y-41191313D01*
G37*
G36*
X176111000Y-42881000D02*
G01*
X174409000Y-42881000D01*
X174409000Y-41179000D01*
X176111000Y-41179000D01*
X176111000Y-42881000D01*
X176111000Y-42881000D01*
G37*
G36*
X186275562Y-40653181D02*
G01*
X186310481Y-40663774D01*
X186342663Y-40680976D01*
X186370873Y-40704127D01*
X186394024Y-40732337D01*
X186411226Y-40764519D01*
X186421819Y-40799438D01*
X186426000Y-40841895D01*
X186426000Y-41983105D01*
X186421819Y-42025562D01*
X186411226Y-42060481D01*
X186394024Y-42092663D01*
X186370873Y-42120873D01*
X186342663Y-42144024D01*
X186310481Y-42161226D01*
X186275562Y-42171819D01*
X186233105Y-42176000D01*
X184766895Y-42176000D01*
X184724438Y-42171819D01*
X184689519Y-42161226D01*
X184657337Y-42144024D01*
X184629127Y-42120873D01*
X184605976Y-42092663D01*
X184588774Y-42060481D01*
X184578181Y-42025562D01*
X184574000Y-41983105D01*
X184574000Y-40841895D01*
X184578181Y-40799438D01*
X184588774Y-40764519D01*
X184605976Y-40732337D01*
X184629127Y-40704127D01*
X184657337Y-40680976D01*
X184689519Y-40663774D01*
X184724438Y-40653181D01*
X184766895Y-40649000D01*
X186233105Y-40649000D01*
X186275562Y-40653181D01*
X186275562Y-40653181D01*
G37*
G36*
X180751000Y-39651000D02*
G01*
X178849000Y-39651000D01*
X178849000Y-37749000D01*
X180751000Y-37749000D01*
X180751000Y-39651000D01*
X180751000Y-39651000D01*
G37*
G36*
X184351000Y-39651000D02*
G01*
X182449000Y-39651000D01*
X182449000Y-37749000D01*
X184351000Y-37749000D01*
X184351000Y-39651000D01*
X184351000Y-39651000D01*
G37*
G36*
X163928254Y-34947818D02*
G01*
X164301511Y-35102426D01*
X164301513Y-35102427D01*
X164637436Y-35326884D01*
X164923116Y-35612564D01*
X165095112Y-35869973D01*
X165147574Y-35948489D01*
X165302182Y-36321746D01*
X165381000Y-36717993D01*
X165381000Y-37122007D01*
X165302182Y-37518254D01*
X165206604Y-37749000D01*
X165147573Y-37891513D01*
X164923116Y-38227436D01*
X164637436Y-38513116D01*
X164301513Y-38737573D01*
X164301512Y-38737574D01*
X164301511Y-38737574D01*
X163928254Y-38892182D01*
X163532007Y-38971000D01*
X163127993Y-38971000D01*
X162731746Y-38892182D01*
X162358489Y-38737574D01*
X162358488Y-38737574D01*
X162358487Y-38737573D01*
X162022564Y-38513116D01*
X161736884Y-38227436D01*
X161512427Y-37891513D01*
X161453396Y-37749000D01*
X161357818Y-37518254D01*
X161279000Y-37122007D01*
X161279000Y-36717993D01*
X161357818Y-36321746D01*
X161512426Y-35948489D01*
X161564889Y-35869973D01*
X161736884Y-35612564D01*
X162022564Y-35326884D01*
X162358487Y-35102427D01*
X162358489Y-35102426D01*
X162731746Y-34947818D01*
X163127993Y-34869000D01*
X163532007Y-34869000D01*
X163928254Y-34947818D01*
X163928254Y-34947818D01*
G37*
G36*
X175186564Y-34199389D02*
G01*
X175353693Y-34268616D01*
X175377835Y-34278616D01*
X175549973Y-34393635D01*
X175696365Y-34540027D01*
X175804704Y-34702167D01*
X175811385Y-34712167D01*
X175890611Y-34903436D01*
X175931000Y-35106484D01*
X175931000Y-35313516D01*
X175890611Y-35516564D01*
X175815527Y-35697833D01*
X175811384Y-35707835D01*
X175696365Y-35879973D01*
X175549973Y-36026365D01*
X175377835Y-36141384D01*
X175377834Y-36141385D01*
X175377833Y-36141385D01*
X175186564Y-36220611D01*
X174983516Y-36261000D01*
X174776484Y-36261000D01*
X174573436Y-36220611D01*
X174382167Y-36141385D01*
X174382166Y-36141385D01*
X174382165Y-36141384D01*
X174210027Y-36026365D01*
X174063635Y-35879973D01*
X173948616Y-35707835D01*
X173944473Y-35697833D01*
X173869389Y-35516564D01*
X173829000Y-35313516D01*
X173829000Y-35106484D01*
X173869389Y-34903436D01*
X173948615Y-34712167D01*
X173955297Y-34702167D01*
X174063635Y-34540027D01*
X174210027Y-34393635D01*
X174382165Y-34278616D01*
X174406307Y-34268616D01*
X174573436Y-34199389D01*
X174776484Y-34159000D01*
X174983516Y-34159000D01*
X175186564Y-34199389D01*
X175186564Y-34199389D01*
G37*
G36*
X170106564Y-34189389D02*
G01*
X170297833Y-34268615D01*
X170297835Y-34268616D01*
X170312801Y-34278616D01*
X170469973Y-34383635D01*
X170616365Y-34530027D01*
X170731385Y-34702167D01*
X170810611Y-34893436D01*
X170851000Y-35096484D01*
X170851000Y-35303516D01*
X170810611Y-35506564D01*
X170806468Y-35516565D01*
X170731384Y-35697835D01*
X170616365Y-35869973D01*
X170469973Y-36016365D01*
X170297835Y-36131384D01*
X170297834Y-36131385D01*
X170297833Y-36131385D01*
X170106564Y-36210611D01*
X169903516Y-36251000D01*
X169696484Y-36251000D01*
X169493436Y-36210611D01*
X169302167Y-36131385D01*
X169302166Y-36131385D01*
X169302165Y-36131384D01*
X169130027Y-36016365D01*
X168983635Y-35869973D01*
X168868616Y-35697835D01*
X168793532Y-35516565D01*
X168789389Y-35506564D01*
X168749000Y-35303516D01*
X168749000Y-35096484D01*
X168789389Y-34893436D01*
X168868615Y-34702167D01*
X168983635Y-34530027D01*
X169130027Y-34383635D01*
X169287199Y-34278616D01*
X169302165Y-34268616D01*
X169302167Y-34268615D01*
X169493436Y-34189389D01*
X169696484Y-34149000D01*
X169903516Y-34149000D01*
X170106564Y-34189389D01*
X170106564Y-34189389D01*
G37*
G36*
X187148228Y-31181703D02*
G01*
X187303100Y-31245853D01*
X187442481Y-31338985D01*
X187561015Y-31457519D01*
X187654147Y-31596900D01*
X187718297Y-31751772D01*
X187751000Y-31916184D01*
X187751000Y-32083816D01*
X187718297Y-32248228D01*
X187654147Y-32403100D01*
X187561015Y-32542481D01*
X187442481Y-32661015D01*
X187303100Y-32754147D01*
X187148228Y-32818297D01*
X186983816Y-32851000D01*
X186816184Y-32851000D01*
X186651772Y-32818297D01*
X186496900Y-32754147D01*
X186357519Y-32661015D01*
X186238985Y-32542481D01*
X186145853Y-32403100D01*
X186081703Y-32248228D01*
X186049000Y-32083816D01*
X186049000Y-31916184D01*
X186081703Y-31751772D01*
X186145853Y-31596900D01*
X186238985Y-31457519D01*
X186357519Y-31338985D01*
X186496900Y-31245853D01*
X186651772Y-31181703D01*
X186816184Y-31149000D01*
X186983816Y-31149000D01*
X187148228Y-31181703D01*
X187148228Y-31181703D01*
G37*
G36*
X192148228Y-31181703D02*
G01*
X192303100Y-31245853D01*
X192442481Y-31338985D01*
X192561015Y-31457519D01*
X192654147Y-31596900D01*
X192718297Y-31751772D01*
X192751000Y-31916184D01*
X192751000Y-32083816D01*
X192718297Y-32248228D01*
X192654147Y-32403100D01*
X192561015Y-32542481D01*
X192442481Y-32661015D01*
X192303100Y-32754147D01*
X192148228Y-32818297D01*
X191983816Y-32851000D01*
X191816184Y-32851000D01*
X191651772Y-32818297D01*
X191496900Y-32754147D01*
X191357519Y-32661015D01*
X191238985Y-32542481D01*
X191145853Y-32403100D01*
X191081703Y-32248228D01*
X191049000Y-32083816D01*
X191049000Y-31916184D01*
X191081703Y-31751772D01*
X191145853Y-31596900D01*
X191238985Y-31457519D01*
X191357519Y-31338985D01*
X191496900Y-31245853D01*
X191651772Y-31181703D01*
X191816184Y-31149000D01*
X191983816Y-31149000D01*
X192148228Y-31181703D01*
X192148228Y-31181703D01*
G37*
G36*
X183586425Y-30142760D02*
G01*
X183586428Y-30142761D01*
X183586429Y-30142761D01*
X183765693Y-30197140D01*
X183765696Y-30197142D01*
X183765697Y-30197142D01*
X183930903Y-30285446D01*
X184075712Y-30404288D01*
X184194554Y-30549097D01*
X184282858Y-30714303D01*
X184282860Y-30714307D01*
X184337239Y-30893571D01*
X184337240Y-30893575D01*
X184355601Y-31080000D01*
X184337240Y-31266425D01*
X184337239Y-31266428D01*
X184337239Y-31266429D01*
X184282860Y-31445693D01*
X184282858Y-31445696D01*
X184282858Y-31445697D01*
X184194554Y-31610903D01*
X184075712Y-31755712D01*
X183930903Y-31874554D01*
X183765697Y-31962858D01*
X183765693Y-31962860D01*
X183586429Y-32017239D01*
X183586428Y-32017239D01*
X183586425Y-32017240D01*
X183446718Y-32031000D01*
X183353282Y-32031000D01*
X183213575Y-32017240D01*
X183213572Y-32017239D01*
X183213571Y-32017239D01*
X183034307Y-31962860D01*
X183034303Y-31962858D01*
X182869097Y-31874554D01*
X182724288Y-31755712D01*
X182605446Y-31610903D01*
X182517142Y-31445697D01*
X182517142Y-31445696D01*
X182517140Y-31445693D01*
X182462761Y-31266429D01*
X182462761Y-31266428D01*
X182462760Y-31266425D01*
X182444399Y-31080000D01*
X182462760Y-30893575D01*
X182462761Y-30893571D01*
X182517140Y-30714307D01*
X182517142Y-30714303D01*
X182605446Y-30549097D01*
X182724288Y-30404288D01*
X182869097Y-30285446D01*
X183034303Y-30197142D01*
X183034304Y-30197142D01*
X183034307Y-30197140D01*
X183213571Y-30142761D01*
X183213572Y-30142761D01*
X183213575Y-30142760D01*
X183353282Y-30129000D01*
X183446718Y-30129000D01*
X183586425Y-30142760D01*
X183586425Y-30142760D01*
G37*
G36*
X179986425Y-30142760D02*
G01*
X179986428Y-30142761D01*
X179986429Y-30142761D01*
X180165693Y-30197140D01*
X180165696Y-30197142D01*
X180165697Y-30197142D01*
X180330903Y-30285446D01*
X180475712Y-30404288D01*
X180594554Y-30549097D01*
X180682858Y-30714303D01*
X180682860Y-30714307D01*
X180737239Y-30893571D01*
X180737240Y-30893575D01*
X180755601Y-31080000D01*
X180737240Y-31266425D01*
X180737239Y-31266428D01*
X180737239Y-31266429D01*
X180682860Y-31445693D01*
X180682858Y-31445696D01*
X180682858Y-31445697D01*
X180594554Y-31610903D01*
X180475712Y-31755712D01*
X180330903Y-31874554D01*
X180165697Y-31962858D01*
X180165693Y-31962860D01*
X179986429Y-32017239D01*
X179986428Y-32017239D01*
X179986425Y-32017240D01*
X179846718Y-32031000D01*
X179753282Y-32031000D01*
X179613575Y-32017240D01*
X179613572Y-32017239D01*
X179613571Y-32017239D01*
X179434307Y-31962860D01*
X179434303Y-31962858D01*
X179269097Y-31874554D01*
X179124288Y-31755712D01*
X179005446Y-31610903D01*
X178917142Y-31445697D01*
X178917142Y-31445696D01*
X178917140Y-31445693D01*
X178862761Y-31266429D01*
X178862761Y-31266428D01*
X178862760Y-31266425D01*
X178844399Y-31080000D01*
X178862760Y-30893575D01*
X178862761Y-30893571D01*
X178917140Y-30714307D01*
X178917142Y-30714303D01*
X179005446Y-30549097D01*
X179124288Y-30404288D01*
X179269097Y-30285446D01*
X179434303Y-30197142D01*
X179434304Y-30197142D01*
X179434307Y-30197140D01*
X179613571Y-30142761D01*
X179613572Y-30142761D01*
X179613575Y-30142760D01*
X179753282Y-30129000D01*
X179846718Y-30129000D01*
X179986425Y-30142760D01*
X179986425Y-30142760D01*
G37*
G36*
X187248228Y-28181703D02*
G01*
X187403100Y-28245853D01*
X187542481Y-28338985D01*
X187661015Y-28457519D01*
X187754147Y-28596900D01*
X187818297Y-28751772D01*
X187851000Y-28916184D01*
X187851000Y-29083816D01*
X187818297Y-29248228D01*
X187754147Y-29403100D01*
X187661015Y-29542481D01*
X187542481Y-29661015D01*
X187403100Y-29754147D01*
X187248228Y-29818297D01*
X187083816Y-29851000D01*
X186916184Y-29851000D01*
X186751772Y-29818297D01*
X186596900Y-29754147D01*
X186457519Y-29661015D01*
X186338985Y-29542481D01*
X186245853Y-29403100D01*
X186181703Y-29248228D01*
X186149000Y-29083816D01*
X186149000Y-28916184D01*
X186181703Y-28751772D01*
X186245853Y-28596900D01*
X186338985Y-28457519D01*
X186457519Y-28338985D01*
X186596900Y-28245853D01*
X186751772Y-28181703D01*
X186916184Y-28149000D01*
X187083816Y-28149000D01*
X187248228Y-28181703D01*
X187248228Y-28181703D01*
G37*
G36*
X192248228Y-28181703D02*
G01*
X192403100Y-28245853D01*
X192542481Y-28338985D01*
X192661015Y-28457519D01*
X192754147Y-28596900D01*
X192818297Y-28751772D01*
X192851000Y-28916184D01*
X192851000Y-29083816D01*
X192818297Y-29248228D01*
X192754147Y-29403100D01*
X192661015Y-29542481D01*
X192542481Y-29661015D01*
X192403100Y-29754147D01*
X192248228Y-29818297D01*
X192083816Y-29851000D01*
X191916184Y-29851000D01*
X191751772Y-29818297D01*
X191596900Y-29754147D01*
X191457519Y-29661015D01*
X191338985Y-29542481D01*
X191245853Y-29403100D01*
X191181703Y-29248228D01*
X191149000Y-29083816D01*
X191149000Y-28916184D01*
X191181703Y-28751772D01*
X191245853Y-28596900D01*
X191338985Y-28457519D01*
X191457519Y-28338985D01*
X191596900Y-28245853D01*
X191751772Y-28181703D01*
X191916184Y-28149000D01*
X192083816Y-28149000D01*
X192248228Y-28181703D01*
X192248228Y-28181703D01*
G37*
G36*
X197848204Y-25885917D02*
G01*
X197981579Y-25912447D01*
X198282042Y-26036903D01*
X198552451Y-26217585D01*
X198782415Y-26447549D01*
X198782416Y-26447551D01*
X198963098Y-26717960D01*
X199087553Y-27018422D01*
X199151000Y-27337389D01*
X199151000Y-27662611D01*
X199087553Y-27981578D01*
X198978088Y-28245852D01*
X198963097Y-28282042D01*
X198782415Y-28552451D01*
X198552451Y-28782415D01*
X198282042Y-28963097D01*
X197981579Y-29087553D01*
X197875256Y-29108702D01*
X197662611Y-29151000D01*
X197337389Y-29151000D01*
X197124744Y-29108702D01*
X197018421Y-29087553D01*
X196717958Y-28963097D01*
X196447549Y-28782415D01*
X196217585Y-28552451D01*
X196036903Y-28282042D01*
X196021913Y-28245852D01*
X195912447Y-27981578D01*
X195849000Y-27662611D01*
X195849000Y-27337389D01*
X195912447Y-27018422D01*
X196036902Y-26717960D01*
X196217584Y-26447551D01*
X196217585Y-26447549D01*
X196447549Y-26217585D01*
X196717958Y-26036903D01*
X197018421Y-25912447D01*
X197151796Y-25885917D01*
X197337389Y-25849000D01*
X197662611Y-25849000D01*
X197848204Y-25885917D01*
X197848204Y-25885917D01*
G37*
G36*
X159348204Y-25885917D02*
G01*
X159481579Y-25912447D01*
X159782042Y-26036903D01*
X160052451Y-26217585D01*
X160282415Y-26447549D01*
X160282416Y-26447551D01*
X160463098Y-26717960D01*
X160587553Y-27018422D01*
X160651000Y-27337389D01*
X160651000Y-27662611D01*
X160587553Y-27981578D01*
X160478088Y-28245852D01*
X160463097Y-28282042D01*
X160282415Y-28552451D01*
X160052451Y-28782415D01*
X159782042Y-28963097D01*
X159481579Y-29087553D01*
X159375256Y-29108702D01*
X159162611Y-29151000D01*
X158837389Y-29151000D01*
X158624744Y-29108702D01*
X158518421Y-29087553D01*
X158217958Y-28963097D01*
X157947549Y-28782415D01*
X157717585Y-28552451D01*
X157536903Y-28282042D01*
X157521913Y-28245852D01*
X157412447Y-27981578D01*
X157349000Y-27662611D01*
X157349000Y-27337389D01*
X157412447Y-27018422D01*
X157536902Y-26717960D01*
X157717584Y-26447551D01*
X157717585Y-26447549D01*
X157947549Y-26217585D01*
X158217958Y-26036903D01*
X158518421Y-25912447D01*
X158651796Y-25885917D01*
X158837389Y-25849000D01*
X159162611Y-25849000D01*
X159348204Y-25885917D01*
X159348204Y-25885917D01*
G37*
G36*
X168201000Y-26301000D02*
G01*
X165599000Y-26301000D01*
X165599000Y-23699000D01*
X168201000Y-23699000D01*
X168201000Y-26301000D01*
X168201000Y-26301000D01*
G37*
G36*
X172279487Y-23748996D02*
G01*
X172516253Y-23847068D01*
X172516255Y-23847069D01*
X172661540Y-23944145D01*
X172729339Y-23989447D01*
X172910553Y-24170661D01*
X173052932Y-24383747D01*
X173151004Y-24620513D01*
X173201000Y-24871861D01*
X173201000Y-25128139D01*
X173151004Y-25379487D01*
X173128680Y-25433381D01*
X173052931Y-25616255D01*
X172910553Y-25829339D01*
X172729339Y-26010553D01*
X172516255Y-26152931D01*
X172516254Y-26152932D01*
X172516253Y-26152932D01*
X172279487Y-26251004D01*
X172028139Y-26301000D01*
X171771861Y-26301000D01*
X171520513Y-26251004D01*
X171283747Y-26152932D01*
X171283746Y-26152932D01*
X171283745Y-26152931D01*
X171070661Y-26010553D01*
X170889447Y-25829339D01*
X170747069Y-25616255D01*
X170671320Y-25433381D01*
X170648996Y-25379487D01*
X170599000Y-25128139D01*
X170599000Y-24871861D01*
X170648996Y-24620513D01*
X170747068Y-24383747D01*
X170889447Y-24170661D01*
X171070661Y-23989447D01*
X171138460Y-23944145D01*
X171283745Y-23847069D01*
X171283747Y-23847068D01*
X171520513Y-23748996D01*
X171771861Y-23699000D01*
X172028139Y-23699000D01*
X172279487Y-23748996D01*
X172279487Y-23748996D01*
G37*
G36*
X177279487Y-23748996D02*
G01*
X177516253Y-23847068D01*
X177516255Y-23847069D01*
X177661540Y-23944145D01*
X177729339Y-23989447D01*
X177910553Y-24170661D01*
X178052932Y-24383747D01*
X178151004Y-24620513D01*
X178201000Y-24871861D01*
X178201000Y-25128139D01*
X178151004Y-25379487D01*
X178128680Y-25433381D01*
X178052931Y-25616255D01*
X177910553Y-25829339D01*
X177729339Y-26010553D01*
X177516255Y-26152931D01*
X177516254Y-26152932D01*
X177516253Y-26152932D01*
X177279487Y-26251004D01*
X177028139Y-26301000D01*
X176771861Y-26301000D01*
X176520513Y-26251004D01*
X176283747Y-26152932D01*
X176283746Y-26152932D01*
X176283745Y-26152931D01*
X176070661Y-26010553D01*
X175889447Y-25829339D01*
X175747069Y-25616255D01*
X175671320Y-25433381D01*
X175648996Y-25379487D01*
X175599000Y-25128139D01*
X175599000Y-24871861D01*
X175648996Y-24620513D01*
X175747068Y-24383747D01*
X175889447Y-24170661D01*
X176070661Y-23989447D01*
X176138460Y-23944145D01*
X176283745Y-23847069D01*
X176283747Y-23847068D01*
X176520513Y-23748996D01*
X176771861Y-23699000D01*
X177028139Y-23699000D01*
X177279487Y-23748996D01*
X177279487Y-23748996D01*
G37*
G36*
X186336719Y-23963520D02*
G01*
X186525880Y-24020901D01*
X186525883Y-24020902D01*
X186618333Y-24070318D01*
X186700212Y-24114083D01*
X186853015Y-24239485D01*
X186978417Y-24392288D01*
X187071599Y-24566619D01*
X187128980Y-24755780D01*
X187143500Y-24903206D01*
X187143500Y-25096793D01*
X187128980Y-25244219D01*
X187087947Y-25379487D01*
X187071598Y-25433383D01*
X187022182Y-25525833D01*
X186978417Y-25607712D01*
X186853015Y-25760515D01*
X186700212Y-25885917D01*
X186525881Y-25979099D01*
X186336720Y-26036480D01*
X186140000Y-26055855D01*
X185943281Y-26036480D01*
X185754120Y-25979099D01*
X185579788Y-25885917D01*
X185426985Y-25760515D01*
X185301583Y-25607712D01*
X185208401Y-25433381D01*
X185151020Y-25244220D01*
X185136500Y-25096794D01*
X185136500Y-24903207D01*
X185151020Y-24755781D01*
X185208401Y-24566620D01*
X185208402Y-24566617D01*
X185257818Y-24474167D01*
X185301583Y-24392288D01*
X185426985Y-24239485D01*
X185579788Y-24114083D01*
X185754119Y-24020901D01*
X185943280Y-23963520D01*
X186140000Y-23944145D01*
X186336719Y-23963520D01*
X186336719Y-23963520D01*
G37*
G36*
X188876719Y-23963520D02*
G01*
X189065880Y-24020901D01*
X189065883Y-24020902D01*
X189158333Y-24070318D01*
X189240212Y-24114083D01*
X189393015Y-24239485D01*
X189518417Y-24392288D01*
X189611599Y-24566619D01*
X189668980Y-24755780D01*
X189683500Y-24903206D01*
X189683500Y-25096793D01*
X189668980Y-25244219D01*
X189627947Y-25379487D01*
X189611598Y-25433383D01*
X189562182Y-25525833D01*
X189518417Y-25607712D01*
X189393015Y-25760515D01*
X189240212Y-25885917D01*
X189065881Y-25979099D01*
X188876720Y-26036480D01*
X188680000Y-26055855D01*
X188483281Y-26036480D01*
X188294120Y-25979099D01*
X188119788Y-25885917D01*
X187966985Y-25760515D01*
X187841583Y-25607712D01*
X187748401Y-25433381D01*
X187691020Y-25244220D01*
X187676500Y-25096794D01*
X187676500Y-24903207D01*
X187691020Y-24755781D01*
X187748401Y-24566620D01*
X187748402Y-24566617D01*
X187797818Y-24474167D01*
X187841583Y-24392288D01*
X187966985Y-24239485D01*
X188119788Y-24114083D01*
X188294119Y-24020901D01*
X188483280Y-23963520D01*
X188680000Y-23944145D01*
X188876719Y-23963520D01*
X188876719Y-23963520D01*
G37*
G36*
X184603500Y-26051000D02*
G01*
X182596500Y-26051000D01*
X182596500Y-23949000D01*
X184603500Y-23949000D01*
X184603500Y-26051000D01*
X184603500Y-26051000D01*
G37*
M02*
