G04 #@! TF.GenerationSoftware,KiCad,Pcbnew,5.1.4*
G04 #@! TF.CreationDate,2019-10-01T21:08:12+02:00*
G04 #@! TF.ProjectId,bluetoothkiste,626c7565-746f-46f7-9468-6b697374652e,rev?*
G04 #@! TF.SameCoordinates,Original*
G04 #@! TF.FileFunction,Copper,L2,Bot*
G04 #@! TF.FilePolarity,Positive*
%FSLAX46Y46*%
G04 Gerber Fmt 4.6, Leading zero omitted, Abs format (unit mm)*
G04 Created by KiCad (PCBNEW 5.1.4) date 2019-10-01 21:08:12*
%MOMM*%
%LPD*%
G04 APERTURE LIST*
%ADD10C,0.600000*%
%ADD11R,1.600000X1.600000*%
%ADD12O,1.600000X1.600000*%
%ADD13C,2.000000*%
%ADD14C,1.600000*%
%ADD15R,1.905000X2.000000*%
%ADD16O,1.905000X2.000000*%
%ADD17C,4.000000*%
%ADD18C,0.100000*%
%ADD19C,1.500000*%
%ADD20O,2.500000X1.200000*%
%ADD21C,1.524000*%
%ADD22O,1.800000X1.400000*%
%ADD23R,1.700000X1.700000*%
%ADD24O,1.700000X1.700000*%
%ADD25R,2.500000X2.500000*%
%ADD26C,2.500000*%
%ADD27R,1.800000X1.800000*%
%ADD28O,1.800000X1.800000*%
%ADD29C,0.800000*%
%ADD30C,0.500000*%
%ADD31C,0.250000*%
%ADD32C,0.254000*%
G04 APERTURE END LIST*
D10*
X157500000Y-37000000D03*
X157500000Y-35000000D03*
X159500000Y-37000000D03*
X157500000Y-33000000D03*
X159500000Y-35000000D03*
X159500000Y-33000000D03*
X170000000Y-79000000D03*
X168000000Y-79000000D03*
X172000000Y-77000000D03*
X172000000Y-79000000D03*
X170000000Y-77000000D03*
X168000000Y-77000000D03*
X172000000Y-59000000D03*
X170000000Y-59000000D03*
X170000000Y-61000000D03*
X172000000Y-61000000D03*
X176500000Y-70500000D03*
X178500000Y-70500000D03*
X168000000Y-61000000D03*
X176500000Y-72500000D03*
X178500000Y-72500000D03*
X168000000Y-59000000D03*
X170000000Y-63000000D03*
X172000000Y-63000000D03*
X176500000Y-66500000D03*
X178500000Y-66500000D03*
X168000000Y-63000000D03*
X178500000Y-64500000D03*
X176500000Y-64500000D03*
D11*
X175260000Y-42030000D03*
D12*
X182880000Y-59810000D03*
X175260000Y-44570000D03*
X182880000Y-57270000D03*
X175260000Y-47110000D03*
X182880000Y-54730000D03*
X175260000Y-49650000D03*
X182880000Y-52190000D03*
X175260000Y-52190000D03*
X182880000Y-49650000D03*
X175260000Y-54730000D03*
X182880000Y-47110000D03*
X175260000Y-57270000D03*
X182880000Y-44570000D03*
X175260000Y-59810000D03*
X182880000Y-42030000D03*
D13*
X174880000Y-35210000D03*
X169800000Y-35200000D03*
D14*
X192000000Y-29000000D03*
X187000000Y-29000000D03*
X186900000Y-32000000D03*
X191900000Y-32000000D03*
D15*
X183600000Y-25000000D03*
D16*
X186140000Y-25000000D03*
X188680000Y-25000000D03*
D17*
X163330000Y-36920000D03*
D11*
X164600000Y-55000000D03*
D14*
X164600000Y-52230000D03*
X164600000Y-49460000D03*
X164600000Y-46690000D03*
X164600000Y-43920000D03*
X162060000Y-53615000D03*
X162060000Y-50845000D03*
X162060000Y-48075000D03*
X162060000Y-45305000D03*
D17*
X163330000Y-62000000D03*
D18*
G36*
X169324053Y-83251206D02*
G01*
X169348370Y-83254813D01*
X169372216Y-83260786D01*
X169395362Y-83269068D01*
X169417585Y-83279579D01*
X169438670Y-83292217D01*
X169458416Y-83306861D01*
X169476630Y-83323370D01*
X169493139Y-83341584D01*
X169507783Y-83361330D01*
X169520421Y-83382415D01*
X169530932Y-83404638D01*
X169539214Y-83427784D01*
X169545187Y-83451630D01*
X169548794Y-83475947D01*
X169550000Y-83500500D01*
X169550000Y-84499500D01*
X169548794Y-84524053D01*
X169545187Y-84548370D01*
X169539214Y-84572216D01*
X169530932Y-84595362D01*
X169520421Y-84617585D01*
X169507783Y-84638670D01*
X169493139Y-84658416D01*
X169476630Y-84676630D01*
X169458416Y-84693139D01*
X169438670Y-84707783D01*
X169417585Y-84720421D01*
X169395362Y-84730932D01*
X169372216Y-84739214D01*
X169348370Y-84745187D01*
X169324053Y-84748794D01*
X169299500Y-84750000D01*
X168300500Y-84750000D01*
X168275947Y-84748794D01*
X168251630Y-84745187D01*
X168227784Y-84739214D01*
X168204638Y-84730932D01*
X168182415Y-84720421D01*
X168161330Y-84707783D01*
X168141584Y-84693139D01*
X168123370Y-84676630D01*
X168106861Y-84658416D01*
X168092217Y-84638670D01*
X168079579Y-84617585D01*
X168069068Y-84595362D01*
X168060786Y-84572216D01*
X168054813Y-84548370D01*
X168051206Y-84524053D01*
X168050000Y-84499500D01*
X168050000Y-83500500D01*
X168051206Y-83475947D01*
X168054813Y-83451630D01*
X168060786Y-83427784D01*
X168069068Y-83404638D01*
X168079579Y-83382415D01*
X168092217Y-83361330D01*
X168106861Y-83341584D01*
X168123370Y-83323370D01*
X168141584Y-83306861D01*
X168161330Y-83292217D01*
X168182415Y-83279579D01*
X168204638Y-83269068D01*
X168227784Y-83260786D01*
X168251630Y-83254813D01*
X168275947Y-83251206D01*
X168300500Y-83250000D01*
X169299500Y-83250000D01*
X169324053Y-83251206D01*
X169324053Y-83251206D01*
G37*
D19*
X168800000Y-84000000D03*
X171340000Y-85260000D03*
X168800000Y-86540000D03*
X171340000Y-87800000D03*
X168800000Y-89080000D03*
X171340000Y-90340000D03*
X168800000Y-91620000D03*
D20*
X165800000Y-80695000D03*
D19*
X171340000Y-92880000D03*
D20*
X165800000Y-96185000D03*
D21*
X164600000Y-72000000D03*
X166600000Y-72000000D03*
X168600000Y-72000000D03*
X170600000Y-72000000D03*
D22*
X170800000Y-69000000D03*
X170800000Y-75000000D03*
X163800000Y-69000000D03*
X163800000Y-75000000D03*
D23*
X171040000Y-100750000D03*
D24*
X168500000Y-100750000D03*
D25*
X166900000Y-25000000D03*
D26*
X171900000Y-25000000D03*
X176900000Y-25000000D03*
D27*
X183400000Y-38700000D03*
D28*
X183400000Y-31080000D03*
X179800000Y-31080000D03*
D27*
X179800000Y-38700000D03*
D23*
X196000000Y-69000000D03*
D24*
X193460000Y-69000000D03*
X190920000Y-69000000D03*
X188380000Y-69000000D03*
X187620000Y-77000000D03*
X185080000Y-77000000D03*
X182540000Y-77000000D03*
D23*
X180000000Y-77000000D03*
D29*
X179100000Y-47500000D03*
X179100000Y-52100000D03*
X188512653Y-56987347D03*
X188500000Y-58000000D03*
X180000000Y-69000000D03*
X180000000Y-64500000D03*
X182500000Y-69000000D03*
X182500000Y-64500000D03*
D30*
X181564002Y-35210000D02*
X185400000Y-31374002D01*
X174880000Y-35210000D02*
X181564002Y-35210000D01*
X185400000Y-30600000D02*
X187000000Y-29000000D01*
X185400000Y-31374002D02*
X185400000Y-30600000D01*
X183600000Y-25600000D02*
X183600000Y-25000000D01*
X187000000Y-29000000D02*
X183600000Y-25600000D01*
X188680000Y-28780000D02*
X191900000Y-32000000D01*
X188680000Y-25000000D02*
X188680000Y-28780000D01*
X191900000Y-32350000D02*
X191900000Y-32000000D01*
X195310000Y-35760000D02*
X191900000Y-32350000D01*
X164600000Y-72000000D02*
X168950010Y-67649990D01*
X182880000Y-42030000D02*
X192470000Y-42030000D01*
X195310000Y-35760000D02*
X195310000Y-39190000D01*
X188380000Y-76240000D02*
X187620000Y-77000000D01*
X188380000Y-69000000D02*
X188380000Y-76240000D01*
X188380000Y-69000000D02*
X186000000Y-66620000D01*
X186000000Y-48500000D02*
X193000000Y-41500000D01*
X192470000Y-42030000D02*
X193000000Y-41500000D01*
X193000000Y-41500000D02*
X195310000Y-39190000D01*
X186000000Y-63500000D02*
X181850010Y-67649990D01*
X186000000Y-63000000D02*
X186000000Y-63500000D01*
X186000000Y-66620000D02*
X186000000Y-63000000D01*
X168950010Y-67649990D02*
X181850010Y-67649990D01*
X186000000Y-63000000D02*
X186000000Y-48500000D01*
X169349999Y-99900001D02*
X169349999Y-96349999D01*
X168500000Y-100750000D02*
X169349999Y-99900001D01*
X169349999Y-96349999D02*
X158500000Y-85500000D01*
X173300000Y-38700000D02*
X169800000Y-35200000D01*
X158500000Y-85500000D02*
X158500000Y-46718998D01*
X179800000Y-38700000D02*
X173800000Y-38700000D01*
X166518998Y-38700000D02*
X173800000Y-38700000D01*
X158500000Y-46718998D02*
X166518998Y-38700000D01*
X173800000Y-38700000D02*
X173300000Y-38700000D01*
D31*
X181465001Y-48524999D02*
X182080001Y-47909999D01*
X182080001Y-47909999D02*
X182880000Y-47110000D01*
X165535001Y-48524999D02*
X181465001Y-48524999D01*
X164600000Y-49460000D02*
X165535001Y-48524999D01*
X182080001Y-50449999D02*
X182880000Y-49650000D01*
X166054999Y-50775001D02*
X181754999Y-50775001D01*
X181754999Y-50775001D02*
X182080001Y-50449999D01*
X164600000Y-52230000D02*
X166054999Y-50775001D01*
D30*
X171040000Y-93180000D02*
X171340000Y-92880000D01*
X171040000Y-100750000D02*
X171040000Y-93180000D01*
X170060000Y-92880000D02*
X168800000Y-91620000D01*
X171340000Y-92880000D02*
X170060000Y-92880000D01*
X183400000Y-38700000D02*
X179100000Y-43000000D01*
X179100000Y-43000000D02*
X179100000Y-47500000D01*
X168050001Y-90870001D02*
X168800000Y-91620000D01*
X179100000Y-59900000D02*
X173800000Y-65200000D01*
X166070001Y-90870001D02*
X168050001Y-90870001D01*
X179100000Y-52100000D02*
X179100000Y-59900000D01*
X163700000Y-65200000D02*
X159900000Y-69000000D01*
X159900000Y-84700000D02*
X166070001Y-90870001D01*
X173800000Y-65200000D02*
X163700000Y-65200000D01*
X159900000Y-69000000D02*
X159900000Y-84700000D01*
D31*
X196000000Y-64474694D02*
X196000000Y-69000000D01*
X188512653Y-56987347D02*
X196000000Y-64474694D01*
X193460000Y-62960000D02*
X193460000Y-69000000D01*
X188500000Y-58000000D02*
X193460000Y-62960000D01*
X182590000Y-59810000D02*
X182880000Y-59810000D01*
X180000000Y-77000000D02*
X180000000Y-69000000D01*
X180000000Y-62690000D02*
X182880000Y-59810000D01*
X180000000Y-64500000D02*
X180000000Y-62690000D01*
X183679999Y-58069999D02*
X182880000Y-57270000D01*
X184005001Y-62034999D02*
X184005001Y-58395001D01*
X184005001Y-58395001D02*
X183679999Y-58069999D01*
X182540000Y-77000000D02*
X182540000Y-69040000D01*
X182540000Y-69040000D02*
X182500000Y-69000000D01*
X182500000Y-63540000D02*
X183020000Y-63020000D01*
X182500000Y-64500000D02*
X182500000Y-63540000D01*
X183020000Y-63020000D02*
X184005001Y-62034999D01*
D30*
X174700000Y-27800000D02*
X173149999Y-26249999D01*
X180120000Y-27800000D02*
X174700000Y-27800000D01*
X173149999Y-26249999D02*
X171900000Y-25000000D01*
X183400000Y-31080000D02*
X180120000Y-27800000D01*
D32*
G36*
X191873000Y-27568153D02*
G01*
X191649870Y-27601213D01*
X191383708Y-27696397D01*
X191258486Y-27763329D01*
X191186903Y-28007298D01*
X191873000Y-28693395D01*
X191873000Y-29080890D01*
X191806253Y-29014143D01*
X191820395Y-29000000D01*
X191007298Y-28186903D01*
X190763329Y-28258486D01*
X190642429Y-28513996D01*
X190573700Y-28788184D01*
X190559783Y-29070512D01*
X190601213Y-29350130D01*
X190656608Y-29505029D01*
X189565000Y-28413422D01*
X189565000Y-26374505D01*
X189566235Y-26373845D01*
X189807963Y-26175463D01*
X190006345Y-25933734D01*
X190153755Y-25657948D01*
X190244530Y-25358703D01*
X190267500Y-25125485D01*
X190267500Y-24874514D01*
X190244530Y-24641296D01*
X190153755Y-24342051D01*
X190006345Y-24066265D01*
X189807963Y-23824537D01*
X189566234Y-23626155D01*
X189290448Y-23478745D01*
X188991203Y-23387970D01*
X188680000Y-23357319D01*
X188368796Y-23387970D01*
X188069551Y-23478745D01*
X187793765Y-23626155D01*
X187552037Y-23824537D01*
X187404838Y-24003900D01*
X187249437Y-23818685D01*
X187006923Y-23624031D01*
X186731094Y-23480429D01*
X186512980Y-23409437D01*
X186267000Y-23529406D01*
X186267000Y-24873000D01*
X186287000Y-24873000D01*
X186287000Y-25127000D01*
X186267000Y-25127000D01*
X186267000Y-26470594D01*
X186512980Y-26590563D01*
X186731094Y-26519571D01*
X187006923Y-26375969D01*
X187249437Y-26181315D01*
X187404837Y-25996101D01*
X187552037Y-26175463D01*
X187793766Y-26373845D01*
X187795000Y-26374505D01*
X187795001Y-27805343D01*
X187679727Y-27728320D01*
X187418574Y-27620147D01*
X187141335Y-27565000D01*
X186858665Y-27565000D01*
X186823561Y-27571983D01*
X185817514Y-26565936D01*
X186013000Y-26470594D01*
X186013000Y-25127000D01*
X185993000Y-25127000D01*
X185993000Y-24873000D01*
X186013000Y-24873000D01*
X186013000Y-23529406D01*
X185767020Y-23409437D01*
X185548906Y-23480429D01*
X185273077Y-23624031D01*
X185132059Y-23737219D01*
X185083037Y-23645506D01*
X185003685Y-23548815D01*
X184906994Y-23469463D01*
X184796680Y-23410498D01*
X184676982Y-23374188D01*
X184552500Y-23361928D01*
X182647500Y-23361928D01*
X182523018Y-23374188D01*
X182403320Y-23410498D01*
X182293006Y-23469463D01*
X182196315Y-23548815D01*
X182116963Y-23645506D01*
X182057998Y-23755820D01*
X182021688Y-23875518D01*
X182009428Y-24000000D01*
X182009428Y-26000000D01*
X182021688Y-26124482D01*
X182057998Y-26244180D01*
X182116963Y-26354494D01*
X182196315Y-26451185D01*
X182293006Y-26530537D01*
X182403320Y-26589502D01*
X182523018Y-26625812D01*
X182647500Y-26638072D01*
X183386494Y-26638072D01*
X185571983Y-28823561D01*
X185565000Y-28858665D01*
X185565000Y-29141335D01*
X185571983Y-29176439D01*
X184804951Y-29943471D01*
X184771184Y-29971183D01*
X184743471Y-30004951D01*
X184743468Y-30004954D01*
X184660590Y-30105941D01*
X184631310Y-30160721D01*
X184490661Y-29989339D01*
X184256927Y-29797519D01*
X183990261Y-29654983D01*
X183700913Y-29567210D01*
X183475408Y-29545000D01*
X183324592Y-29545000D01*
X183135229Y-29563650D01*
X180776534Y-27204956D01*
X180748817Y-27171183D01*
X180614059Y-27060589D01*
X180460313Y-26978411D01*
X180293490Y-26927805D01*
X180163477Y-26915000D01*
X180163469Y-26915000D01*
X180120000Y-26910719D01*
X180076531Y-26915000D01*
X175066579Y-26915000D01*
X173806535Y-25654957D01*
X173806531Y-25654952D01*
X173709296Y-25557717D01*
X173712561Y-25549834D01*
X173785000Y-25185656D01*
X173785000Y-24814344D01*
X175015000Y-24814344D01*
X175015000Y-25185656D01*
X175087439Y-25549834D01*
X175229534Y-25892882D01*
X175435825Y-26201618D01*
X175698382Y-26464175D01*
X176007118Y-26670466D01*
X176350166Y-26812561D01*
X176714344Y-26885000D01*
X177085656Y-26885000D01*
X177449834Y-26812561D01*
X177792882Y-26670466D01*
X178101618Y-26464175D01*
X178364175Y-26201618D01*
X178570466Y-25892882D01*
X178712561Y-25549834D01*
X178785000Y-25185656D01*
X178785000Y-24814344D01*
X178712561Y-24450166D01*
X178570466Y-24107118D01*
X178364175Y-23798382D01*
X178101618Y-23535825D01*
X177792882Y-23329534D01*
X177449834Y-23187439D01*
X177085656Y-23115000D01*
X176714344Y-23115000D01*
X176350166Y-23187439D01*
X176007118Y-23329534D01*
X175698382Y-23535825D01*
X175435825Y-23798382D01*
X175229534Y-24107118D01*
X175087439Y-24450166D01*
X175015000Y-24814344D01*
X173785000Y-24814344D01*
X173712561Y-24450166D01*
X173570466Y-24107118D01*
X173364175Y-23798382D01*
X173101618Y-23535825D01*
X172792882Y-23329534D01*
X172449834Y-23187439D01*
X172085656Y-23115000D01*
X171714344Y-23115000D01*
X171350166Y-23187439D01*
X171007118Y-23329534D01*
X170698382Y-23535825D01*
X170435825Y-23798382D01*
X170229534Y-24107118D01*
X170087439Y-24450166D01*
X170015000Y-24814344D01*
X170015000Y-25185656D01*
X170087439Y-25549834D01*
X170229534Y-25892882D01*
X170435825Y-26201618D01*
X170698382Y-26464175D01*
X171007118Y-26670466D01*
X171350166Y-26812561D01*
X171714344Y-26885000D01*
X172085656Y-26885000D01*
X172449834Y-26812561D01*
X172457717Y-26809296D01*
X172554952Y-26906531D01*
X172554957Y-26906535D01*
X174043470Y-28395049D01*
X174071183Y-28428817D01*
X174104951Y-28456530D01*
X174104953Y-28456532D01*
X174165157Y-28505940D01*
X174205941Y-28539411D01*
X174359687Y-28621589D01*
X174526510Y-28672195D01*
X174656523Y-28685000D01*
X174656533Y-28685000D01*
X174699999Y-28689281D01*
X174743465Y-28685000D01*
X179753422Y-28685000D01*
X181883650Y-30815229D01*
X181857573Y-31080000D01*
X181887210Y-31380913D01*
X181974983Y-31670261D01*
X182117519Y-31936927D01*
X182309339Y-32170661D01*
X182543073Y-32362481D01*
X182809739Y-32505017D01*
X182969073Y-32553351D01*
X181197424Y-34325000D01*
X176255059Y-34325000D01*
X176149987Y-34167748D01*
X175922252Y-33940013D01*
X175654463Y-33761082D01*
X175356912Y-33637832D01*
X175041033Y-33575000D01*
X174718967Y-33575000D01*
X174403088Y-33637832D01*
X174105537Y-33761082D01*
X173837748Y-33940013D01*
X173610013Y-34167748D01*
X173431082Y-34435537D01*
X173307832Y-34733088D01*
X173245000Y-35048967D01*
X173245000Y-35371033D01*
X173307832Y-35686912D01*
X173431082Y-35984463D01*
X173610013Y-36252252D01*
X173837748Y-36479987D01*
X174105537Y-36658918D01*
X174403088Y-36782168D01*
X174718967Y-36845000D01*
X175041033Y-36845000D01*
X175356912Y-36782168D01*
X175654463Y-36658918D01*
X175922252Y-36479987D01*
X176149987Y-36252252D01*
X176255059Y-36095000D01*
X181520533Y-36095000D01*
X181564002Y-36099281D01*
X181607471Y-36095000D01*
X181607479Y-36095000D01*
X181737492Y-36082195D01*
X181904315Y-36031589D01*
X182058061Y-35949411D01*
X182192819Y-35838817D01*
X182220536Y-35805044D01*
X185032878Y-32992702D01*
X186086903Y-32992702D01*
X186158486Y-33236671D01*
X186413996Y-33357571D01*
X186688184Y-33426300D01*
X186970512Y-33440217D01*
X187250130Y-33398787D01*
X187516292Y-33303603D01*
X187641514Y-33236671D01*
X187713097Y-32992702D01*
X186900000Y-32179605D01*
X186086903Y-32992702D01*
X185032878Y-32992702D01*
X185547110Y-32478471D01*
X185596397Y-32616292D01*
X185663329Y-32741514D01*
X185907298Y-32813097D01*
X186720395Y-32000000D01*
X187079605Y-32000000D01*
X187892702Y-32813097D01*
X188136671Y-32741514D01*
X188257571Y-32486004D01*
X188326300Y-32211816D01*
X188340217Y-31929488D01*
X188298787Y-31649870D01*
X188203603Y-31383708D01*
X188136671Y-31258486D01*
X187892702Y-31186903D01*
X187079605Y-32000000D01*
X186720395Y-32000000D01*
X186706253Y-31985858D01*
X186885858Y-31806253D01*
X186900000Y-31820395D01*
X187713097Y-31007298D01*
X187641514Y-30763329D01*
X187386004Y-30642429D01*
X187111816Y-30573700D01*
X186829488Y-30559783D01*
X186667845Y-30583733D01*
X186823561Y-30428017D01*
X186858665Y-30435000D01*
X187141335Y-30435000D01*
X187418574Y-30379853D01*
X187679727Y-30271680D01*
X187914759Y-30114637D01*
X188114637Y-29914759D01*
X188271680Y-29679727D01*
X188288219Y-29639797D01*
X190471983Y-31823561D01*
X190465000Y-31858665D01*
X190465000Y-32141335D01*
X190520147Y-32418574D01*
X190628320Y-32679727D01*
X190785363Y-32914759D01*
X190985241Y-33114637D01*
X191220273Y-33271680D01*
X191481426Y-33379853D01*
X191727154Y-33428732D01*
X194425000Y-36126579D01*
X194425001Y-38823420D01*
X192404958Y-40843464D01*
X192404953Y-40843468D01*
X192103421Y-41145000D01*
X184010078Y-41145000D01*
X183899608Y-41010392D01*
X183681101Y-40831068D01*
X183431808Y-40697818D01*
X183161309Y-40615764D01*
X182950492Y-40595000D01*
X182809508Y-40595000D01*
X182750796Y-40600783D01*
X183113507Y-40238072D01*
X184300000Y-40238072D01*
X184424482Y-40225812D01*
X184544180Y-40189502D01*
X184654494Y-40130537D01*
X184751185Y-40051185D01*
X184830537Y-39954494D01*
X184889502Y-39844180D01*
X184925812Y-39724482D01*
X184938072Y-39600000D01*
X184938072Y-37800000D01*
X184925812Y-37675518D01*
X184889502Y-37555820D01*
X184830537Y-37445506D01*
X184751185Y-37348815D01*
X184654494Y-37269463D01*
X184544180Y-37210498D01*
X184424482Y-37174188D01*
X184300000Y-37161928D01*
X182500000Y-37161928D01*
X182375518Y-37174188D01*
X182255820Y-37210498D01*
X182145506Y-37269463D01*
X182048815Y-37348815D01*
X181969463Y-37445506D01*
X181910498Y-37555820D01*
X181874188Y-37675518D01*
X181861928Y-37800000D01*
X181861928Y-38986493D01*
X181338072Y-39510349D01*
X181338072Y-37800000D01*
X181325812Y-37675518D01*
X181289502Y-37555820D01*
X181230537Y-37445506D01*
X181151185Y-37348815D01*
X181054494Y-37269463D01*
X180944180Y-37210498D01*
X180824482Y-37174188D01*
X180700000Y-37161928D01*
X178900000Y-37161928D01*
X178775518Y-37174188D01*
X178655820Y-37210498D01*
X178545506Y-37269463D01*
X178448815Y-37348815D01*
X178369463Y-37445506D01*
X178310498Y-37555820D01*
X178274188Y-37675518D01*
X178261928Y-37800000D01*
X178261928Y-37815000D01*
X173666579Y-37815000D01*
X171398103Y-35546525D01*
X171435000Y-35361033D01*
X171435000Y-35038967D01*
X171372168Y-34723088D01*
X171248918Y-34425537D01*
X171069987Y-34157748D01*
X170842252Y-33930013D01*
X170574463Y-33751082D01*
X170276912Y-33627832D01*
X169961033Y-33565000D01*
X169638967Y-33565000D01*
X169323088Y-33627832D01*
X169025537Y-33751082D01*
X168757748Y-33930013D01*
X168530013Y-34157748D01*
X168351082Y-34425537D01*
X168227832Y-34723088D01*
X168165000Y-35038967D01*
X168165000Y-35361033D01*
X168227832Y-35676912D01*
X168351082Y-35974463D01*
X168530013Y-36242252D01*
X168757748Y-36469987D01*
X169025537Y-36648918D01*
X169323088Y-36772168D01*
X169638967Y-36835000D01*
X169961033Y-36835000D01*
X170146525Y-36798103D01*
X171163421Y-37815000D01*
X166562467Y-37815000D01*
X166518998Y-37810719D01*
X166475529Y-37815000D01*
X166475521Y-37815000D01*
X166345508Y-37827805D01*
X166178685Y-37878411D01*
X166024939Y-37960589D01*
X165923951Y-38043468D01*
X165923949Y-38043470D01*
X165890181Y-38071183D01*
X165862468Y-38104951D01*
X165394929Y-38572490D01*
X165665107Y-38168141D01*
X165863739Y-37688601D01*
X165965000Y-37179525D01*
X165965000Y-36660475D01*
X165863739Y-36151399D01*
X165665107Y-35671859D01*
X165376738Y-35240285D01*
X165009715Y-34873262D01*
X164578141Y-34584893D01*
X164098601Y-34386261D01*
X163589525Y-34285000D01*
X163070475Y-34285000D01*
X162561399Y-34386261D01*
X162081859Y-34584893D01*
X161650285Y-34873262D01*
X161283262Y-35240285D01*
X160994893Y-35671859D01*
X160796261Y-36151399D01*
X160695000Y-36660475D01*
X160695000Y-37179525D01*
X160796261Y-37688601D01*
X160994893Y-38168141D01*
X161283262Y-38599715D01*
X161650285Y-38966738D01*
X162081859Y-39255107D01*
X162561399Y-39453739D01*
X163070475Y-39555000D01*
X163589525Y-39555000D01*
X164098601Y-39453739D01*
X164578141Y-39255107D01*
X164982490Y-38984929D01*
X157904952Y-46062468D01*
X157871184Y-46090181D01*
X157843471Y-46123949D01*
X157843468Y-46123952D01*
X157760590Y-46224939D01*
X157678412Y-46378685D01*
X157627805Y-46545508D01*
X157610719Y-46718998D01*
X157615001Y-46762477D01*
X157615000Y-85456531D01*
X157610719Y-85500000D01*
X157615000Y-85543469D01*
X157615000Y-85543476D01*
X157627805Y-85673489D01*
X157678411Y-85840312D01*
X157760589Y-85994058D01*
X157871183Y-86128817D01*
X157904956Y-86156534D01*
X163961296Y-92212875D01*
X163870511Y-92152214D01*
X163459218Y-91981851D01*
X163022591Y-91895000D01*
X162577409Y-91895000D01*
X162140782Y-91981851D01*
X161729489Y-92152214D01*
X161359334Y-92399544D01*
X161044544Y-92714334D01*
X160797214Y-93084489D01*
X160626851Y-93495782D01*
X160540000Y-93932409D01*
X160540000Y-94377591D01*
X160626851Y-94814218D01*
X160797214Y-95225511D01*
X161044544Y-95595666D01*
X161359334Y-95910456D01*
X161729489Y-96157786D01*
X162140782Y-96328149D01*
X162577409Y-96415000D01*
X163022591Y-96415000D01*
X163459218Y-96328149D01*
X163870511Y-96157786D01*
X163914607Y-96128322D01*
X163909025Y-96185000D01*
X163932870Y-96427102D01*
X164003489Y-96659901D01*
X164118167Y-96874449D01*
X164272498Y-97062502D01*
X164460551Y-97216833D01*
X164675099Y-97331511D01*
X164907898Y-97402130D01*
X165089335Y-97420000D01*
X166510665Y-97420000D01*
X166692102Y-97402130D01*
X166924901Y-97331511D01*
X167139449Y-97216833D01*
X167327502Y-97062502D01*
X167481833Y-96874449D01*
X167596511Y-96659901D01*
X167667130Y-96427102D01*
X167690975Y-96185000D01*
X167667130Y-95942898D01*
X167656597Y-95908176D01*
X168465000Y-96716579D01*
X168464999Y-99265000D01*
X168427050Y-99265000D01*
X168208889Y-99286487D01*
X167928966Y-99371401D01*
X167670986Y-99509294D01*
X167444866Y-99694866D01*
X167259294Y-99920986D01*
X167121401Y-100178966D01*
X167036487Y-100458889D01*
X167007815Y-100750000D01*
X167036487Y-101041111D01*
X167121401Y-101321034D01*
X167259294Y-101579014D01*
X167444866Y-101805134D01*
X167670986Y-101990706D01*
X167928966Y-102128599D01*
X168208889Y-102213513D01*
X168427050Y-102235000D01*
X168572950Y-102235000D01*
X168791111Y-102213513D01*
X169071034Y-102128599D01*
X169329014Y-101990706D01*
X169555134Y-101805134D01*
X169579607Y-101775313D01*
X169600498Y-101844180D01*
X169659463Y-101954494D01*
X169738815Y-102051185D01*
X169835506Y-102130537D01*
X169945820Y-102189502D01*
X170065518Y-102225812D01*
X170190000Y-102238072D01*
X171890000Y-102238072D01*
X172014482Y-102225812D01*
X172134180Y-102189502D01*
X172244494Y-102130537D01*
X172341185Y-102051185D01*
X172420537Y-101954494D01*
X172479502Y-101844180D01*
X172515812Y-101724482D01*
X172528072Y-101600000D01*
X172528072Y-99900000D01*
X172515812Y-99775518D01*
X172479502Y-99655820D01*
X172420537Y-99545506D01*
X172341185Y-99448815D01*
X172244494Y-99369463D01*
X172134180Y-99310498D01*
X172014482Y-99274188D01*
X171925000Y-99265375D01*
X171925000Y-94136798D01*
X171996043Y-94107371D01*
X172222886Y-93955799D01*
X172415799Y-93762886D01*
X172567371Y-93536043D01*
X172671775Y-93283989D01*
X172725000Y-93016411D01*
X172725000Y-92743589D01*
X172671775Y-92476011D01*
X172567371Y-92223957D01*
X172415799Y-91997114D01*
X172222886Y-91804201D01*
X171996043Y-91652629D01*
X171893127Y-91610000D01*
X171996043Y-91567371D01*
X172222886Y-91415799D01*
X172415799Y-91222886D01*
X172567371Y-90996043D01*
X172671775Y-90743989D01*
X172725000Y-90476411D01*
X172725000Y-90203589D01*
X172671775Y-89936011D01*
X172567371Y-89683957D01*
X172415799Y-89457114D01*
X172222886Y-89264201D01*
X171996043Y-89112629D01*
X171893127Y-89070000D01*
X171996043Y-89027371D01*
X172222886Y-88875799D01*
X172415799Y-88682886D01*
X172567371Y-88456043D01*
X172671775Y-88203989D01*
X172725000Y-87936411D01*
X172725000Y-87663589D01*
X172671775Y-87396011D01*
X172567371Y-87143957D01*
X172415799Y-86917114D01*
X172222886Y-86724201D01*
X171996043Y-86572629D01*
X171896721Y-86531489D01*
X171938832Y-86516277D01*
X172051863Y-86455860D01*
X172117388Y-86216993D01*
X171340000Y-85439605D01*
X170562612Y-86216993D01*
X170628137Y-86455860D01*
X170786477Y-86530164D01*
X170683957Y-86572629D01*
X170457114Y-86724201D01*
X170264201Y-86917114D01*
X170112629Y-87143957D01*
X170008225Y-87396011D01*
X169955000Y-87663589D01*
X169955000Y-87936411D01*
X170008225Y-88203989D01*
X170112629Y-88456043D01*
X170264201Y-88682886D01*
X170457114Y-88875799D01*
X170683957Y-89027371D01*
X170786873Y-89070000D01*
X170683957Y-89112629D01*
X170457114Y-89264201D01*
X170264201Y-89457114D01*
X170112629Y-89683957D01*
X170008225Y-89936011D01*
X169955000Y-90203589D01*
X169955000Y-90476411D01*
X170008225Y-90743989D01*
X170112629Y-90996043D01*
X170264201Y-91222886D01*
X170457114Y-91415799D01*
X170683957Y-91567371D01*
X170786873Y-91610000D01*
X170683957Y-91652629D01*
X170457114Y-91804201D01*
X170346447Y-91914868D01*
X170185000Y-91753421D01*
X170185000Y-91483589D01*
X170131775Y-91216011D01*
X170027371Y-90963957D01*
X169875799Y-90737114D01*
X169682886Y-90544201D01*
X169456043Y-90392629D01*
X169356721Y-90351489D01*
X169398832Y-90336277D01*
X169511863Y-90275860D01*
X169577388Y-90036993D01*
X168800000Y-89259605D01*
X168785858Y-89273748D01*
X168606253Y-89094143D01*
X168620395Y-89080000D01*
X168979605Y-89080000D01*
X169756993Y-89857388D01*
X169995860Y-89791863D01*
X170111760Y-89544884D01*
X170177250Y-89280040D01*
X170189812Y-89007508D01*
X170148965Y-88737762D01*
X170056277Y-88481168D01*
X169995860Y-88368137D01*
X169756993Y-88302612D01*
X168979605Y-89080000D01*
X168620395Y-89080000D01*
X167843007Y-88302612D01*
X167604140Y-88368137D01*
X167488240Y-88615116D01*
X167422750Y-88879960D01*
X167410188Y-89152492D01*
X167451035Y-89422238D01*
X167543723Y-89678832D01*
X167604140Y-89791863D01*
X167843005Y-89857387D01*
X167726549Y-89973843D01*
X167737707Y-89985001D01*
X166436580Y-89985001D01*
X160785000Y-84333422D01*
X160785000Y-83766024D01*
X160797214Y-83795511D01*
X161044544Y-84165666D01*
X161359334Y-84480456D01*
X161729489Y-84727786D01*
X162140782Y-84898149D01*
X162577409Y-84985000D01*
X163022591Y-84985000D01*
X163459218Y-84898149D01*
X163816881Y-84750000D01*
X167411928Y-84750000D01*
X167424188Y-84874482D01*
X167460498Y-84994180D01*
X167519463Y-85104494D01*
X167598815Y-85201185D01*
X167695506Y-85280537D01*
X167805820Y-85339502D01*
X167925518Y-85375812D01*
X168033483Y-85386445D01*
X167917114Y-85464201D01*
X167724201Y-85657114D01*
X167572629Y-85883957D01*
X167468225Y-86136011D01*
X167415000Y-86403589D01*
X167415000Y-86676411D01*
X167468225Y-86943989D01*
X167572629Y-87196043D01*
X167724201Y-87422886D01*
X167917114Y-87615799D01*
X168143957Y-87767371D01*
X168243279Y-87808511D01*
X168201168Y-87823723D01*
X168088137Y-87884140D01*
X168022612Y-88123007D01*
X168800000Y-88900395D01*
X169577388Y-88123007D01*
X169511863Y-87884140D01*
X169353523Y-87809836D01*
X169456043Y-87767371D01*
X169682886Y-87615799D01*
X169875799Y-87422886D01*
X170027371Y-87196043D01*
X170131775Y-86943989D01*
X170185000Y-86676411D01*
X170185000Y-86403589D01*
X170131775Y-86136011D01*
X170027371Y-85883957D01*
X169875799Y-85657114D01*
X169682886Y-85464201D01*
X169566517Y-85386445D01*
X169674482Y-85375812D01*
X169794180Y-85339502D01*
X169904494Y-85280537D01*
X169954473Y-85239520D01*
X169950188Y-85332492D01*
X169991035Y-85602238D01*
X170083723Y-85858832D01*
X170144140Y-85971863D01*
X170383007Y-86037388D01*
X171160395Y-85260000D01*
X171519605Y-85260000D01*
X172296993Y-86037388D01*
X172535860Y-85971863D01*
X172651760Y-85724884D01*
X172717250Y-85460040D01*
X172729812Y-85187508D01*
X172688965Y-84917762D01*
X172596277Y-84661168D01*
X172535860Y-84548137D01*
X172296993Y-84482612D01*
X171519605Y-85260000D01*
X171160395Y-85260000D01*
X170383007Y-84482612D01*
X170186659Y-84536473D01*
X170185115Y-84303007D01*
X170562612Y-84303007D01*
X171340000Y-85080395D01*
X172117388Y-84303007D01*
X172051863Y-84064140D01*
X171804884Y-83948240D01*
X171540040Y-83882750D01*
X171267508Y-83870188D01*
X170997762Y-83911035D01*
X170741168Y-84003723D01*
X170628137Y-84064140D01*
X170562612Y-84303007D01*
X170185115Y-84303007D01*
X170185000Y-84285750D01*
X170026250Y-84127000D01*
X168927000Y-84127000D01*
X168927000Y-84147000D01*
X168673000Y-84147000D01*
X168673000Y-84127000D01*
X167573750Y-84127000D01*
X167415000Y-84285750D01*
X167411928Y-84750000D01*
X163816881Y-84750000D01*
X163870511Y-84727786D01*
X164240666Y-84480456D01*
X164555456Y-84165666D01*
X164802786Y-83795511D01*
X164973149Y-83384218D01*
X164999846Y-83250000D01*
X167411928Y-83250000D01*
X167415000Y-83714250D01*
X167573750Y-83873000D01*
X168673000Y-83873000D01*
X168673000Y-82773750D01*
X168927000Y-82773750D01*
X168927000Y-83873000D01*
X170026250Y-83873000D01*
X170185000Y-83714250D01*
X170188072Y-83250000D01*
X170175812Y-83125518D01*
X170139502Y-83005820D01*
X170080537Y-82895506D01*
X170001185Y-82798815D01*
X169904494Y-82719463D01*
X169794180Y-82660498D01*
X169674482Y-82624188D01*
X169550000Y-82611928D01*
X169085750Y-82615000D01*
X168927000Y-82773750D01*
X168673000Y-82773750D01*
X168514250Y-82615000D01*
X168050000Y-82611928D01*
X167925518Y-82624188D01*
X167805820Y-82660498D01*
X167695506Y-82719463D01*
X167598815Y-82798815D01*
X167519463Y-82895506D01*
X167460498Y-83005820D01*
X167424188Y-83125518D01*
X167411928Y-83250000D01*
X164999846Y-83250000D01*
X165060000Y-82947591D01*
X165060000Y-82502409D01*
X164973149Y-82065782D01*
X164909573Y-81912295D01*
X165089335Y-81930000D01*
X166510665Y-81930000D01*
X166692102Y-81912130D01*
X166924901Y-81841511D01*
X167139449Y-81726833D01*
X167327502Y-81572502D01*
X167481833Y-81384449D01*
X167596511Y-81169901D01*
X167667130Y-80937102D01*
X167690975Y-80695000D01*
X167667130Y-80452898D01*
X167596511Y-80220099D01*
X167481833Y-80005551D01*
X167327502Y-79817498D01*
X167139449Y-79663167D01*
X166924901Y-79548489D01*
X166692102Y-79477870D01*
X166510665Y-79460000D01*
X165089335Y-79460000D01*
X164907898Y-79477870D01*
X164675099Y-79548489D01*
X164460551Y-79663167D01*
X164272498Y-79817498D01*
X164118167Y-80005551D01*
X164003489Y-80220099D01*
X163932870Y-80452898D01*
X163909025Y-80695000D01*
X163914607Y-80751678D01*
X163870511Y-80722214D01*
X163459218Y-80551851D01*
X163022591Y-80465000D01*
X162577409Y-80465000D01*
X162140782Y-80551851D01*
X161729489Y-80722214D01*
X161359334Y-80969544D01*
X161044544Y-81284334D01*
X160797214Y-81654489D01*
X160785000Y-81683976D01*
X160785000Y-75333329D01*
X162307284Y-75333329D01*
X162315558Y-75383443D01*
X162415044Y-75626657D01*
X162560067Y-75845789D01*
X162745054Y-76032418D01*
X162962896Y-76179372D01*
X163205222Y-76281003D01*
X163462719Y-76333406D01*
X163673000Y-76179715D01*
X163673000Y-75127000D01*
X163927000Y-75127000D01*
X163927000Y-76179715D01*
X164137281Y-76333406D01*
X164394778Y-76281003D01*
X164637104Y-76179372D01*
X164854946Y-76032418D01*
X165039933Y-75845789D01*
X165184956Y-75626657D01*
X165284442Y-75383443D01*
X165292716Y-75333329D01*
X169307284Y-75333329D01*
X169315558Y-75383443D01*
X169415044Y-75626657D01*
X169560067Y-75845789D01*
X169745054Y-76032418D01*
X169962896Y-76179372D01*
X170205222Y-76281003D01*
X170462719Y-76333406D01*
X170673000Y-76179715D01*
X170673000Y-75127000D01*
X170927000Y-75127000D01*
X170927000Y-76179715D01*
X171137281Y-76333406D01*
X171394778Y-76281003D01*
X171637104Y-76179372D01*
X171854946Y-76032418D01*
X172039933Y-75845789D01*
X172184956Y-75626657D01*
X172284442Y-75383443D01*
X172292716Y-75333329D01*
X172169374Y-75127000D01*
X170927000Y-75127000D01*
X170673000Y-75127000D01*
X169430626Y-75127000D01*
X169307284Y-75333329D01*
X165292716Y-75333329D01*
X165169374Y-75127000D01*
X163927000Y-75127000D01*
X163673000Y-75127000D01*
X162430626Y-75127000D01*
X162307284Y-75333329D01*
X160785000Y-75333329D01*
X160785000Y-74666671D01*
X162307284Y-74666671D01*
X162430626Y-74873000D01*
X163673000Y-74873000D01*
X163673000Y-73820285D01*
X163927000Y-73820285D01*
X163927000Y-74873000D01*
X165169374Y-74873000D01*
X165292716Y-74666671D01*
X169307284Y-74666671D01*
X169430626Y-74873000D01*
X170673000Y-74873000D01*
X170673000Y-73820285D01*
X170927000Y-73820285D01*
X170927000Y-74873000D01*
X172169374Y-74873000D01*
X172292716Y-74666671D01*
X172284442Y-74616557D01*
X172184956Y-74373343D01*
X172039933Y-74154211D01*
X171854946Y-73967582D01*
X171637104Y-73820628D01*
X171394778Y-73718997D01*
X171137281Y-73666594D01*
X170927000Y-73820285D01*
X170673000Y-73820285D01*
X170462719Y-73666594D01*
X170205222Y-73718997D01*
X169962896Y-73820628D01*
X169745054Y-73967582D01*
X169560067Y-74154211D01*
X169415044Y-74373343D01*
X169315558Y-74616557D01*
X169307284Y-74666671D01*
X165292716Y-74666671D01*
X165284442Y-74616557D01*
X165184956Y-74373343D01*
X165039933Y-74154211D01*
X164854946Y-73967582D01*
X164637104Y-73820628D01*
X164394778Y-73718997D01*
X164137281Y-73666594D01*
X163927000Y-73820285D01*
X163673000Y-73820285D01*
X163462719Y-73666594D01*
X163205222Y-73718997D01*
X162962896Y-73820628D01*
X162745054Y-73967582D01*
X162560067Y-74154211D01*
X162415044Y-74373343D01*
X162315558Y-74616557D01*
X162307284Y-74666671D01*
X160785000Y-74666671D01*
X160785000Y-69366578D01*
X160818249Y-69333329D01*
X162307284Y-69333329D01*
X162315558Y-69383443D01*
X162415044Y-69626657D01*
X162560067Y-69845789D01*
X162745054Y-70032418D01*
X162962896Y-70179372D01*
X163205222Y-70281003D01*
X163462719Y-70333406D01*
X163673000Y-70179715D01*
X163673000Y-69127000D01*
X163927000Y-69127000D01*
X163927000Y-70179715D01*
X164137281Y-70333406D01*
X164394778Y-70281003D01*
X164637104Y-70179372D01*
X164854946Y-70032418D01*
X165039933Y-69845789D01*
X165184956Y-69626657D01*
X165284442Y-69383443D01*
X165292716Y-69333329D01*
X165169374Y-69127000D01*
X163927000Y-69127000D01*
X163673000Y-69127000D01*
X162430626Y-69127000D01*
X162307284Y-69333329D01*
X160818249Y-69333329D01*
X161484907Y-68666671D01*
X162307284Y-68666671D01*
X162430626Y-68873000D01*
X163673000Y-68873000D01*
X163673000Y-67820285D01*
X163927000Y-67820285D01*
X163927000Y-68873000D01*
X165169374Y-68873000D01*
X165292716Y-68666671D01*
X165284442Y-68616557D01*
X165184956Y-68373343D01*
X165039933Y-68154211D01*
X164854946Y-67967582D01*
X164637104Y-67820628D01*
X164394778Y-67718997D01*
X164137281Y-67666594D01*
X163927000Y-67820285D01*
X163673000Y-67820285D01*
X163462719Y-67666594D01*
X163205222Y-67718997D01*
X162962896Y-67820628D01*
X162745054Y-67967582D01*
X162560067Y-68154211D01*
X162415044Y-68373343D01*
X162315558Y-68616557D01*
X162307284Y-68666671D01*
X161484907Y-68666671D01*
X164066579Y-66085000D01*
X173756531Y-66085000D01*
X173800000Y-66089281D01*
X173843469Y-66085000D01*
X173843477Y-66085000D01*
X173973490Y-66072195D01*
X174140313Y-66021589D01*
X174294059Y-65939411D01*
X174428817Y-65828817D01*
X174456534Y-65795044D01*
X179695049Y-60556530D01*
X179728817Y-60528817D01*
X179839411Y-60394059D01*
X179921589Y-60240313D01*
X179972195Y-60073490D01*
X179985000Y-59943477D01*
X179985000Y-59943469D01*
X179989281Y-59900000D01*
X179985000Y-59856531D01*
X179985000Y-52638454D01*
X180017205Y-52590256D01*
X180095226Y-52401898D01*
X180135000Y-52201939D01*
X180135000Y-51998061D01*
X180095226Y-51798102D01*
X180017205Y-51609744D01*
X179967263Y-51535001D01*
X181602975Y-51535001D01*
X181547818Y-51638192D01*
X181465764Y-51908691D01*
X181438057Y-52190000D01*
X181465764Y-52471309D01*
X181547818Y-52741808D01*
X181681068Y-52991101D01*
X181860392Y-53209608D01*
X182078899Y-53388932D01*
X182211858Y-53460000D01*
X182078899Y-53531068D01*
X181860392Y-53710392D01*
X181681068Y-53928899D01*
X181547818Y-54178192D01*
X181465764Y-54448691D01*
X181438057Y-54730000D01*
X181465764Y-55011309D01*
X181547818Y-55281808D01*
X181681068Y-55531101D01*
X181860392Y-55749608D01*
X182078899Y-55928932D01*
X182211858Y-56000000D01*
X182078899Y-56071068D01*
X181860392Y-56250392D01*
X181681068Y-56468899D01*
X181547818Y-56718192D01*
X181465764Y-56988691D01*
X181438057Y-57270000D01*
X181465764Y-57551309D01*
X181547818Y-57821808D01*
X181681068Y-58071101D01*
X181860392Y-58289608D01*
X182078899Y-58468932D01*
X182211858Y-58540000D01*
X182078899Y-58611068D01*
X181860392Y-58790392D01*
X181681068Y-59008899D01*
X181547818Y-59258192D01*
X181465764Y-59528691D01*
X181438057Y-59810000D01*
X181465764Y-60091309D01*
X181479292Y-60135906D01*
X179488998Y-62126201D01*
X179460000Y-62149999D01*
X179436202Y-62178997D01*
X179436201Y-62178998D01*
X179365026Y-62265724D01*
X179294454Y-62397754D01*
X179276725Y-62456201D01*
X179250998Y-62541014D01*
X179244133Y-62610719D01*
X179236324Y-62690000D01*
X179240001Y-62727332D01*
X179240000Y-63796289D01*
X179196063Y-63840226D01*
X179082795Y-64009744D01*
X179004774Y-64198102D01*
X178965000Y-64398061D01*
X178965000Y-64601939D01*
X179004774Y-64801898D01*
X179082795Y-64990256D01*
X179196063Y-65159774D01*
X179340226Y-65303937D01*
X179509744Y-65417205D01*
X179698102Y-65495226D01*
X179898061Y-65535000D01*
X180101939Y-65535000D01*
X180301898Y-65495226D01*
X180490256Y-65417205D01*
X180659774Y-65303937D01*
X180803937Y-65159774D01*
X180917205Y-64990256D01*
X180995226Y-64801898D01*
X181035000Y-64601939D01*
X181035000Y-64398061D01*
X180995226Y-64198102D01*
X180917205Y-64009744D01*
X180803937Y-63840226D01*
X180760000Y-63796289D01*
X180760000Y-63004801D01*
X182554094Y-61210708D01*
X182598691Y-61224236D01*
X182809508Y-61245000D01*
X182950492Y-61245000D01*
X183161309Y-61224236D01*
X183245001Y-61198849D01*
X183245001Y-61720197D01*
X182509002Y-62456197D01*
X182508997Y-62456201D01*
X181988998Y-62976201D01*
X181960000Y-62999999D01*
X181936202Y-63028997D01*
X181936201Y-63028998D01*
X181865026Y-63115724D01*
X181794454Y-63247754D01*
X181750998Y-63391015D01*
X181736324Y-63540000D01*
X181740001Y-63577332D01*
X181740001Y-63796288D01*
X181696063Y-63840226D01*
X181582795Y-64009744D01*
X181504774Y-64198102D01*
X181465000Y-64398061D01*
X181465000Y-64601939D01*
X181504774Y-64801898D01*
X181582795Y-64990256D01*
X181696063Y-65159774D01*
X181840226Y-65303937D01*
X182009744Y-65417205D01*
X182198102Y-65495226D01*
X182398061Y-65535000D01*
X182601939Y-65535000D01*
X182741103Y-65507319D01*
X181483432Y-66764990D01*
X168993475Y-66764990D01*
X168950009Y-66760709D01*
X168906543Y-66764990D01*
X168906533Y-66764990D01*
X168776520Y-66777795D01*
X168609697Y-66828401D01*
X168455951Y-66910579D01*
X168455949Y-66910580D01*
X168455950Y-66910580D01*
X168354963Y-66993458D01*
X168354961Y-66993460D01*
X168321193Y-67021173D01*
X168293480Y-67054941D01*
X164744123Y-70604299D01*
X164737592Y-70603000D01*
X164462408Y-70603000D01*
X164192510Y-70656686D01*
X163938273Y-70761995D01*
X163709465Y-70914880D01*
X163514880Y-71109465D01*
X163361995Y-71338273D01*
X163256686Y-71592510D01*
X163203000Y-71862408D01*
X163203000Y-72137592D01*
X163256686Y-72407490D01*
X163361995Y-72661727D01*
X163514880Y-72890535D01*
X163709465Y-73085120D01*
X163938273Y-73238005D01*
X164192510Y-73343314D01*
X164462408Y-73397000D01*
X164737592Y-73397000D01*
X165007490Y-73343314D01*
X165261727Y-73238005D01*
X165490535Y-73085120D01*
X165600000Y-72975655D01*
X165709465Y-73085120D01*
X165938273Y-73238005D01*
X166192510Y-73343314D01*
X166462408Y-73397000D01*
X166737592Y-73397000D01*
X167007490Y-73343314D01*
X167261727Y-73238005D01*
X167490535Y-73085120D01*
X167600000Y-72975655D01*
X167709465Y-73085120D01*
X167938273Y-73238005D01*
X168192510Y-73343314D01*
X168462408Y-73397000D01*
X168737592Y-73397000D01*
X169007490Y-73343314D01*
X169261727Y-73238005D01*
X169490535Y-73085120D01*
X169610090Y-72965565D01*
X169814040Y-72965565D01*
X169881020Y-73205656D01*
X170130048Y-73322756D01*
X170397135Y-73389023D01*
X170672017Y-73401910D01*
X170944133Y-73360922D01*
X171203023Y-73267636D01*
X171318980Y-73205656D01*
X171385960Y-72965565D01*
X170600000Y-72179605D01*
X169814040Y-72965565D01*
X169610090Y-72965565D01*
X169685120Y-72890535D01*
X169838005Y-72661727D01*
X169894105Y-72526290D01*
X170420395Y-72000000D01*
X170779605Y-72000000D01*
X171565565Y-72785960D01*
X171805656Y-72718980D01*
X171922756Y-72469952D01*
X171989023Y-72202865D01*
X172001910Y-71927983D01*
X171960922Y-71655867D01*
X171867636Y-71396977D01*
X171805656Y-71281020D01*
X171565565Y-71214040D01*
X170779605Y-72000000D01*
X170420395Y-72000000D01*
X169894105Y-71473710D01*
X169838005Y-71338273D01*
X169685120Y-71109465D01*
X169610090Y-71034435D01*
X169814040Y-71034435D01*
X170600000Y-71820395D01*
X171385960Y-71034435D01*
X171318980Y-70794344D01*
X171069952Y-70677244D01*
X170802865Y-70610977D01*
X170527983Y-70598090D01*
X170255867Y-70639078D01*
X169996977Y-70732364D01*
X169881020Y-70794344D01*
X169814040Y-71034435D01*
X169610090Y-71034435D01*
X169490535Y-70914880D01*
X169261727Y-70761995D01*
X169007490Y-70656686D01*
X168737592Y-70603000D01*
X168462408Y-70603000D01*
X168192510Y-70656686D01*
X167938273Y-70761995D01*
X167709465Y-70914880D01*
X167600000Y-71024345D01*
X167490535Y-70914880D01*
X167261727Y-70761995D01*
X167140003Y-70711575D01*
X168518249Y-69333329D01*
X169307284Y-69333329D01*
X169315558Y-69383443D01*
X169415044Y-69626657D01*
X169560067Y-69845789D01*
X169745054Y-70032418D01*
X169962896Y-70179372D01*
X170205222Y-70281003D01*
X170462719Y-70333406D01*
X170673000Y-70179715D01*
X170673000Y-69127000D01*
X170927000Y-69127000D01*
X170927000Y-70179715D01*
X171137281Y-70333406D01*
X171394778Y-70281003D01*
X171637104Y-70179372D01*
X171854946Y-70032418D01*
X172039933Y-69845789D01*
X172184956Y-69626657D01*
X172284442Y-69383443D01*
X172292716Y-69333329D01*
X172169374Y-69127000D01*
X170927000Y-69127000D01*
X170673000Y-69127000D01*
X169430626Y-69127000D01*
X169307284Y-69333329D01*
X168518249Y-69333329D01*
X169316589Y-68534990D01*
X169348923Y-68534990D01*
X169315558Y-68616557D01*
X169307284Y-68666671D01*
X169430626Y-68873000D01*
X170673000Y-68873000D01*
X170673000Y-68853000D01*
X170927000Y-68853000D01*
X170927000Y-68873000D01*
X172169374Y-68873000D01*
X172292716Y-68666671D01*
X172284442Y-68616557D01*
X172251077Y-68534990D01*
X179072338Y-68534990D01*
X179004774Y-68698102D01*
X178965000Y-68898061D01*
X178965000Y-69101939D01*
X179004774Y-69301898D01*
X179082795Y-69490256D01*
X179196063Y-69659774D01*
X179240001Y-69703712D01*
X179240000Y-75511928D01*
X179150000Y-75511928D01*
X179025518Y-75524188D01*
X178905820Y-75560498D01*
X178795506Y-75619463D01*
X178698815Y-75698815D01*
X178619463Y-75795506D01*
X178560498Y-75905820D01*
X178524188Y-76025518D01*
X178511928Y-76150000D01*
X178511928Y-77850000D01*
X178524188Y-77974482D01*
X178560498Y-78094180D01*
X178619463Y-78204494D01*
X178698815Y-78301185D01*
X178795506Y-78380537D01*
X178905820Y-78439502D01*
X179025518Y-78475812D01*
X179150000Y-78488072D01*
X180850000Y-78488072D01*
X180974482Y-78475812D01*
X181094180Y-78439502D01*
X181204494Y-78380537D01*
X181301185Y-78301185D01*
X181380537Y-78204494D01*
X181439502Y-78094180D01*
X181460393Y-78025313D01*
X181484866Y-78055134D01*
X181710986Y-78240706D01*
X181968966Y-78378599D01*
X182248889Y-78463513D01*
X182467050Y-78485000D01*
X182612950Y-78485000D01*
X182831111Y-78463513D01*
X183111034Y-78378599D01*
X183369014Y-78240706D01*
X183595134Y-78055134D01*
X183780706Y-77829014D01*
X183815201Y-77764477D01*
X183884822Y-77881355D01*
X184079731Y-78097588D01*
X184313080Y-78271641D01*
X184575901Y-78396825D01*
X184723110Y-78441476D01*
X184953000Y-78320155D01*
X184953000Y-77127000D01*
X184933000Y-77127000D01*
X184933000Y-76873000D01*
X184953000Y-76873000D01*
X184953000Y-75679845D01*
X184723110Y-75558524D01*
X184575901Y-75603175D01*
X184313080Y-75728359D01*
X184079731Y-75902412D01*
X183884822Y-76118645D01*
X183815201Y-76235523D01*
X183780706Y-76170986D01*
X183595134Y-75944866D01*
X183369014Y-75759294D01*
X183300000Y-75722405D01*
X183300000Y-69663711D01*
X183303937Y-69659774D01*
X183417205Y-69490256D01*
X183495226Y-69301898D01*
X183535000Y-69101939D01*
X183535000Y-68898061D01*
X183495226Y-68698102D01*
X183417205Y-68509744D01*
X183303937Y-68340226D01*
X183159774Y-68196063D01*
X182990256Y-68082795D01*
X182801898Y-68004774D01*
X182755945Y-67995633D01*
X185115000Y-65636578D01*
X185115000Y-66576531D01*
X185110719Y-66620000D01*
X185115000Y-66663469D01*
X185115000Y-66663476D01*
X185127805Y-66793489D01*
X185178411Y-66960312D01*
X185260589Y-67114058D01*
X185371183Y-67248817D01*
X185404956Y-67276534D01*
X186909388Y-68780967D01*
X186887815Y-69000000D01*
X186916487Y-69291111D01*
X187001401Y-69571034D01*
X187139294Y-69829014D01*
X187324866Y-70055134D01*
X187495000Y-70194760D01*
X187495001Y-75520126D01*
X187328889Y-75536487D01*
X187048966Y-75621401D01*
X186790986Y-75759294D01*
X186564866Y-75944866D01*
X186379294Y-76170986D01*
X186344799Y-76235523D01*
X186275178Y-76118645D01*
X186080269Y-75902412D01*
X185846920Y-75728359D01*
X185584099Y-75603175D01*
X185436890Y-75558524D01*
X185207000Y-75679845D01*
X185207000Y-76873000D01*
X185227000Y-76873000D01*
X185227000Y-77127000D01*
X185207000Y-77127000D01*
X185207000Y-78320155D01*
X185436890Y-78441476D01*
X185584099Y-78396825D01*
X185846920Y-78271641D01*
X186080269Y-78097588D01*
X186275178Y-77881355D01*
X186344799Y-77764477D01*
X186379294Y-77829014D01*
X186564866Y-78055134D01*
X186790986Y-78240706D01*
X187048966Y-78378599D01*
X187328889Y-78463513D01*
X187547050Y-78485000D01*
X187692950Y-78485000D01*
X187911111Y-78463513D01*
X188191034Y-78378599D01*
X188449014Y-78240706D01*
X188675134Y-78055134D01*
X188860706Y-77829014D01*
X188998599Y-77571034D01*
X189083513Y-77291111D01*
X189112185Y-77000000D01*
X189089573Y-76770416D01*
X189119411Y-76734059D01*
X189201589Y-76580313D01*
X189252195Y-76413490D01*
X189265000Y-76283477D01*
X189265000Y-76283467D01*
X189269281Y-76240001D01*
X189265000Y-76196535D01*
X189265000Y-70194759D01*
X189435134Y-70055134D01*
X189620706Y-69829014D01*
X189655201Y-69764477D01*
X189724822Y-69881355D01*
X189919731Y-70097588D01*
X190153080Y-70271641D01*
X190415901Y-70396825D01*
X190563110Y-70441476D01*
X190793000Y-70320155D01*
X190793000Y-69127000D01*
X190773000Y-69127000D01*
X190773000Y-68873000D01*
X190793000Y-68873000D01*
X190793000Y-67679845D01*
X190563110Y-67558524D01*
X190415901Y-67603175D01*
X190153080Y-67728359D01*
X189919731Y-67902412D01*
X189724822Y-68118645D01*
X189655201Y-68235523D01*
X189620706Y-68170986D01*
X189435134Y-67944866D01*
X189209014Y-67759294D01*
X188951034Y-67621401D01*
X188671111Y-67536487D01*
X188452950Y-67515000D01*
X188307050Y-67515000D01*
X188160967Y-67529388D01*
X186885000Y-66253422D01*
X186885000Y-63543467D01*
X186889281Y-63500001D01*
X186885000Y-63456535D01*
X186885000Y-57898061D01*
X187465000Y-57898061D01*
X187465000Y-58101939D01*
X187504774Y-58301898D01*
X187582795Y-58490256D01*
X187696063Y-58659774D01*
X187840226Y-58803937D01*
X188009744Y-58917205D01*
X188198102Y-58995226D01*
X188398061Y-59035000D01*
X188460199Y-59035000D01*
X192700000Y-63274802D01*
X192700001Y-67722405D01*
X192630986Y-67759294D01*
X192404866Y-67944866D01*
X192219294Y-68170986D01*
X192184799Y-68235523D01*
X192115178Y-68118645D01*
X191920269Y-67902412D01*
X191686920Y-67728359D01*
X191424099Y-67603175D01*
X191276890Y-67558524D01*
X191047000Y-67679845D01*
X191047000Y-68873000D01*
X191067000Y-68873000D01*
X191067000Y-69127000D01*
X191047000Y-69127000D01*
X191047000Y-70320155D01*
X191276890Y-70441476D01*
X191424099Y-70396825D01*
X191686920Y-70271641D01*
X191920269Y-70097588D01*
X192115178Y-69881355D01*
X192184799Y-69764477D01*
X192219294Y-69829014D01*
X192404866Y-70055134D01*
X192630986Y-70240706D01*
X192888966Y-70378599D01*
X193168889Y-70463513D01*
X193387050Y-70485000D01*
X193532950Y-70485000D01*
X193751111Y-70463513D01*
X194031034Y-70378599D01*
X194289014Y-70240706D01*
X194515134Y-70055134D01*
X194539607Y-70025313D01*
X194560498Y-70094180D01*
X194619463Y-70204494D01*
X194698815Y-70301185D01*
X194795506Y-70380537D01*
X194905820Y-70439502D01*
X195025518Y-70475812D01*
X195150000Y-70488072D01*
X196850000Y-70488072D01*
X196974482Y-70475812D01*
X197094180Y-70439502D01*
X197204494Y-70380537D01*
X197301185Y-70301185D01*
X197380537Y-70204494D01*
X197439502Y-70094180D01*
X197475812Y-69974482D01*
X197488072Y-69850000D01*
X197488072Y-68150000D01*
X197475812Y-68025518D01*
X197439502Y-67905820D01*
X197380537Y-67795506D01*
X197301185Y-67698815D01*
X197204494Y-67619463D01*
X197094180Y-67560498D01*
X196974482Y-67524188D01*
X196850000Y-67511928D01*
X196760000Y-67511928D01*
X196760000Y-64512019D01*
X196763676Y-64474694D01*
X196760000Y-64437369D01*
X196760000Y-64437361D01*
X196749003Y-64325708D01*
X196705546Y-64182447D01*
X196634974Y-64050418D01*
X196540001Y-63934693D01*
X196511004Y-63910896D01*
X189547653Y-56947546D01*
X189547653Y-56885408D01*
X189507879Y-56685449D01*
X189429858Y-56497091D01*
X189316590Y-56327573D01*
X189172427Y-56183410D01*
X189002909Y-56070142D01*
X188814551Y-55992121D01*
X188614592Y-55952347D01*
X188410714Y-55952347D01*
X188210755Y-55992121D01*
X188022397Y-56070142D01*
X187852879Y-56183410D01*
X187708716Y-56327573D01*
X187595448Y-56497091D01*
X187517427Y-56685449D01*
X187477653Y-56885408D01*
X187477653Y-57089286D01*
X187517427Y-57289245D01*
X187595448Y-57477603D01*
X187599859Y-57484205D01*
X187582795Y-57509744D01*
X187504774Y-57698102D01*
X187465000Y-57898061D01*
X186885000Y-57898061D01*
X186885000Y-48866578D01*
X193065049Y-42686530D01*
X193098817Y-42658817D01*
X193126530Y-42625049D01*
X193656532Y-42095047D01*
X193656536Y-42095042D01*
X195905049Y-39846530D01*
X195938817Y-39818817D01*
X196049411Y-39684059D01*
X196131589Y-39530313D01*
X196182195Y-39363490D01*
X196195000Y-39233477D01*
X196195000Y-39233467D01*
X196199281Y-39190001D01*
X196195000Y-39146535D01*
X196195000Y-35803465D01*
X196199281Y-35759999D01*
X196195000Y-35716533D01*
X196195000Y-35716523D01*
X196182195Y-35586510D01*
X196131589Y-35419687D01*
X196049411Y-35265941D01*
X195938817Y-35131183D01*
X195905050Y-35103471D01*
X193262367Y-32460789D01*
X193279853Y-32418574D01*
X193335000Y-32141335D01*
X193335000Y-32027000D01*
X199573000Y-32027000D01*
X199573000Y-97673000D01*
X193200000Y-97673000D01*
X193175224Y-97675440D01*
X193151399Y-97682667D01*
X193129443Y-97694403D01*
X193110197Y-97710197D01*
X193094403Y-97729443D01*
X193082667Y-97751399D01*
X193075440Y-97775224D01*
X193073000Y-97800000D01*
X193073000Y-102273000D01*
X163527000Y-102273000D01*
X163527000Y-97600000D01*
X163524560Y-97575224D01*
X163517333Y-97551399D01*
X163505597Y-97529443D01*
X163489803Y-97510197D01*
X163470557Y-97494403D01*
X163448601Y-97482667D01*
X163424776Y-97475440D01*
X163400000Y-97473000D01*
X156627000Y-97473000D01*
X156627000Y-31827000D01*
X164500000Y-31827000D01*
X164524776Y-31824560D01*
X164548601Y-31817333D01*
X164570557Y-31805597D01*
X164589803Y-31789803D01*
X164605597Y-31770557D01*
X164617333Y-31748601D01*
X164624560Y-31724776D01*
X164627000Y-31700000D01*
X164627000Y-31080000D01*
X178257573Y-31080000D01*
X178287210Y-31380913D01*
X178374983Y-31670261D01*
X178517519Y-31936927D01*
X178709339Y-32170661D01*
X178943073Y-32362481D01*
X179209739Y-32505017D01*
X179499087Y-32592790D01*
X179724592Y-32615000D01*
X179875408Y-32615000D01*
X180100913Y-32592790D01*
X180390261Y-32505017D01*
X180656927Y-32362481D01*
X180890661Y-32170661D01*
X181082481Y-31936927D01*
X181225017Y-31670261D01*
X181312790Y-31380913D01*
X181342427Y-31080000D01*
X181312790Y-30779087D01*
X181225017Y-30489739D01*
X181082481Y-30223073D01*
X180890661Y-29989339D01*
X180656927Y-29797519D01*
X180390261Y-29654983D01*
X180100913Y-29567210D01*
X179875408Y-29545000D01*
X179724592Y-29545000D01*
X179499087Y-29567210D01*
X179209739Y-29654983D01*
X178943073Y-29797519D01*
X178709339Y-29989339D01*
X178517519Y-30223073D01*
X178374983Y-30489739D01*
X178287210Y-30779087D01*
X178257573Y-31080000D01*
X164627000Y-31080000D01*
X164627000Y-26250000D01*
X165011928Y-26250000D01*
X165024188Y-26374482D01*
X165060498Y-26494180D01*
X165119463Y-26604494D01*
X165198815Y-26701185D01*
X165295506Y-26780537D01*
X165405820Y-26839502D01*
X165525518Y-26875812D01*
X165650000Y-26888072D01*
X166614250Y-26885000D01*
X166773000Y-26726250D01*
X166773000Y-25127000D01*
X167027000Y-25127000D01*
X167027000Y-26726250D01*
X167185750Y-26885000D01*
X168150000Y-26888072D01*
X168274482Y-26875812D01*
X168394180Y-26839502D01*
X168504494Y-26780537D01*
X168601185Y-26701185D01*
X168680537Y-26604494D01*
X168739502Y-26494180D01*
X168775812Y-26374482D01*
X168788072Y-26250000D01*
X168785000Y-25285750D01*
X168626250Y-25127000D01*
X167027000Y-25127000D01*
X166773000Y-25127000D01*
X165173750Y-25127000D01*
X165015000Y-25285750D01*
X165011928Y-26250000D01*
X164627000Y-26250000D01*
X164627000Y-23750000D01*
X165011928Y-23750000D01*
X165015000Y-24714250D01*
X165173750Y-24873000D01*
X166773000Y-24873000D01*
X166773000Y-23273750D01*
X167027000Y-23273750D01*
X167027000Y-24873000D01*
X168626250Y-24873000D01*
X168785000Y-24714250D01*
X168788072Y-23750000D01*
X168775812Y-23625518D01*
X168739502Y-23505820D01*
X168680537Y-23395506D01*
X168601185Y-23298815D01*
X168504494Y-23219463D01*
X168394180Y-23160498D01*
X168274482Y-23124188D01*
X168150000Y-23111928D01*
X167185750Y-23115000D01*
X167027000Y-23273750D01*
X166773000Y-23273750D01*
X166614250Y-23115000D01*
X165650000Y-23111928D01*
X165525518Y-23124188D01*
X165405820Y-23160498D01*
X165295506Y-23219463D01*
X165198815Y-23298815D01*
X165119463Y-23395506D01*
X165060498Y-23505820D01*
X165024188Y-23625518D01*
X165011928Y-23750000D01*
X164627000Y-23750000D01*
X164627000Y-17727000D01*
X191873000Y-17727000D01*
X191873000Y-27568153D01*
X191873000Y-27568153D01*
G37*
X191873000Y-27568153D02*
X191649870Y-27601213D01*
X191383708Y-27696397D01*
X191258486Y-27763329D01*
X191186903Y-28007298D01*
X191873000Y-28693395D01*
X191873000Y-29080890D01*
X191806253Y-29014143D01*
X191820395Y-29000000D01*
X191007298Y-28186903D01*
X190763329Y-28258486D01*
X190642429Y-28513996D01*
X190573700Y-28788184D01*
X190559783Y-29070512D01*
X190601213Y-29350130D01*
X190656608Y-29505029D01*
X189565000Y-28413422D01*
X189565000Y-26374505D01*
X189566235Y-26373845D01*
X189807963Y-26175463D01*
X190006345Y-25933734D01*
X190153755Y-25657948D01*
X190244530Y-25358703D01*
X190267500Y-25125485D01*
X190267500Y-24874514D01*
X190244530Y-24641296D01*
X190153755Y-24342051D01*
X190006345Y-24066265D01*
X189807963Y-23824537D01*
X189566234Y-23626155D01*
X189290448Y-23478745D01*
X188991203Y-23387970D01*
X188680000Y-23357319D01*
X188368796Y-23387970D01*
X188069551Y-23478745D01*
X187793765Y-23626155D01*
X187552037Y-23824537D01*
X187404838Y-24003900D01*
X187249437Y-23818685D01*
X187006923Y-23624031D01*
X186731094Y-23480429D01*
X186512980Y-23409437D01*
X186267000Y-23529406D01*
X186267000Y-24873000D01*
X186287000Y-24873000D01*
X186287000Y-25127000D01*
X186267000Y-25127000D01*
X186267000Y-26470594D01*
X186512980Y-26590563D01*
X186731094Y-26519571D01*
X187006923Y-26375969D01*
X187249437Y-26181315D01*
X187404837Y-25996101D01*
X187552037Y-26175463D01*
X187793766Y-26373845D01*
X187795000Y-26374505D01*
X187795001Y-27805343D01*
X187679727Y-27728320D01*
X187418574Y-27620147D01*
X187141335Y-27565000D01*
X186858665Y-27565000D01*
X186823561Y-27571983D01*
X185817514Y-26565936D01*
X186013000Y-26470594D01*
X186013000Y-25127000D01*
X185993000Y-25127000D01*
X185993000Y-24873000D01*
X186013000Y-24873000D01*
X186013000Y-23529406D01*
X185767020Y-23409437D01*
X185548906Y-23480429D01*
X185273077Y-23624031D01*
X185132059Y-23737219D01*
X185083037Y-23645506D01*
X185003685Y-23548815D01*
X184906994Y-23469463D01*
X184796680Y-23410498D01*
X184676982Y-23374188D01*
X184552500Y-23361928D01*
X182647500Y-23361928D01*
X182523018Y-23374188D01*
X182403320Y-23410498D01*
X182293006Y-23469463D01*
X182196315Y-23548815D01*
X182116963Y-23645506D01*
X182057998Y-23755820D01*
X182021688Y-23875518D01*
X182009428Y-24000000D01*
X182009428Y-26000000D01*
X182021688Y-26124482D01*
X182057998Y-26244180D01*
X182116963Y-26354494D01*
X182196315Y-26451185D01*
X182293006Y-26530537D01*
X182403320Y-26589502D01*
X182523018Y-26625812D01*
X182647500Y-26638072D01*
X183386494Y-26638072D01*
X185571983Y-28823561D01*
X185565000Y-28858665D01*
X185565000Y-29141335D01*
X185571983Y-29176439D01*
X184804951Y-29943471D01*
X184771184Y-29971183D01*
X184743471Y-30004951D01*
X184743468Y-30004954D01*
X184660590Y-30105941D01*
X184631310Y-30160721D01*
X184490661Y-29989339D01*
X184256927Y-29797519D01*
X183990261Y-29654983D01*
X183700913Y-29567210D01*
X183475408Y-29545000D01*
X183324592Y-29545000D01*
X183135229Y-29563650D01*
X180776534Y-27204956D01*
X180748817Y-27171183D01*
X180614059Y-27060589D01*
X180460313Y-26978411D01*
X180293490Y-26927805D01*
X180163477Y-26915000D01*
X180163469Y-26915000D01*
X180120000Y-26910719D01*
X180076531Y-26915000D01*
X175066579Y-26915000D01*
X173806535Y-25654957D01*
X173806531Y-25654952D01*
X173709296Y-25557717D01*
X173712561Y-25549834D01*
X173785000Y-25185656D01*
X173785000Y-24814344D01*
X175015000Y-24814344D01*
X175015000Y-25185656D01*
X175087439Y-25549834D01*
X175229534Y-25892882D01*
X175435825Y-26201618D01*
X175698382Y-26464175D01*
X176007118Y-26670466D01*
X176350166Y-26812561D01*
X176714344Y-26885000D01*
X177085656Y-26885000D01*
X177449834Y-26812561D01*
X177792882Y-26670466D01*
X178101618Y-26464175D01*
X178364175Y-26201618D01*
X178570466Y-25892882D01*
X178712561Y-25549834D01*
X178785000Y-25185656D01*
X178785000Y-24814344D01*
X178712561Y-24450166D01*
X178570466Y-24107118D01*
X178364175Y-23798382D01*
X178101618Y-23535825D01*
X177792882Y-23329534D01*
X177449834Y-23187439D01*
X177085656Y-23115000D01*
X176714344Y-23115000D01*
X176350166Y-23187439D01*
X176007118Y-23329534D01*
X175698382Y-23535825D01*
X175435825Y-23798382D01*
X175229534Y-24107118D01*
X175087439Y-24450166D01*
X175015000Y-24814344D01*
X173785000Y-24814344D01*
X173712561Y-24450166D01*
X173570466Y-24107118D01*
X173364175Y-23798382D01*
X173101618Y-23535825D01*
X172792882Y-23329534D01*
X172449834Y-23187439D01*
X172085656Y-23115000D01*
X171714344Y-23115000D01*
X171350166Y-23187439D01*
X171007118Y-23329534D01*
X170698382Y-23535825D01*
X170435825Y-23798382D01*
X170229534Y-24107118D01*
X170087439Y-24450166D01*
X170015000Y-24814344D01*
X170015000Y-25185656D01*
X170087439Y-25549834D01*
X170229534Y-25892882D01*
X170435825Y-26201618D01*
X170698382Y-26464175D01*
X171007118Y-26670466D01*
X171350166Y-26812561D01*
X171714344Y-26885000D01*
X172085656Y-26885000D01*
X172449834Y-26812561D01*
X172457717Y-26809296D01*
X172554952Y-26906531D01*
X172554957Y-26906535D01*
X174043470Y-28395049D01*
X174071183Y-28428817D01*
X174104951Y-28456530D01*
X174104953Y-28456532D01*
X174165157Y-28505940D01*
X174205941Y-28539411D01*
X174359687Y-28621589D01*
X174526510Y-28672195D01*
X174656523Y-28685000D01*
X174656533Y-28685000D01*
X174699999Y-28689281D01*
X174743465Y-28685000D01*
X179753422Y-28685000D01*
X181883650Y-30815229D01*
X181857573Y-31080000D01*
X181887210Y-31380913D01*
X181974983Y-31670261D01*
X182117519Y-31936927D01*
X182309339Y-32170661D01*
X182543073Y-32362481D01*
X182809739Y-32505017D01*
X182969073Y-32553351D01*
X181197424Y-34325000D01*
X176255059Y-34325000D01*
X176149987Y-34167748D01*
X175922252Y-33940013D01*
X175654463Y-33761082D01*
X175356912Y-33637832D01*
X175041033Y-33575000D01*
X174718967Y-33575000D01*
X174403088Y-33637832D01*
X174105537Y-33761082D01*
X173837748Y-33940013D01*
X173610013Y-34167748D01*
X173431082Y-34435537D01*
X173307832Y-34733088D01*
X173245000Y-35048967D01*
X173245000Y-35371033D01*
X173307832Y-35686912D01*
X173431082Y-35984463D01*
X173610013Y-36252252D01*
X173837748Y-36479987D01*
X174105537Y-36658918D01*
X174403088Y-36782168D01*
X174718967Y-36845000D01*
X175041033Y-36845000D01*
X175356912Y-36782168D01*
X175654463Y-36658918D01*
X175922252Y-36479987D01*
X176149987Y-36252252D01*
X176255059Y-36095000D01*
X181520533Y-36095000D01*
X181564002Y-36099281D01*
X181607471Y-36095000D01*
X181607479Y-36095000D01*
X181737492Y-36082195D01*
X181904315Y-36031589D01*
X182058061Y-35949411D01*
X182192819Y-35838817D01*
X182220536Y-35805044D01*
X185032878Y-32992702D01*
X186086903Y-32992702D01*
X186158486Y-33236671D01*
X186413996Y-33357571D01*
X186688184Y-33426300D01*
X186970512Y-33440217D01*
X187250130Y-33398787D01*
X187516292Y-33303603D01*
X187641514Y-33236671D01*
X187713097Y-32992702D01*
X186900000Y-32179605D01*
X186086903Y-32992702D01*
X185032878Y-32992702D01*
X185547110Y-32478471D01*
X185596397Y-32616292D01*
X185663329Y-32741514D01*
X185907298Y-32813097D01*
X186720395Y-32000000D01*
X187079605Y-32000000D01*
X187892702Y-32813097D01*
X188136671Y-32741514D01*
X188257571Y-32486004D01*
X188326300Y-32211816D01*
X188340217Y-31929488D01*
X188298787Y-31649870D01*
X188203603Y-31383708D01*
X188136671Y-31258486D01*
X187892702Y-31186903D01*
X187079605Y-32000000D01*
X186720395Y-32000000D01*
X186706253Y-31985858D01*
X186885858Y-31806253D01*
X186900000Y-31820395D01*
X187713097Y-31007298D01*
X187641514Y-30763329D01*
X187386004Y-30642429D01*
X187111816Y-30573700D01*
X186829488Y-30559783D01*
X186667845Y-30583733D01*
X186823561Y-30428017D01*
X186858665Y-30435000D01*
X187141335Y-30435000D01*
X187418574Y-30379853D01*
X187679727Y-30271680D01*
X187914759Y-30114637D01*
X188114637Y-29914759D01*
X188271680Y-29679727D01*
X188288219Y-29639797D01*
X190471983Y-31823561D01*
X190465000Y-31858665D01*
X190465000Y-32141335D01*
X190520147Y-32418574D01*
X190628320Y-32679727D01*
X190785363Y-32914759D01*
X190985241Y-33114637D01*
X191220273Y-33271680D01*
X191481426Y-33379853D01*
X191727154Y-33428732D01*
X194425000Y-36126579D01*
X194425001Y-38823420D01*
X192404958Y-40843464D01*
X192404953Y-40843468D01*
X192103421Y-41145000D01*
X184010078Y-41145000D01*
X183899608Y-41010392D01*
X183681101Y-40831068D01*
X183431808Y-40697818D01*
X183161309Y-40615764D01*
X182950492Y-40595000D01*
X182809508Y-40595000D01*
X182750796Y-40600783D01*
X183113507Y-40238072D01*
X184300000Y-40238072D01*
X184424482Y-40225812D01*
X184544180Y-40189502D01*
X184654494Y-40130537D01*
X184751185Y-40051185D01*
X184830537Y-39954494D01*
X184889502Y-39844180D01*
X184925812Y-39724482D01*
X184938072Y-39600000D01*
X184938072Y-37800000D01*
X184925812Y-37675518D01*
X184889502Y-37555820D01*
X184830537Y-37445506D01*
X184751185Y-37348815D01*
X184654494Y-37269463D01*
X184544180Y-37210498D01*
X184424482Y-37174188D01*
X184300000Y-37161928D01*
X182500000Y-37161928D01*
X182375518Y-37174188D01*
X182255820Y-37210498D01*
X182145506Y-37269463D01*
X182048815Y-37348815D01*
X181969463Y-37445506D01*
X181910498Y-37555820D01*
X181874188Y-37675518D01*
X181861928Y-37800000D01*
X181861928Y-38986493D01*
X181338072Y-39510349D01*
X181338072Y-37800000D01*
X181325812Y-37675518D01*
X181289502Y-37555820D01*
X181230537Y-37445506D01*
X181151185Y-37348815D01*
X181054494Y-37269463D01*
X180944180Y-37210498D01*
X180824482Y-37174188D01*
X180700000Y-37161928D01*
X178900000Y-37161928D01*
X178775518Y-37174188D01*
X178655820Y-37210498D01*
X178545506Y-37269463D01*
X178448815Y-37348815D01*
X178369463Y-37445506D01*
X178310498Y-37555820D01*
X178274188Y-37675518D01*
X178261928Y-37800000D01*
X178261928Y-37815000D01*
X173666579Y-37815000D01*
X171398103Y-35546525D01*
X171435000Y-35361033D01*
X171435000Y-35038967D01*
X171372168Y-34723088D01*
X171248918Y-34425537D01*
X171069987Y-34157748D01*
X170842252Y-33930013D01*
X170574463Y-33751082D01*
X170276912Y-33627832D01*
X169961033Y-33565000D01*
X169638967Y-33565000D01*
X169323088Y-33627832D01*
X169025537Y-33751082D01*
X168757748Y-33930013D01*
X168530013Y-34157748D01*
X168351082Y-34425537D01*
X168227832Y-34723088D01*
X168165000Y-35038967D01*
X168165000Y-35361033D01*
X168227832Y-35676912D01*
X168351082Y-35974463D01*
X168530013Y-36242252D01*
X168757748Y-36469987D01*
X169025537Y-36648918D01*
X169323088Y-36772168D01*
X169638967Y-36835000D01*
X169961033Y-36835000D01*
X170146525Y-36798103D01*
X171163421Y-37815000D01*
X166562467Y-37815000D01*
X166518998Y-37810719D01*
X166475529Y-37815000D01*
X166475521Y-37815000D01*
X166345508Y-37827805D01*
X166178685Y-37878411D01*
X166024939Y-37960589D01*
X165923951Y-38043468D01*
X165923949Y-38043470D01*
X165890181Y-38071183D01*
X165862468Y-38104951D01*
X165394929Y-38572490D01*
X165665107Y-38168141D01*
X165863739Y-37688601D01*
X165965000Y-37179525D01*
X165965000Y-36660475D01*
X165863739Y-36151399D01*
X165665107Y-35671859D01*
X165376738Y-35240285D01*
X165009715Y-34873262D01*
X164578141Y-34584893D01*
X164098601Y-34386261D01*
X163589525Y-34285000D01*
X163070475Y-34285000D01*
X162561399Y-34386261D01*
X162081859Y-34584893D01*
X161650285Y-34873262D01*
X161283262Y-35240285D01*
X160994893Y-35671859D01*
X160796261Y-36151399D01*
X160695000Y-36660475D01*
X160695000Y-37179525D01*
X160796261Y-37688601D01*
X160994893Y-38168141D01*
X161283262Y-38599715D01*
X161650285Y-38966738D01*
X162081859Y-39255107D01*
X162561399Y-39453739D01*
X163070475Y-39555000D01*
X163589525Y-39555000D01*
X164098601Y-39453739D01*
X164578141Y-39255107D01*
X164982490Y-38984929D01*
X157904952Y-46062468D01*
X157871184Y-46090181D01*
X157843471Y-46123949D01*
X157843468Y-46123952D01*
X157760590Y-46224939D01*
X157678412Y-46378685D01*
X157627805Y-46545508D01*
X157610719Y-46718998D01*
X157615001Y-46762477D01*
X157615000Y-85456531D01*
X157610719Y-85500000D01*
X157615000Y-85543469D01*
X157615000Y-85543476D01*
X157627805Y-85673489D01*
X157678411Y-85840312D01*
X157760589Y-85994058D01*
X157871183Y-86128817D01*
X157904956Y-86156534D01*
X163961296Y-92212875D01*
X163870511Y-92152214D01*
X163459218Y-91981851D01*
X163022591Y-91895000D01*
X162577409Y-91895000D01*
X162140782Y-91981851D01*
X161729489Y-92152214D01*
X161359334Y-92399544D01*
X161044544Y-92714334D01*
X160797214Y-93084489D01*
X160626851Y-93495782D01*
X160540000Y-93932409D01*
X160540000Y-94377591D01*
X160626851Y-94814218D01*
X160797214Y-95225511D01*
X161044544Y-95595666D01*
X161359334Y-95910456D01*
X161729489Y-96157786D01*
X162140782Y-96328149D01*
X162577409Y-96415000D01*
X163022591Y-96415000D01*
X163459218Y-96328149D01*
X163870511Y-96157786D01*
X163914607Y-96128322D01*
X163909025Y-96185000D01*
X163932870Y-96427102D01*
X164003489Y-96659901D01*
X164118167Y-96874449D01*
X164272498Y-97062502D01*
X164460551Y-97216833D01*
X164675099Y-97331511D01*
X164907898Y-97402130D01*
X165089335Y-97420000D01*
X166510665Y-97420000D01*
X166692102Y-97402130D01*
X166924901Y-97331511D01*
X167139449Y-97216833D01*
X167327502Y-97062502D01*
X167481833Y-96874449D01*
X167596511Y-96659901D01*
X167667130Y-96427102D01*
X167690975Y-96185000D01*
X167667130Y-95942898D01*
X167656597Y-95908176D01*
X168465000Y-96716579D01*
X168464999Y-99265000D01*
X168427050Y-99265000D01*
X168208889Y-99286487D01*
X167928966Y-99371401D01*
X167670986Y-99509294D01*
X167444866Y-99694866D01*
X167259294Y-99920986D01*
X167121401Y-100178966D01*
X167036487Y-100458889D01*
X167007815Y-100750000D01*
X167036487Y-101041111D01*
X167121401Y-101321034D01*
X167259294Y-101579014D01*
X167444866Y-101805134D01*
X167670986Y-101990706D01*
X167928966Y-102128599D01*
X168208889Y-102213513D01*
X168427050Y-102235000D01*
X168572950Y-102235000D01*
X168791111Y-102213513D01*
X169071034Y-102128599D01*
X169329014Y-101990706D01*
X169555134Y-101805134D01*
X169579607Y-101775313D01*
X169600498Y-101844180D01*
X169659463Y-101954494D01*
X169738815Y-102051185D01*
X169835506Y-102130537D01*
X169945820Y-102189502D01*
X170065518Y-102225812D01*
X170190000Y-102238072D01*
X171890000Y-102238072D01*
X172014482Y-102225812D01*
X172134180Y-102189502D01*
X172244494Y-102130537D01*
X172341185Y-102051185D01*
X172420537Y-101954494D01*
X172479502Y-101844180D01*
X172515812Y-101724482D01*
X172528072Y-101600000D01*
X172528072Y-99900000D01*
X172515812Y-99775518D01*
X172479502Y-99655820D01*
X172420537Y-99545506D01*
X172341185Y-99448815D01*
X172244494Y-99369463D01*
X172134180Y-99310498D01*
X172014482Y-99274188D01*
X171925000Y-99265375D01*
X171925000Y-94136798D01*
X171996043Y-94107371D01*
X172222886Y-93955799D01*
X172415799Y-93762886D01*
X172567371Y-93536043D01*
X172671775Y-93283989D01*
X172725000Y-93016411D01*
X172725000Y-92743589D01*
X172671775Y-92476011D01*
X172567371Y-92223957D01*
X172415799Y-91997114D01*
X172222886Y-91804201D01*
X171996043Y-91652629D01*
X171893127Y-91610000D01*
X171996043Y-91567371D01*
X172222886Y-91415799D01*
X172415799Y-91222886D01*
X172567371Y-90996043D01*
X172671775Y-90743989D01*
X172725000Y-90476411D01*
X172725000Y-90203589D01*
X172671775Y-89936011D01*
X172567371Y-89683957D01*
X172415799Y-89457114D01*
X172222886Y-89264201D01*
X171996043Y-89112629D01*
X171893127Y-89070000D01*
X171996043Y-89027371D01*
X172222886Y-88875799D01*
X172415799Y-88682886D01*
X172567371Y-88456043D01*
X172671775Y-88203989D01*
X172725000Y-87936411D01*
X172725000Y-87663589D01*
X172671775Y-87396011D01*
X172567371Y-87143957D01*
X172415799Y-86917114D01*
X172222886Y-86724201D01*
X171996043Y-86572629D01*
X171896721Y-86531489D01*
X171938832Y-86516277D01*
X172051863Y-86455860D01*
X172117388Y-86216993D01*
X171340000Y-85439605D01*
X170562612Y-86216993D01*
X170628137Y-86455860D01*
X170786477Y-86530164D01*
X170683957Y-86572629D01*
X170457114Y-86724201D01*
X170264201Y-86917114D01*
X170112629Y-87143957D01*
X170008225Y-87396011D01*
X169955000Y-87663589D01*
X169955000Y-87936411D01*
X170008225Y-88203989D01*
X170112629Y-88456043D01*
X170264201Y-88682886D01*
X170457114Y-88875799D01*
X170683957Y-89027371D01*
X170786873Y-89070000D01*
X170683957Y-89112629D01*
X170457114Y-89264201D01*
X170264201Y-89457114D01*
X170112629Y-89683957D01*
X170008225Y-89936011D01*
X169955000Y-90203589D01*
X169955000Y-90476411D01*
X170008225Y-90743989D01*
X170112629Y-90996043D01*
X170264201Y-91222886D01*
X170457114Y-91415799D01*
X170683957Y-91567371D01*
X170786873Y-91610000D01*
X170683957Y-91652629D01*
X170457114Y-91804201D01*
X170346447Y-91914868D01*
X170185000Y-91753421D01*
X170185000Y-91483589D01*
X170131775Y-91216011D01*
X170027371Y-90963957D01*
X169875799Y-90737114D01*
X169682886Y-90544201D01*
X169456043Y-90392629D01*
X169356721Y-90351489D01*
X169398832Y-90336277D01*
X169511863Y-90275860D01*
X169577388Y-90036993D01*
X168800000Y-89259605D01*
X168785858Y-89273748D01*
X168606253Y-89094143D01*
X168620395Y-89080000D01*
X168979605Y-89080000D01*
X169756993Y-89857388D01*
X169995860Y-89791863D01*
X170111760Y-89544884D01*
X170177250Y-89280040D01*
X170189812Y-89007508D01*
X170148965Y-88737762D01*
X170056277Y-88481168D01*
X169995860Y-88368137D01*
X169756993Y-88302612D01*
X168979605Y-89080000D01*
X168620395Y-89080000D01*
X167843007Y-88302612D01*
X167604140Y-88368137D01*
X167488240Y-88615116D01*
X167422750Y-88879960D01*
X167410188Y-89152492D01*
X167451035Y-89422238D01*
X167543723Y-89678832D01*
X167604140Y-89791863D01*
X167843005Y-89857387D01*
X167726549Y-89973843D01*
X167737707Y-89985001D01*
X166436580Y-89985001D01*
X160785000Y-84333422D01*
X160785000Y-83766024D01*
X160797214Y-83795511D01*
X161044544Y-84165666D01*
X161359334Y-84480456D01*
X161729489Y-84727786D01*
X162140782Y-84898149D01*
X162577409Y-84985000D01*
X163022591Y-84985000D01*
X163459218Y-84898149D01*
X163816881Y-84750000D01*
X167411928Y-84750000D01*
X167424188Y-84874482D01*
X167460498Y-84994180D01*
X167519463Y-85104494D01*
X167598815Y-85201185D01*
X167695506Y-85280537D01*
X167805820Y-85339502D01*
X167925518Y-85375812D01*
X168033483Y-85386445D01*
X167917114Y-85464201D01*
X167724201Y-85657114D01*
X167572629Y-85883957D01*
X167468225Y-86136011D01*
X167415000Y-86403589D01*
X167415000Y-86676411D01*
X167468225Y-86943989D01*
X167572629Y-87196043D01*
X167724201Y-87422886D01*
X167917114Y-87615799D01*
X168143957Y-87767371D01*
X168243279Y-87808511D01*
X168201168Y-87823723D01*
X168088137Y-87884140D01*
X168022612Y-88123007D01*
X168800000Y-88900395D01*
X169577388Y-88123007D01*
X169511863Y-87884140D01*
X169353523Y-87809836D01*
X169456043Y-87767371D01*
X169682886Y-87615799D01*
X169875799Y-87422886D01*
X170027371Y-87196043D01*
X170131775Y-86943989D01*
X170185000Y-86676411D01*
X170185000Y-86403589D01*
X170131775Y-86136011D01*
X170027371Y-85883957D01*
X169875799Y-85657114D01*
X169682886Y-85464201D01*
X169566517Y-85386445D01*
X169674482Y-85375812D01*
X169794180Y-85339502D01*
X169904494Y-85280537D01*
X169954473Y-85239520D01*
X169950188Y-85332492D01*
X169991035Y-85602238D01*
X170083723Y-85858832D01*
X170144140Y-85971863D01*
X170383007Y-86037388D01*
X171160395Y-85260000D01*
X171519605Y-85260000D01*
X172296993Y-86037388D01*
X172535860Y-85971863D01*
X172651760Y-85724884D01*
X172717250Y-85460040D01*
X172729812Y-85187508D01*
X172688965Y-84917762D01*
X172596277Y-84661168D01*
X172535860Y-84548137D01*
X172296993Y-84482612D01*
X171519605Y-85260000D01*
X171160395Y-85260000D01*
X170383007Y-84482612D01*
X170186659Y-84536473D01*
X170185115Y-84303007D01*
X170562612Y-84303007D01*
X171340000Y-85080395D01*
X172117388Y-84303007D01*
X172051863Y-84064140D01*
X171804884Y-83948240D01*
X171540040Y-83882750D01*
X171267508Y-83870188D01*
X170997762Y-83911035D01*
X170741168Y-84003723D01*
X170628137Y-84064140D01*
X170562612Y-84303007D01*
X170185115Y-84303007D01*
X170185000Y-84285750D01*
X170026250Y-84127000D01*
X168927000Y-84127000D01*
X168927000Y-84147000D01*
X168673000Y-84147000D01*
X168673000Y-84127000D01*
X167573750Y-84127000D01*
X167415000Y-84285750D01*
X167411928Y-84750000D01*
X163816881Y-84750000D01*
X163870511Y-84727786D01*
X164240666Y-84480456D01*
X164555456Y-84165666D01*
X164802786Y-83795511D01*
X164973149Y-83384218D01*
X164999846Y-83250000D01*
X167411928Y-83250000D01*
X167415000Y-83714250D01*
X167573750Y-83873000D01*
X168673000Y-83873000D01*
X168673000Y-82773750D01*
X168927000Y-82773750D01*
X168927000Y-83873000D01*
X170026250Y-83873000D01*
X170185000Y-83714250D01*
X170188072Y-83250000D01*
X170175812Y-83125518D01*
X170139502Y-83005820D01*
X170080537Y-82895506D01*
X170001185Y-82798815D01*
X169904494Y-82719463D01*
X169794180Y-82660498D01*
X169674482Y-82624188D01*
X169550000Y-82611928D01*
X169085750Y-82615000D01*
X168927000Y-82773750D01*
X168673000Y-82773750D01*
X168514250Y-82615000D01*
X168050000Y-82611928D01*
X167925518Y-82624188D01*
X167805820Y-82660498D01*
X167695506Y-82719463D01*
X167598815Y-82798815D01*
X167519463Y-82895506D01*
X167460498Y-83005820D01*
X167424188Y-83125518D01*
X167411928Y-83250000D01*
X164999846Y-83250000D01*
X165060000Y-82947591D01*
X165060000Y-82502409D01*
X164973149Y-82065782D01*
X164909573Y-81912295D01*
X165089335Y-81930000D01*
X166510665Y-81930000D01*
X166692102Y-81912130D01*
X166924901Y-81841511D01*
X167139449Y-81726833D01*
X167327502Y-81572502D01*
X167481833Y-81384449D01*
X167596511Y-81169901D01*
X167667130Y-80937102D01*
X167690975Y-80695000D01*
X167667130Y-80452898D01*
X167596511Y-80220099D01*
X167481833Y-80005551D01*
X167327502Y-79817498D01*
X167139449Y-79663167D01*
X166924901Y-79548489D01*
X166692102Y-79477870D01*
X166510665Y-79460000D01*
X165089335Y-79460000D01*
X164907898Y-79477870D01*
X164675099Y-79548489D01*
X164460551Y-79663167D01*
X164272498Y-79817498D01*
X164118167Y-80005551D01*
X164003489Y-80220099D01*
X163932870Y-80452898D01*
X163909025Y-80695000D01*
X163914607Y-80751678D01*
X163870511Y-80722214D01*
X163459218Y-80551851D01*
X163022591Y-80465000D01*
X162577409Y-80465000D01*
X162140782Y-80551851D01*
X161729489Y-80722214D01*
X161359334Y-80969544D01*
X161044544Y-81284334D01*
X160797214Y-81654489D01*
X160785000Y-81683976D01*
X160785000Y-75333329D01*
X162307284Y-75333329D01*
X162315558Y-75383443D01*
X162415044Y-75626657D01*
X162560067Y-75845789D01*
X162745054Y-76032418D01*
X162962896Y-76179372D01*
X163205222Y-76281003D01*
X163462719Y-76333406D01*
X163673000Y-76179715D01*
X163673000Y-75127000D01*
X163927000Y-75127000D01*
X163927000Y-76179715D01*
X164137281Y-76333406D01*
X164394778Y-76281003D01*
X164637104Y-76179372D01*
X164854946Y-76032418D01*
X165039933Y-75845789D01*
X165184956Y-75626657D01*
X165284442Y-75383443D01*
X165292716Y-75333329D01*
X169307284Y-75333329D01*
X169315558Y-75383443D01*
X169415044Y-75626657D01*
X169560067Y-75845789D01*
X169745054Y-76032418D01*
X169962896Y-76179372D01*
X170205222Y-76281003D01*
X170462719Y-76333406D01*
X170673000Y-76179715D01*
X170673000Y-75127000D01*
X170927000Y-75127000D01*
X170927000Y-76179715D01*
X171137281Y-76333406D01*
X171394778Y-76281003D01*
X171637104Y-76179372D01*
X171854946Y-76032418D01*
X172039933Y-75845789D01*
X172184956Y-75626657D01*
X172284442Y-75383443D01*
X172292716Y-75333329D01*
X172169374Y-75127000D01*
X170927000Y-75127000D01*
X170673000Y-75127000D01*
X169430626Y-75127000D01*
X169307284Y-75333329D01*
X165292716Y-75333329D01*
X165169374Y-75127000D01*
X163927000Y-75127000D01*
X163673000Y-75127000D01*
X162430626Y-75127000D01*
X162307284Y-75333329D01*
X160785000Y-75333329D01*
X160785000Y-74666671D01*
X162307284Y-74666671D01*
X162430626Y-74873000D01*
X163673000Y-74873000D01*
X163673000Y-73820285D01*
X163927000Y-73820285D01*
X163927000Y-74873000D01*
X165169374Y-74873000D01*
X165292716Y-74666671D01*
X169307284Y-74666671D01*
X169430626Y-74873000D01*
X170673000Y-74873000D01*
X170673000Y-73820285D01*
X170927000Y-73820285D01*
X170927000Y-74873000D01*
X172169374Y-74873000D01*
X172292716Y-74666671D01*
X172284442Y-74616557D01*
X172184956Y-74373343D01*
X172039933Y-74154211D01*
X171854946Y-73967582D01*
X171637104Y-73820628D01*
X171394778Y-73718997D01*
X171137281Y-73666594D01*
X170927000Y-73820285D01*
X170673000Y-73820285D01*
X170462719Y-73666594D01*
X170205222Y-73718997D01*
X169962896Y-73820628D01*
X169745054Y-73967582D01*
X169560067Y-74154211D01*
X169415044Y-74373343D01*
X169315558Y-74616557D01*
X169307284Y-74666671D01*
X165292716Y-74666671D01*
X165284442Y-74616557D01*
X165184956Y-74373343D01*
X165039933Y-74154211D01*
X164854946Y-73967582D01*
X164637104Y-73820628D01*
X164394778Y-73718997D01*
X164137281Y-73666594D01*
X163927000Y-73820285D01*
X163673000Y-73820285D01*
X163462719Y-73666594D01*
X163205222Y-73718997D01*
X162962896Y-73820628D01*
X162745054Y-73967582D01*
X162560067Y-74154211D01*
X162415044Y-74373343D01*
X162315558Y-74616557D01*
X162307284Y-74666671D01*
X160785000Y-74666671D01*
X160785000Y-69366578D01*
X160818249Y-69333329D01*
X162307284Y-69333329D01*
X162315558Y-69383443D01*
X162415044Y-69626657D01*
X162560067Y-69845789D01*
X162745054Y-70032418D01*
X162962896Y-70179372D01*
X163205222Y-70281003D01*
X163462719Y-70333406D01*
X163673000Y-70179715D01*
X163673000Y-69127000D01*
X163927000Y-69127000D01*
X163927000Y-70179715D01*
X164137281Y-70333406D01*
X164394778Y-70281003D01*
X164637104Y-70179372D01*
X164854946Y-70032418D01*
X165039933Y-69845789D01*
X165184956Y-69626657D01*
X165284442Y-69383443D01*
X165292716Y-69333329D01*
X165169374Y-69127000D01*
X163927000Y-69127000D01*
X163673000Y-69127000D01*
X162430626Y-69127000D01*
X162307284Y-69333329D01*
X160818249Y-69333329D01*
X161484907Y-68666671D01*
X162307284Y-68666671D01*
X162430626Y-68873000D01*
X163673000Y-68873000D01*
X163673000Y-67820285D01*
X163927000Y-67820285D01*
X163927000Y-68873000D01*
X165169374Y-68873000D01*
X165292716Y-68666671D01*
X165284442Y-68616557D01*
X165184956Y-68373343D01*
X165039933Y-68154211D01*
X164854946Y-67967582D01*
X164637104Y-67820628D01*
X164394778Y-67718997D01*
X164137281Y-67666594D01*
X163927000Y-67820285D01*
X163673000Y-67820285D01*
X163462719Y-67666594D01*
X163205222Y-67718997D01*
X162962896Y-67820628D01*
X162745054Y-67967582D01*
X162560067Y-68154211D01*
X162415044Y-68373343D01*
X162315558Y-68616557D01*
X162307284Y-68666671D01*
X161484907Y-68666671D01*
X164066579Y-66085000D01*
X173756531Y-66085000D01*
X173800000Y-66089281D01*
X173843469Y-66085000D01*
X173843477Y-66085000D01*
X173973490Y-66072195D01*
X174140313Y-66021589D01*
X174294059Y-65939411D01*
X174428817Y-65828817D01*
X174456534Y-65795044D01*
X179695049Y-60556530D01*
X179728817Y-60528817D01*
X179839411Y-60394059D01*
X179921589Y-60240313D01*
X179972195Y-60073490D01*
X179985000Y-59943477D01*
X179985000Y-59943469D01*
X179989281Y-59900000D01*
X179985000Y-59856531D01*
X179985000Y-52638454D01*
X180017205Y-52590256D01*
X180095226Y-52401898D01*
X180135000Y-52201939D01*
X180135000Y-51998061D01*
X180095226Y-51798102D01*
X180017205Y-51609744D01*
X179967263Y-51535001D01*
X181602975Y-51535001D01*
X181547818Y-51638192D01*
X181465764Y-51908691D01*
X181438057Y-52190000D01*
X181465764Y-52471309D01*
X181547818Y-52741808D01*
X181681068Y-52991101D01*
X181860392Y-53209608D01*
X182078899Y-53388932D01*
X182211858Y-53460000D01*
X182078899Y-53531068D01*
X181860392Y-53710392D01*
X181681068Y-53928899D01*
X181547818Y-54178192D01*
X181465764Y-54448691D01*
X181438057Y-54730000D01*
X181465764Y-55011309D01*
X181547818Y-55281808D01*
X181681068Y-55531101D01*
X181860392Y-55749608D01*
X182078899Y-55928932D01*
X182211858Y-56000000D01*
X182078899Y-56071068D01*
X181860392Y-56250392D01*
X181681068Y-56468899D01*
X181547818Y-56718192D01*
X181465764Y-56988691D01*
X181438057Y-57270000D01*
X181465764Y-57551309D01*
X181547818Y-57821808D01*
X181681068Y-58071101D01*
X181860392Y-58289608D01*
X182078899Y-58468932D01*
X182211858Y-58540000D01*
X182078899Y-58611068D01*
X181860392Y-58790392D01*
X181681068Y-59008899D01*
X181547818Y-59258192D01*
X181465764Y-59528691D01*
X181438057Y-59810000D01*
X181465764Y-60091309D01*
X181479292Y-60135906D01*
X179488998Y-62126201D01*
X179460000Y-62149999D01*
X179436202Y-62178997D01*
X179436201Y-62178998D01*
X179365026Y-62265724D01*
X179294454Y-62397754D01*
X179276725Y-62456201D01*
X179250998Y-62541014D01*
X179244133Y-62610719D01*
X179236324Y-62690000D01*
X179240001Y-62727332D01*
X179240000Y-63796289D01*
X179196063Y-63840226D01*
X179082795Y-64009744D01*
X179004774Y-64198102D01*
X178965000Y-64398061D01*
X178965000Y-64601939D01*
X179004774Y-64801898D01*
X179082795Y-64990256D01*
X179196063Y-65159774D01*
X179340226Y-65303937D01*
X179509744Y-65417205D01*
X179698102Y-65495226D01*
X179898061Y-65535000D01*
X180101939Y-65535000D01*
X180301898Y-65495226D01*
X180490256Y-65417205D01*
X180659774Y-65303937D01*
X180803937Y-65159774D01*
X180917205Y-64990256D01*
X180995226Y-64801898D01*
X181035000Y-64601939D01*
X181035000Y-64398061D01*
X180995226Y-64198102D01*
X180917205Y-64009744D01*
X180803937Y-63840226D01*
X180760000Y-63796289D01*
X180760000Y-63004801D01*
X182554094Y-61210708D01*
X182598691Y-61224236D01*
X182809508Y-61245000D01*
X182950492Y-61245000D01*
X183161309Y-61224236D01*
X183245001Y-61198849D01*
X183245001Y-61720197D01*
X182509002Y-62456197D01*
X182508997Y-62456201D01*
X181988998Y-62976201D01*
X181960000Y-62999999D01*
X181936202Y-63028997D01*
X181936201Y-63028998D01*
X181865026Y-63115724D01*
X181794454Y-63247754D01*
X181750998Y-63391015D01*
X181736324Y-63540000D01*
X181740001Y-63577332D01*
X181740001Y-63796288D01*
X181696063Y-63840226D01*
X181582795Y-64009744D01*
X181504774Y-64198102D01*
X181465000Y-64398061D01*
X181465000Y-64601939D01*
X181504774Y-64801898D01*
X181582795Y-64990256D01*
X181696063Y-65159774D01*
X181840226Y-65303937D01*
X182009744Y-65417205D01*
X182198102Y-65495226D01*
X182398061Y-65535000D01*
X182601939Y-65535000D01*
X182741103Y-65507319D01*
X181483432Y-66764990D01*
X168993475Y-66764990D01*
X168950009Y-66760709D01*
X168906543Y-66764990D01*
X168906533Y-66764990D01*
X168776520Y-66777795D01*
X168609697Y-66828401D01*
X168455951Y-66910579D01*
X168455949Y-66910580D01*
X168455950Y-66910580D01*
X168354963Y-66993458D01*
X168354961Y-66993460D01*
X168321193Y-67021173D01*
X168293480Y-67054941D01*
X164744123Y-70604299D01*
X164737592Y-70603000D01*
X164462408Y-70603000D01*
X164192510Y-70656686D01*
X163938273Y-70761995D01*
X163709465Y-70914880D01*
X163514880Y-71109465D01*
X163361995Y-71338273D01*
X163256686Y-71592510D01*
X163203000Y-71862408D01*
X163203000Y-72137592D01*
X163256686Y-72407490D01*
X163361995Y-72661727D01*
X163514880Y-72890535D01*
X163709465Y-73085120D01*
X163938273Y-73238005D01*
X164192510Y-73343314D01*
X164462408Y-73397000D01*
X164737592Y-73397000D01*
X165007490Y-73343314D01*
X165261727Y-73238005D01*
X165490535Y-73085120D01*
X165600000Y-72975655D01*
X165709465Y-73085120D01*
X165938273Y-73238005D01*
X166192510Y-73343314D01*
X166462408Y-73397000D01*
X166737592Y-73397000D01*
X167007490Y-73343314D01*
X167261727Y-73238005D01*
X167490535Y-73085120D01*
X167600000Y-72975655D01*
X167709465Y-73085120D01*
X167938273Y-73238005D01*
X168192510Y-73343314D01*
X168462408Y-73397000D01*
X168737592Y-73397000D01*
X169007490Y-73343314D01*
X169261727Y-73238005D01*
X169490535Y-73085120D01*
X169610090Y-72965565D01*
X169814040Y-72965565D01*
X169881020Y-73205656D01*
X170130048Y-73322756D01*
X170397135Y-73389023D01*
X170672017Y-73401910D01*
X170944133Y-73360922D01*
X171203023Y-73267636D01*
X171318980Y-73205656D01*
X171385960Y-72965565D01*
X170600000Y-72179605D01*
X169814040Y-72965565D01*
X169610090Y-72965565D01*
X169685120Y-72890535D01*
X169838005Y-72661727D01*
X169894105Y-72526290D01*
X170420395Y-72000000D01*
X170779605Y-72000000D01*
X171565565Y-72785960D01*
X171805656Y-72718980D01*
X171922756Y-72469952D01*
X171989023Y-72202865D01*
X172001910Y-71927983D01*
X171960922Y-71655867D01*
X171867636Y-71396977D01*
X171805656Y-71281020D01*
X171565565Y-71214040D01*
X170779605Y-72000000D01*
X170420395Y-72000000D01*
X169894105Y-71473710D01*
X169838005Y-71338273D01*
X169685120Y-71109465D01*
X169610090Y-71034435D01*
X169814040Y-71034435D01*
X170600000Y-71820395D01*
X171385960Y-71034435D01*
X171318980Y-70794344D01*
X171069952Y-70677244D01*
X170802865Y-70610977D01*
X170527983Y-70598090D01*
X170255867Y-70639078D01*
X169996977Y-70732364D01*
X169881020Y-70794344D01*
X169814040Y-71034435D01*
X169610090Y-71034435D01*
X169490535Y-70914880D01*
X169261727Y-70761995D01*
X169007490Y-70656686D01*
X168737592Y-70603000D01*
X168462408Y-70603000D01*
X168192510Y-70656686D01*
X167938273Y-70761995D01*
X167709465Y-70914880D01*
X167600000Y-71024345D01*
X167490535Y-70914880D01*
X167261727Y-70761995D01*
X167140003Y-70711575D01*
X168518249Y-69333329D01*
X169307284Y-69333329D01*
X169315558Y-69383443D01*
X169415044Y-69626657D01*
X169560067Y-69845789D01*
X169745054Y-70032418D01*
X169962896Y-70179372D01*
X170205222Y-70281003D01*
X170462719Y-70333406D01*
X170673000Y-70179715D01*
X170673000Y-69127000D01*
X170927000Y-69127000D01*
X170927000Y-70179715D01*
X171137281Y-70333406D01*
X171394778Y-70281003D01*
X171637104Y-70179372D01*
X171854946Y-70032418D01*
X172039933Y-69845789D01*
X172184956Y-69626657D01*
X172284442Y-69383443D01*
X172292716Y-69333329D01*
X172169374Y-69127000D01*
X170927000Y-69127000D01*
X170673000Y-69127000D01*
X169430626Y-69127000D01*
X169307284Y-69333329D01*
X168518249Y-69333329D01*
X169316589Y-68534990D01*
X169348923Y-68534990D01*
X169315558Y-68616557D01*
X169307284Y-68666671D01*
X169430626Y-68873000D01*
X170673000Y-68873000D01*
X170673000Y-68853000D01*
X170927000Y-68853000D01*
X170927000Y-68873000D01*
X172169374Y-68873000D01*
X172292716Y-68666671D01*
X172284442Y-68616557D01*
X172251077Y-68534990D01*
X179072338Y-68534990D01*
X179004774Y-68698102D01*
X178965000Y-68898061D01*
X178965000Y-69101939D01*
X179004774Y-69301898D01*
X179082795Y-69490256D01*
X179196063Y-69659774D01*
X179240001Y-69703712D01*
X179240000Y-75511928D01*
X179150000Y-75511928D01*
X179025518Y-75524188D01*
X178905820Y-75560498D01*
X178795506Y-75619463D01*
X178698815Y-75698815D01*
X178619463Y-75795506D01*
X178560498Y-75905820D01*
X178524188Y-76025518D01*
X178511928Y-76150000D01*
X178511928Y-77850000D01*
X178524188Y-77974482D01*
X178560498Y-78094180D01*
X178619463Y-78204494D01*
X178698815Y-78301185D01*
X178795506Y-78380537D01*
X178905820Y-78439502D01*
X179025518Y-78475812D01*
X179150000Y-78488072D01*
X180850000Y-78488072D01*
X180974482Y-78475812D01*
X181094180Y-78439502D01*
X181204494Y-78380537D01*
X181301185Y-78301185D01*
X181380537Y-78204494D01*
X181439502Y-78094180D01*
X181460393Y-78025313D01*
X181484866Y-78055134D01*
X181710986Y-78240706D01*
X181968966Y-78378599D01*
X182248889Y-78463513D01*
X182467050Y-78485000D01*
X182612950Y-78485000D01*
X182831111Y-78463513D01*
X183111034Y-78378599D01*
X183369014Y-78240706D01*
X183595134Y-78055134D01*
X183780706Y-77829014D01*
X183815201Y-77764477D01*
X183884822Y-77881355D01*
X184079731Y-78097588D01*
X184313080Y-78271641D01*
X184575901Y-78396825D01*
X184723110Y-78441476D01*
X184953000Y-78320155D01*
X184953000Y-77127000D01*
X184933000Y-77127000D01*
X184933000Y-76873000D01*
X184953000Y-76873000D01*
X184953000Y-75679845D01*
X184723110Y-75558524D01*
X184575901Y-75603175D01*
X184313080Y-75728359D01*
X184079731Y-75902412D01*
X183884822Y-76118645D01*
X183815201Y-76235523D01*
X183780706Y-76170986D01*
X183595134Y-75944866D01*
X183369014Y-75759294D01*
X183300000Y-75722405D01*
X183300000Y-69663711D01*
X183303937Y-69659774D01*
X183417205Y-69490256D01*
X183495226Y-69301898D01*
X183535000Y-69101939D01*
X183535000Y-68898061D01*
X183495226Y-68698102D01*
X183417205Y-68509744D01*
X183303937Y-68340226D01*
X183159774Y-68196063D01*
X182990256Y-68082795D01*
X182801898Y-68004774D01*
X182755945Y-67995633D01*
X185115000Y-65636578D01*
X185115000Y-66576531D01*
X185110719Y-66620000D01*
X185115000Y-66663469D01*
X185115000Y-66663476D01*
X185127805Y-66793489D01*
X185178411Y-66960312D01*
X185260589Y-67114058D01*
X185371183Y-67248817D01*
X185404956Y-67276534D01*
X186909388Y-68780967D01*
X186887815Y-69000000D01*
X186916487Y-69291111D01*
X187001401Y-69571034D01*
X187139294Y-69829014D01*
X187324866Y-70055134D01*
X187495000Y-70194760D01*
X187495001Y-75520126D01*
X187328889Y-75536487D01*
X187048966Y-75621401D01*
X186790986Y-75759294D01*
X186564866Y-75944866D01*
X186379294Y-76170986D01*
X186344799Y-76235523D01*
X186275178Y-76118645D01*
X186080269Y-75902412D01*
X185846920Y-75728359D01*
X185584099Y-75603175D01*
X185436890Y-75558524D01*
X185207000Y-75679845D01*
X185207000Y-76873000D01*
X185227000Y-76873000D01*
X185227000Y-77127000D01*
X185207000Y-77127000D01*
X185207000Y-78320155D01*
X185436890Y-78441476D01*
X185584099Y-78396825D01*
X185846920Y-78271641D01*
X186080269Y-78097588D01*
X186275178Y-77881355D01*
X186344799Y-77764477D01*
X186379294Y-77829014D01*
X186564866Y-78055134D01*
X186790986Y-78240706D01*
X187048966Y-78378599D01*
X187328889Y-78463513D01*
X187547050Y-78485000D01*
X187692950Y-78485000D01*
X187911111Y-78463513D01*
X188191034Y-78378599D01*
X188449014Y-78240706D01*
X188675134Y-78055134D01*
X188860706Y-77829014D01*
X188998599Y-77571034D01*
X189083513Y-77291111D01*
X189112185Y-77000000D01*
X189089573Y-76770416D01*
X189119411Y-76734059D01*
X189201589Y-76580313D01*
X189252195Y-76413490D01*
X189265000Y-76283477D01*
X189265000Y-76283467D01*
X189269281Y-76240001D01*
X189265000Y-76196535D01*
X189265000Y-70194759D01*
X189435134Y-70055134D01*
X189620706Y-69829014D01*
X189655201Y-69764477D01*
X189724822Y-69881355D01*
X189919731Y-70097588D01*
X190153080Y-70271641D01*
X190415901Y-70396825D01*
X190563110Y-70441476D01*
X190793000Y-70320155D01*
X190793000Y-69127000D01*
X190773000Y-69127000D01*
X190773000Y-68873000D01*
X190793000Y-68873000D01*
X190793000Y-67679845D01*
X190563110Y-67558524D01*
X190415901Y-67603175D01*
X190153080Y-67728359D01*
X189919731Y-67902412D01*
X189724822Y-68118645D01*
X189655201Y-68235523D01*
X189620706Y-68170986D01*
X189435134Y-67944866D01*
X189209014Y-67759294D01*
X188951034Y-67621401D01*
X188671111Y-67536487D01*
X188452950Y-67515000D01*
X188307050Y-67515000D01*
X188160967Y-67529388D01*
X186885000Y-66253422D01*
X186885000Y-63543467D01*
X186889281Y-63500001D01*
X186885000Y-63456535D01*
X186885000Y-57898061D01*
X187465000Y-57898061D01*
X187465000Y-58101939D01*
X187504774Y-58301898D01*
X187582795Y-58490256D01*
X187696063Y-58659774D01*
X187840226Y-58803937D01*
X188009744Y-58917205D01*
X188198102Y-58995226D01*
X188398061Y-59035000D01*
X188460199Y-59035000D01*
X192700000Y-63274802D01*
X192700001Y-67722405D01*
X192630986Y-67759294D01*
X192404866Y-67944866D01*
X192219294Y-68170986D01*
X192184799Y-68235523D01*
X192115178Y-68118645D01*
X191920269Y-67902412D01*
X191686920Y-67728359D01*
X191424099Y-67603175D01*
X191276890Y-67558524D01*
X191047000Y-67679845D01*
X191047000Y-68873000D01*
X191067000Y-68873000D01*
X191067000Y-69127000D01*
X191047000Y-69127000D01*
X191047000Y-70320155D01*
X191276890Y-70441476D01*
X191424099Y-70396825D01*
X191686920Y-70271641D01*
X191920269Y-70097588D01*
X192115178Y-69881355D01*
X192184799Y-69764477D01*
X192219294Y-69829014D01*
X192404866Y-70055134D01*
X192630986Y-70240706D01*
X192888966Y-70378599D01*
X193168889Y-70463513D01*
X193387050Y-70485000D01*
X193532950Y-70485000D01*
X193751111Y-70463513D01*
X194031034Y-70378599D01*
X194289014Y-70240706D01*
X194515134Y-70055134D01*
X194539607Y-70025313D01*
X194560498Y-70094180D01*
X194619463Y-70204494D01*
X194698815Y-70301185D01*
X194795506Y-70380537D01*
X194905820Y-70439502D01*
X195025518Y-70475812D01*
X195150000Y-70488072D01*
X196850000Y-70488072D01*
X196974482Y-70475812D01*
X197094180Y-70439502D01*
X197204494Y-70380537D01*
X197301185Y-70301185D01*
X197380537Y-70204494D01*
X197439502Y-70094180D01*
X197475812Y-69974482D01*
X197488072Y-69850000D01*
X197488072Y-68150000D01*
X197475812Y-68025518D01*
X197439502Y-67905820D01*
X197380537Y-67795506D01*
X197301185Y-67698815D01*
X197204494Y-67619463D01*
X197094180Y-67560498D01*
X196974482Y-67524188D01*
X196850000Y-67511928D01*
X196760000Y-67511928D01*
X196760000Y-64512019D01*
X196763676Y-64474694D01*
X196760000Y-64437369D01*
X196760000Y-64437361D01*
X196749003Y-64325708D01*
X196705546Y-64182447D01*
X196634974Y-64050418D01*
X196540001Y-63934693D01*
X196511004Y-63910896D01*
X189547653Y-56947546D01*
X189547653Y-56885408D01*
X189507879Y-56685449D01*
X189429858Y-56497091D01*
X189316590Y-56327573D01*
X189172427Y-56183410D01*
X189002909Y-56070142D01*
X188814551Y-55992121D01*
X188614592Y-55952347D01*
X188410714Y-55952347D01*
X188210755Y-55992121D01*
X188022397Y-56070142D01*
X187852879Y-56183410D01*
X187708716Y-56327573D01*
X187595448Y-56497091D01*
X187517427Y-56685449D01*
X187477653Y-56885408D01*
X187477653Y-57089286D01*
X187517427Y-57289245D01*
X187595448Y-57477603D01*
X187599859Y-57484205D01*
X187582795Y-57509744D01*
X187504774Y-57698102D01*
X187465000Y-57898061D01*
X186885000Y-57898061D01*
X186885000Y-48866578D01*
X193065049Y-42686530D01*
X193098817Y-42658817D01*
X193126530Y-42625049D01*
X193656532Y-42095047D01*
X193656536Y-42095042D01*
X195905049Y-39846530D01*
X195938817Y-39818817D01*
X196049411Y-39684059D01*
X196131589Y-39530313D01*
X196182195Y-39363490D01*
X196195000Y-39233477D01*
X196195000Y-39233467D01*
X196199281Y-39190001D01*
X196195000Y-39146535D01*
X196195000Y-35803465D01*
X196199281Y-35759999D01*
X196195000Y-35716533D01*
X196195000Y-35716523D01*
X196182195Y-35586510D01*
X196131589Y-35419687D01*
X196049411Y-35265941D01*
X195938817Y-35131183D01*
X195905050Y-35103471D01*
X193262367Y-32460789D01*
X193279853Y-32418574D01*
X193335000Y-32141335D01*
X193335000Y-32027000D01*
X199573000Y-32027000D01*
X199573000Y-97673000D01*
X193200000Y-97673000D01*
X193175224Y-97675440D01*
X193151399Y-97682667D01*
X193129443Y-97694403D01*
X193110197Y-97710197D01*
X193094403Y-97729443D01*
X193082667Y-97751399D01*
X193075440Y-97775224D01*
X193073000Y-97800000D01*
X193073000Y-102273000D01*
X163527000Y-102273000D01*
X163527000Y-97600000D01*
X163524560Y-97575224D01*
X163517333Y-97551399D01*
X163505597Y-97529443D01*
X163489803Y-97510197D01*
X163470557Y-97494403D01*
X163448601Y-97482667D01*
X163424776Y-97475440D01*
X163400000Y-97473000D01*
X156627000Y-97473000D01*
X156627000Y-31827000D01*
X164500000Y-31827000D01*
X164524776Y-31824560D01*
X164548601Y-31817333D01*
X164570557Y-31805597D01*
X164589803Y-31789803D01*
X164605597Y-31770557D01*
X164617333Y-31748601D01*
X164624560Y-31724776D01*
X164627000Y-31700000D01*
X164627000Y-31080000D01*
X178257573Y-31080000D01*
X178287210Y-31380913D01*
X178374983Y-31670261D01*
X178517519Y-31936927D01*
X178709339Y-32170661D01*
X178943073Y-32362481D01*
X179209739Y-32505017D01*
X179499087Y-32592790D01*
X179724592Y-32615000D01*
X179875408Y-32615000D01*
X180100913Y-32592790D01*
X180390261Y-32505017D01*
X180656927Y-32362481D01*
X180890661Y-32170661D01*
X181082481Y-31936927D01*
X181225017Y-31670261D01*
X181312790Y-31380913D01*
X181342427Y-31080000D01*
X181312790Y-30779087D01*
X181225017Y-30489739D01*
X181082481Y-30223073D01*
X180890661Y-29989339D01*
X180656927Y-29797519D01*
X180390261Y-29654983D01*
X180100913Y-29567210D01*
X179875408Y-29545000D01*
X179724592Y-29545000D01*
X179499087Y-29567210D01*
X179209739Y-29654983D01*
X178943073Y-29797519D01*
X178709339Y-29989339D01*
X178517519Y-30223073D01*
X178374983Y-30489739D01*
X178287210Y-30779087D01*
X178257573Y-31080000D01*
X164627000Y-31080000D01*
X164627000Y-26250000D01*
X165011928Y-26250000D01*
X165024188Y-26374482D01*
X165060498Y-26494180D01*
X165119463Y-26604494D01*
X165198815Y-26701185D01*
X165295506Y-26780537D01*
X165405820Y-26839502D01*
X165525518Y-26875812D01*
X165650000Y-26888072D01*
X166614250Y-26885000D01*
X166773000Y-26726250D01*
X166773000Y-25127000D01*
X167027000Y-25127000D01*
X167027000Y-26726250D01*
X167185750Y-26885000D01*
X168150000Y-26888072D01*
X168274482Y-26875812D01*
X168394180Y-26839502D01*
X168504494Y-26780537D01*
X168601185Y-26701185D01*
X168680537Y-26604494D01*
X168739502Y-26494180D01*
X168775812Y-26374482D01*
X168788072Y-26250000D01*
X168785000Y-25285750D01*
X168626250Y-25127000D01*
X167027000Y-25127000D01*
X166773000Y-25127000D01*
X165173750Y-25127000D01*
X165015000Y-25285750D01*
X165011928Y-26250000D01*
X164627000Y-26250000D01*
X164627000Y-23750000D01*
X165011928Y-23750000D01*
X165015000Y-24714250D01*
X165173750Y-24873000D01*
X166773000Y-24873000D01*
X166773000Y-23273750D01*
X167027000Y-23273750D01*
X167027000Y-24873000D01*
X168626250Y-24873000D01*
X168785000Y-24714250D01*
X168788072Y-23750000D01*
X168775812Y-23625518D01*
X168739502Y-23505820D01*
X168680537Y-23395506D01*
X168601185Y-23298815D01*
X168504494Y-23219463D01*
X168394180Y-23160498D01*
X168274482Y-23124188D01*
X168150000Y-23111928D01*
X167185750Y-23115000D01*
X167027000Y-23273750D01*
X166773000Y-23273750D01*
X166614250Y-23115000D01*
X165650000Y-23111928D01*
X165525518Y-23124188D01*
X165405820Y-23160498D01*
X165295506Y-23219463D01*
X165198815Y-23298815D01*
X165119463Y-23395506D01*
X165060498Y-23505820D01*
X165024188Y-23625518D01*
X165011928Y-23750000D01*
X164627000Y-23750000D01*
X164627000Y-17727000D01*
X191873000Y-17727000D01*
X191873000Y-27568153D01*
G36*
X160788320Y-45984727D02*
G01*
X160945363Y-46219759D01*
X161145241Y-46419637D01*
X161380273Y-46576680D01*
X161641426Y-46684853D01*
X161667301Y-46690000D01*
X161641426Y-46695147D01*
X161380273Y-46803320D01*
X161145241Y-46960363D01*
X160945363Y-47160241D01*
X160788320Y-47395273D01*
X160680147Y-47656426D01*
X160625000Y-47933665D01*
X160625000Y-48216335D01*
X160680147Y-48493574D01*
X160788320Y-48754727D01*
X160945363Y-48989759D01*
X161145241Y-49189637D01*
X161380273Y-49346680D01*
X161641426Y-49454853D01*
X161667301Y-49460000D01*
X161641426Y-49465147D01*
X161380273Y-49573320D01*
X161145241Y-49730363D01*
X160945363Y-49930241D01*
X160788320Y-50165273D01*
X160680147Y-50426426D01*
X160625000Y-50703665D01*
X160625000Y-50986335D01*
X160680147Y-51263574D01*
X160788320Y-51524727D01*
X160945363Y-51759759D01*
X161145241Y-51959637D01*
X161380273Y-52116680D01*
X161641426Y-52224853D01*
X161667301Y-52230000D01*
X161641426Y-52235147D01*
X161380273Y-52343320D01*
X161145241Y-52500363D01*
X160945363Y-52700241D01*
X160788320Y-52935273D01*
X160680147Y-53196426D01*
X160625000Y-53473665D01*
X160625000Y-53756335D01*
X160680147Y-54033574D01*
X160788320Y-54294727D01*
X160945363Y-54529759D01*
X161145241Y-54729637D01*
X161380273Y-54886680D01*
X161641426Y-54994853D01*
X161918665Y-55050000D01*
X162201335Y-55050000D01*
X162478574Y-54994853D01*
X162739727Y-54886680D01*
X162974759Y-54729637D01*
X163161928Y-54542468D01*
X163161928Y-55800000D01*
X163174188Y-55924482D01*
X163210498Y-56044180D01*
X163269463Y-56154494D01*
X163348815Y-56251185D01*
X163445506Y-56330537D01*
X163555820Y-56389502D01*
X163675518Y-56425812D01*
X163800000Y-56438072D01*
X165400000Y-56438072D01*
X165524482Y-56425812D01*
X165644180Y-56389502D01*
X165754494Y-56330537D01*
X165851185Y-56251185D01*
X165930537Y-56154494D01*
X165989502Y-56044180D01*
X166025812Y-55924482D01*
X166038072Y-55800000D01*
X166038072Y-54200000D01*
X166025812Y-54075518D01*
X165989502Y-53955820D01*
X165930537Y-53845506D01*
X165851185Y-53748815D01*
X165754494Y-53669463D01*
X165644180Y-53610498D01*
X165524482Y-53574188D01*
X165400000Y-53561928D01*
X165134275Y-53561928D01*
X165279727Y-53501680D01*
X165514759Y-53344637D01*
X165714637Y-53144759D01*
X165871680Y-52909727D01*
X165979853Y-52648574D01*
X166035000Y-52371335D01*
X166035000Y-52088665D01*
X165998688Y-51906114D01*
X166369801Y-51535001D01*
X173982975Y-51535001D01*
X173927818Y-51638192D01*
X173845764Y-51908691D01*
X173818057Y-52190000D01*
X173845764Y-52471309D01*
X173927818Y-52741808D01*
X174061068Y-52991101D01*
X174240392Y-53209608D01*
X174458899Y-53388932D01*
X174591858Y-53460000D01*
X174458899Y-53531068D01*
X174240392Y-53710392D01*
X174061068Y-53928899D01*
X173927818Y-54178192D01*
X173845764Y-54448691D01*
X173818057Y-54730000D01*
X173845764Y-55011309D01*
X173927818Y-55281808D01*
X174061068Y-55531101D01*
X174240392Y-55749608D01*
X174458899Y-55928932D01*
X174591858Y-56000000D01*
X174458899Y-56071068D01*
X174240392Y-56250392D01*
X174061068Y-56468899D01*
X173927818Y-56718192D01*
X173845764Y-56988691D01*
X173818057Y-57270000D01*
X173845764Y-57551309D01*
X173927818Y-57821808D01*
X174061068Y-58071101D01*
X174240392Y-58289608D01*
X174458899Y-58468932D01*
X174591858Y-58540000D01*
X174458899Y-58611068D01*
X174240392Y-58790392D01*
X174061068Y-59008899D01*
X173927818Y-59258192D01*
X173845764Y-59528691D01*
X173818057Y-59810000D01*
X173845764Y-60091309D01*
X173927818Y-60361808D01*
X174061068Y-60611101D01*
X174240392Y-60829608D01*
X174458899Y-61008932D01*
X174708192Y-61142182D01*
X174978691Y-61224236D01*
X175189508Y-61245000D01*
X175330492Y-61245000D01*
X175541309Y-61224236D01*
X175811808Y-61142182D01*
X176061101Y-61008932D01*
X176279608Y-60829608D01*
X176458932Y-60611101D01*
X176592182Y-60361808D01*
X176674236Y-60091309D01*
X176701943Y-59810000D01*
X176674236Y-59528691D01*
X176592182Y-59258192D01*
X176458932Y-59008899D01*
X176279608Y-58790392D01*
X176061101Y-58611068D01*
X175928142Y-58540000D01*
X176061101Y-58468932D01*
X176279608Y-58289608D01*
X176458932Y-58071101D01*
X176592182Y-57821808D01*
X176674236Y-57551309D01*
X176701943Y-57270000D01*
X176674236Y-56988691D01*
X176592182Y-56718192D01*
X176458932Y-56468899D01*
X176279608Y-56250392D01*
X176061101Y-56071068D01*
X175928142Y-56000000D01*
X176061101Y-55928932D01*
X176279608Y-55749608D01*
X176458932Y-55531101D01*
X176592182Y-55281808D01*
X176674236Y-55011309D01*
X176701943Y-54730000D01*
X176674236Y-54448691D01*
X176592182Y-54178192D01*
X176458932Y-53928899D01*
X176279608Y-53710392D01*
X176061101Y-53531068D01*
X175928142Y-53460000D01*
X176061101Y-53388932D01*
X176279608Y-53209608D01*
X176458932Y-52991101D01*
X176592182Y-52741808D01*
X176674236Y-52471309D01*
X176701943Y-52190000D01*
X176674236Y-51908691D01*
X176592182Y-51638192D01*
X176537025Y-51535001D01*
X178232737Y-51535001D01*
X178182795Y-51609744D01*
X178104774Y-51798102D01*
X178065000Y-51998061D01*
X178065000Y-52201939D01*
X178104774Y-52401898D01*
X178182795Y-52590256D01*
X178215000Y-52638454D01*
X178215001Y-59533420D01*
X173433422Y-64315000D01*
X164608233Y-64315000D01*
X165009715Y-64046738D01*
X165376738Y-63679715D01*
X165665107Y-63248141D01*
X165863739Y-62768601D01*
X165965000Y-62259525D01*
X165965000Y-61740475D01*
X165863739Y-61231399D01*
X165665107Y-60751859D01*
X165376738Y-60320285D01*
X165009715Y-59953262D01*
X164578141Y-59664893D01*
X164098601Y-59466261D01*
X163589525Y-59365000D01*
X163070475Y-59365000D01*
X162561399Y-59466261D01*
X162081859Y-59664893D01*
X161650285Y-59953262D01*
X161283262Y-60320285D01*
X160994893Y-60751859D01*
X160796261Y-61231399D01*
X160695000Y-61740475D01*
X160695000Y-62259525D01*
X160796261Y-62768601D01*
X160994893Y-63248141D01*
X161283262Y-63679715D01*
X161650285Y-64046738D01*
X162081859Y-64335107D01*
X162561399Y-64533739D01*
X163022887Y-64625534D01*
X159385000Y-68263422D01*
X159385000Y-47085576D01*
X160699728Y-45770848D01*
X160788320Y-45984727D01*
X160788320Y-45984727D01*
G37*
X160788320Y-45984727D02*
X160945363Y-46219759D01*
X161145241Y-46419637D01*
X161380273Y-46576680D01*
X161641426Y-46684853D01*
X161667301Y-46690000D01*
X161641426Y-46695147D01*
X161380273Y-46803320D01*
X161145241Y-46960363D01*
X160945363Y-47160241D01*
X160788320Y-47395273D01*
X160680147Y-47656426D01*
X160625000Y-47933665D01*
X160625000Y-48216335D01*
X160680147Y-48493574D01*
X160788320Y-48754727D01*
X160945363Y-48989759D01*
X161145241Y-49189637D01*
X161380273Y-49346680D01*
X161641426Y-49454853D01*
X161667301Y-49460000D01*
X161641426Y-49465147D01*
X161380273Y-49573320D01*
X161145241Y-49730363D01*
X160945363Y-49930241D01*
X160788320Y-50165273D01*
X160680147Y-50426426D01*
X160625000Y-50703665D01*
X160625000Y-50986335D01*
X160680147Y-51263574D01*
X160788320Y-51524727D01*
X160945363Y-51759759D01*
X161145241Y-51959637D01*
X161380273Y-52116680D01*
X161641426Y-52224853D01*
X161667301Y-52230000D01*
X161641426Y-52235147D01*
X161380273Y-52343320D01*
X161145241Y-52500363D01*
X160945363Y-52700241D01*
X160788320Y-52935273D01*
X160680147Y-53196426D01*
X160625000Y-53473665D01*
X160625000Y-53756335D01*
X160680147Y-54033574D01*
X160788320Y-54294727D01*
X160945363Y-54529759D01*
X161145241Y-54729637D01*
X161380273Y-54886680D01*
X161641426Y-54994853D01*
X161918665Y-55050000D01*
X162201335Y-55050000D01*
X162478574Y-54994853D01*
X162739727Y-54886680D01*
X162974759Y-54729637D01*
X163161928Y-54542468D01*
X163161928Y-55800000D01*
X163174188Y-55924482D01*
X163210498Y-56044180D01*
X163269463Y-56154494D01*
X163348815Y-56251185D01*
X163445506Y-56330537D01*
X163555820Y-56389502D01*
X163675518Y-56425812D01*
X163800000Y-56438072D01*
X165400000Y-56438072D01*
X165524482Y-56425812D01*
X165644180Y-56389502D01*
X165754494Y-56330537D01*
X165851185Y-56251185D01*
X165930537Y-56154494D01*
X165989502Y-56044180D01*
X166025812Y-55924482D01*
X166038072Y-55800000D01*
X166038072Y-54200000D01*
X166025812Y-54075518D01*
X165989502Y-53955820D01*
X165930537Y-53845506D01*
X165851185Y-53748815D01*
X165754494Y-53669463D01*
X165644180Y-53610498D01*
X165524482Y-53574188D01*
X165400000Y-53561928D01*
X165134275Y-53561928D01*
X165279727Y-53501680D01*
X165514759Y-53344637D01*
X165714637Y-53144759D01*
X165871680Y-52909727D01*
X165979853Y-52648574D01*
X166035000Y-52371335D01*
X166035000Y-52088665D01*
X165998688Y-51906114D01*
X166369801Y-51535001D01*
X173982975Y-51535001D01*
X173927818Y-51638192D01*
X173845764Y-51908691D01*
X173818057Y-52190000D01*
X173845764Y-52471309D01*
X173927818Y-52741808D01*
X174061068Y-52991101D01*
X174240392Y-53209608D01*
X174458899Y-53388932D01*
X174591858Y-53460000D01*
X174458899Y-53531068D01*
X174240392Y-53710392D01*
X174061068Y-53928899D01*
X173927818Y-54178192D01*
X173845764Y-54448691D01*
X173818057Y-54730000D01*
X173845764Y-55011309D01*
X173927818Y-55281808D01*
X174061068Y-55531101D01*
X174240392Y-55749608D01*
X174458899Y-55928932D01*
X174591858Y-56000000D01*
X174458899Y-56071068D01*
X174240392Y-56250392D01*
X174061068Y-56468899D01*
X173927818Y-56718192D01*
X173845764Y-56988691D01*
X173818057Y-57270000D01*
X173845764Y-57551309D01*
X173927818Y-57821808D01*
X174061068Y-58071101D01*
X174240392Y-58289608D01*
X174458899Y-58468932D01*
X174591858Y-58540000D01*
X174458899Y-58611068D01*
X174240392Y-58790392D01*
X174061068Y-59008899D01*
X173927818Y-59258192D01*
X173845764Y-59528691D01*
X173818057Y-59810000D01*
X173845764Y-60091309D01*
X173927818Y-60361808D01*
X174061068Y-60611101D01*
X174240392Y-60829608D01*
X174458899Y-61008932D01*
X174708192Y-61142182D01*
X174978691Y-61224236D01*
X175189508Y-61245000D01*
X175330492Y-61245000D01*
X175541309Y-61224236D01*
X175811808Y-61142182D01*
X176061101Y-61008932D01*
X176279608Y-60829608D01*
X176458932Y-60611101D01*
X176592182Y-60361808D01*
X176674236Y-60091309D01*
X176701943Y-59810000D01*
X176674236Y-59528691D01*
X176592182Y-59258192D01*
X176458932Y-59008899D01*
X176279608Y-58790392D01*
X176061101Y-58611068D01*
X175928142Y-58540000D01*
X176061101Y-58468932D01*
X176279608Y-58289608D01*
X176458932Y-58071101D01*
X176592182Y-57821808D01*
X176674236Y-57551309D01*
X176701943Y-57270000D01*
X176674236Y-56988691D01*
X176592182Y-56718192D01*
X176458932Y-56468899D01*
X176279608Y-56250392D01*
X176061101Y-56071068D01*
X175928142Y-56000000D01*
X176061101Y-55928932D01*
X176279608Y-55749608D01*
X176458932Y-55531101D01*
X176592182Y-55281808D01*
X176674236Y-55011309D01*
X176701943Y-54730000D01*
X176674236Y-54448691D01*
X176592182Y-54178192D01*
X176458932Y-53928899D01*
X176279608Y-53710392D01*
X176061101Y-53531068D01*
X175928142Y-53460000D01*
X176061101Y-53388932D01*
X176279608Y-53209608D01*
X176458932Y-52991101D01*
X176592182Y-52741808D01*
X176674236Y-52471309D01*
X176701943Y-52190000D01*
X176674236Y-51908691D01*
X176592182Y-51638192D01*
X176537025Y-51535001D01*
X178232737Y-51535001D01*
X178182795Y-51609744D01*
X178104774Y-51798102D01*
X178065000Y-51998061D01*
X178065000Y-52201939D01*
X178104774Y-52401898D01*
X178182795Y-52590256D01*
X178215000Y-52638454D01*
X178215001Y-59533420D01*
X173433422Y-64315000D01*
X164608233Y-64315000D01*
X165009715Y-64046738D01*
X165376738Y-63679715D01*
X165665107Y-63248141D01*
X165863739Y-62768601D01*
X165965000Y-62259525D01*
X165965000Y-61740475D01*
X165863739Y-61231399D01*
X165665107Y-60751859D01*
X165376738Y-60320285D01*
X165009715Y-59953262D01*
X164578141Y-59664893D01*
X164098601Y-59466261D01*
X163589525Y-59365000D01*
X163070475Y-59365000D01*
X162561399Y-59466261D01*
X162081859Y-59664893D01*
X161650285Y-59953262D01*
X161283262Y-60320285D01*
X160994893Y-60751859D01*
X160796261Y-61231399D01*
X160695000Y-61740475D01*
X160695000Y-62259525D01*
X160796261Y-62768601D01*
X160994893Y-63248141D01*
X161283262Y-63679715D01*
X161650285Y-64046738D01*
X162081859Y-64335107D01*
X162561399Y-64533739D01*
X163022887Y-64625534D01*
X159385000Y-68263422D01*
X159385000Y-47085576D01*
X160699728Y-45770848D01*
X160788320Y-45984727D01*
G36*
X181438057Y-42030000D02*
G01*
X181465764Y-42311309D01*
X181547818Y-42581808D01*
X181681068Y-42831101D01*
X181860392Y-43049608D01*
X182078899Y-43228932D01*
X182216682Y-43302579D01*
X182024869Y-43417615D01*
X181816481Y-43606586D01*
X181648963Y-43832580D01*
X181528754Y-44086913D01*
X181488096Y-44220961D01*
X181610085Y-44443000D01*
X182753000Y-44443000D01*
X182753000Y-44423000D01*
X183007000Y-44423000D01*
X183007000Y-44443000D01*
X184149915Y-44443000D01*
X184271904Y-44220961D01*
X184231246Y-44086913D01*
X184111037Y-43832580D01*
X183943519Y-43606586D01*
X183735131Y-43417615D01*
X183543318Y-43302579D01*
X183681101Y-43228932D01*
X183899608Y-43049608D01*
X184010078Y-42915000D01*
X190333421Y-42915000D01*
X185404952Y-47843470D01*
X185371184Y-47871183D01*
X185343471Y-47904951D01*
X185343468Y-47904954D01*
X185260590Y-48005941D01*
X185178412Y-48159687D01*
X185127805Y-48326510D01*
X185110719Y-48500000D01*
X185115001Y-48543479D01*
X185115000Y-62956523D01*
X185115000Y-63133421D01*
X183507319Y-64741103D01*
X183535000Y-64601939D01*
X183535000Y-64398061D01*
X183495226Y-64198102D01*
X183417205Y-64009744D01*
X183303937Y-63840226D01*
X183289256Y-63825545D01*
X183583799Y-63531003D01*
X183583803Y-63530998D01*
X184516005Y-62598797D01*
X184545002Y-62575000D01*
X184639975Y-62459275D01*
X184710547Y-62327246D01*
X184754004Y-62183985D01*
X184765001Y-62072332D01*
X184765001Y-62072324D01*
X184768677Y-62034999D01*
X184765001Y-61997674D01*
X184765001Y-58432323D01*
X184768677Y-58395000D01*
X184765001Y-58357677D01*
X184765001Y-58357668D01*
X184754004Y-58246015D01*
X184710547Y-58102754D01*
X184639975Y-57970725D01*
X184545002Y-57855000D01*
X184515998Y-57831197D01*
X184280708Y-57595907D01*
X184294236Y-57551309D01*
X184321943Y-57270000D01*
X184294236Y-56988691D01*
X184212182Y-56718192D01*
X184078932Y-56468899D01*
X183899608Y-56250392D01*
X183681101Y-56071068D01*
X183548142Y-56000000D01*
X183681101Y-55928932D01*
X183899608Y-55749608D01*
X184078932Y-55531101D01*
X184212182Y-55281808D01*
X184294236Y-55011309D01*
X184321943Y-54730000D01*
X184294236Y-54448691D01*
X184212182Y-54178192D01*
X184078932Y-53928899D01*
X183899608Y-53710392D01*
X183681101Y-53531068D01*
X183548142Y-53460000D01*
X183681101Y-53388932D01*
X183899608Y-53209608D01*
X184078932Y-52991101D01*
X184212182Y-52741808D01*
X184294236Y-52471309D01*
X184321943Y-52190000D01*
X184294236Y-51908691D01*
X184212182Y-51638192D01*
X184078932Y-51388899D01*
X183899608Y-51170392D01*
X183681101Y-50991068D01*
X183548142Y-50920000D01*
X183681101Y-50848932D01*
X183899608Y-50669608D01*
X184078932Y-50451101D01*
X184212182Y-50201808D01*
X184294236Y-49931309D01*
X184321943Y-49650000D01*
X184294236Y-49368691D01*
X184212182Y-49098192D01*
X184078932Y-48848899D01*
X183899608Y-48630392D01*
X183681101Y-48451068D01*
X183548142Y-48380000D01*
X183681101Y-48308932D01*
X183899608Y-48129608D01*
X184078932Y-47911101D01*
X184212182Y-47661808D01*
X184294236Y-47391309D01*
X184321943Y-47110000D01*
X184294236Y-46828691D01*
X184212182Y-46558192D01*
X184078932Y-46308899D01*
X183899608Y-46090392D01*
X183681101Y-45911068D01*
X183543318Y-45837421D01*
X183735131Y-45722385D01*
X183943519Y-45533414D01*
X184111037Y-45307420D01*
X184231246Y-45053087D01*
X184271904Y-44919039D01*
X184149915Y-44697000D01*
X183007000Y-44697000D01*
X183007000Y-44717000D01*
X182753000Y-44717000D01*
X182753000Y-44697000D01*
X181610085Y-44697000D01*
X181488096Y-44919039D01*
X181528754Y-45053087D01*
X181648963Y-45307420D01*
X181816481Y-45533414D01*
X182024869Y-45722385D01*
X182216682Y-45837421D01*
X182078899Y-45911068D01*
X181860392Y-46090392D01*
X181681068Y-46308899D01*
X181547818Y-46558192D01*
X181465764Y-46828691D01*
X181438057Y-47110000D01*
X181465764Y-47391309D01*
X181479292Y-47435906D01*
X181150200Y-47764999D01*
X180102566Y-47764999D01*
X180135000Y-47601939D01*
X180135000Y-47398061D01*
X180095226Y-47198102D01*
X180017205Y-47009744D01*
X179985000Y-46961546D01*
X179985000Y-43366578D01*
X181450783Y-41900796D01*
X181438057Y-42030000D01*
X181438057Y-42030000D01*
G37*
X181438057Y-42030000D02*
X181465764Y-42311309D01*
X181547818Y-42581808D01*
X181681068Y-42831101D01*
X181860392Y-43049608D01*
X182078899Y-43228932D01*
X182216682Y-43302579D01*
X182024869Y-43417615D01*
X181816481Y-43606586D01*
X181648963Y-43832580D01*
X181528754Y-44086913D01*
X181488096Y-44220961D01*
X181610085Y-44443000D01*
X182753000Y-44443000D01*
X182753000Y-44423000D01*
X183007000Y-44423000D01*
X183007000Y-44443000D01*
X184149915Y-44443000D01*
X184271904Y-44220961D01*
X184231246Y-44086913D01*
X184111037Y-43832580D01*
X183943519Y-43606586D01*
X183735131Y-43417615D01*
X183543318Y-43302579D01*
X183681101Y-43228932D01*
X183899608Y-43049608D01*
X184010078Y-42915000D01*
X190333421Y-42915000D01*
X185404952Y-47843470D01*
X185371184Y-47871183D01*
X185343471Y-47904951D01*
X185343468Y-47904954D01*
X185260590Y-48005941D01*
X185178412Y-48159687D01*
X185127805Y-48326510D01*
X185110719Y-48500000D01*
X185115001Y-48543479D01*
X185115000Y-62956523D01*
X185115000Y-63133421D01*
X183507319Y-64741103D01*
X183535000Y-64601939D01*
X183535000Y-64398061D01*
X183495226Y-64198102D01*
X183417205Y-64009744D01*
X183303937Y-63840226D01*
X183289256Y-63825545D01*
X183583799Y-63531003D01*
X183583803Y-63530998D01*
X184516005Y-62598797D01*
X184545002Y-62575000D01*
X184639975Y-62459275D01*
X184710547Y-62327246D01*
X184754004Y-62183985D01*
X184765001Y-62072332D01*
X184765001Y-62072324D01*
X184768677Y-62034999D01*
X184765001Y-61997674D01*
X184765001Y-58432323D01*
X184768677Y-58395000D01*
X184765001Y-58357677D01*
X184765001Y-58357668D01*
X184754004Y-58246015D01*
X184710547Y-58102754D01*
X184639975Y-57970725D01*
X184545002Y-57855000D01*
X184515998Y-57831197D01*
X184280708Y-57595907D01*
X184294236Y-57551309D01*
X184321943Y-57270000D01*
X184294236Y-56988691D01*
X184212182Y-56718192D01*
X184078932Y-56468899D01*
X183899608Y-56250392D01*
X183681101Y-56071068D01*
X183548142Y-56000000D01*
X183681101Y-55928932D01*
X183899608Y-55749608D01*
X184078932Y-55531101D01*
X184212182Y-55281808D01*
X184294236Y-55011309D01*
X184321943Y-54730000D01*
X184294236Y-54448691D01*
X184212182Y-54178192D01*
X184078932Y-53928899D01*
X183899608Y-53710392D01*
X183681101Y-53531068D01*
X183548142Y-53460000D01*
X183681101Y-53388932D01*
X183899608Y-53209608D01*
X184078932Y-52991101D01*
X184212182Y-52741808D01*
X184294236Y-52471309D01*
X184321943Y-52190000D01*
X184294236Y-51908691D01*
X184212182Y-51638192D01*
X184078932Y-51388899D01*
X183899608Y-51170392D01*
X183681101Y-50991068D01*
X183548142Y-50920000D01*
X183681101Y-50848932D01*
X183899608Y-50669608D01*
X184078932Y-50451101D01*
X184212182Y-50201808D01*
X184294236Y-49931309D01*
X184321943Y-49650000D01*
X184294236Y-49368691D01*
X184212182Y-49098192D01*
X184078932Y-48848899D01*
X183899608Y-48630392D01*
X183681101Y-48451068D01*
X183548142Y-48380000D01*
X183681101Y-48308932D01*
X183899608Y-48129608D01*
X184078932Y-47911101D01*
X184212182Y-47661808D01*
X184294236Y-47391309D01*
X184321943Y-47110000D01*
X184294236Y-46828691D01*
X184212182Y-46558192D01*
X184078932Y-46308899D01*
X183899608Y-46090392D01*
X183681101Y-45911068D01*
X183543318Y-45837421D01*
X183735131Y-45722385D01*
X183943519Y-45533414D01*
X184111037Y-45307420D01*
X184231246Y-45053087D01*
X184271904Y-44919039D01*
X184149915Y-44697000D01*
X183007000Y-44697000D01*
X183007000Y-44717000D01*
X182753000Y-44717000D01*
X182753000Y-44697000D01*
X181610085Y-44697000D01*
X181488096Y-44919039D01*
X181528754Y-45053087D01*
X181648963Y-45307420D01*
X181816481Y-45533414D01*
X182024869Y-45722385D01*
X182216682Y-45837421D01*
X182078899Y-45911068D01*
X181860392Y-46090392D01*
X181681068Y-46308899D01*
X181547818Y-46558192D01*
X181465764Y-46828691D01*
X181438057Y-47110000D01*
X181465764Y-47391309D01*
X181479292Y-47435906D01*
X181150200Y-47764999D01*
X180102566Y-47764999D01*
X180135000Y-47601939D01*
X180135000Y-47398061D01*
X180095226Y-47198102D01*
X180017205Y-47009744D01*
X179985000Y-46961546D01*
X179985000Y-43366578D01*
X181450783Y-41900796D01*
X181438057Y-42030000D01*
G36*
X173299999Y-39589281D02*
G01*
X173343465Y-39585000D01*
X178261928Y-39585000D01*
X178261928Y-39600000D01*
X178274188Y-39724482D01*
X178310498Y-39844180D01*
X178369463Y-39954494D01*
X178448815Y-40051185D01*
X178545506Y-40130537D01*
X178655820Y-40189502D01*
X178775518Y-40225812D01*
X178900000Y-40238072D01*
X180610350Y-40238072D01*
X178504956Y-42343466D01*
X178471183Y-42371183D01*
X178360589Y-42505942D01*
X178278411Y-42659688D01*
X178227805Y-42826511D01*
X178215000Y-42956524D01*
X178215000Y-42956531D01*
X178210719Y-43000000D01*
X178215000Y-43043469D01*
X178215001Y-46961544D01*
X178182795Y-47009744D01*
X178104774Y-47198102D01*
X178065000Y-47398061D01*
X178065000Y-47601939D01*
X178097434Y-47764999D01*
X176537025Y-47764999D01*
X176592182Y-47661808D01*
X176674236Y-47391309D01*
X176701943Y-47110000D01*
X176674236Y-46828691D01*
X176592182Y-46558192D01*
X176458932Y-46308899D01*
X176279608Y-46090392D01*
X176061101Y-45911068D01*
X175928142Y-45840000D01*
X176061101Y-45768932D01*
X176279608Y-45589608D01*
X176458932Y-45371101D01*
X176592182Y-45121808D01*
X176674236Y-44851309D01*
X176701943Y-44570000D01*
X176674236Y-44288691D01*
X176592182Y-44018192D01*
X176458932Y-43768899D01*
X176279608Y-43550392D01*
X176166518Y-43457581D01*
X176184482Y-43455812D01*
X176304180Y-43419502D01*
X176414494Y-43360537D01*
X176511185Y-43281185D01*
X176590537Y-43184494D01*
X176649502Y-43074180D01*
X176685812Y-42954482D01*
X176698072Y-42830000D01*
X176698072Y-41230000D01*
X176685812Y-41105518D01*
X176649502Y-40985820D01*
X176590537Y-40875506D01*
X176511185Y-40778815D01*
X176414494Y-40699463D01*
X176304180Y-40640498D01*
X176184482Y-40604188D01*
X176060000Y-40591928D01*
X174460000Y-40591928D01*
X174335518Y-40604188D01*
X174215820Y-40640498D01*
X174105506Y-40699463D01*
X174008815Y-40778815D01*
X173929463Y-40875506D01*
X173870498Y-40985820D01*
X173834188Y-41105518D01*
X173821928Y-41230000D01*
X173821928Y-42830000D01*
X173834188Y-42954482D01*
X173870498Y-43074180D01*
X173929463Y-43184494D01*
X174008815Y-43281185D01*
X174105506Y-43360537D01*
X174215820Y-43419502D01*
X174335518Y-43455812D01*
X174353482Y-43457581D01*
X174240392Y-43550392D01*
X174061068Y-43768899D01*
X173927818Y-44018192D01*
X173845764Y-44288691D01*
X173818057Y-44570000D01*
X173845764Y-44851309D01*
X173927818Y-45121808D01*
X174061068Y-45371101D01*
X174240392Y-45589608D01*
X174458899Y-45768932D01*
X174591858Y-45840000D01*
X174458899Y-45911068D01*
X174240392Y-46090392D01*
X174061068Y-46308899D01*
X173927818Y-46558192D01*
X173845764Y-46828691D01*
X173818057Y-47110000D01*
X173845764Y-47391309D01*
X173927818Y-47661808D01*
X173982975Y-47764999D01*
X165572323Y-47764999D01*
X165556004Y-47763392D01*
X165714637Y-47604759D01*
X165871680Y-47369727D01*
X165979853Y-47108574D01*
X166035000Y-46831335D01*
X166035000Y-46548665D01*
X165979853Y-46271426D01*
X165871680Y-46010273D01*
X165714637Y-45775241D01*
X165514759Y-45575363D01*
X165279727Y-45418320D01*
X165018574Y-45310147D01*
X164990118Y-45304487D01*
X165216292Y-45223603D01*
X165341514Y-45156671D01*
X165413097Y-44912702D01*
X164600000Y-44099605D01*
X163786903Y-44912702D01*
X163858486Y-45156671D01*
X164113996Y-45277571D01*
X164216289Y-45303212D01*
X164181426Y-45310147D01*
X163920273Y-45418320D01*
X163685241Y-45575363D01*
X163485363Y-45775241D01*
X163328320Y-46010273D01*
X163220147Y-46271426D01*
X163165000Y-46548665D01*
X163165000Y-46831335D01*
X163220147Y-47108574D01*
X163328320Y-47369727D01*
X163485363Y-47604759D01*
X163685241Y-47804637D01*
X163920273Y-47961680D01*
X164181426Y-48069853D01*
X164207301Y-48075000D01*
X164181426Y-48080147D01*
X163920273Y-48188320D01*
X163685241Y-48345363D01*
X163485363Y-48545241D01*
X163328320Y-48780273D01*
X163220147Y-49041426D01*
X163165000Y-49318665D01*
X163165000Y-49601335D01*
X163220147Y-49878574D01*
X163328320Y-50139727D01*
X163485363Y-50374759D01*
X163685241Y-50574637D01*
X163920273Y-50731680D01*
X164181426Y-50839853D01*
X164207301Y-50845000D01*
X164181426Y-50850147D01*
X163920273Y-50958320D01*
X163685241Y-51115363D01*
X163485363Y-51315241D01*
X163328320Y-51550273D01*
X163220147Y-51811426D01*
X163165000Y-52088665D01*
X163165000Y-52371335D01*
X163220147Y-52648574D01*
X163328320Y-52909727D01*
X163485363Y-53144759D01*
X163685241Y-53344637D01*
X163920273Y-53501680D01*
X164065725Y-53561928D01*
X163800000Y-53561928D01*
X163675518Y-53574188D01*
X163555820Y-53610498D01*
X163495000Y-53643007D01*
X163495000Y-53473665D01*
X163439853Y-53196426D01*
X163331680Y-52935273D01*
X163174637Y-52700241D01*
X162974759Y-52500363D01*
X162739727Y-52343320D01*
X162478574Y-52235147D01*
X162452699Y-52230000D01*
X162478574Y-52224853D01*
X162739727Y-52116680D01*
X162974759Y-51959637D01*
X163174637Y-51759759D01*
X163331680Y-51524727D01*
X163439853Y-51263574D01*
X163495000Y-50986335D01*
X163495000Y-50703665D01*
X163439853Y-50426426D01*
X163331680Y-50165273D01*
X163174637Y-49930241D01*
X162974759Y-49730363D01*
X162739727Y-49573320D01*
X162478574Y-49465147D01*
X162452699Y-49460000D01*
X162478574Y-49454853D01*
X162739727Y-49346680D01*
X162974759Y-49189637D01*
X163174637Y-48989759D01*
X163331680Y-48754727D01*
X163439853Y-48493574D01*
X163495000Y-48216335D01*
X163495000Y-47933665D01*
X163439853Y-47656426D01*
X163331680Y-47395273D01*
X163174637Y-47160241D01*
X162974759Y-46960363D01*
X162739727Y-46803320D01*
X162478574Y-46695147D01*
X162452699Y-46690000D01*
X162478574Y-46684853D01*
X162739727Y-46576680D01*
X162974759Y-46419637D01*
X163174637Y-46219759D01*
X163331680Y-45984727D01*
X163439853Y-45723574D01*
X163495000Y-45446335D01*
X163495000Y-45163665D01*
X163439853Y-44886426D01*
X163331680Y-44625273D01*
X163174637Y-44390241D01*
X162974759Y-44190363D01*
X162739727Y-44033320D01*
X162636380Y-43990512D01*
X163159783Y-43990512D01*
X163201213Y-44270130D01*
X163296397Y-44536292D01*
X163363329Y-44661514D01*
X163607298Y-44733097D01*
X164420395Y-43920000D01*
X164779605Y-43920000D01*
X165592702Y-44733097D01*
X165836671Y-44661514D01*
X165957571Y-44406004D01*
X166026300Y-44131816D01*
X166040217Y-43849488D01*
X165998787Y-43569870D01*
X165903603Y-43303708D01*
X165836671Y-43178486D01*
X165592702Y-43106903D01*
X164779605Y-43920000D01*
X164420395Y-43920000D01*
X163607298Y-43106903D01*
X163363329Y-43178486D01*
X163242429Y-43433996D01*
X163173700Y-43708184D01*
X163159783Y-43990512D01*
X162636380Y-43990512D01*
X162525848Y-43944728D01*
X163543278Y-42927298D01*
X163786903Y-42927298D01*
X164600000Y-43740395D01*
X165413097Y-42927298D01*
X165341514Y-42683329D01*
X165086004Y-42562429D01*
X164811816Y-42493700D01*
X164529488Y-42479783D01*
X164249870Y-42521213D01*
X163983708Y-42616397D01*
X163858486Y-42683329D01*
X163786903Y-42927298D01*
X163543278Y-42927298D01*
X166885577Y-39585000D01*
X173256533Y-39585000D01*
X173299999Y-39589281D01*
X173299999Y-39589281D01*
G37*
X173299999Y-39589281D02*
X173343465Y-39585000D01*
X178261928Y-39585000D01*
X178261928Y-39600000D01*
X178274188Y-39724482D01*
X178310498Y-39844180D01*
X178369463Y-39954494D01*
X178448815Y-40051185D01*
X178545506Y-40130537D01*
X178655820Y-40189502D01*
X178775518Y-40225812D01*
X178900000Y-40238072D01*
X180610350Y-40238072D01*
X178504956Y-42343466D01*
X178471183Y-42371183D01*
X178360589Y-42505942D01*
X178278411Y-42659688D01*
X178227805Y-42826511D01*
X178215000Y-42956524D01*
X178215000Y-42956531D01*
X178210719Y-43000000D01*
X178215000Y-43043469D01*
X178215001Y-46961544D01*
X178182795Y-47009744D01*
X178104774Y-47198102D01*
X178065000Y-47398061D01*
X178065000Y-47601939D01*
X178097434Y-47764999D01*
X176537025Y-47764999D01*
X176592182Y-47661808D01*
X176674236Y-47391309D01*
X176701943Y-47110000D01*
X176674236Y-46828691D01*
X176592182Y-46558192D01*
X176458932Y-46308899D01*
X176279608Y-46090392D01*
X176061101Y-45911068D01*
X175928142Y-45840000D01*
X176061101Y-45768932D01*
X176279608Y-45589608D01*
X176458932Y-45371101D01*
X176592182Y-45121808D01*
X176674236Y-44851309D01*
X176701943Y-44570000D01*
X176674236Y-44288691D01*
X176592182Y-44018192D01*
X176458932Y-43768899D01*
X176279608Y-43550392D01*
X176166518Y-43457581D01*
X176184482Y-43455812D01*
X176304180Y-43419502D01*
X176414494Y-43360537D01*
X176511185Y-43281185D01*
X176590537Y-43184494D01*
X176649502Y-43074180D01*
X176685812Y-42954482D01*
X176698072Y-42830000D01*
X176698072Y-41230000D01*
X176685812Y-41105518D01*
X176649502Y-40985820D01*
X176590537Y-40875506D01*
X176511185Y-40778815D01*
X176414494Y-40699463D01*
X176304180Y-40640498D01*
X176184482Y-40604188D01*
X176060000Y-40591928D01*
X174460000Y-40591928D01*
X174335518Y-40604188D01*
X174215820Y-40640498D01*
X174105506Y-40699463D01*
X174008815Y-40778815D01*
X173929463Y-40875506D01*
X173870498Y-40985820D01*
X173834188Y-41105518D01*
X173821928Y-41230000D01*
X173821928Y-42830000D01*
X173834188Y-42954482D01*
X173870498Y-43074180D01*
X173929463Y-43184494D01*
X174008815Y-43281185D01*
X174105506Y-43360537D01*
X174215820Y-43419502D01*
X174335518Y-43455812D01*
X174353482Y-43457581D01*
X174240392Y-43550392D01*
X174061068Y-43768899D01*
X173927818Y-44018192D01*
X173845764Y-44288691D01*
X173818057Y-44570000D01*
X173845764Y-44851309D01*
X173927818Y-45121808D01*
X174061068Y-45371101D01*
X174240392Y-45589608D01*
X174458899Y-45768932D01*
X174591858Y-45840000D01*
X174458899Y-45911068D01*
X174240392Y-46090392D01*
X174061068Y-46308899D01*
X173927818Y-46558192D01*
X173845764Y-46828691D01*
X173818057Y-47110000D01*
X173845764Y-47391309D01*
X173927818Y-47661808D01*
X173982975Y-47764999D01*
X165572323Y-47764999D01*
X165556004Y-47763392D01*
X165714637Y-47604759D01*
X165871680Y-47369727D01*
X165979853Y-47108574D01*
X166035000Y-46831335D01*
X166035000Y-46548665D01*
X165979853Y-46271426D01*
X165871680Y-46010273D01*
X165714637Y-45775241D01*
X165514759Y-45575363D01*
X165279727Y-45418320D01*
X165018574Y-45310147D01*
X164990118Y-45304487D01*
X165216292Y-45223603D01*
X165341514Y-45156671D01*
X165413097Y-44912702D01*
X164600000Y-44099605D01*
X163786903Y-44912702D01*
X163858486Y-45156671D01*
X164113996Y-45277571D01*
X164216289Y-45303212D01*
X164181426Y-45310147D01*
X163920273Y-45418320D01*
X163685241Y-45575363D01*
X163485363Y-45775241D01*
X163328320Y-46010273D01*
X163220147Y-46271426D01*
X163165000Y-46548665D01*
X163165000Y-46831335D01*
X163220147Y-47108574D01*
X163328320Y-47369727D01*
X163485363Y-47604759D01*
X163685241Y-47804637D01*
X163920273Y-47961680D01*
X164181426Y-48069853D01*
X164207301Y-48075000D01*
X164181426Y-48080147D01*
X163920273Y-48188320D01*
X163685241Y-48345363D01*
X163485363Y-48545241D01*
X163328320Y-48780273D01*
X163220147Y-49041426D01*
X163165000Y-49318665D01*
X163165000Y-49601335D01*
X163220147Y-49878574D01*
X163328320Y-50139727D01*
X163485363Y-50374759D01*
X163685241Y-50574637D01*
X163920273Y-50731680D01*
X164181426Y-50839853D01*
X164207301Y-50845000D01*
X164181426Y-50850147D01*
X163920273Y-50958320D01*
X163685241Y-51115363D01*
X163485363Y-51315241D01*
X163328320Y-51550273D01*
X163220147Y-51811426D01*
X163165000Y-52088665D01*
X163165000Y-52371335D01*
X163220147Y-52648574D01*
X163328320Y-52909727D01*
X163485363Y-53144759D01*
X163685241Y-53344637D01*
X163920273Y-53501680D01*
X164065725Y-53561928D01*
X163800000Y-53561928D01*
X163675518Y-53574188D01*
X163555820Y-53610498D01*
X163495000Y-53643007D01*
X163495000Y-53473665D01*
X163439853Y-53196426D01*
X163331680Y-52935273D01*
X163174637Y-52700241D01*
X162974759Y-52500363D01*
X162739727Y-52343320D01*
X162478574Y-52235147D01*
X162452699Y-52230000D01*
X162478574Y-52224853D01*
X162739727Y-52116680D01*
X162974759Y-51959637D01*
X163174637Y-51759759D01*
X163331680Y-51524727D01*
X163439853Y-51263574D01*
X163495000Y-50986335D01*
X163495000Y-50703665D01*
X163439853Y-50426426D01*
X163331680Y-50165273D01*
X163174637Y-49930241D01*
X162974759Y-49730363D01*
X162739727Y-49573320D01*
X162478574Y-49465147D01*
X162452699Y-49460000D01*
X162478574Y-49454853D01*
X162739727Y-49346680D01*
X162974759Y-49189637D01*
X163174637Y-48989759D01*
X163331680Y-48754727D01*
X163439853Y-48493574D01*
X163495000Y-48216335D01*
X163495000Y-47933665D01*
X163439853Y-47656426D01*
X163331680Y-47395273D01*
X163174637Y-47160241D01*
X162974759Y-46960363D01*
X162739727Y-46803320D01*
X162478574Y-46695147D01*
X162452699Y-46690000D01*
X162478574Y-46684853D01*
X162739727Y-46576680D01*
X162974759Y-46419637D01*
X163174637Y-46219759D01*
X163331680Y-45984727D01*
X163439853Y-45723574D01*
X163495000Y-45446335D01*
X163495000Y-45163665D01*
X163439853Y-44886426D01*
X163331680Y-44625273D01*
X163174637Y-44390241D01*
X162974759Y-44190363D01*
X162739727Y-44033320D01*
X162636380Y-43990512D01*
X163159783Y-43990512D01*
X163201213Y-44270130D01*
X163296397Y-44536292D01*
X163363329Y-44661514D01*
X163607298Y-44733097D01*
X164420395Y-43920000D01*
X164779605Y-43920000D01*
X165592702Y-44733097D01*
X165836671Y-44661514D01*
X165957571Y-44406004D01*
X166026300Y-44131816D01*
X166040217Y-43849488D01*
X165998787Y-43569870D01*
X165903603Y-43303708D01*
X165836671Y-43178486D01*
X165592702Y-43106903D01*
X164779605Y-43920000D01*
X164420395Y-43920000D01*
X163607298Y-43106903D01*
X163363329Y-43178486D01*
X163242429Y-43433996D01*
X163173700Y-43708184D01*
X163159783Y-43990512D01*
X162636380Y-43990512D01*
X162525848Y-43944728D01*
X163543278Y-42927298D01*
X163786903Y-42927298D01*
X164600000Y-43740395D01*
X165413097Y-42927298D01*
X165341514Y-42683329D01*
X165086004Y-42562429D01*
X164811816Y-42493700D01*
X164529488Y-42479783D01*
X164249870Y-42521213D01*
X163983708Y-42616397D01*
X163858486Y-42683329D01*
X163786903Y-42927298D01*
X163543278Y-42927298D01*
X166885577Y-39585000D01*
X173256533Y-39585000D01*
X173299999Y-39589281D01*
M02*
