G04 #@! TF.GenerationSoftware,KiCad,Pcbnew,5.1.4*
G04 #@! TF.CreationDate,2019-10-01T21:08:12+02:00*
G04 #@! TF.ProjectId,bluetoothkiste,626c7565-746f-46f7-9468-6b697374652e,rev?*
G04 #@! TF.SameCoordinates,Original*
G04 #@! TF.FileFunction,Paste,Top*
G04 #@! TF.FilePolarity,Positive*
%FSLAX46Y46*%
G04 Gerber Fmt 4.6, Leading zero omitted, Abs format (unit mm)*
G04 Created by KiCad (PCBNEW 5.1.4) date 2019-10-01 21:08:12*
%MOMM*%
%LPD*%
G04 APERTURE LIST*
%ADD10C,0.100000*%
%ADD11C,1.425000*%
G04 APERTURE END LIST*
D10*
G36*
X172722004Y-54156204D02*
G01*
X172746273Y-54159804D01*
X172770071Y-54165765D01*
X172793171Y-54174030D01*
X172815349Y-54184520D01*
X172836393Y-54197133D01*
X172856098Y-54211747D01*
X172874277Y-54228223D01*
X172890753Y-54246402D01*
X172905367Y-54266107D01*
X172917980Y-54287151D01*
X172928470Y-54309329D01*
X172936735Y-54332429D01*
X172942696Y-54356227D01*
X172946296Y-54380496D01*
X172947500Y-54405000D01*
X172947500Y-55655000D01*
X172946296Y-55679504D01*
X172942696Y-55703773D01*
X172936735Y-55727571D01*
X172928470Y-55750671D01*
X172917980Y-55772849D01*
X172905367Y-55793893D01*
X172890753Y-55813598D01*
X172874277Y-55831777D01*
X172856098Y-55848253D01*
X172836393Y-55862867D01*
X172815349Y-55875480D01*
X172793171Y-55885970D01*
X172770071Y-55894235D01*
X172746273Y-55900196D01*
X172722004Y-55903796D01*
X172697500Y-55905000D01*
X171772500Y-55905000D01*
X171747996Y-55903796D01*
X171723727Y-55900196D01*
X171699929Y-55894235D01*
X171676829Y-55885970D01*
X171654651Y-55875480D01*
X171633607Y-55862867D01*
X171613902Y-55848253D01*
X171595723Y-55831777D01*
X171579247Y-55813598D01*
X171564633Y-55793893D01*
X171552020Y-55772849D01*
X171541530Y-55750671D01*
X171533265Y-55727571D01*
X171527304Y-55703773D01*
X171523704Y-55679504D01*
X171522500Y-55655000D01*
X171522500Y-54405000D01*
X171523704Y-54380496D01*
X171527304Y-54356227D01*
X171533265Y-54332429D01*
X171541530Y-54309329D01*
X171552020Y-54287151D01*
X171564633Y-54266107D01*
X171579247Y-54246402D01*
X171595723Y-54228223D01*
X171613902Y-54211747D01*
X171633607Y-54197133D01*
X171654651Y-54184520D01*
X171676829Y-54174030D01*
X171699929Y-54165765D01*
X171723727Y-54159804D01*
X171747996Y-54156204D01*
X171772500Y-54155000D01*
X172697500Y-54155000D01*
X172722004Y-54156204D01*
X172722004Y-54156204D01*
G37*
D11*
X172235000Y-55030000D03*
D10*
G36*
X169747004Y-54156204D02*
G01*
X169771273Y-54159804D01*
X169795071Y-54165765D01*
X169818171Y-54174030D01*
X169840349Y-54184520D01*
X169861393Y-54197133D01*
X169881098Y-54211747D01*
X169899277Y-54228223D01*
X169915753Y-54246402D01*
X169930367Y-54266107D01*
X169942980Y-54287151D01*
X169953470Y-54309329D01*
X169961735Y-54332429D01*
X169967696Y-54356227D01*
X169971296Y-54380496D01*
X169972500Y-54405000D01*
X169972500Y-55655000D01*
X169971296Y-55679504D01*
X169967696Y-55703773D01*
X169961735Y-55727571D01*
X169953470Y-55750671D01*
X169942980Y-55772849D01*
X169930367Y-55793893D01*
X169915753Y-55813598D01*
X169899277Y-55831777D01*
X169881098Y-55848253D01*
X169861393Y-55862867D01*
X169840349Y-55875480D01*
X169818171Y-55885970D01*
X169795071Y-55894235D01*
X169771273Y-55900196D01*
X169747004Y-55903796D01*
X169722500Y-55905000D01*
X168797500Y-55905000D01*
X168772996Y-55903796D01*
X168748727Y-55900196D01*
X168724929Y-55894235D01*
X168701829Y-55885970D01*
X168679651Y-55875480D01*
X168658607Y-55862867D01*
X168638902Y-55848253D01*
X168620723Y-55831777D01*
X168604247Y-55813598D01*
X168589633Y-55793893D01*
X168577020Y-55772849D01*
X168566530Y-55750671D01*
X168558265Y-55727571D01*
X168552304Y-55703773D01*
X168548704Y-55679504D01*
X168547500Y-55655000D01*
X168547500Y-54405000D01*
X168548704Y-54380496D01*
X168552304Y-54356227D01*
X168558265Y-54332429D01*
X168566530Y-54309329D01*
X168577020Y-54287151D01*
X168589633Y-54266107D01*
X168604247Y-54246402D01*
X168620723Y-54228223D01*
X168638902Y-54211747D01*
X168658607Y-54197133D01*
X168679651Y-54184520D01*
X168701829Y-54174030D01*
X168724929Y-54165765D01*
X168748727Y-54159804D01*
X168772996Y-54156204D01*
X168797500Y-54155000D01*
X169722500Y-54155000D01*
X169747004Y-54156204D01*
X169747004Y-54156204D01*
G37*
D11*
X169260000Y-55030000D03*
D10*
G36*
X169909504Y-41801204D02*
G01*
X169933773Y-41804804D01*
X169957571Y-41810765D01*
X169980671Y-41819030D01*
X170002849Y-41829520D01*
X170023893Y-41842133D01*
X170043598Y-41856747D01*
X170061777Y-41873223D01*
X170078253Y-41891402D01*
X170092867Y-41911107D01*
X170105480Y-41932151D01*
X170115970Y-41954329D01*
X170124235Y-41977429D01*
X170130196Y-42001227D01*
X170133796Y-42025496D01*
X170135000Y-42050000D01*
X170135000Y-42975000D01*
X170133796Y-42999504D01*
X170130196Y-43023773D01*
X170124235Y-43047571D01*
X170115970Y-43070671D01*
X170105480Y-43092849D01*
X170092867Y-43113893D01*
X170078253Y-43133598D01*
X170061777Y-43151777D01*
X170043598Y-43168253D01*
X170023893Y-43182867D01*
X170002849Y-43195480D01*
X169980671Y-43205970D01*
X169957571Y-43214235D01*
X169933773Y-43220196D01*
X169909504Y-43223796D01*
X169885000Y-43225000D01*
X168635000Y-43225000D01*
X168610496Y-43223796D01*
X168586227Y-43220196D01*
X168562429Y-43214235D01*
X168539329Y-43205970D01*
X168517151Y-43195480D01*
X168496107Y-43182867D01*
X168476402Y-43168253D01*
X168458223Y-43151777D01*
X168441747Y-43133598D01*
X168427133Y-43113893D01*
X168414520Y-43092849D01*
X168404030Y-43070671D01*
X168395765Y-43047571D01*
X168389804Y-43023773D01*
X168386204Y-42999504D01*
X168385000Y-42975000D01*
X168385000Y-42050000D01*
X168386204Y-42025496D01*
X168389804Y-42001227D01*
X168395765Y-41977429D01*
X168404030Y-41954329D01*
X168414520Y-41932151D01*
X168427133Y-41911107D01*
X168441747Y-41891402D01*
X168458223Y-41873223D01*
X168476402Y-41856747D01*
X168496107Y-41842133D01*
X168517151Y-41829520D01*
X168539329Y-41819030D01*
X168562429Y-41810765D01*
X168586227Y-41804804D01*
X168610496Y-41801204D01*
X168635000Y-41800000D01*
X169885000Y-41800000D01*
X169909504Y-41801204D01*
X169909504Y-41801204D01*
G37*
D11*
X169260000Y-42512500D03*
D10*
G36*
X169909504Y-44776204D02*
G01*
X169933773Y-44779804D01*
X169957571Y-44785765D01*
X169980671Y-44794030D01*
X170002849Y-44804520D01*
X170023893Y-44817133D01*
X170043598Y-44831747D01*
X170061777Y-44848223D01*
X170078253Y-44866402D01*
X170092867Y-44886107D01*
X170105480Y-44907151D01*
X170115970Y-44929329D01*
X170124235Y-44952429D01*
X170130196Y-44976227D01*
X170133796Y-45000496D01*
X170135000Y-45025000D01*
X170135000Y-45950000D01*
X170133796Y-45974504D01*
X170130196Y-45998773D01*
X170124235Y-46022571D01*
X170115970Y-46045671D01*
X170105480Y-46067849D01*
X170092867Y-46088893D01*
X170078253Y-46108598D01*
X170061777Y-46126777D01*
X170043598Y-46143253D01*
X170023893Y-46157867D01*
X170002849Y-46170480D01*
X169980671Y-46180970D01*
X169957571Y-46189235D01*
X169933773Y-46195196D01*
X169909504Y-46198796D01*
X169885000Y-46200000D01*
X168635000Y-46200000D01*
X168610496Y-46198796D01*
X168586227Y-46195196D01*
X168562429Y-46189235D01*
X168539329Y-46180970D01*
X168517151Y-46170480D01*
X168496107Y-46157867D01*
X168476402Y-46143253D01*
X168458223Y-46126777D01*
X168441747Y-46108598D01*
X168427133Y-46088893D01*
X168414520Y-46067849D01*
X168404030Y-46045671D01*
X168395765Y-46022571D01*
X168389804Y-45998773D01*
X168386204Y-45974504D01*
X168385000Y-45950000D01*
X168385000Y-45025000D01*
X168386204Y-45000496D01*
X168389804Y-44976227D01*
X168395765Y-44952429D01*
X168404030Y-44929329D01*
X168414520Y-44907151D01*
X168427133Y-44886107D01*
X168441747Y-44866402D01*
X168458223Y-44848223D01*
X168476402Y-44831747D01*
X168496107Y-44817133D01*
X168517151Y-44804520D01*
X168539329Y-44794030D01*
X168562429Y-44785765D01*
X168586227Y-44779804D01*
X168610496Y-44776204D01*
X168635000Y-44775000D01*
X169885000Y-44775000D01*
X169909504Y-44776204D01*
X169909504Y-44776204D01*
G37*
D11*
X169260000Y-45487500D03*
D10*
G36*
X172909504Y-51806204D02*
G01*
X172933773Y-51809804D01*
X172957571Y-51815765D01*
X172980671Y-51824030D01*
X173002849Y-51834520D01*
X173023893Y-51847133D01*
X173043598Y-51861747D01*
X173061777Y-51878223D01*
X173078253Y-51896402D01*
X173092867Y-51916107D01*
X173105480Y-51937151D01*
X173115970Y-51959329D01*
X173124235Y-51982429D01*
X173130196Y-52006227D01*
X173133796Y-52030496D01*
X173135000Y-52055000D01*
X173135000Y-52980000D01*
X173133796Y-53004504D01*
X173130196Y-53028773D01*
X173124235Y-53052571D01*
X173115970Y-53075671D01*
X173105480Y-53097849D01*
X173092867Y-53118893D01*
X173078253Y-53138598D01*
X173061777Y-53156777D01*
X173043598Y-53173253D01*
X173023893Y-53187867D01*
X173002849Y-53200480D01*
X172980671Y-53210970D01*
X172957571Y-53219235D01*
X172933773Y-53225196D01*
X172909504Y-53228796D01*
X172885000Y-53230000D01*
X171635000Y-53230000D01*
X171610496Y-53228796D01*
X171586227Y-53225196D01*
X171562429Y-53219235D01*
X171539329Y-53210970D01*
X171517151Y-53200480D01*
X171496107Y-53187867D01*
X171476402Y-53173253D01*
X171458223Y-53156777D01*
X171441747Y-53138598D01*
X171427133Y-53118893D01*
X171414520Y-53097849D01*
X171404030Y-53075671D01*
X171395765Y-53052571D01*
X171389804Y-53028773D01*
X171386204Y-53004504D01*
X171385000Y-52980000D01*
X171385000Y-52055000D01*
X171386204Y-52030496D01*
X171389804Y-52006227D01*
X171395765Y-51982429D01*
X171404030Y-51959329D01*
X171414520Y-51937151D01*
X171427133Y-51916107D01*
X171441747Y-51896402D01*
X171458223Y-51878223D01*
X171476402Y-51861747D01*
X171496107Y-51847133D01*
X171517151Y-51834520D01*
X171539329Y-51824030D01*
X171562429Y-51815765D01*
X171586227Y-51809804D01*
X171610496Y-51806204D01*
X171635000Y-51805000D01*
X172885000Y-51805000D01*
X172909504Y-51806204D01*
X172909504Y-51806204D01*
G37*
D11*
X172260000Y-52517500D03*
D10*
G36*
X172909504Y-48831204D02*
G01*
X172933773Y-48834804D01*
X172957571Y-48840765D01*
X172980671Y-48849030D01*
X173002849Y-48859520D01*
X173023893Y-48872133D01*
X173043598Y-48886747D01*
X173061777Y-48903223D01*
X173078253Y-48921402D01*
X173092867Y-48941107D01*
X173105480Y-48962151D01*
X173115970Y-48984329D01*
X173124235Y-49007429D01*
X173130196Y-49031227D01*
X173133796Y-49055496D01*
X173135000Y-49080000D01*
X173135000Y-50005000D01*
X173133796Y-50029504D01*
X173130196Y-50053773D01*
X173124235Y-50077571D01*
X173115970Y-50100671D01*
X173105480Y-50122849D01*
X173092867Y-50143893D01*
X173078253Y-50163598D01*
X173061777Y-50181777D01*
X173043598Y-50198253D01*
X173023893Y-50212867D01*
X173002849Y-50225480D01*
X172980671Y-50235970D01*
X172957571Y-50244235D01*
X172933773Y-50250196D01*
X172909504Y-50253796D01*
X172885000Y-50255000D01*
X171635000Y-50255000D01*
X171610496Y-50253796D01*
X171586227Y-50250196D01*
X171562429Y-50244235D01*
X171539329Y-50235970D01*
X171517151Y-50225480D01*
X171496107Y-50212867D01*
X171476402Y-50198253D01*
X171458223Y-50181777D01*
X171441747Y-50163598D01*
X171427133Y-50143893D01*
X171414520Y-50122849D01*
X171404030Y-50100671D01*
X171395765Y-50077571D01*
X171389804Y-50053773D01*
X171386204Y-50029504D01*
X171385000Y-50005000D01*
X171385000Y-49080000D01*
X171386204Y-49055496D01*
X171389804Y-49031227D01*
X171395765Y-49007429D01*
X171404030Y-48984329D01*
X171414520Y-48962151D01*
X171427133Y-48941107D01*
X171441747Y-48921402D01*
X171458223Y-48903223D01*
X171476402Y-48886747D01*
X171496107Y-48872133D01*
X171517151Y-48859520D01*
X171539329Y-48849030D01*
X171562429Y-48840765D01*
X171586227Y-48834804D01*
X171610496Y-48831204D01*
X171635000Y-48830000D01*
X172885000Y-48830000D01*
X172909504Y-48831204D01*
X172909504Y-48831204D01*
G37*
D11*
X172260000Y-49542500D03*
D10*
G36*
X172909504Y-42831204D02*
G01*
X172933773Y-42834804D01*
X172957571Y-42840765D01*
X172980671Y-42849030D01*
X173002849Y-42859520D01*
X173023893Y-42872133D01*
X173043598Y-42886747D01*
X173061777Y-42903223D01*
X173078253Y-42921402D01*
X173092867Y-42941107D01*
X173105480Y-42962151D01*
X173115970Y-42984329D01*
X173124235Y-43007429D01*
X173130196Y-43031227D01*
X173133796Y-43055496D01*
X173135000Y-43080000D01*
X173135000Y-44005000D01*
X173133796Y-44029504D01*
X173130196Y-44053773D01*
X173124235Y-44077571D01*
X173115970Y-44100671D01*
X173105480Y-44122849D01*
X173092867Y-44143893D01*
X173078253Y-44163598D01*
X173061777Y-44181777D01*
X173043598Y-44198253D01*
X173023893Y-44212867D01*
X173002849Y-44225480D01*
X172980671Y-44235970D01*
X172957571Y-44244235D01*
X172933773Y-44250196D01*
X172909504Y-44253796D01*
X172885000Y-44255000D01*
X171635000Y-44255000D01*
X171610496Y-44253796D01*
X171586227Y-44250196D01*
X171562429Y-44244235D01*
X171539329Y-44235970D01*
X171517151Y-44225480D01*
X171496107Y-44212867D01*
X171476402Y-44198253D01*
X171458223Y-44181777D01*
X171441747Y-44163598D01*
X171427133Y-44143893D01*
X171414520Y-44122849D01*
X171404030Y-44100671D01*
X171395765Y-44077571D01*
X171389804Y-44053773D01*
X171386204Y-44029504D01*
X171385000Y-44005000D01*
X171385000Y-43080000D01*
X171386204Y-43055496D01*
X171389804Y-43031227D01*
X171395765Y-43007429D01*
X171404030Y-42984329D01*
X171414520Y-42962151D01*
X171427133Y-42941107D01*
X171441747Y-42921402D01*
X171458223Y-42903223D01*
X171476402Y-42886747D01*
X171496107Y-42872133D01*
X171517151Y-42859520D01*
X171539329Y-42849030D01*
X171562429Y-42840765D01*
X171586227Y-42834804D01*
X171610496Y-42831204D01*
X171635000Y-42830000D01*
X172885000Y-42830000D01*
X172909504Y-42831204D01*
X172909504Y-42831204D01*
G37*
D11*
X172260000Y-43542500D03*
D10*
G36*
X172909504Y-45806204D02*
G01*
X172933773Y-45809804D01*
X172957571Y-45815765D01*
X172980671Y-45824030D01*
X173002849Y-45834520D01*
X173023893Y-45847133D01*
X173043598Y-45861747D01*
X173061777Y-45878223D01*
X173078253Y-45896402D01*
X173092867Y-45916107D01*
X173105480Y-45937151D01*
X173115970Y-45959329D01*
X173124235Y-45982429D01*
X173130196Y-46006227D01*
X173133796Y-46030496D01*
X173135000Y-46055000D01*
X173135000Y-46980000D01*
X173133796Y-47004504D01*
X173130196Y-47028773D01*
X173124235Y-47052571D01*
X173115970Y-47075671D01*
X173105480Y-47097849D01*
X173092867Y-47118893D01*
X173078253Y-47138598D01*
X173061777Y-47156777D01*
X173043598Y-47173253D01*
X173023893Y-47187867D01*
X173002849Y-47200480D01*
X172980671Y-47210970D01*
X172957571Y-47219235D01*
X172933773Y-47225196D01*
X172909504Y-47228796D01*
X172885000Y-47230000D01*
X171635000Y-47230000D01*
X171610496Y-47228796D01*
X171586227Y-47225196D01*
X171562429Y-47219235D01*
X171539329Y-47210970D01*
X171517151Y-47200480D01*
X171496107Y-47187867D01*
X171476402Y-47173253D01*
X171458223Y-47156777D01*
X171441747Y-47138598D01*
X171427133Y-47118893D01*
X171414520Y-47097849D01*
X171404030Y-47075671D01*
X171395765Y-47052571D01*
X171389804Y-47028773D01*
X171386204Y-47004504D01*
X171385000Y-46980000D01*
X171385000Y-46055000D01*
X171386204Y-46030496D01*
X171389804Y-46006227D01*
X171395765Y-45982429D01*
X171404030Y-45959329D01*
X171414520Y-45937151D01*
X171427133Y-45916107D01*
X171441747Y-45896402D01*
X171458223Y-45878223D01*
X171476402Y-45861747D01*
X171496107Y-45847133D01*
X171517151Y-45834520D01*
X171539329Y-45824030D01*
X171562429Y-45815765D01*
X171586227Y-45809804D01*
X171610496Y-45806204D01*
X171635000Y-45805000D01*
X172885000Y-45805000D01*
X172909504Y-45806204D01*
X172909504Y-45806204D01*
G37*
D11*
X172260000Y-46517500D03*
D10*
G36*
X186149504Y-40701204D02*
G01*
X186173773Y-40704804D01*
X186197571Y-40710765D01*
X186220671Y-40719030D01*
X186242849Y-40729520D01*
X186263893Y-40742133D01*
X186283598Y-40756747D01*
X186301777Y-40773223D01*
X186318253Y-40791402D01*
X186332867Y-40811107D01*
X186345480Y-40832151D01*
X186355970Y-40854329D01*
X186364235Y-40877429D01*
X186370196Y-40901227D01*
X186373796Y-40925496D01*
X186375000Y-40950000D01*
X186375000Y-41875000D01*
X186373796Y-41899504D01*
X186370196Y-41923773D01*
X186364235Y-41947571D01*
X186355970Y-41970671D01*
X186345480Y-41992849D01*
X186332867Y-42013893D01*
X186318253Y-42033598D01*
X186301777Y-42051777D01*
X186283598Y-42068253D01*
X186263893Y-42082867D01*
X186242849Y-42095480D01*
X186220671Y-42105970D01*
X186197571Y-42114235D01*
X186173773Y-42120196D01*
X186149504Y-42123796D01*
X186125000Y-42125000D01*
X184875000Y-42125000D01*
X184850496Y-42123796D01*
X184826227Y-42120196D01*
X184802429Y-42114235D01*
X184779329Y-42105970D01*
X184757151Y-42095480D01*
X184736107Y-42082867D01*
X184716402Y-42068253D01*
X184698223Y-42051777D01*
X184681747Y-42033598D01*
X184667133Y-42013893D01*
X184654520Y-41992849D01*
X184644030Y-41970671D01*
X184635765Y-41947571D01*
X184629804Y-41923773D01*
X184626204Y-41899504D01*
X184625000Y-41875000D01*
X184625000Y-40950000D01*
X184626204Y-40925496D01*
X184629804Y-40901227D01*
X184635765Y-40877429D01*
X184644030Y-40854329D01*
X184654520Y-40832151D01*
X184667133Y-40811107D01*
X184681747Y-40791402D01*
X184698223Y-40773223D01*
X184716402Y-40756747D01*
X184736107Y-40742133D01*
X184757151Y-40729520D01*
X184779329Y-40719030D01*
X184802429Y-40710765D01*
X184826227Y-40704804D01*
X184850496Y-40701204D01*
X184875000Y-40700000D01*
X186125000Y-40700000D01*
X186149504Y-40701204D01*
X186149504Y-40701204D01*
G37*
D11*
X185500000Y-41412500D03*
D10*
G36*
X186149504Y-43676204D02*
G01*
X186173773Y-43679804D01*
X186197571Y-43685765D01*
X186220671Y-43694030D01*
X186242849Y-43704520D01*
X186263893Y-43717133D01*
X186283598Y-43731747D01*
X186301777Y-43748223D01*
X186318253Y-43766402D01*
X186332867Y-43786107D01*
X186345480Y-43807151D01*
X186355970Y-43829329D01*
X186364235Y-43852429D01*
X186370196Y-43876227D01*
X186373796Y-43900496D01*
X186375000Y-43925000D01*
X186375000Y-44850000D01*
X186373796Y-44874504D01*
X186370196Y-44898773D01*
X186364235Y-44922571D01*
X186355970Y-44945671D01*
X186345480Y-44967849D01*
X186332867Y-44988893D01*
X186318253Y-45008598D01*
X186301777Y-45026777D01*
X186283598Y-45043253D01*
X186263893Y-45057867D01*
X186242849Y-45070480D01*
X186220671Y-45080970D01*
X186197571Y-45089235D01*
X186173773Y-45095196D01*
X186149504Y-45098796D01*
X186125000Y-45100000D01*
X184875000Y-45100000D01*
X184850496Y-45098796D01*
X184826227Y-45095196D01*
X184802429Y-45089235D01*
X184779329Y-45080970D01*
X184757151Y-45070480D01*
X184736107Y-45057867D01*
X184716402Y-45043253D01*
X184698223Y-45026777D01*
X184681747Y-45008598D01*
X184667133Y-44988893D01*
X184654520Y-44967849D01*
X184644030Y-44945671D01*
X184635765Y-44922571D01*
X184629804Y-44898773D01*
X184626204Y-44874504D01*
X184625000Y-44850000D01*
X184625000Y-43925000D01*
X184626204Y-43900496D01*
X184629804Y-43876227D01*
X184635765Y-43852429D01*
X184644030Y-43829329D01*
X184654520Y-43807151D01*
X184667133Y-43786107D01*
X184681747Y-43766402D01*
X184698223Y-43748223D01*
X184716402Y-43731747D01*
X184736107Y-43717133D01*
X184757151Y-43704520D01*
X184779329Y-43694030D01*
X184802429Y-43685765D01*
X184826227Y-43679804D01*
X184850496Y-43676204D01*
X184875000Y-43675000D01*
X186125000Y-43675000D01*
X186149504Y-43676204D01*
X186149504Y-43676204D01*
G37*
D11*
X185500000Y-44387500D03*
M02*
