M48
; DRILL file {KiCad 5.1.4} date Di 01 Okt 2019 21:08:40 CEST
; FORMAT={-:-/ absolute / metric / decimal}
; #@! TF.CreationDate,2019-10-01T21:08:40+02:00
; #@! TF.GenerationSoftware,Kicad,Pcbnew,5.1.4
FMAT,2
METRIC
T1C0.400
T2C0.762
T3C0.800
T4C0.900
T5C1.000
T6C1.100
T7C1.300
T8C3.000
T9C3.200
T10C3.250
%
G90
G05
T1
X179.1Y-47.5
X179.1Y-52.1
X180.0Y-64.5
X180.0Y-69.0
X182.5Y-64.5
X182.5Y-69.0
X188.5Y-58.0
X188.513Y-56.987
X172.0Y-63.0
X176.5Y-70.5
X178.5Y-70.5
X170.0Y-59.0
X170.0Y-77.0
X176.5Y-64.5
X178.5Y-66.5
X170.0Y-63.0
X168.0Y-77.0
X172.0Y-61.0
X157.5Y-35.0
X168.0Y-61.0
X168.0Y-59.0
X176.5Y-72.5
X176.5Y-66.5
X159.5Y-33.0
X178.5Y-64.5
X170.0Y-79.0
X170.0Y-61.0
X168.0Y-79.0
X172.0Y-59.0
X157.5Y-37.0
X178.5Y-72.5
X159.5Y-35.0
X172.0Y-77.0
X168.0Y-63.0
X159.5Y-37.0
X157.5Y-33.0
X172.0Y-79.0
T2
X164.6Y-72.0
X166.6Y-72.0
X168.6Y-72.0
X170.6Y-72.0
T3
X175.26Y-42.03
X175.26Y-44.57
X175.26Y-47.11
X175.26Y-49.65
X175.26Y-52.19
X175.26Y-54.73
X175.26Y-57.27
X175.26Y-59.81
X182.88Y-42.03
X182.88Y-44.57
X182.88Y-47.11
X182.88Y-49.65
X182.88Y-52.19
X182.88Y-54.73
X182.88Y-57.27
X182.88Y-59.81
X187.0Y-29.0
X192.0Y-29.0
X186.9Y-32.0
X191.9Y-32.0
T4
X179.8Y-31.08
X179.8Y-38.7
X168.8Y-84.0
X168.8Y-86.54
X168.8Y-89.08
X168.8Y-91.62
X171.34Y-85.26
X171.34Y-87.8
X171.34Y-90.34
X171.34Y-92.88
X183.4Y-31.08
X183.4Y-38.7
T5
X188.38Y-69.0
X190.92Y-69.0
X193.46Y-69.0
X196.0Y-69.0
X169.8Y-35.2
X174.88Y-35.21
X168.5Y-100.75
X171.04Y-100.75
X180.0Y-77.0
X182.54Y-77.0
X185.08Y-77.0
X187.62Y-77.0
X162.06Y-45.305
X162.06Y-48.075
X162.06Y-50.845
X162.06Y-53.615
X164.6Y-43.92
X164.6Y-46.69
X164.6Y-49.46
X164.6Y-52.23
X164.6Y-55.0
T6
X183.6Y-25.0
X186.14Y-25.0
X188.68Y-25.0
T7
X166.9Y-25.0
X171.9Y-25.0
X176.9Y-25.0
T8
X163.33Y-36.92
X163.33Y-62.0
T9
X159.0Y-27.5
X197.5Y-27.5
X197.5Y-101.9
X159.0Y-101.9
T10
X162.8Y-82.725
X162.8Y-94.155
T3
G00X166.2Y-80.695
M15
G01X165.4Y-80.695
M16
G05
G00X166.2Y-96.185
M15
G01X165.4Y-96.185
M16
G05
G00X163.6Y-69.0
M15
G01X164.0Y-69.0
M16
G05
G00X163.6Y-75.0
M15
G01X164.0Y-75.0
M16
G05
G00X170.6Y-69.0
M15
G01X171.0Y-69.0
M16
G05
G00X170.6Y-75.0
M15
G01X171.0Y-75.0
M16
G05
T0
M30
