G04 #@! TF.GenerationSoftware,KiCad,Pcbnew,5.1.4*
G04 #@! TF.CreationDate,2019-10-01T21:08:12+02:00*
G04 #@! TF.ProjectId,bluetoothkiste,626c7565-746f-46f7-9468-6b697374652e,rev?*
G04 #@! TF.SameCoordinates,Original*
G04 #@! TF.FileFunction,Copper,L1,Top*
G04 #@! TF.FilePolarity,Positive*
%FSLAX46Y46*%
G04 Gerber Fmt 4.6, Leading zero omitted, Abs format (unit mm)*
G04 Created by KiCad (PCBNEW 5.1.4) date 2019-10-01 21:08:12*
%MOMM*%
%LPD*%
G04 APERTURE LIST*
%ADD10C,0.600000*%
%ADD11R,1.600000X1.600000*%
%ADD12O,1.600000X1.600000*%
%ADD13C,0.100000*%
%ADD14C,1.425000*%
%ADD15C,2.000000*%
%ADD16C,1.600000*%
%ADD17R,1.905000X2.000000*%
%ADD18O,1.905000X2.000000*%
%ADD19C,4.000000*%
%ADD20C,1.500000*%
%ADD21O,2.500000X1.200000*%
%ADD22C,1.524000*%
%ADD23O,1.800000X1.400000*%
%ADD24R,1.700000X1.700000*%
%ADD25O,1.700000X1.700000*%
%ADD26R,2.500000X2.500000*%
%ADD27C,2.500000*%
%ADD28R,1.800000X1.800000*%
%ADD29O,1.800000X1.800000*%
%ADD30C,0.800000*%
%ADD31C,0.250000*%
%ADD32C,0.500000*%
%ADD33C,0.254000*%
G04 APERTURE END LIST*
D10*
X157500000Y-37000000D03*
X157500000Y-35000000D03*
X159500000Y-37000000D03*
X157500000Y-33000000D03*
X159500000Y-35000000D03*
X159500000Y-33000000D03*
X170000000Y-79000000D03*
X168000000Y-79000000D03*
X172000000Y-77000000D03*
X172000000Y-79000000D03*
X170000000Y-77000000D03*
X168000000Y-77000000D03*
X172000000Y-59000000D03*
X170000000Y-59000000D03*
X170000000Y-61000000D03*
X172000000Y-61000000D03*
X176500000Y-70500000D03*
X178500000Y-70500000D03*
X168000000Y-61000000D03*
X176500000Y-72500000D03*
X178500000Y-72500000D03*
X168000000Y-59000000D03*
X170000000Y-63000000D03*
X172000000Y-63000000D03*
X176500000Y-66500000D03*
X178500000Y-66500000D03*
X168000000Y-63000000D03*
X178500000Y-64500000D03*
X176500000Y-64500000D03*
D11*
X175260000Y-42030000D03*
D12*
X182880000Y-59810000D03*
X175260000Y-44570000D03*
X182880000Y-57270000D03*
X175260000Y-47110000D03*
X182880000Y-54730000D03*
X175260000Y-49650000D03*
X182880000Y-52190000D03*
X175260000Y-52190000D03*
X182880000Y-49650000D03*
X175260000Y-54730000D03*
X182880000Y-47110000D03*
X175260000Y-57270000D03*
X182880000Y-44570000D03*
X175260000Y-59810000D03*
X182880000Y-42030000D03*
D13*
G36*
X172722004Y-54156204D02*
G01*
X172746273Y-54159804D01*
X172770071Y-54165765D01*
X172793171Y-54174030D01*
X172815349Y-54184520D01*
X172836393Y-54197133D01*
X172856098Y-54211747D01*
X172874277Y-54228223D01*
X172890753Y-54246402D01*
X172905367Y-54266107D01*
X172917980Y-54287151D01*
X172928470Y-54309329D01*
X172936735Y-54332429D01*
X172942696Y-54356227D01*
X172946296Y-54380496D01*
X172947500Y-54405000D01*
X172947500Y-55655000D01*
X172946296Y-55679504D01*
X172942696Y-55703773D01*
X172936735Y-55727571D01*
X172928470Y-55750671D01*
X172917980Y-55772849D01*
X172905367Y-55793893D01*
X172890753Y-55813598D01*
X172874277Y-55831777D01*
X172856098Y-55848253D01*
X172836393Y-55862867D01*
X172815349Y-55875480D01*
X172793171Y-55885970D01*
X172770071Y-55894235D01*
X172746273Y-55900196D01*
X172722004Y-55903796D01*
X172697500Y-55905000D01*
X171772500Y-55905000D01*
X171747996Y-55903796D01*
X171723727Y-55900196D01*
X171699929Y-55894235D01*
X171676829Y-55885970D01*
X171654651Y-55875480D01*
X171633607Y-55862867D01*
X171613902Y-55848253D01*
X171595723Y-55831777D01*
X171579247Y-55813598D01*
X171564633Y-55793893D01*
X171552020Y-55772849D01*
X171541530Y-55750671D01*
X171533265Y-55727571D01*
X171527304Y-55703773D01*
X171523704Y-55679504D01*
X171522500Y-55655000D01*
X171522500Y-54405000D01*
X171523704Y-54380496D01*
X171527304Y-54356227D01*
X171533265Y-54332429D01*
X171541530Y-54309329D01*
X171552020Y-54287151D01*
X171564633Y-54266107D01*
X171579247Y-54246402D01*
X171595723Y-54228223D01*
X171613902Y-54211747D01*
X171633607Y-54197133D01*
X171654651Y-54184520D01*
X171676829Y-54174030D01*
X171699929Y-54165765D01*
X171723727Y-54159804D01*
X171747996Y-54156204D01*
X171772500Y-54155000D01*
X172697500Y-54155000D01*
X172722004Y-54156204D01*
X172722004Y-54156204D01*
G37*
D14*
X172235000Y-55030000D03*
D13*
G36*
X169747004Y-54156204D02*
G01*
X169771273Y-54159804D01*
X169795071Y-54165765D01*
X169818171Y-54174030D01*
X169840349Y-54184520D01*
X169861393Y-54197133D01*
X169881098Y-54211747D01*
X169899277Y-54228223D01*
X169915753Y-54246402D01*
X169930367Y-54266107D01*
X169942980Y-54287151D01*
X169953470Y-54309329D01*
X169961735Y-54332429D01*
X169967696Y-54356227D01*
X169971296Y-54380496D01*
X169972500Y-54405000D01*
X169972500Y-55655000D01*
X169971296Y-55679504D01*
X169967696Y-55703773D01*
X169961735Y-55727571D01*
X169953470Y-55750671D01*
X169942980Y-55772849D01*
X169930367Y-55793893D01*
X169915753Y-55813598D01*
X169899277Y-55831777D01*
X169881098Y-55848253D01*
X169861393Y-55862867D01*
X169840349Y-55875480D01*
X169818171Y-55885970D01*
X169795071Y-55894235D01*
X169771273Y-55900196D01*
X169747004Y-55903796D01*
X169722500Y-55905000D01*
X168797500Y-55905000D01*
X168772996Y-55903796D01*
X168748727Y-55900196D01*
X168724929Y-55894235D01*
X168701829Y-55885970D01*
X168679651Y-55875480D01*
X168658607Y-55862867D01*
X168638902Y-55848253D01*
X168620723Y-55831777D01*
X168604247Y-55813598D01*
X168589633Y-55793893D01*
X168577020Y-55772849D01*
X168566530Y-55750671D01*
X168558265Y-55727571D01*
X168552304Y-55703773D01*
X168548704Y-55679504D01*
X168547500Y-55655000D01*
X168547500Y-54405000D01*
X168548704Y-54380496D01*
X168552304Y-54356227D01*
X168558265Y-54332429D01*
X168566530Y-54309329D01*
X168577020Y-54287151D01*
X168589633Y-54266107D01*
X168604247Y-54246402D01*
X168620723Y-54228223D01*
X168638902Y-54211747D01*
X168658607Y-54197133D01*
X168679651Y-54184520D01*
X168701829Y-54174030D01*
X168724929Y-54165765D01*
X168748727Y-54159804D01*
X168772996Y-54156204D01*
X168797500Y-54155000D01*
X169722500Y-54155000D01*
X169747004Y-54156204D01*
X169747004Y-54156204D01*
G37*
D14*
X169260000Y-55030000D03*
D13*
G36*
X169909504Y-41801204D02*
G01*
X169933773Y-41804804D01*
X169957571Y-41810765D01*
X169980671Y-41819030D01*
X170002849Y-41829520D01*
X170023893Y-41842133D01*
X170043598Y-41856747D01*
X170061777Y-41873223D01*
X170078253Y-41891402D01*
X170092867Y-41911107D01*
X170105480Y-41932151D01*
X170115970Y-41954329D01*
X170124235Y-41977429D01*
X170130196Y-42001227D01*
X170133796Y-42025496D01*
X170135000Y-42050000D01*
X170135000Y-42975000D01*
X170133796Y-42999504D01*
X170130196Y-43023773D01*
X170124235Y-43047571D01*
X170115970Y-43070671D01*
X170105480Y-43092849D01*
X170092867Y-43113893D01*
X170078253Y-43133598D01*
X170061777Y-43151777D01*
X170043598Y-43168253D01*
X170023893Y-43182867D01*
X170002849Y-43195480D01*
X169980671Y-43205970D01*
X169957571Y-43214235D01*
X169933773Y-43220196D01*
X169909504Y-43223796D01*
X169885000Y-43225000D01*
X168635000Y-43225000D01*
X168610496Y-43223796D01*
X168586227Y-43220196D01*
X168562429Y-43214235D01*
X168539329Y-43205970D01*
X168517151Y-43195480D01*
X168496107Y-43182867D01*
X168476402Y-43168253D01*
X168458223Y-43151777D01*
X168441747Y-43133598D01*
X168427133Y-43113893D01*
X168414520Y-43092849D01*
X168404030Y-43070671D01*
X168395765Y-43047571D01*
X168389804Y-43023773D01*
X168386204Y-42999504D01*
X168385000Y-42975000D01*
X168385000Y-42050000D01*
X168386204Y-42025496D01*
X168389804Y-42001227D01*
X168395765Y-41977429D01*
X168404030Y-41954329D01*
X168414520Y-41932151D01*
X168427133Y-41911107D01*
X168441747Y-41891402D01*
X168458223Y-41873223D01*
X168476402Y-41856747D01*
X168496107Y-41842133D01*
X168517151Y-41829520D01*
X168539329Y-41819030D01*
X168562429Y-41810765D01*
X168586227Y-41804804D01*
X168610496Y-41801204D01*
X168635000Y-41800000D01*
X169885000Y-41800000D01*
X169909504Y-41801204D01*
X169909504Y-41801204D01*
G37*
D14*
X169260000Y-42512500D03*
D13*
G36*
X169909504Y-44776204D02*
G01*
X169933773Y-44779804D01*
X169957571Y-44785765D01*
X169980671Y-44794030D01*
X170002849Y-44804520D01*
X170023893Y-44817133D01*
X170043598Y-44831747D01*
X170061777Y-44848223D01*
X170078253Y-44866402D01*
X170092867Y-44886107D01*
X170105480Y-44907151D01*
X170115970Y-44929329D01*
X170124235Y-44952429D01*
X170130196Y-44976227D01*
X170133796Y-45000496D01*
X170135000Y-45025000D01*
X170135000Y-45950000D01*
X170133796Y-45974504D01*
X170130196Y-45998773D01*
X170124235Y-46022571D01*
X170115970Y-46045671D01*
X170105480Y-46067849D01*
X170092867Y-46088893D01*
X170078253Y-46108598D01*
X170061777Y-46126777D01*
X170043598Y-46143253D01*
X170023893Y-46157867D01*
X170002849Y-46170480D01*
X169980671Y-46180970D01*
X169957571Y-46189235D01*
X169933773Y-46195196D01*
X169909504Y-46198796D01*
X169885000Y-46200000D01*
X168635000Y-46200000D01*
X168610496Y-46198796D01*
X168586227Y-46195196D01*
X168562429Y-46189235D01*
X168539329Y-46180970D01*
X168517151Y-46170480D01*
X168496107Y-46157867D01*
X168476402Y-46143253D01*
X168458223Y-46126777D01*
X168441747Y-46108598D01*
X168427133Y-46088893D01*
X168414520Y-46067849D01*
X168404030Y-46045671D01*
X168395765Y-46022571D01*
X168389804Y-45998773D01*
X168386204Y-45974504D01*
X168385000Y-45950000D01*
X168385000Y-45025000D01*
X168386204Y-45000496D01*
X168389804Y-44976227D01*
X168395765Y-44952429D01*
X168404030Y-44929329D01*
X168414520Y-44907151D01*
X168427133Y-44886107D01*
X168441747Y-44866402D01*
X168458223Y-44848223D01*
X168476402Y-44831747D01*
X168496107Y-44817133D01*
X168517151Y-44804520D01*
X168539329Y-44794030D01*
X168562429Y-44785765D01*
X168586227Y-44779804D01*
X168610496Y-44776204D01*
X168635000Y-44775000D01*
X169885000Y-44775000D01*
X169909504Y-44776204D01*
X169909504Y-44776204D01*
G37*
D14*
X169260000Y-45487500D03*
D13*
G36*
X172909504Y-51806204D02*
G01*
X172933773Y-51809804D01*
X172957571Y-51815765D01*
X172980671Y-51824030D01*
X173002849Y-51834520D01*
X173023893Y-51847133D01*
X173043598Y-51861747D01*
X173061777Y-51878223D01*
X173078253Y-51896402D01*
X173092867Y-51916107D01*
X173105480Y-51937151D01*
X173115970Y-51959329D01*
X173124235Y-51982429D01*
X173130196Y-52006227D01*
X173133796Y-52030496D01*
X173135000Y-52055000D01*
X173135000Y-52980000D01*
X173133796Y-53004504D01*
X173130196Y-53028773D01*
X173124235Y-53052571D01*
X173115970Y-53075671D01*
X173105480Y-53097849D01*
X173092867Y-53118893D01*
X173078253Y-53138598D01*
X173061777Y-53156777D01*
X173043598Y-53173253D01*
X173023893Y-53187867D01*
X173002849Y-53200480D01*
X172980671Y-53210970D01*
X172957571Y-53219235D01*
X172933773Y-53225196D01*
X172909504Y-53228796D01*
X172885000Y-53230000D01*
X171635000Y-53230000D01*
X171610496Y-53228796D01*
X171586227Y-53225196D01*
X171562429Y-53219235D01*
X171539329Y-53210970D01*
X171517151Y-53200480D01*
X171496107Y-53187867D01*
X171476402Y-53173253D01*
X171458223Y-53156777D01*
X171441747Y-53138598D01*
X171427133Y-53118893D01*
X171414520Y-53097849D01*
X171404030Y-53075671D01*
X171395765Y-53052571D01*
X171389804Y-53028773D01*
X171386204Y-53004504D01*
X171385000Y-52980000D01*
X171385000Y-52055000D01*
X171386204Y-52030496D01*
X171389804Y-52006227D01*
X171395765Y-51982429D01*
X171404030Y-51959329D01*
X171414520Y-51937151D01*
X171427133Y-51916107D01*
X171441747Y-51896402D01*
X171458223Y-51878223D01*
X171476402Y-51861747D01*
X171496107Y-51847133D01*
X171517151Y-51834520D01*
X171539329Y-51824030D01*
X171562429Y-51815765D01*
X171586227Y-51809804D01*
X171610496Y-51806204D01*
X171635000Y-51805000D01*
X172885000Y-51805000D01*
X172909504Y-51806204D01*
X172909504Y-51806204D01*
G37*
D14*
X172260000Y-52517500D03*
D13*
G36*
X172909504Y-48831204D02*
G01*
X172933773Y-48834804D01*
X172957571Y-48840765D01*
X172980671Y-48849030D01*
X173002849Y-48859520D01*
X173023893Y-48872133D01*
X173043598Y-48886747D01*
X173061777Y-48903223D01*
X173078253Y-48921402D01*
X173092867Y-48941107D01*
X173105480Y-48962151D01*
X173115970Y-48984329D01*
X173124235Y-49007429D01*
X173130196Y-49031227D01*
X173133796Y-49055496D01*
X173135000Y-49080000D01*
X173135000Y-50005000D01*
X173133796Y-50029504D01*
X173130196Y-50053773D01*
X173124235Y-50077571D01*
X173115970Y-50100671D01*
X173105480Y-50122849D01*
X173092867Y-50143893D01*
X173078253Y-50163598D01*
X173061777Y-50181777D01*
X173043598Y-50198253D01*
X173023893Y-50212867D01*
X173002849Y-50225480D01*
X172980671Y-50235970D01*
X172957571Y-50244235D01*
X172933773Y-50250196D01*
X172909504Y-50253796D01*
X172885000Y-50255000D01*
X171635000Y-50255000D01*
X171610496Y-50253796D01*
X171586227Y-50250196D01*
X171562429Y-50244235D01*
X171539329Y-50235970D01*
X171517151Y-50225480D01*
X171496107Y-50212867D01*
X171476402Y-50198253D01*
X171458223Y-50181777D01*
X171441747Y-50163598D01*
X171427133Y-50143893D01*
X171414520Y-50122849D01*
X171404030Y-50100671D01*
X171395765Y-50077571D01*
X171389804Y-50053773D01*
X171386204Y-50029504D01*
X171385000Y-50005000D01*
X171385000Y-49080000D01*
X171386204Y-49055496D01*
X171389804Y-49031227D01*
X171395765Y-49007429D01*
X171404030Y-48984329D01*
X171414520Y-48962151D01*
X171427133Y-48941107D01*
X171441747Y-48921402D01*
X171458223Y-48903223D01*
X171476402Y-48886747D01*
X171496107Y-48872133D01*
X171517151Y-48859520D01*
X171539329Y-48849030D01*
X171562429Y-48840765D01*
X171586227Y-48834804D01*
X171610496Y-48831204D01*
X171635000Y-48830000D01*
X172885000Y-48830000D01*
X172909504Y-48831204D01*
X172909504Y-48831204D01*
G37*
D14*
X172260000Y-49542500D03*
D13*
G36*
X172909504Y-42831204D02*
G01*
X172933773Y-42834804D01*
X172957571Y-42840765D01*
X172980671Y-42849030D01*
X173002849Y-42859520D01*
X173023893Y-42872133D01*
X173043598Y-42886747D01*
X173061777Y-42903223D01*
X173078253Y-42921402D01*
X173092867Y-42941107D01*
X173105480Y-42962151D01*
X173115970Y-42984329D01*
X173124235Y-43007429D01*
X173130196Y-43031227D01*
X173133796Y-43055496D01*
X173135000Y-43080000D01*
X173135000Y-44005000D01*
X173133796Y-44029504D01*
X173130196Y-44053773D01*
X173124235Y-44077571D01*
X173115970Y-44100671D01*
X173105480Y-44122849D01*
X173092867Y-44143893D01*
X173078253Y-44163598D01*
X173061777Y-44181777D01*
X173043598Y-44198253D01*
X173023893Y-44212867D01*
X173002849Y-44225480D01*
X172980671Y-44235970D01*
X172957571Y-44244235D01*
X172933773Y-44250196D01*
X172909504Y-44253796D01*
X172885000Y-44255000D01*
X171635000Y-44255000D01*
X171610496Y-44253796D01*
X171586227Y-44250196D01*
X171562429Y-44244235D01*
X171539329Y-44235970D01*
X171517151Y-44225480D01*
X171496107Y-44212867D01*
X171476402Y-44198253D01*
X171458223Y-44181777D01*
X171441747Y-44163598D01*
X171427133Y-44143893D01*
X171414520Y-44122849D01*
X171404030Y-44100671D01*
X171395765Y-44077571D01*
X171389804Y-44053773D01*
X171386204Y-44029504D01*
X171385000Y-44005000D01*
X171385000Y-43080000D01*
X171386204Y-43055496D01*
X171389804Y-43031227D01*
X171395765Y-43007429D01*
X171404030Y-42984329D01*
X171414520Y-42962151D01*
X171427133Y-42941107D01*
X171441747Y-42921402D01*
X171458223Y-42903223D01*
X171476402Y-42886747D01*
X171496107Y-42872133D01*
X171517151Y-42859520D01*
X171539329Y-42849030D01*
X171562429Y-42840765D01*
X171586227Y-42834804D01*
X171610496Y-42831204D01*
X171635000Y-42830000D01*
X172885000Y-42830000D01*
X172909504Y-42831204D01*
X172909504Y-42831204D01*
G37*
D14*
X172260000Y-43542500D03*
D13*
G36*
X172909504Y-45806204D02*
G01*
X172933773Y-45809804D01*
X172957571Y-45815765D01*
X172980671Y-45824030D01*
X173002849Y-45834520D01*
X173023893Y-45847133D01*
X173043598Y-45861747D01*
X173061777Y-45878223D01*
X173078253Y-45896402D01*
X173092867Y-45916107D01*
X173105480Y-45937151D01*
X173115970Y-45959329D01*
X173124235Y-45982429D01*
X173130196Y-46006227D01*
X173133796Y-46030496D01*
X173135000Y-46055000D01*
X173135000Y-46980000D01*
X173133796Y-47004504D01*
X173130196Y-47028773D01*
X173124235Y-47052571D01*
X173115970Y-47075671D01*
X173105480Y-47097849D01*
X173092867Y-47118893D01*
X173078253Y-47138598D01*
X173061777Y-47156777D01*
X173043598Y-47173253D01*
X173023893Y-47187867D01*
X173002849Y-47200480D01*
X172980671Y-47210970D01*
X172957571Y-47219235D01*
X172933773Y-47225196D01*
X172909504Y-47228796D01*
X172885000Y-47230000D01*
X171635000Y-47230000D01*
X171610496Y-47228796D01*
X171586227Y-47225196D01*
X171562429Y-47219235D01*
X171539329Y-47210970D01*
X171517151Y-47200480D01*
X171496107Y-47187867D01*
X171476402Y-47173253D01*
X171458223Y-47156777D01*
X171441747Y-47138598D01*
X171427133Y-47118893D01*
X171414520Y-47097849D01*
X171404030Y-47075671D01*
X171395765Y-47052571D01*
X171389804Y-47028773D01*
X171386204Y-47004504D01*
X171385000Y-46980000D01*
X171385000Y-46055000D01*
X171386204Y-46030496D01*
X171389804Y-46006227D01*
X171395765Y-45982429D01*
X171404030Y-45959329D01*
X171414520Y-45937151D01*
X171427133Y-45916107D01*
X171441747Y-45896402D01*
X171458223Y-45878223D01*
X171476402Y-45861747D01*
X171496107Y-45847133D01*
X171517151Y-45834520D01*
X171539329Y-45824030D01*
X171562429Y-45815765D01*
X171586227Y-45809804D01*
X171610496Y-45806204D01*
X171635000Y-45805000D01*
X172885000Y-45805000D01*
X172909504Y-45806204D01*
X172909504Y-45806204D01*
G37*
D14*
X172260000Y-46517500D03*
D15*
X174880000Y-35210000D03*
X169800000Y-35200000D03*
D13*
G36*
X186149504Y-40701204D02*
G01*
X186173773Y-40704804D01*
X186197571Y-40710765D01*
X186220671Y-40719030D01*
X186242849Y-40729520D01*
X186263893Y-40742133D01*
X186283598Y-40756747D01*
X186301777Y-40773223D01*
X186318253Y-40791402D01*
X186332867Y-40811107D01*
X186345480Y-40832151D01*
X186355970Y-40854329D01*
X186364235Y-40877429D01*
X186370196Y-40901227D01*
X186373796Y-40925496D01*
X186375000Y-40950000D01*
X186375000Y-41875000D01*
X186373796Y-41899504D01*
X186370196Y-41923773D01*
X186364235Y-41947571D01*
X186355970Y-41970671D01*
X186345480Y-41992849D01*
X186332867Y-42013893D01*
X186318253Y-42033598D01*
X186301777Y-42051777D01*
X186283598Y-42068253D01*
X186263893Y-42082867D01*
X186242849Y-42095480D01*
X186220671Y-42105970D01*
X186197571Y-42114235D01*
X186173773Y-42120196D01*
X186149504Y-42123796D01*
X186125000Y-42125000D01*
X184875000Y-42125000D01*
X184850496Y-42123796D01*
X184826227Y-42120196D01*
X184802429Y-42114235D01*
X184779329Y-42105970D01*
X184757151Y-42095480D01*
X184736107Y-42082867D01*
X184716402Y-42068253D01*
X184698223Y-42051777D01*
X184681747Y-42033598D01*
X184667133Y-42013893D01*
X184654520Y-41992849D01*
X184644030Y-41970671D01*
X184635765Y-41947571D01*
X184629804Y-41923773D01*
X184626204Y-41899504D01*
X184625000Y-41875000D01*
X184625000Y-40950000D01*
X184626204Y-40925496D01*
X184629804Y-40901227D01*
X184635765Y-40877429D01*
X184644030Y-40854329D01*
X184654520Y-40832151D01*
X184667133Y-40811107D01*
X184681747Y-40791402D01*
X184698223Y-40773223D01*
X184716402Y-40756747D01*
X184736107Y-40742133D01*
X184757151Y-40729520D01*
X184779329Y-40719030D01*
X184802429Y-40710765D01*
X184826227Y-40704804D01*
X184850496Y-40701204D01*
X184875000Y-40700000D01*
X186125000Y-40700000D01*
X186149504Y-40701204D01*
X186149504Y-40701204D01*
G37*
D14*
X185500000Y-41412500D03*
D13*
G36*
X186149504Y-43676204D02*
G01*
X186173773Y-43679804D01*
X186197571Y-43685765D01*
X186220671Y-43694030D01*
X186242849Y-43704520D01*
X186263893Y-43717133D01*
X186283598Y-43731747D01*
X186301777Y-43748223D01*
X186318253Y-43766402D01*
X186332867Y-43786107D01*
X186345480Y-43807151D01*
X186355970Y-43829329D01*
X186364235Y-43852429D01*
X186370196Y-43876227D01*
X186373796Y-43900496D01*
X186375000Y-43925000D01*
X186375000Y-44850000D01*
X186373796Y-44874504D01*
X186370196Y-44898773D01*
X186364235Y-44922571D01*
X186355970Y-44945671D01*
X186345480Y-44967849D01*
X186332867Y-44988893D01*
X186318253Y-45008598D01*
X186301777Y-45026777D01*
X186283598Y-45043253D01*
X186263893Y-45057867D01*
X186242849Y-45070480D01*
X186220671Y-45080970D01*
X186197571Y-45089235D01*
X186173773Y-45095196D01*
X186149504Y-45098796D01*
X186125000Y-45100000D01*
X184875000Y-45100000D01*
X184850496Y-45098796D01*
X184826227Y-45095196D01*
X184802429Y-45089235D01*
X184779329Y-45080970D01*
X184757151Y-45070480D01*
X184736107Y-45057867D01*
X184716402Y-45043253D01*
X184698223Y-45026777D01*
X184681747Y-45008598D01*
X184667133Y-44988893D01*
X184654520Y-44967849D01*
X184644030Y-44945671D01*
X184635765Y-44922571D01*
X184629804Y-44898773D01*
X184626204Y-44874504D01*
X184625000Y-44850000D01*
X184625000Y-43925000D01*
X184626204Y-43900496D01*
X184629804Y-43876227D01*
X184635765Y-43852429D01*
X184644030Y-43829329D01*
X184654520Y-43807151D01*
X184667133Y-43786107D01*
X184681747Y-43766402D01*
X184698223Y-43748223D01*
X184716402Y-43731747D01*
X184736107Y-43717133D01*
X184757151Y-43704520D01*
X184779329Y-43694030D01*
X184802429Y-43685765D01*
X184826227Y-43679804D01*
X184850496Y-43676204D01*
X184875000Y-43675000D01*
X186125000Y-43675000D01*
X186149504Y-43676204D01*
X186149504Y-43676204D01*
G37*
D14*
X185500000Y-44387500D03*
D16*
X192000000Y-29000000D03*
X187000000Y-29000000D03*
X186900000Y-32000000D03*
X191900000Y-32000000D03*
D17*
X183600000Y-25000000D03*
D18*
X186140000Y-25000000D03*
X188680000Y-25000000D03*
D19*
X163330000Y-36920000D03*
D11*
X164600000Y-55000000D03*
D16*
X164600000Y-52230000D03*
X164600000Y-49460000D03*
X164600000Y-46690000D03*
X164600000Y-43920000D03*
X162060000Y-53615000D03*
X162060000Y-50845000D03*
X162060000Y-48075000D03*
X162060000Y-45305000D03*
D19*
X163330000Y-62000000D03*
D13*
G36*
X169324053Y-83251206D02*
G01*
X169348370Y-83254813D01*
X169372216Y-83260786D01*
X169395362Y-83269068D01*
X169417585Y-83279579D01*
X169438670Y-83292217D01*
X169458416Y-83306861D01*
X169476630Y-83323370D01*
X169493139Y-83341584D01*
X169507783Y-83361330D01*
X169520421Y-83382415D01*
X169530932Y-83404638D01*
X169539214Y-83427784D01*
X169545187Y-83451630D01*
X169548794Y-83475947D01*
X169550000Y-83500500D01*
X169550000Y-84499500D01*
X169548794Y-84524053D01*
X169545187Y-84548370D01*
X169539214Y-84572216D01*
X169530932Y-84595362D01*
X169520421Y-84617585D01*
X169507783Y-84638670D01*
X169493139Y-84658416D01*
X169476630Y-84676630D01*
X169458416Y-84693139D01*
X169438670Y-84707783D01*
X169417585Y-84720421D01*
X169395362Y-84730932D01*
X169372216Y-84739214D01*
X169348370Y-84745187D01*
X169324053Y-84748794D01*
X169299500Y-84750000D01*
X168300500Y-84750000D01*
X168275947Y-84748794D01*
X168251630Y-84745187D01*
X168227784Y-84739214D01*
X168204638Y-84730932D01*
X168182415Y-84720421D01*
X168161330Y-84707783D01*
X168141584Y-84693139D01*
X168123370Y-84676630D01*
X168106861Y-84658416D01*
X168092217Y-84638670D01*
X168079579Y-84617585D01*
X168069068Y-84595362D01*
X168060786Y-84572216D01*
X168054813Y-84548370D01*
X168051206Y-84524053D01*
X168050000Y-84499500D01*
X168050000Y-83500500D01*
X168051206Y-83475947D01*
X168054813Y-83451630D01*
X168060786Y-83427784D01*
X168069068Y-83404638D01*
X168079579Y-83382415D01*
X168092217Y-83361330D01*
X168106861Y-83341584D01*
X168123370Y-83323370D01*
X168141584Y-83306861D01*
X168161330Y-83292217D01*
X168182415Y-83279579D01*
X168204638Y-83269068D01*
X168227784Y-83260786D01*
X168251630Y-83254813D01*
X168275947Y-83251206D01*
X168300500Y-83250000D01*
X169299500Y-83250000D01*
X169324053Y-83251206D01*
X169324053Y-83251206D01*
G37*
D20*
X168800000Y-84000000D03*
X171340000Y-85260000D03*
X168800000Y-86540000D03*
X171340000Y-87800000D03*
X168800000Y-89080000D03*
X171340000Y-90340000D03*
X168800000Y-91620000D03*
D21*
X165800000Y-80695000D03*
D20*
X171340000Y-92880000D03*
D21*
X165800000Y-96185000D03*
D22*
X164600000Y-72000000D03*
X166600000Y-72000000D03*
X168600000Y-72000000D03*
X170600000Y-72000000D03*
D23*
X170800000Y-69000000D03*
X170800000Y-75000000D03*
X163800000Y-69000000D03*
X163800000Y-75000000D03*
D24*
X171040000Y-100750000D03*
D25*
X168500000Y-100750000D03*
D26*
X166900000Y-25000000D03*
D27*
X171900000Y-25000000D03*
X176900000Y-25000000D03*
D28*
X183400000Y-38700000D03*
D29*
X183400000Y-31080000D03*
X179800000Y-31080000D03*
D28*
X179800000Y-38700000D03*
D24*
X196000000Y-69000000D03*
D25*
X193460000Y-69000000D03*
X190920000Y-69000000D03*
X188380000Y-69000000D03*
X187620000Y-77000000D03*
X185080000Y-77000000D03*
X182540000Y-77000000D03*
D24*
X180000000Y-77000000D03*
D30*
X179100000Y-47500000D03*
X179100000Y-52100000D03*
X188512653Y-56987347D03*
X188500000Y-58000000D03*
X180000000Y-69000000D03*
X180000000Y-64500000D03*
X182500000Y-69000000D03*
X182500000Y-64500000D03*
D31*
X185317500Y-44570000D02*
X185500000Y-44387500D01*
X182880000Y-44570000D02*
X185317500Y-44570000D01*
D32*
X183497500Y-41412500D02*
X182880000Y-42030000D01*
X185500000Y-41412500D02*
X183497500Y-41412500D01*
D31*
X173772500Y-42030000D02*
X175260000Y-42030000D01*
X172260000Y-43542500D02*
X173772500Y-42030000D01*
X174667500Y-46517500D02*
X175260000Y-47110000D01*
X172260000Y-46517500D02*
X174667500Y-46517500D01*
X174932500Y-52517500D02*
X175260000Y-52190000D01*
X172260000Y-52517500D02*
X174932500Y-52517500D01*
X175152500Y-49542500D02*
X175260000Y-49650000D01*
X172260000Y-49542500D02*
X175152500Y-49542500D01*
X174128630Y-44570000D02*
X173698630Y-45000000D01*
X175260000Y-44570000D02*
X174128630Y-44570000D01*
X173698630Y-45000000D02*
X171000000Y-45000000D01*
X170512500Y-45487500D02*
X169260000Y-45487500D01*
X171000000Y-45000000D02*
X170512500Y-45487500D01*
X174960000Y-55030000D02*
X175260000Y-54730000D01*
X172235000Y-55030000D02*
X174960000Y-55030000D01*
D32*
X179100000Y-47500000D02*
X179100000Y-52100000D01*
D31*
X175260000Y-83880000D02*
X171340000Y-87800000D01*
X175260000Y-59810000D02*
X175260000Y-83880000D01*
X169875010Y-85464990D02*
X169875010Y-83374990D01*
X168800000Y-86540000D02*
X169875010Y-85464990D01*
X174134999Y-58395001D02*
X174460001Y-58069999D01*
X174460001Y-58069999D02*
X175260000Y-57270000D01*
X174134999Y-79115001D02*
X174134999Y-58395001D01*
X169875010Y-83374990D02*
X174134999Y-79115001D01*
X184515305Y-52989999D02*
X188512653Y-56987347D01*
X182880000Y-52190000D02*
X183679999Y-52989999D01*
X183679999Y-52989999D02*
X184515305Y-52989999D01*
X183679999Y-55529999D02*
X186029999Y-55529999D01*
X182880000Y-54730000D02*
X183679999Y-55529999D01*
X186029999Y-55529999D02*
X188500000Y-58000000D01*
X180000000Y-69000000D02*
X180000000Y-64500000D01*
X182500000Y-69000000D02*
X182500000Y-64500000D01*
D32*
X179800000Y-27900000D02*
X176900000Y-25000000D01*
X179800000Y-31080000D02*
X179800000Y-27900000D01*
D33*
G36*
X191843496Y-27572524D02*
G01*
X191649870Y-27601213D01*
X191383708Y-27696397D01*
X191258486Y-27763329D01*
X191186903Y-28007298D01*
X191840276Y-28660671D01*
X191838262Y-29341343D01*
X191186903Y-29992702D01*
X191258486Y-30236671D01*
X191513996Y-30357571D01*
X191788184Y-30426300D01*
X191835046Y-30428610D01*
X191834642Y-30565000D01*
X191758665Y-30565000D01*
X191481426Y-30620147D01*
X191220273Y-30728320D01*
X190985241Y-30885363D01*
X190785363Y-31085241D01*
X190628320Y-31320273D01*
X190520147Y-31581426D01*
X190465000Y-31858665D01*
X190465000Y-32141335D01*
X190520147Y-32418574D01*
X190628320Y-32679727D01*
X190785363Y-32914759D01*
X190985241Y-33114637D01*
X191220273Y-33271680D01*
X191481426Y-33379853D01*
X191758665Y-33435000D01*
X191826151Y-33435000D01*
X191823376Y-34373000D01*
X184050000Y-34373000D01*
X184025224Y-34375440D01*
X184001399Y-34382667D01*
X183979443Y-34394403D01*
X183960197Y-34410197D01*
X183944403Y-34429443D01*
X183932667Y-34451399D01*
X183925440Y-34475224D01*
X183923000Y-34500278D01*
X183928825Y-37161928D01*
X182500000Y-37161928D01*
X182375518Y-37174188D01*
X182255820Y-37210498D01*
X182145506Y-37269463D01*
X182048815Y-37348815D01*
X181969463Y-37445506D01*
X181910498Y-37555820D01*
X181874188Y-37675518D01*
X181861928Y-37800000D01*
X181861928Y-39600000D01*
X181874188Y-39724482D01*
X181910498Y-39844180D01*
X181969463Y-39954494D01*
X182048815Y-40051185D01*
X182145506Y-40130537D01*
X182255820Y-40189502D01*
X182375518Y-40225812D01*
X182500000Y-40238072D01*
X183935558Y-40238072D01*
X183936191Y-40527500D01*
X183540969Y-40527500D01*
X183497500Y-40523219D01*
X183454031Y-40527500D01*
X183454023Y-40527500D01*
X183324010Y-40540305D01*
X183157187Y-40590911D01*
X183118566Y-40611554D01*
X182950492Y-40595000D01*
X182809508Y-40595000D01*
X182598691Y-40615764D01*
X182328192Y-40697818D01*
X182078899Y-40831068D01*
X181860392Y-41010392D01*
X181681068Y-41228899D01*
X181547818Y-41478192D01*
X181465764Y-41748691D01*
X181438057Y-42030000D01*
X181465764Y-42311309D01*
X181547818Y-42581808D01*
X181681068Y-42831101D01*
X181860392Y-43049608D01*
X182078899Y-43228932D01*
X182216682Y-43302579D01*
X182024869Y-43417615D01*
X181816481Y-43606586D01*
X181648963Y-43832580D01*
X181528754Y-44086913D01*
X181488096Y-44220961D01*
X181610085Y-44443000D01*
X182753000Y-44443000D01*
X182753000Y-44423000D01*
X183007000Y-44423000D01*
X183007000Y-44443000D01*
X183027000Y-44443000D01*
X183027000Y-44697000D01*
X183007000Y-44697000D01*
X183007000Y-44717000D01*
X182753000Y-44717000D01*
X182753000Y-44697000D01*
X181610085Y-44697000D01*
X181488096Y-44919039D01*
X181528754Y-45053087D01*
X181648963Y-45307420D01*
X181816481Y-45533414D01*
X182024869Y-45722385D01*
X182216682Y-45837421D01*
X182078899Y-45911068D01*
X181860392Y-46090392D01*
X181681068Y-46308899D01*
X181547818Y-46558192D01*
X181465764Y-46828691D01*
X181438057Y-47110000D01*
X181465764Y-47391309D01*
X181547818Y-47661808D01*
X181681068Y-47911101D01*
X181860392Y-48129608D01*
X182078899Y-48308932D01*
X182211858Y-48380000D01*
X182078899Y-48451068D01*
X181860392Y-48630392D01*
X181681068Y-48848899D01*
X181547818Y-49098192D01*
X181465764Y-49368691D01*
X181438057Y-49650000D01*
X181465764Y-49931309D01*
X181547818Y-50201808D01*
X181681068Y-50451101D01*
X181860392Y-50669608D01*
X182078899Y-50848932D01*
X182211858Y-50920000D01*
X182078899Y-50991068D01*
X181860392Y-51170392D01*
X181681068Y-51388899D01*
X181547818Y-51638192D01*
X181465764Y-51908691D01*
X181438057Y-52190000D01*
X181465764Y-52471309D01*
X181547818Y-52741808D01*
X181681068Y-52991101D01*
X181860392Y-53209608D01*
X182078899Y-53388932D01*
X182211858Y-53460000D01*
X182078899Y-53531068D01*
X181860392Y-53710392D01*
X181681068Y-53928899D01*
X181547818Y-54178192D01*
X181465764Y-54448691D01*
X181438057Y-54730000D01*
X181465764Y-55011309D01*
X181547818Y-55281808D01*
X181681068Y-55531101D01*
X181860392Y-55749608D01*
X182078899Y-55928932D01*
X182211858Y-56000000D01*
X182078899Y-56071068D01*
X181860392Y-56250392D01*
X181681068Y-56468899D01*
X181547818Y-56718192D01*
X181465764Y-56988691D01*
X181438057Y-57270000D01*
X181465764Y-57551309D01*
X181547818Y-57821808D01*
X181681068Y-58071101D01*
X181860392Y-58289608D01*
X182078899Y-58468932D01*
X182211858Y-58540000D01*
X182078899Y-58611068D01*
X181860392Y-58790392D01*
X181681068Y-59008899D01*
X181547818Y-59258192D01*
X181465764Y-59528691D01*
X181438057Y-59810000D01*
X181465764Y-60091309D01*
X181547818Y-60361808D01*
X181681068Y-60611101D01*
X181860392Y-60829608D01*
X182078899Y-61008932D01*
X182328192Y-61142182D01*
X182598691Y-61224236D01*
X182809508Y-61245000D01*
X182950492Y-61245000D01*
X183161309Y-61224236D01*
X183431808Y-61142182D01*
X183681101Y-61008932D01*
X183899608Y-60829608D01*
X183980409Y-60731152D01*
X184010223Y-74353548D01*
X176020000Y-74388007D01*
X176020000Y-64398061D01*
X178965000Y-64398061D01*
X178965000Y-64601939D01*
X179004774Y-64801898D01*
X179082795Y-64990256D01*
X179196063Y-65159774D01*
X179240001Y-65203712D01*
X179240000Y-68296289D01*
X179196063Y-68340226D01*
X179082795Y-68509744D01*
X179004774Y-68698102D01*
X178965000Y-68898061D01*
X178965000Y-69101939D01*
X179004774Y-69301898D01*
X179082795Y-69490256D01*
X179196063Y-69659774D01*
X179340226Y-69803937D01*
X179509744Y-69917205D01*
X179698102Y-69995226D01*
X179898061Y-70035000D01*
X180101939Y-70035000D01*
X180301898Y-69995226D01*
X180490256Y-69917205D01*
X180659774Y-69803937D01*
X180803937Y-69659774D01*
X180917205Y-69490256D01*
X180995226Y-69301898D01*
X181035000Y-69101939D01*
X181035000Y-68898061D01*
X180995226Y-68698102D01*
X180917205Y-68509744D01*
X180803937Y-68340226D01*
X180760000Y-68296289D01*
X180760000Y-65203711D01*
X180803937Y-65159774D01*
X180917205Y-64990256D01*
X180995226Y-64801898D01*
X181035000Y-64601939D01*
X181035000Y-64398061D01*
X181465000Y-64398061D01*
X181465000Y-64601939D01*
X181504774Y-64801898D01*
X181582795Y-64990256D01*
X181696063Y-65159774D01*
X181740001Y-65203712D01*
X181740000Y-68296289D01*
X181696063Y-68340226D01*
X181582795Y-68509744D01*
X181504774Y-68698102D01*
X181465000Y-68898061D01*
X181465000Y-69101939D01*
X181504774Y-69301898D01*
X181582795Y-69490256D01*
X181696063Y-69659774D01*
X181840226Y-69803937D01*
X182009744Y-69917205D01*
X182198102Y-69995226D01*
X182398061Y-70035000D01*
X182601939Y-70035000D01*
X182801898Y-69995226D01*
X182990256Y-69917205D01*
X183159774Y-69803937D01*
X183303937Y-69659774D01*
X183417205Y-69490256D01*
X183495226Y-69301898D01*
X183535000Y-69101939D01*
X183535000Y-68898061D01*
X183495226Y-68698102D01*
X183417205Y-68509744D01*
X183303937Y-68340226D01*
X183260000Y-68296289D01*
X183260000Y-65203711D01*
X183303937Y-65159774D01*
X183417205Y-64990256D01*
X183495226Y-64801898D01*
X183535000Y-64601939D01*
X183535000Y-64398061D01*
X183495226Y-64198102D01*
X183417205Y-64009744D01*
X183303937Y-63840226D01*
X183159774Y-63696063D01*
X182990256Y-63582795D01*
X182801898Y-63504774D01*
X182601939Y-63465000D01*
X182398061Y-63465000D01*
X182198102Y-63504774D01*
X182009744Y-63582795D01*
X181840226Y-63696063D01*
X181696063Y-63840226D01*
X181582795Y-64009744D01*
X181504774Y-64198102D01*
X181465000Y-64398061D01*
X181035000Y-64398061D01*
X180995226Y-64198102D01*
X180917205Y-64009744D01*
X180803937Y-63840226D01*
X180659774Y-63696063D01*
X180490256Y-63582795D01*
X180301898Y-63504774D01*
X180101939Y-63465000D01*
X179898061Y-63465000D01*
X179698102Y-63504774D01*
X179509744Y-63582795D01*
X179340226Y-63696063D01*
X179196063Y-63840226D01*
X179082795Y-64009744D01*
X179004774Y-64198102D01*
X178965000Y-64398061D01*
X176020000Y-64398061D01*
X176020000Y-61030901D01*
X176061101Y-61008932D01*
X176279608Y-60829608D01*
X176458932Y-60611101D01*
X176592182Y-60361808D01*
X176674236Y-60091309D01*
X176701943Y-59810000D01*
X176674236Y-59528691D01*
X176592182Y-59258192D01*
X176458932Y-59008899D01*
X176279608Y-58790392D01*
X176061101Y-58611068D01*
X175928142Y-58540000D01*
X176061101Y-58468932D01*
X176279608Y-58289608D01*
X176458932Y-58071101D01*
X176592182Y-57821808D01*
X176674236Y-57551309D01*
X176701943Y-57270000D01*
X176674236Y-56988691D01*
X176592182Y-56718192D01*
X176458932Y-56468899D01*
X176279608Y-56250392D01*
X176061101Y-56071068D01*
X175928142Y-56000000D01*
X176061101Y-55928932D01*
X176279608Y-55749608D01*
X176458932Y-55531101D01*
X176592182Y-55281808D01*
X176674236Y-55011309D01*
X176701943Y-54730000D01*
X176674236Y-54448691D01*
X176592182Y-54178192D01*
X176458932Y-53928899D01*
X176279608Y-53710392D01*
X176061101Y-53531068D01*
X175928142Y-53460000D01*
X176061101Y-53388932D01*
X176279608Y-53209608D01*
X176458932Y-52991101D01*
X176592182Y-52741808D01*
X176674236Y-52471309D01*
X176701943Y-52190000D01*
X176674236Y-51908691D01*
X176592182Y-51638192D01*
X176458932Y-51388899D01*
X176279608Y-51170392D01*
X176061101Y-50991068D01*
X175928142Y-50920000D01*
X176061101Y-50848932D01*
X176279608Y-50669608D01*
X176458932Y-50451101D01*
X176592182Y-50201808D01*
X176674236Y-49931309D01*
X176701943Y-49650000D01*
X176674236Y-49368691D01*
X176592182Y-49098192D01*
X176458932Y-48848899D01*
X176279608Y-48630392D01*
X176061101Y-48451068D01*
X175928142Y-48380000D01*
X176061101Y-48308932D01*
X176279608Y-48129608D01*
X176458932Y-47911101D01*
X176592182Y-47661808D01*
X176672187Y-47398061D01*
X178065000Y-47398061D01*
X178065000Y-47601939D01*
X178104774Y-47801898D01*
X178182795Y-47990256D01*
X178215000Y-48038455D01*
X178215001Y-51561544D01*
X178182795Y-51609744D01*
X178104774Y-51798102D01*
X178065000Y-51998061D01*
X178065000Y-52201939D01*
X178104774Y-52401898D01*
X178182795Y-52590256D01*
X178296063Y-52759774D01*
X178440226Y-52903937D01*
X178609744Y-53017205D01*
X178798102Y-53095226D01*
X178998061Y-53135000D01*
X179201939Y-53135000D01*
X179401898Y-53095226D01*
X179590256Y-53017205D01*
X179759774Y-52903937D01*
X179903937Y-52759774D01*
X180017205Y-52590256D01*
X180095226Y-52401898D01*
X180135000Y-52201939D01*
X180135000Y-51998061D01*
X180095226Y-51798102D01*
X180017205Y-51609744D01*
X179985000Y-51561546D01*
X179985000Y-48038454D01*
X180017205Y-47990256D01*
X180095226Y-47801898D01*
X180135000Y-47601939D01*
X180135000Y-47398061D01*
X180095226Y-47198102D01*
X180017205Y-47009744D01*
X179903937Y-46840226D01*
X179759774Y-46696063D01*
X179590256Y-46582795D01*
X179401898Y-46504774D01*
X179201939Y-46465000D01*
X178998061Y-46465000D01*
X178798102Y-46504774D01*
X178609744Y-46582795D01*
X178440226Y-46696063D01*
X178296063Y-46840226D01*
X178182795Y-47009744D01*
X178104774Y-47198102D01*
X178065000Y-47398061D01*
X176672187Y-47398061D01*
X176674236Y-47391309D01*
X176701943Y-47110000D01*
X176674236Y-46828691D01*
X176592182Y-46558192D01*
X176458932Y-46308899D01*
X176279608Y-46090392D01*
X176061101Y-45911068D01*
X175928142Y-45840000D01*
X176061101Y-45768932D01*
X176279608Y-45589608D01*
X176458932Y-45371101D01*
X176592182Y-45121808D01*
X176674236Y-44851309D01*
X176701943Y-44570000D01*
X176674236Y-44288691D01*
X176592182Y-44018192D01*
X176458932Y-43768899D01*
X176279608Y-43550392D01*
X176166518Y-43457581D01*
X176184482Y-43455812D01*
X176304180Y-43419502D01*
X176414494Y-43360537D01*
X176511185Y-43281185D01*
X176590537Y-43184494D01*
X176649502Y-43074180D01*
X176685812Y-42954482D01*
X176698072Y-42830000D01*
X176698072Y-41230000D01*
X176685812Y-41105518D01*
X176649502Y-40985820D01*
X176590537Y-40875506D01*
X176511185Y-40778815D01*
X176414494Y-40699463D01*
X176304180Y-40640498D01*
X176184482Y-40604188D01*
X176060000Y-40591928D01*
X174460000Y-40591928D01*
X174335518Y-40604188D01*
X174215820Y-40640498D01*
X174105506Y-40699463D01*
X174008815Y-40778815D01*
X173929463Y-40875506D01*
X173870498Y-40985820D01*
X173834188Y-41105518D01*
X173821928Y-41230000D01*
X173821928Y-41270000D01*
X173809822Y-41270000D01*
X173772499Y-41266324D01*
X173735177Y-41270000D01*
X173735167Y-41270000D01*
X173623514Y-41280997D01*
X173482574Y-41323750D01*
X173480253Y-41324454D01*
X173348223Y-41395026D01*
X173286714Y-41445506D01*
X173232499Y-41489999D01*
X173208701Y-41518997D01*
X172535770Y-42191928D01*
X171635000Y-42191928D01*
X171461746Y-42208992D01*
X171295150Y-42259528D01*
X171141614Y-42341595D01*
X171007038Y-42452038D01*
X170896595Y-42586614D01*
X170814528Y-42740150D01*
X170770624Y-42884884D01*
X170770000Y-42798250D01*
X170611250Y-42639500D01*
X169387000Y-42639500D01*
X169387000Y-43701250D01*
X169545750Y-43860000D01*
X170135000Y-43863072D01*
X170259482Y-43850812D01*
X170379180Y-43814502D01*
X170489494Y-43755537D01*
X170586185Y-43676185D01*
X170665537Y-43579494D01*
X170724502Y-43469180D01*
X170746928Y-43395251D01*
X170746928Y-44005000D01*
X170763992Y-44178254D01*
X170791532Y-44269040D01*
X170717485Y-44291502D01*
X170707753Y-44294454D01*
X170575723Y-44365026D01*
X170544999Y-44390241D01*
X170522522Y-44408687D01*
X170512962Y-44397038D01*
X170378386Y-44286595D01*
X170224850Y-44204528D01*
X170058254Y-44153992D01*
X169885000Y-44136928D01*
X168635000Y-44136928D01*
X168461746Y-44153992D01*
X168295150Y-44204528D01*
X168141614Y-44286595D01*
X168007038Y-44397038D01*
X167896595Y-44531614D01*
X167814528Y-44685150D01*
X167763992Y-44851746D01*
X167746928Y-45025000D01*
X167746928Y-45950000D01*
X167763992Y-46123254D01*
X167814528Y-46289850D01*
X167896595Y-46443386D01*
X168007038Y-46577962D01*
X168141614Y-46688405D01*
X168295150Y-46770472D01*
X168461746Y-46821008D01*
X168635000Y-46838072D01*
X169885000Y-46838072D01*
X170058254Y-46821008D01*
X170224850Y-46770472D01*
X170378386Y-46688405D01*
X170512962Y-46577962D01*
X170623405Y-46443386D01*
X170705472Y-46289850D01*
X170727752Y-46216402D01*
X170746928Y-46210585D01*
X170746928Y-46980000D01*
X170763992Y-47153254D01*
X170814528Y-47319850D01*
X170896595Y-47473386D01*
X171007038Y-47607962D01*
X171141614Y-47718405D01*
X171295150Y-47800472D01*
X171461746Y-47851008D01*
X171635000Y-47868072D01*
X172885000Y-47868072D01*
X173058254Y-47851008D01*
X173224850Y-47800472D01*
X173378386Y-47718405D01*
X173512962Y-47607962D01*
X173623405Y-47473386D01*
X173705472Y-47319850D01*
X173718319Y-47277500D01*
X173834555Y-47277500D01*
X173845764Y-47391309D01*
X173927818Y-47661808D01*
X174061068Y-47911101D01*
X174240392Y-48129608D01*
X174458899Y-48308932D01*
X174591858Y-48380000D01*
X174458899Y-48451068D01*
X174240392Y-48630392D01*
X174115560Y-48782500D01*
X173718319Y-48782500D01*
X173705472Y-48740150D01*
X173623405Y-48586614D01*
X173512962Y-48452038D01*
X173378386Y-48341595D01*
X173224850Y-48259528D01*
X173058254Y-48208992D01*
X172885000Y-48191928D01*
X171635000Y-48191928D01*
X171461746Y-48208992D01*
X171295150Y-48259528D01*
X171141614Y-48341595D01*
X171007038Y-48452038D01*
X170896595Y-48586614D01*
X170814528Y-48740150D01*
X170763992Y-48906746D01*
X170746928Y-49080000D01*
X170746928Y-50005000D01*
X170763992Y-50178254D01*
X170814528Y-50344850D01*
X170896595Y-50498386D01*
X171007038Y-50632962D01*
X171141614Y-50743405D01*
X171295150Y-50825472D01*
X171461746Y-50876008D01*
X171635000Y-50893072D01*
X172885000Y-50893072D01*
X173058254Y-50876008D01*
X173224850Y-50825472D01*
X173378386Y-50743405D01*
X173512962Y-50632962D01*
X173623405Y-50498386D01*
X173705472Y-50344850D01*
X173718319Y-50302500D01*
X173981639Y-50302500D01*
X174061068Y-50451101D01*
X174240392Y-50669608D01*
X174458899Y-50848932D01*
X174591858Y-50920000D01*
X174458899Y-50991068D01*
X174240392Y-51170392D01*
X174061068Y-51388899D01*
X173927818Y-51638192D01*
X173891627Y-51757500D01*
X173718319Y-51757500D01*
X173705472Y-51715150D01*
X173623405Y-51561614D01*
X173512962Y-51427038D01*
X173378386Y-51316595D01*
X173224850Y-51234528D01*
X173058254Y-51183992D01*
X172885000Y-51166928D01*
X171635000Y-51166928D01*
X171461746Y-51183992D01*
X171295150Y-51234528D01*
X171141614Y-51316595D01*
X171007038Y-51427038D01*
X170896595Y-51561614D01*
X170814528Y-51715150D01*
X170763992Y-51881746D01*
X170746928Y-52055000D01*
X170746928Y-52980000D01*
X170763992Y-53153254D01*
X170814528Y-53319850D01*
X170896595Y-53473386D01*
X171007038Y-53607962D01*
X171141614Y-53718405D01*
X171186650Y-53742478D01*
X171144538Y-53777038D01*
X171034095Y-53911614D01*
X170952028Y-54065150D01*
X170901492Y-54231746D01*
X170884428Y-54405000D01*
X170884428Y-55655000D01*
X170901492Y-55828254D01*
X170952028Y-55994850D01*
X171034095Y-56148386D01*
X171144538Y-56282962D01*
X171279114Y-56393405D01*
X171432650Y-56475472D01*
X171599246Y-56526008D01*
X171772500Y-56543072D01*
X172697500Y-56543072D01*
X172870754Y-56526008D01*
X173037350Y-56475472D01*
X173190886Y-56393405D01*
X173325462Y-56282962D01*
X173435905Y-56148386D01*
X173517972Y-55994850D01*
X173568508Y-55828254D01*
X173572276Y-55790000D01*
X174289610Y-55790000D01*
X174458899Y-55928932D01*
X174591858Y-56000000D01*
X174458899Y-56071068D01*
X174240392Y-56250392D01*
X174061068Y-56468899D01*
X173927818Y-56718192D01*
X173845764Y-56988691D01*
X173818057Y-57270000D01*
X173845764Y-57551309D01*
X173859292Y-57595907D01*
X173623997Y-57831202D01*
X173594999Y-57855000D01*
X173571201Y-57883998D01*
X173571200Y-57883999D01*
X173500025Y-57970725D01*
X173429453Y-58102755D01*
X173385997Y-58246016D01*
X173371323Y-58395001D01*
X173375000Y-58432334D01*
X173374999Y-78800199D01*
X169562081Y-82613118D01*
X169550000Y-82611928D01*
X169085750Y-82615000D01*
X168927000Y-82773750D01*
X168927000Y-83873000D01*
X168947000Y-83873000D01*
X168947000Y-84127000D01*
X168927000Y-84127000D01*
X168927000Y-84147000D01*
X168673000Y-84147000D01*
X168673000Y-84127000D01*
X167573750Y-84127000D01*
X167415000Y-84285750D01*
X167411928Y-84750000D01*
X167424188Y-84874482D01*
X167460498Y-84994180D01*
X167519463Y-85104494D01*
X167598815Y-85201185D01*
X167695506Y-85280537D01*
X167805820Y-85339502D01*
X167925518Y-85375812D01*
X168033483Y-85386445D01*
X167917114Y-85464201D01*
X167724201Y-85657114D01*
X167572629Y-85883957D01*
X167468225Y-86136011D01*
X167415000Y-86403589D01*
X167415000Y-86676411D01*
X167468225Y-86943989D01*
X167572629Y-87196043D01*
X167724201Y-87422886D01*
X167917114Y-87615799D01*
X168143957Y-87767371D01*
X168243279Y-87808511D01*
X168201168Y-87823723D01*
X168088137Y-87884140D01*
X168022612Y-88123007D01*
X168800000Y-88900395D01*
X169577388Y-88123007D01*
X169511863Y-87884140D01*
X169353523Y-87809836D01*
X169456043Y-87767371D01*
X169682886Y-87615799D01*
X169875799Y-87422886D01*
X170027371Y-87196043D01*
X170131775Y-86943989D01*
X170185000Y-86676411D01*
X170185000Y-86403589D01*
X170156167Y-86258635D01*
X170378618Y-86036184D01*
X170383007Y-86037388D01*
X171160395Y-85260000D01*
X171146253Y-85245858D01*
X171325858Y-85066253D01*
X171340000Y-85080395D01*
X172117388Y-84303007D01*
X172051863Y-84064140D01*
X171804884Y-83948240D01*
X171540040Y-83882750D01*
X171267508Y-83870188D01*
X170997762Y-83911035D01*
X170741168Y-84003723D01*
X170635010Y-84060466D01*
X170635010Y-83689791D01*
X174500001Y-79824801D01*
X174500001Y-83565197D01*
X172722666Y-85342532D01*
X172729812Y-85187508D01*
X172688965Y-84917762D01*
X172596277Y-84661168D01*
X172535860Y-84548137D01*
X172296993Y-84482612D01*
X171519605Y-85260000D01*
X171533748Y-85274143D01*
X171354143Y-85453748D01*
X171340000Y-85439605D01*
X170562612Y-86216993D01*
X170628137Y-86455860D01*
X170786477Y-86530164D01*
X170683957Y-86572629D01*
X170457114Y-86724201D01*
X170264201Y-86917114D01*
X170112629Y-87143957D01*
X170008225Y-87396011D01*
X169955000Y-87663589D01*
X169955000Y-87936411D01*
X170008225Y-88203989D01*
X170112629Y-88456043D01*
X170264201Y-88682886D01*
X170457114Y-88875799D01*
X170683957Y-89027371D01*
X170786873Y-89070000D01*
X170683957Y-89112629D01*
X170457114Y-89264201D01*
X170264201Y-89457114D01*
X170112629Y-89683957D01*
X170008225Y-89936011D01*
X169955000Y-90203589D01*
X169955000Y-90476411D01*
X170008225Y-90743989D01*
X170112629Y-90996043D01*
X170264201Y-91222886D01*
X170457114Y-91415799D01*
X170683957Y-91567371D01*
X170786873Y-91610000D01*
X170683957Y-91652629D01*
X170457114Y-91804201D01*
X170264201Y-91997114D01*
X170112629Y-92223957D01*
X170008225Y-92476011D01*
X169955000Y-92743589D01*
X169955000Y-93016411D01*
X170008225Y-93283989D01*
X170112629Y-93536043D01*
X170264201Y-93762886D01*
X170457114Y-93955799D01*
X170683957Y-94107371D01*
X170936011Y-94211775D01*
X171203589Y-94265000D01*
X171476411Y-94265000D01*
X171743989Y-94211775D01*
X171996043Y-94107371D01*
X172222886Y-93955799D01*
X172415799Y-93762886D01*
X172567371Y-93536043D01*
X172671775Y-93283989D01*
X172725000Y-93016411D01*
X172725000Y-92743589D01*
X172671775Y-92476011D01*
X172567371Y-92223957D01*
X172415799Y-91997114D01*
X172222886Y-91804201D01*
X171996043Y-91652629D01*
X171893127Y-91610000D01*
X171996043Y-91567371D01*
X172222886Y-91415799D01*
X172415799Y-91222886D01*
X172567371Y-90996043D01*
X172671775Y-90743989D01*
X172725000Y-90476411D01*
X172725000Y-90203589D01*
X172671775Y-89936011D01*
X172567371Y-89683957D01*
X172415799Y-89457114D01*
X172222886Y-89264201D01*
X171996043Y-89112629D01*
X171893127Y-89070000D01*
X171996043Y-89027371D01*
X172222886Y-88875799D01*
X172415799Y-88682886D01*
X172567371Y-88456043D01*
X172671775Y-88203989D01*
X172725000Y-87936411D01*
X172725000Y-87663589D01*
X172696167Y-87518635D01*
X174641335Y-85573467D01*
X174499078Y-102273000D01*
X163527000Y-102273000D01*
X163527000Y-100750000D01*
X167007815Y-100750000D01*
X167036487Y-101041111D01*
X167121401Y-101321034D01*
X167259294Y-101579014D01*
X167444866Y-101805134D01*
X167670986Y-101990706D01*
X167928966Y-102128599D01*
X168208889Y-102213513D01*
X168427050Y-102235000D01*
X168572950Y-102235000D01*
X168791111Y-102213513D01*
X169071034Y-102128599D01*
X169329014Y-101990706D01*
X169555134Y-101805134D01*
X169579607Y-101775313D01*
X169600498Y-101844180D01*
X169659463Y-101954494D01*
X169738815Y-102051185D01*
X169835506Y-102130537D01*
X169945820Y-102189502D01*
X170065518Y-102225812D01*
X170190000Y-102238072D01*
X171890000Y-102238072D01*
X172014482Y-102225812D01*
X172134180Y-102189502D01*
X172244494Y-102130537D01*
X172341185Y-102051185D01*
X172420537Y-101954494D01*
X172479502Y-101844180D01*
X172515812Y-101724482D01*
X172528072Y-101600000D01*
X172528072Y-99900000D01*
X172515812Y-99775518D01*
X172479502Y-99655820D01*
X172420537Y-99545506D01*
X172341185Y-99448815D01*
X172244494Y-99369463D01*
X172134180Y-99310498D01*
X172014482Y-99274188D01*
X171890000Y-99261928D01*
X170190000Y-99261928D01*
X170065518Y-99274188D01*
X169945820Y-99310498D01*
X169835506Y-99369463D01*
X169738815Y-99448815D01*
X169659463Y-99545506D01*
X169600498Y-99655820D01*
X169579607Y-99724687D01*
X169555134Y-99694866D01*
X169329014Y-99509294D01*
X169071034Y-99371401D01*
X168791111Y-99286487D01*
X168572950Y-99265000D01*
X168427050Y-99265000D01*
X168208889Y-99286487D01*
X167928966Y-99371401D01*
X167670986Y-99509294D01*
X167444866Y-99694866D01*
X167259294Y-99920986D01*
X167121401Y-100178966D01*
X167036487Y-100458889D01*
X167007815Y-100750000D01*
X163527000Y-100750000D01*
X163527000Y-97600000D01*
X163524560Y-97575224D01*
X163517333Y-97551399D01*
X163505597Y-97529443D01*
X163489803Y-97510197D01*
X163470557Y-97494403D01*
X163448601Y-97482667D01*
X163424776Y-97475440D01*
X163400000Y-97473000D01*
X156627000Y-97473000D01*
X156627000Y-93932409D01*
X160540000Y-93932409D01*
X160540000Y-94377591D01*
X160626851Y-94814218D01*
X160797214Y-95225511D01*
X161044544Y-95595666D01*
X161359334Y-95910456D01*
X161729489Y-96157786D01*
X162140782Y-96328149D01*
X162577409Y-96415000D01*
X163022591Y-96415000D01*
X163459218Y-96328149D01*
X163870511Y-96157786D01*
X163914607Y-96128322D01*
X163909025Y-96185000D01*
X163932870Y-96427102D01*
X164003489Y-96659901D01*
X164118167Y-96874449D01*
X164272498Y-97062502D01*
X164460551Y-97216833D01*
X164675099Y-97331511D01*
X164907898Y-97402130D01*
X165089335Y-97420000D01*
X166510665Y-97420000D01*
X166692102Y-97402130D01*
X166924901Y-97331511D01*
X167139449Y-97216833D01*
X167327502Y-97062502D01*
X167481833Y-96874449D01*
X167596511Y-96659901D01*
X167667130Y-96427102D01*
X167690975Y-96185000D01*
X167667130Y-95942898D01*
X167596511Y-95710099D01*
X167481833Y-95495551D01*
X167327502Y-95307498D01*
X167139449Y-95153167D01*
X166924901Y-95038489D01*
X166692102Y-94967870D01*
X166510665Y-94950000D01*
X165089335Y-94950000D01*
X164909573Y-94967705D01*
X164973149Y-94814218D01*
X165060000Y-94377591D01*
X165060000Y-93932409D01*
X164973149Y-93495782D01*
X164802786Y-93084489D01*
X164555456Y-92714334D01*
X164240666Y-92399544D01*
X163870511Y-92152214D01*
X163459218Y-91981851D01*
X163022591Y-91895000D01*
X162577409Y-91895000D01*
X162140782Y-91981851D01*
X161729489Y-92152214D01*
X161359334Y-92399544D01*
X161044544Y-92714334D01*
X160797214Y-93084489D01*
X160626851Y-93495782D01*
X160540000Y-93932409D01*
X156627000Y-93932409D01*
X156627000Y-91483589D01*
X167415000Y-91483589D01*
X167415000Y-91756411D01*
X167468225Y-92023989D01*
X167572629Y-92276043D01*
X167724201Y-92502886D01*
X167917114Y-92695799D01*
X168143957Y-92847371D01*
X168396011Y-92951775D01*
X168663589Y-93005000D01*
X168936411Y-93005000D01*
X169203989Y-92951775D01*
X169456043Y-92847371D01*
X169682886Y-92695799D01*
X169875799Y-92502886D01*
X170027371Y-92276043D01*
X170131775Y-92023989D01*
X170185000Y-91756411D01*
X170185000Y-91483589D01*
X170131775Y-91216011D01*
X170027371Y-90963957D01*
X169875799Y-90737114D01*
X169682886Y-90544201D01*
X169456043Y-90392629D01*
X169356721Y-90351489D01*
X169398832Y-90336277D01*
X169511863Y-90275860D01*
X169577388Y-90036993D01*
X168800000Y-89259605D01*
X168022612Y-90036993D01*
X168088137Y-90275860D01*
X168246477Y-90350164D01*
X168143957Y-90392629D01*
X167917114Y-90544201D01*
X167724201Y-90737114D01*
X167572629Y-90963957D01*
X167468225Y-91216011D01*
X167415000Y-91483589D01*
X156627000Y-91483589D01*
X156627000Y-89152492D01*
X167410188Y-89152492D01*
X167451035Y-89422238D01*
X167543723Y-89678832D01*
X167604140Y-89791863D01*
X167843007Y-89857388D01*
X168620395Y-89080000D01*
X168979605Y-89080000D01*
X169756993Y-89857388D01*
X169995860Y-89791863D01*
X170111760Y-89544884D01*
X170177250Y-89280040D01*
X170189812Y-89007508D01*
X170148965Y-88737762D01*
X170056277Y-88481168D01*
X169995860Y-88368137D01*
X169756993Y-88302612D01*
X168979605Y-89080000D01*
X168620395Y-89080000D01*
X167843007Y-88302612D01*
X167604140Y-88368137D01*
X167488240Y-88615116D01*
X167422750Y-88879960D01*
X167410188Y-89152492D01*
X156627000Y-89152492D01*
X156627000Y-82502409D01*
X160540000Y-82502409D01*
X160540000Y-82947591D01*
X160626851Y-83384218D01*
X160797214Y-83795511D01*
X161044544Y-84165666D01*
X161359334Y-84480456D01*
X161729489Y-84727786D01*
X162140782Y-84898149D01*
X162577409Y-84985000D01*
X163022591Y-84985000D01*
X163459218Y-84898149D01*
X163870511Y-84727786D01*
X164240666Y-84480456D01*
X164555456Y-84165666D01*
X164802786Y-83795511D01*
X164973149Y-83384218D01*
X164999846Y-83250000D01*
X167411928Y-83250000D01*
X167415000Y-83714250D01*
X167573750Y-83873000D01*
X168673000Y-83873000D01*
X168673000Y-82773750D01*
X168514250Y-82615000D01*
X168050000Y-82611928D01*
X167925518Y-82624188D01*
X167805820Y-82660498D01*
X167695506Y-82719463D01*
X167598815Y-82798815D01*
X167519463Y-82895506D01*
X167460498Y-83005820D01*
X167424188Y-83125518D01*
X167411928Y-83250000D01*
X164999846Y-83250000D01*
X165060000Y-82947591D01*
X165060000Y-82502409D01*
X164973149Y-82065782D01*
X164909573Y-81912295D01*
X165089335Y-81930000D01*
X166510665Y-81930000D01*
X166692102Y-81912130D01*
X166924901Y-81841511D01*
X167139449Y-81726833D01*
X167327502Y-81572502D01*
X167481833Y-81384449D01*
X167596511Y-81169901D01*
X167667130Y-80937102D01*
X167690975Y-80695000D01*
X167667130Y-80452898D01*
X167596511Y-80220099D01*
X167481833Y-80005551D01*
X167327502Y-79817498D01*
X167139449Y-79663167D01*
X166924901Y-79548489D01*
X166692102Y-79477870D01*
X166510665Y-79460000D01*
X165089335Y-79460000D01*
X164907898Y-79477870D01*
X164675099Y-79548489D01*
X164460551Y-79663167D01*
X164272498Y-79817498D01*
X164118167Y-80005551D01*
X164003489Y-80220099D01*
X163932870Y-80452898D01*
X163909025Y-80695000D01*
X163914607Y-80751678D01*
X163870511Y-80722214D01*
X163459218Y-80551851D01*
X163022591Y-80465000D01*
X162577409Y-80465000D01*
X162140782Y-80551851D01*
X161729489Y-80722214D01*
X161359334Y-80969544D01*
X161044544Y-81284334D01*
X160797214Y-81654489D01*
X160626851Y-82065782D01*
X160540000Y-82502409D01*
X156627000Y-82502409D01*
X156627000Y-75333329D01*
X162307284Y-75333329D01*
X162315558Y-75383443D01*
X162415044Y-75626657D01*
X162560067Y-75845789D01*
X162745054Y-76032418D01*
X162962896Y-76179372D01*
X163205222Y-76281003D01*
X163462719Y-76333406D01*
X163673000Y-76179715D01*
X163673000Y-75127000D01*
X163927000Y-75127000D01*
X163927000Y-76179715D01*
X164137281Y-76333406D01*
X164394778Y-76281003D01*
X164637104Y-76179372D01*
X164854946Y-76032418D01*
X165039933Y-75845789D01*
X165184956Y-75626657D01*
X165284442Y-75383443D01*
X165292716Y-75333329D01*
X169307284Y-75333329D01*
X169315558Y-75383443D01*
X169415044Y-75626657D01*
X169560067Y-75845789D01*
X169745054Y-76032418D01*
X169962896Y-76179372D01*
X170205222Y-76281003D01*
X170462719Y-76333406D01*
X170673000Y-76179715D01*
X170673000Y-75127000D01*
X170927000Y-75127000D01*
X170927000Y-76179715D01*
X171137281Y-76333406D01*
X171394778Y-76281003D01*
X171637104Y-76179372D01*
X171854946Y-76032418D01*
X172039933Y-75845789D01*
X172184956Y-75626657D01*
X172284442Y-75383443D01*
X172292716Y-75333329D01*
X172169374Y-75127000D01*
X170927000Y-75127000D01*
X170673000Y-75127000D01*
X169430626Y-75127000D01*
X169307284Y-75333329D01*
X165292716Y-75333329D01*
X165169374Y-75127000D01*
X163927000Y-75127000D01*
X163673000Y-75127000D01*
X162430626Y-75127000D01*
X162307284Y-75333329D01*
X156627000Y-75333329D01*
X156627000Y-74666671D01*
X162307284Y-74666671D01*
X162430626Y-74873000D01*
X163673000Y-74873000D01*
X163673000Y-73820285D01*
X163927000Y-73820285D01*
X163927000Y-74873000D01*
X165169374Y-74873000D01*
X165292716Y-74666671D01*
X169307284Y-74666671D01*
X169430626Y-74873000D01*
X170673000Y-74873000D01*
X170673000Y-73820285D01*
X170927000Y-73820285D01*
X170927000Y-74873000D01*
X172169374Y-74873000D01*
X172292716Y-74666671D01*
X172284442Y-74616557D01*
X172184956Y-74373343D01*
X172039933Y-74154211D01*
X171854946Y-73967582D01*
X171637104Y-73820628D01*
X171394778Y-73718997D01*
X171137281Y-73666594D01*
X170927000Y-73820285D01*
X170673000Y-73820285D01*
X170462719Y-73666594D01*
X170205222Y-73718997D01*
X169962896Y-73820628D01*
X169745054Y-73967582D01*
X169560067Y-74154211D01*
X169415044Y-74373343D01*
X169315558Y-74616557D01*
X169307284Y-74666671D01*
X165292716Y-74666671D01*
X165284442Y-74616557D01*
X165184956Y-74373343D01*
X165039933Y-74154211D01*
X164854946Y-73967582D01*
X164637104Y-73820628D01*
X164394778Y-73718997D01*
X164137281Y-73666594D01*
X163927000Y-73820285D01*
X163673000Y-73820285D01*
X163462719Y-73666594D01*
X163205222Y-73718997D01*
X162962896Y-73820628D01*
X162745054Y-73967582D01*
X162560067Y-74154211D01*
X162415044Y-74373343D01*
X162315558Y-74616557D01*
X162307284Y-74666671D01*
X156627000Y-74666671D01*
X156627000Y-71862408D01*
X163203000Y-71862408D01*
X163203000Y-72137592D01*
X163256686Y-72407490D01*
X163361995Y-72661727D01*
X163514880Y-72890535D01*
X163709465Y-73085120D01*
X163938273Y-73238005D01*
X164192510Y-73343314D01*
X164462408Y-73397000D01*
X164737592Y-73397000D01*
X165007490Y-73343314D01*
X165261727Y-73238005D01*
X165490535Y-73085120D01*
X165600000Y-72975655D01*
X165709465Y-73085120D01*
X165938273Y-73238005D01*
X166192510Y-73343314D01*
X166462408Y-73397000D01*
X166737592Y-73397000D01*
X167007490Y-73343314D01*
X167261727Y-73238005D01*
X167490535Y-73085120D01*
X167600000Y-72975655D01*
X167709465Y-73085120D01*
X167938273Y-73238005D01*
X168192510Y-73343314D01*
X168462408Y-73397000D01*
X168737592Y-73397000D01*
X169007490Y-73343314D01*
X169261727Y-73238005D01*
X169490535Y-73085120D01*
X169610090Y-72965565D01*
X169814040Y-72965565D01*
X169881020Y-73205656D01*
X170130048Y-73322756D01*
X170397135Y-73389023D01*
X170672017Y-73401910D01*
X170944133Y-73360922D01*
X171203023Y-73267636D01*
X171318980Y-73205656D01*
X171385960Y-72965565D01*
X170600000Y-72179605D01*
X169814040Y-72965565D01*
X169610090Y-72965565D01*
X169685120Y-72890535D01*
X169838005Y-72661727D01*
X169894105Y-72526290D01*
X170420395Y-72000000D01*
X170779605Y-72000000D01*
X171565565Y-72785960D01*
X171805656Y-72718980D01*
X171922756Y-72469952D01*
X171989023Y-72202865D01*
X172001910Y-71927983D01*
X171960922Y-71655867D01*
X171867636Y-71396977D01*
X171805656Y-71281020D01*
X171565565Y-71214040D01*
X170779605Y-72000000D01*
X170420395Y-72000000D01*
X169894105Y-71473710D01*
X169838005Y-71338273D01*
X169685120Y-71109465D01*
X169610090Y-71034435D01*
X169814040Y-71034435D01*
X170600000Y-71820395D01*
X171385960Y-71034435D01*
X171318980Y-70794344D01*
X171069952Y-70677244D01*
X170802865Y-70610977D01*
X170527983Y-70598090D01*
X170255867Y-70639078D01*
X169996977Y-70732364D01*
X169881020Y-70794344D01*
X169814040Y-71034435D01*
X169610090Y-71034435D01*
X169490535Y-70914880D01*
X169261727Y-70761995D01*
X169007490Y-70656686D01*
X168737592Y-70603000D01*
X168462408Y-70603000D01*
X168192510Y-70656686D01*
X167938273Y-70761995D01*
X167709465Y-70914880D01*
X167600000Y-71024345D01*
X167490535Y-70914880D01*
X167261727Y-70761995D01*
X167007490Y-70656686D01*
X166737592Y-70603000D01*
X166462408Y-70603000D01*
X166192510Y-70656686D01*
X165938273Y-70761995D01*
X165709465Y-70914880D01*
X165600000Y-71024345D01*
X165490535Y-70914880D01*
X165261727Y-70761995D01*
X165007490Y-70656686D01*
X164737592Y-70603000D01*
X164462408Y-70603000D01*
X164192510Y-70656686D01*
X163938273Y-70761995D01*
X163709465Y-70914880D01*
X163514880Y-71109465D01*
X163361995Y-71338273D01*
X163256686Y-71592510D01*
X163203000Y-71862408D01*
X156627000Y-71862408D01*
X156627000Y-69333329D01*
X162307284Y-69333329D01*
X162315558Y-69383443D01*
X162415044Y-69626657D01*
X162560067Y-69845789D01*
X162745054Y-70032418D01*
X162962896Y-70179372D01*
X163205222Y-70281003D01*
X163462719Y-70333406D01*
X163673000Y-70179715D01*
X163673000Y-69127000D01*
X163927000Y-69127000D01*
X163927000Y-70179715D01*
X164137281Y-70333406D01*
X164394778Y-70281003D01*
X164637104Y-70179372D01*
X164854946Y-70032418D01*
X165039933Y-69845789D01*
X165184956Y-69626657D01*
X165284442Y-69383443D01*
X165292716Y-69333329D01*
X169307284Y-69333329D01*
X169315558Y-69383443D01*
X169415044Y-69626657D01*
X169560067Y-69845789D01*
X169745054Y-70032418D01*
X169962896Y-70179372D01*
X170205222Y-70281003D01*
X170462719Y-70333406D01*
X170673000Y-70179715D01*
X170673000Y-69127000D01*
X170927000Y-69127000D01*
X170927000Y-70179715D01*
X171137281Y-70333406D01*
X171394778Y-70281003D01*
X171637104Y-70179372D01*
X171854946Y-70032418D01*
X172039933Y-69845789D01*
X172184956Y-69626657D01*
X172284442Y-69383443D01*
X172292716Y-69333329D01*
X172169374Y-69127000D01*
X170927000Y-69127000D01*
X170673000Y-69127000D01*
X169430626Y-69127000D01*
X169307284Y-69333329D01*
X165292716Y-69333329D01*
X165169374Y-69127000D01*
X163927000Y-69127000D01*
X163673000Y-69127000D01*
X162430626Y-69127000D01*
X162307284Y-69333329D01*
X156627000Y-69333329D01*
X156627000Y-68666671D01*
X162307284Y-68666671D01*
X162430626Y-68873000D01*
X163673000Y-68873000D01*
X163673000Y-67820285D01*
X163927000Y-67820285D01*
X163927000Y-68873000D01*
X165169374Y-68873000D01*
X165292716Y-68666671D01*
X169307284Y-68666671D01*
X169430626Y-68873000D01*
X170673000Y-68873000D01*
X170673000Y-67820285D01*
X170927000Y-67820285D01*
X170927000Y-68873000D01*
X172169374Y-68873000D01*
X172292716Y-68666671D01*
X172284442Y-68616557D01*
X172184956Y-68373343D01*
X172039933Y-68154211D01*
X171854946Y-67967582D01*
X171637104Y-67820628D01*
X171394778Y-67718997D01*
X171137281Y-67666594D01*
X170927000Y-67820285D01*
X170673000Y-67820285D01*
X170462719Y-67666594D01*
X170205222Y-67718997D01*
X169962896Y-67820628D01*
X169745054Y-67967582D01*
X169560067Y-68154211D01*
X169415044Y-68373343D01*
X169315558Y-68616557D01*
X169307284Y-68666671D01*
X165292716Y-68666671D01*
X165284442Y-68616557D01*
X165184956Y-68373343D01*
X165039933Y-68154211D01*
X164854946Y-67967582D01*
X164637104Y-67820628D01*
X164394778Y-67718997D01*
X164137281Y-67666594D01*
X163927000Y-67820285D01*
X163673000Y-67820285D01*
X163462719Y-67666594D01*
X163205222Y-67718997D01*
X162962896Y-67820628D01*
X162745054Y-67967582D01*
X162560067Y-68154211D01*
X162415044Y-68373343D01*
X162315558Y-68616557D01*
X162307284Y-68666671D01*
X156627000Y-68666671D01*
X156627000Y-61740475D01*
X160695000Y-61740475D01*
X160695000Y-62259525D01*
X160796261Y-62768601D01*
X160994893Y-63248141D01*
X161283262Y-63679715D01*
X161650285Y-64046738D01*
X162081859Y-64335107D01*
X162561399Y-64533739D01*
X163070475Y-64635000D01*
X163589525Y-64635000D01*
X164098601Y-64533739D01*
X164578141Y-64335107D01*
X165009715Y-64046738D01*
X165376738Y-63679715D01*
X165665107Y-63248141D01*
X165863739Y-62768601D01*
X165965000Y-62259525D01*
X165965000Y-61740475D01*
X165863739Y-61231399D01*
X165665107Y-60751859D01*
X165376738Y-60320285D01*
X165009715Y-59953262D01*
X164578141Y-59664893D01*
X164098601Y-59466261D01*
X163589525Y-59365000D01*
X163070475Y-59365000D01*
X162561399Y-59466261D01*
X162081859Y-59664893D01*
X161650285Y-59953262D01*
X161283262Y-60320285D01*
X160994893Y-60751859D01*
X160796261Y-61231399D01*
X160695000Y-61740475D01*
X156627000Y-61740475D01*
X156627000Y-45163665D01*
X160625000Y-45163665D01*
X160625000Y-45446335D01*
X160680147Y-45723574D01*
X160788320Y-45984727D01*
X160945363Y-46219759D01*
X161145241Y-46419637D01*
X161380273Y-46576680D01*
X161641426Y-46684853D01*
X161667301Y-46690000D01*
X161641426Y-46695147D01*
X161380273Y-46803320D01*
X161145241Y-46960363D01*
X160945363Y-47160241D01*
X160788320Y-47395273D01*
X160680147Y-47656426D01*
X160625000Y-47933665D01*
X160625000Y-48216335D01*
X160680147Y-48493574D01*
X160788320Y-48754727D01*
X160945363Y-48989759D01*
X161145241Y-49189637D01*
X161380273Y-49346680D01*
X161641426Y-49454853D01*
X161667301Y-49460000D01*
X161641426Y-49465147D01*
X161380273Y-49573320D01*
X161145241Y-49730363D01*
X160945363Y-49930241D01*
X160788320Y-50165273D01*
X160680147Y-50426426D01*
X160625000Y-50703665D01*
X160625000Y-50986335D01*
X160680147Y-51263574D01*
X160788320Y-51524727D01*
X160945363Y-51759759D01*
X161145241Y-51959637D01*
X161380273Y-52116680D01*
X161641426Y-52224853D01*
X161667301Y-52230000D01*
X161641426Y-52235147D01*
X161380273Y-52343320D01*
X161145241Y-52500363D01*
X160945363Y-52700241D01*
X160788320Y-52935273D01*
X160680147Y-53196426D01*
X160625000Y-53473665D01*
X160625000Y-53756335D01*
X160680147Y-54033574D01*
X160788320Y-54294727D01*
X160945363Y-54529759D01*
X161145241Y-54729637D01*
X161380273Y-54886680D01*
X161641426Y-54994853D01*
X161918665Y-55050000D01*
X162201335Y-55050000D01*
X162478574Y-54994853D01*
X162739727Y-54886680D01*
X162974759Y-54729637D01*
X163161928Y-54542468D01*
X163161928Y-55800000D01*
X163174188Y-55924482D01*
X163210498Y-56044180D01*
X163269463Y-56154494D01*
X163348815Y-56251185D01*
X163445506Y-56330537D01*
X163555820Y-56389502D01*
X163675518Y-56425812D01*
X163800000Y-56438072D01*
X165400000Y-56438072D01*
X165524482Y-56425812D01*
X165644180Y-56389502D01*
X165754494Y-56330537D01*
X165851185Y-56251185D01*
X165930537Y-56154494D01*
X165989502Y-56044180D01*
X166025812Y-55924482D01*
X166027730Y-55905000D01*
X167909428Y-55905000D01*
X167921688Y-56029482D01*
X167957998Y-56149180D01*
X168016963Y-56259494D01*
X168096315Y-56356185D01*
X168193006Y-56435537D01*
X168303320Y-56494502D01*
X168423018Y-56530812D01*
X168547500Y-56543072D01*
X168974250Y-56540000D01*
X169133000Y-56381250D01*
X169133000Y-55157000D01*
X169387000Y-55157000D01*
X169387000Y-56381250D01*
X169545750Y-56540000D01*
X169972500Y-56543072D01*
X170096982Y-56530812D01*
X170216680Y-56494502D01*
X170326994Y-56435537D01*
X170423685Y-56356185D01*
X170503037Y-56259494D01*
X170562002Y-56149180D01*
X170598312Y-56029482D01*
X170610572Y-55905000D01*
X170607500Y-55315750D01*
X170448750Y-55157000D01*
X169387000Y-55157000D01*
X169133000Y-55157000D01*
X168071250Y-55157000D01*
X167912500Y-55315750D01*
X167909428Y-55905000D01*
X166027730Y-55905000D01*
X166038072Y-55800000D01*
X166038072Y-54200000D01*
X166033641Y-54155000D01*
X167909428Y-54155000D01*
X167912500Y-54744250D01*
X168071250Y-54903000D01*
X169133000Y-54903000D01*
X169133000Y-53678750D01*
X169387000Y-53678750D01*
X169387000Y-54903000D01*
X170448750Y-54903000D01*
X170607500Y-54744250D01*
X170610572Y-54155000D01*
X170598312Y-54030518D01*
X170562002Y-53910820D01*
X170503037Y-53800506D01*
X170423685Y-53703815D01*
X170326994Y-53624463D01*
X170216680Y-53565498D01*
X170096982Y-53529188D01*
X169972500Y-53516928D01*
X169545750Y-53520000D01*
X169387000Y-53678750D01*
X169133000Y-53678750D01*
X168974250Y-53520000D01*
X168547500Y-53516928D01*
X168423018Y-53529188D01*
X168303320Y-53565498D01*
X168193006Y-53624463D01*
X168096315Y-53703815D01*
X168016963Y-53800506D01*
X167957998Y-53910820D01*
X167921688Y-54030518D01*
X167909428Y-54155000D01*
X166033641Y-54155000D01*
X166025812Y-54075518D01*
X165989502Y-53955820D01*
X165930537Y-53845506D01*
X165851185Y-53748815D01*
X165754494Y-53669463D01*
X165644180Y-53610498D01*
X165524482Y-53574188D01*
X165400000Y-53561928D01*
X165134275Y-53561928D01*
X165279727Y-53501680D01*
X165514759Y-53344637D01*
X165714637Y-53144759D01*
X165871680Y-52909727D01*
X165979853Y-52648574D01*
X166035000Y-52371335D01*
X166035000Y-52088665D01*
X165979853Y-51811426D01*
X165871680Y-51550273D01*
X165714637Y-51315241D01*
X165514759Y-51115363D01*
X165279727Y-50958320D01*
X165018574Y-50850147D01*
X164992699Y-50845000D01*
X165018574Y-50839853D01*
X165279727Y-50731680D01*
X165514759Y-50574637D01*
X165714637Y-50374759D01*
X165871680Y-50139727D01*
X165979853Y-49878574D01*
X166035000Y-49601335D01*
X166035000Y-49318665D01*
X165979853Y-49041426D01*
X165871680Y-48780273D01*
X165714637Y-48545241D01*
X165514759Y-48345363D01*
X165279727Y-48188320D01*
X165018574Y-48080147D01*
X164992699Y-48075000D01*
X165018574Y-48069853D01*
X165279727Y-47961680D01*
X165514759Y-47804637D01*
X165714637Y-47604759D01*
X165871680Y-47369727D01*
X165979853Y-47108574D01*
X166035000Y-46831335D01*
X166035000Y-46548665D01*
X165979853Y-46271426D01*
X165871680Y-46010273D01*
X165714637Y-45775241D01*
X165514759Y-45575363D01*
X165279727Y-45418320D01*
X165018574Y-45310147D01*
X164990118Y-45304487D01*
X165216292Y-45223603D01*
X165341514Y-45156671D01*
X165413097Y-44912702D01*
X164600000Y-44099605D01*
X163786903Y-44912702D01*
X163858486Y-45156671D01*
X164113996Y-45277571D01*
X164216289Y-45303212D01*
X164181426Y-45310147D01*
X163920273Y-45418320D01*
X163685241Y-45575363D01*
X163485363Y-45775241D01*
X163328320Y-46010273D01*
X163220147Y-46271426D01*
X163165000Y-46548665D01*
X163165000Y-46831335D01*
X163220147Y-47108574D01*
X163328320Y-47369727D01*
X163485363Y-47604759D01*
X163685241Y-47804637D01*
X163920273Y-47961680D01*
X164181426Y-48069853D01*
X164207301Y-48075000D01*
X164181426Y-48080147D01*
X163920273Y-48188320D01*
X163685241Y-48345363D01*
X163485363Y-48545241D01*
X163328320Y-48780273D01*
X163220147Y-49041426D01*
X163165000Y-49318665D01*
X163165000Y-49601335D01*
X163220147Y-49878574D01*
X163328320Y-50139727D01*
X163485363Y-50374759D01*
X163685241Y-50574637D01*
X163920273Y-50731680D01*
X164181426Y-50839853D01*
X164207301Y-50845000D01*
X164181426Y-50850147D01*
X163920273Y-50958320D01*
X163685241Y-51115363D01*
X163485363Y-51315241D01*
X163328320Y-51550273D01*
X163220147Y-51811426D01*
X163165000Y-52088665D01*
X163165000Y-52371335D01*
X163220147Y-52648574D01*
X163328320Y-52909727D01*
X163485363Y-53144759D01*
X163685241Y-53344637D01*
X163920273Y-53501680D01*
X164065725Y-53561928D01*
X163800000Y-53561928D01*
X163675518Y-53574188D01*
X163555820Y-53610498D01*
X163495000Y-53643007D01*
X163495000Y-53473665D01*
X163439853Y-53196426D01*
X163331680Y-52935273D01*
X163174637Y-52700241D01*
X162974759Y-52500363D01*
X162739727Y-52343320D01*
X162478574Y-52235147D01*
X162452699Y-52230000D01*
X162478574Y-52224853D01*
X162739727Y-52116680D01*
X162974759Y-51959637D01*
X163174637Y-51759759D01*
X163331680Y-51524727D01*
X163439853Y-51263574D01*
X163495000Y-50986335D01*
X163495000Y-50703665D01*
X163439853Y-50426426D01*
X163331680Y-50165273D01*
X163174637Y-49930241D01*
X162974759Y-49730363D01*
X162739727Y-49573320D01*
X162478574Y-49465147D01*
X162452699Y-49460000D01*
X162478574Y-49454853D01*
X162739727Y-49346680D01*
X162974759Y-49189637D01*
X163174637Y-48989759D01*
X163331680Y-48754727D01*
X163439853Y-48493574D01*
X163495000Y-48216335D01*
X163495000Y-47933665D01*
X163439853Y-47656426D01*
X163331680Y-47395273D01*
X163174637Y-47160241D01*
X162974759Y-46960363D01*
X162739727Y-46803320D01*
X162478574Y-46695147D01*
X162452699Y-46690000D01*
X162478574Y-46684853D01*
X162739727Y-46576680D01*
X162974759Y-46419637D01*
X163174637Y-46219759D01*
X163331680Y-45984727D01*
X163439853Y-45723574D01*
X163495000Y-45446335D01*
X163495000Y-45163665D01*
X163439853Y-44886426D01*
X163331680Y-44625273D01*
X163174637Y-44390241D01*
X162974759Y-44190363D01*
X162739727Y-44033320D01*
X162636380Y-43990512D01*
X163159783Y-43990512D01*
X163201213Y-44270130D01*
X163296397Y-44536292D01*
X163363329Y-44661514D01*
X163607298Y-44733097D01*
X164420395Y-43920000D01*
X164779605Y-43920000D01*
X165592702Y-44733097D01*
X165836671Y-44661514D01*
X165957571Y-44406004D01*
X166026300Y-44131816D01*
X166040217Y-43849488D01*
X165998787Y-43569870D01*
X165903603Y-43303708D01*
X165861534Y-43225000D01*
X167746928Y-43225000D01*
X167759188Y-43349482D01*
X167795498Y-43469180D01*
X167854463Y-43579494D01*
X167933815Y-43676185D01*
X168030506Y-43755537D01*
X168140820Y-43814502D01*
X168260518Y-43850812D01*
X168385000Y-43863072D01*
X168974250Y-43860000D01*
X169133000Y-43701250D01*
X169133000Y-42639500D01*
X167908750Y-42639500D01*
X167750000Y-42798250D01*
X167746928Y-43225000D01*
X165861534Y-43225000D01*
X165836671Y-43178486D01*
X165592702Y-43106903D01*
X164779605Y-43920000D01*
X164420395Y-43920000D01*
X163607298Y-43106903D01*
X163363329Y-43178486D01*
X163242429Y-43433996D01*
X163173700Y-43708184D01*
X163159783Y-43990512D01*
X162636380Y-43990512D01*
X162478574Y-43925147D01*
X162201335Y-43870000D01*
X161918665Y-43870000D01*
X161641426Y-43925147D01*
X161380273Y-44033320D01*
X161145241Y-44190363D01*
X160945363Y-44390241D01*
X160788320Y-44625273D01*
X160680147Y-44886426D01*
X160625000Y-45163665D01*
X156627000Y-45163665D01*
X156627000Y-42927298D01*
X163786903Y-42927298D01*
X164600000Y-43740395D01*
X165413097Y-42927298D01*
X165341514Y-42683329D01*
X165086004Y-42562429D01*
X164811816Y-42493700D01*
X164529488Y-42479783D01*
X164249870Y-42521213D01*
X163983708Y-42616397D01*
X163858486Y-42683329D01*
X163786903Y-42927298D01*
X156627000Y-42927298D01*
X156627000Y-41800000D01*
X167746928Y-41800000D01*
X167750000Y-42226750D01*
X167908750Y-42385500D01*
X169133000Y-42385500D01*
X169133000Y-41323750D01*
X169387000Y-41323750D01*
X169387000Y-42385500D01*
X170611250Y-42385500D01*
X170770000Y-42226750D01*
X170773072Y-41800000D01*
X170760812Y-41675518D01*
X170724502Y-41555820D01*
X170665537Y-41445506D01*
X170586185Y-41348815D01*
X170489494Y-41269463D01*
X170379180Y-41210498D01*
X170259482Y-41174188D01*
X170135000Y-41161928D01*
X169545750Y-41165000D01*
X169387000Y-41323750D01*
X169133000Y-41323750D01*
X168974250Y-41165000D01*
X168385000Y-41161928D01*
X168260518Y-41174188D01*
X168140820Y-41210498D01*
X168030506Y-41269463D01*
X167933815Y-41348815D01*
X167854463Y-41445506D01*
X167795498Y-41555820D01*
X167759188Y-41675518D01*
X167746928Y-41800000D01*
X156627000Y-41800000D01*
X156627000Y-36660475D01*
X160695000Y-36660475D01*
X160695000Y-37179525D01*
X160796261Y-37688601D01*
X160994893Y-38168141D01*
X161283262Y-38599715D01*
X161650285Y-38966738D01*
X162081859Y-39255107D01*
X162561399Y-39453739D01*
X163070475Y-39555000D01*
X163589525Y-39555000D01*
X164098601Y-39453739D01*
X164578141Y-39255107D01*
X165009715Y-38966738D01*
X165376738Y-38599715D01*
X165665107Y-38168141D01*
X165817596Y-37800000D01*
X178261928Y-37800000D01*
X178261928Y-39600000D01*
X178274188Y-39724482D01*
X178310498Y-39844180D01*
X178369463Y-39954494D01*
X178448815Y-40051185D01*
X178545506Y-40130537D01*
X178655820Y-40189502D01*
X178775518Y-40225812D01*
X178900000Y-40238072D01*
X180700000Y-40238072D01*
X180824482Y-40225812D01*
X180944180Y-40189502D01*
X181054494Y-40130537D01*
X181151185Y-40051185D01*
X181230537Y-39954494D01*
X181289502Y-39844180D01*
X181325812Y-39724482D01*
X181338072Y-39600000D01*
X181338072Y-37800000D01*
X181325812Y-37675518D01*
X181289502Y-37555820D01*
X181230537Y-37445506D01*
X181151185Y-37348815D01*
X181054494Y-37269463D01*
X180944180Y-37210498D01*
X180824482Y-37174188D01*
X180700000Y-37161928D01*
X178900000Y-37161928D01*
X178775518Y-37174188D01*
X178655820Y-37210498D01*
X178545506Y-37269463D01*
X178448815Y-37348815D01*
X178369463Y-37445506D01*
X178310498Y-37555820D01*
X178274188Y-37675518D01*
X178261928Y-37800000D01*
X165817596Y-37800000D01*
X165863739Y-37688601D01*
X165965000Y-37179525D01*
X165965000Y-36660475D01*
X165863739Y-36151399D01*
X165665107Y-35671859D01*
X165376738Y-35240285D01*
X165175420Y-35038967D01*
X168165000Y-35038967D01*
X168165000Y-35361033D01*
X168227832Y-35676912D01*
X168351082Y-35974463D01*
X168530013Y-36242252D01*
X168757748Y-36469987D01*
X169025537Y-36648918D01*
X169323088Y-36772168D01*
X169638967Y-36835000D01*
X169961033Y-36835000D01*
X170276912Y-36772168D01*
X170574463Y-36648918D01*
X170842252Y-36469987D01*
X171069987Y-36242252D01*
X171248918Y-35974463D01*
X171372168Y-35676912D01*
X171435000Y-35361033D01*
X171435000Y-35048967D01*
X173245000Y-35048967D01*
X173245000Y-35371033D01*
X173307832Y-35686912D01*
X173431082Y-35984463D01*
X173610013Y-36252252D01*
X173837748Y-36479987D01*
X174105537Y-36658918D01*
X174403088Y-36782168D01*
X174718967Y-36845000D01*
X175041033Y-36845000D01*
X175356912Y-36782168D01*
X175654463Y-36658918D01*
X175922252Y-36479987D01*
X176149987Y-36252252D01*
X176328918Y-35984463D01*
X176452168Y-35686912D01*
X176515000Y-35371033D01*
X176515000Y-35048967D01*
X176452168Y-34733088D01*
X176328918Y-34435537D01*
X176149987Y-34167748D01*
X175922252Y-33940013D01*
X175654463Y-33761082D01*
X175356912Y-33637832D01*
X175041033Y-33575000D01*
X174718967Y-33575000D01*
X174403088Y-33637832D01*
X174105537Y-33761082D01*
X173837748Y-33940013D01*
X173610013Y-34167748D01*
X173431082Y-34435537D01*
X173307832Y-34733088D01*
X173245000Y-35048967D01*
X171435000Y-35048967D01*
X171435000Y-35038967D01*
X171372168Y-34723088D01*
X171248918Y-34425537D01*
X171069987Y-34157748D01*
X170842252Y-33930013D01*
X170574463Y-33751082D01*
X170276912Y-33627832D01*
X169961033Y-33565000D01*
X169638967Y-33565000D01*
X169323088Y-33627832D01*
X169025537Y-33751082D01*
X168757748Y-33930013D01*
X168530013Y-34157748D01*
X168351082Y-34425537D01*
X168227832Y-34723088D01*
X168165000Y-35038967D01*
X165175420Y-35038967D01*
X165009715Y-34873262D01*
X164578141Y-34584893D01*
X164098601Y-34386261D01*
X163589525Y-34285000D01*
X163070475Y-34285000D01*
X162561399Y-34386261D01*
X162081859Y-34584893D01*
X161650285Y-34873262D01*
X161283262Y-35240285D01*
X160994893Y-35671859D01*
X160796261Y-36151399D01*
X160695000Y-36660475D01*
X156627000Y-36660475D01*
X156627000Y-32992702D01*
X186086903Y-32992702D01*
X186158486Y-33236671D01*
X186413996Y-33357571D01*
X186688184Y-33426300D01*
X186970512Y-33440217D01*
X187250130Y-33398787D01*
X187516292Y-33303603D01*
X187641514Y-33236671D01*
X187713097Y-32992702D01*
X186900000Y-32179605D01*
X186086903Y-32992702D01*
X156627000Y-32992702D01*
X156627000Y-31827000D01*
X164500000Y-31827000D01*
X164524776Y-31824560D01*
X164548601Y-31817333D01*
X164570557Y-31805597D01*
X164589803Y-31789803D01*
X164605597Y-31770557D01*
X164617333Y-31748601D01*
X164624560Y-31724776D01*
X164627000Y-31700000D01*
X164627000Y-26250000D01*
X165011928Y-26250000D01*
X165024188Y-26374482D01*
X165060498Y-26494180D01*
X165119463Y-26604494D01*
X165198815Y-26701185D01*
X165295506Y-26780537D01*
X165405820Y-26839502D01*
X165525518Y-26875812D01*
X165650000Y-26888072D01*
X166614250Y-26885000D01*
X166773000Y-26726250D01*
X166773000Y-25127000D01*
X167027000Y-25127000D01*
X167027000Y-26726250D01*
X167185750Y-26885000D01*
X168150000Y-26888072D01*
X168274482Y-26875812D01*
X168394180Y-26839502D01*
X168504494Y-26780537D01*
X168601185Y-26701185D01*
X168680537Y-26604494D01*
X168739502Y-26494180D01*
X168775812Y-26374482D01*
X168788072Y-26250000D01*
X168785000Y-25285750D01*
X168626250Y-25127000D01*
X167027000Y-25127000D01*
X166773000Y-25127000D01*
X165173750Y-25127000D01*
X165015000Y-25285750D01*
X165011928Y-26250000D01*
X164627000Y-26250000D01*
X164627000Y-23750000D01*
X165011928Y-23750000D01*
X165015000Y-24714250D01*
X165173750Y-24873000D01*
X166773000Y-24873000D01*
X166773000Y-23273750D01*
X167027000Y-23273750D01*
X167027000Y-24873000D01*
X168626250Y-24873000D01*
X168684906Y-24814344D01*
X170015000Y-24814344D01*
X170015000Y-25185656D01*
X170087439Y-25549834D01*
X170229534Y-25892882D01*
X170435825Y-26201618D01*
X170698382Y-26464175D01*
X171007118Y-26670466D01*
X171350166Y-26812561D01*
X171714344Y-26885000D01*
X172085656Y-26885000D01*
X172449834Y-26812561D01*
X172792882Y-26670466D01*
X173101618Y-26464175D01*
X173364175Y-26201618D01*
X173570466Y-25892882D01*
X173712561Y-25549834D01*
X173785000Y-25185656D01*
X173785000Y-24814344D01*
X175015000Y-24814344D01*
X175015000Y-25185656D01*
X175087439Y-25549834D01*
X175229534Y-25892882D01*
X175435825Y-26201618D01*
X175698382Y-26464175D01*
X176007118Y-26670466D01*
X176350166Y-26812561D01*
X176714344Y-26885000D01*
X177085656Y-26885000D01*
X177449834Y-26812561D01*
X177457717Y-26809296D01*
X178915001Y-28266580D01*
X178915000Y-29820558D01*
X178709339Y-29989339D01*
X178517519Y-30223073D01*
X178374983Y-30489739D01*
X178287210Y-30779087D01*
X178257573Y-31080000D01*
X178287210Y-31380913D01*
X178374983Y-31670261D01*
X178517519Y-31936927D01*
X178709339Y-32170661D01*
X178943073Y-32362481D01*
X179209739Y-32505017D01*
X179499087Y-32592790D01*
X179724592Y-32615000D01*
X179875408Y-32615000D01*
X180100913Y-32592790D01*
X180390261Y-32505017D01*
X180656927Y-32362481D01*
X180890661Y-32170661D01*
X181082481Y-31936927D01*
X181225017Y-31670261D01*
X181312790Y-31380913D01*
X181342427Y-31080000D01*
X181857573Y-31080000D01*
X181887210Y-31380913D01*
X181974983Y-31670261D01*
X182117519Y-31936927D01*
X182309339Y-32170661D01*
X182543073Y-32362481D01*
X182809739Y-32505017D01*
X183099087Y-32592790D01*
X183324592Y-32615000D01*
X183475408Y-32615000D01*
X183700913Y-32592790D01*
X183990261Y-32505017D01*
X184256927Y-32362481D01*
X184490661Y-32170661D01*
X184572850Y-32070512D01*
X185459783Y-32070512D01*
X185501213Y-32350130D01*
X185596397Y-32616292D01*
X185663329Y-32741514D01*
X185907298Y-32813097D01*
X186720395Y-32000000D01*
X187079605Y-32000000D01*
X187892702Y-32813097D01*
X188136671Y-32741514D01*
X188257571Y-32486004D01*
X188326300Y-32211816D01*
X188340217Y-31929488D01*
X188298787Y-31649870D01*
X188203603Y-31383708D01*
X188136671Y-31258486D01*
X187892702Y-31186903D01*
X187079605Y-32000000D01*
X186720395Y-32000000D01*
X185907298Y-31186903D01*
X185663329Y-31258486D01*
X185542429Y-31513996D01*
X185473700Y-31788184D01*
X185459783Y-32070512D01*
X184572850Y-32070512D01*
X184682481Y-31936927D01*
X184825017Y-31670261D01*
X184912790Y-31380913D01*
X184942427Y-31080000D01*
X184935267Y-31007298D01*
X186086903Y-31007298D01*
X186900000Y-31820395D01*
X187713097Y-31007298D01*
X187641514Y-30763329D01*
X187386004Y-30642429D01*
X187111816Y-30573700D01*
X186829488Y-30559783D01*
X186549870Y-30601213D01*
X186283708Y-30696397D01*
X186158486Y-30763329D01*
X186086903Y-31007298D01*
X184935267Y-31007298D01*
X184912790Y-30779087D01*
X184825017Y-30489739D01*
X184682481Y-30223073D01*
X184490661Y-29989339D01*
X184256927Y-29797519D01*
X183990261Y-29654983D01*
X183700913Y-29567210D01*
X183475408Y-29545000D01*
X183324592Y-29545000D01*
X183099087Y-29567210D01*
X182809739Y-29654983D01*
X182543073Y-29797519D01*
X182309339Y-29989339D01*
X182117519Y-30223073D01*
X181974983Y-30489739D01*
X181887210Y-30779087D01*
X181857573Y-31080000D01*
X181342427Y-31080000D01*
X181312790Y-30779087D01*
X181225017Y-30489739D01*
X181082481Y-30223073D01*
X180890661Y-29989339D01*
X180685000Y-29820558D01*
X180685000Y-28858665D01*
X185565000Y-28858665D01*
X185565000Y-29141335D01*
X185620147Y-29418574D01*
X185728320Y-29679727D01*
X185885363Y-29914759D01*
X186085241Y-30114637D01*
X186320273Y-30271680D01*
X186581426Y-30379853D01*
X186858665Y-30435000D01*
X187141335Y-30435000D01*
X187418574Y-30379853D01*
X187679727Y-30271680D01*
X187914759Y-30114637D01*
X188114637Y-29914759D01*
X188271680Y-29679727D01*
X188379853Y-29418574D01*
X188435000Y-29141335D01*
X188435000Y-29070512D01*
X190559783Y-29070512D01*
X190601213Y-29350130D01*
X190696397Y-29616292D01*
X190763329Y-29741514D01*
X191007298Y-29813097D01*
X191820395Y-29000000D01*
X191007298Y-28186903D01*
X190763329Y-28258486D01*
X190642429Y-28513996D01*
X190573700Y-28788184D01*
X190559783Y-29070512D01*
X188435000Y-29070512D01*
X188435000Y-28858665D01*
X188379853Y-28581426D01*
X188271680Y-28320273D01*
X188114637Y-28085241D01*
X187914759Y-27885363D01*
X187679727Y-27728320D01*
X187418574Y-27620147D01*
X187141335Y-27565000D01*
X186858665Y-27565000D01*
X186581426Y-27620147D01*
X186320273Y-27728320D01*
X186085241Y-27885363D01*
X185885363Y-28085241D01*
X185728320Y-28320273D01*
X185620147Y-28581426D01*
X185565000Y-28858665D01*
X180685000Y-28858665D01*
X180685000Y-27943465D01*
X180689281Y-27899999D01*
X180685000Y-27856533D01*
X180685000Y-27856523D01*
X180672195Y-27726510D01*
X180621589Y-27559687D01*
X180539411Y-27405941D01*
X180428817Y-27271183D01*
X180395049Y-27243470D01*
X178709296Y-25557717D01*
X178712561Y-25549834D01*
X178785000Y-25185656D01*
X178785000Y-24814344D01*
X178712561Y-24450166D01*
X178570466Y-24107118D01*
X178498892Y-24000000D01*
X182009428Y-24000000D01*
X182009428Y-26000000D01*
X182021688Y-26124482D01*
X182057998Y-26244180D01*
X182116963Y-26354494D01*
X182196315Y-26451185D01*
X182293006Y-26530537D01*
X182403320Y-26589502D01*
X182523018Y-26625812D01*
X182647500Y-26638072D01*
X184552500Y-26638072D01*
X184676982Y-26625812D01*
X184796680Y-26589502D01*
X184906994Y-26530537D01*
X185003685Y-26451185D01*
X185083037Y-26354494D01*
X185132059Y-26262781D01*
X185273077Y-26375969D01*
X185548906Y-26519571D01*
X185767020Y-26590563D01*
X186013000Y-26470594D01*
X186013000Y-25127000D01*
X185993000Y-25127000D01*
X185993000Y-24873000D01*
X186013000Y-24873000D01*
X186013000Y-23529406D01*
X186267000Y-23529406D01*
X186267000Y-24873000D01*
X186287000Y-24873000D01*
X186287000Y-25127000D01*
X186267000Y-25127000D01*
X186267000Y-26470594D01*
X186512980Y-26590563D01*
X186731094Y-26519571D01*
X187006923Y-26375969D01*
X187249437Y-26181315D01*
X187404837Y-25996101D01*
X187552037Y-26175463D01*
X187793766Y-26373845D01*
X188069552Y-26521255D01*
X188368797Y-26612030D01*
X188680000Y-26642681D01*
X188991204Y-26612030D01*
X189290449Y-26521255D01*
X189566235Y-26373845D01*
X189807963Y-26175463D01*
X190006345Y-25933734D01*
X190153755Y-25657948D01*
X190244530Y-25358703D01*
X190267500Y-25125485D01*
X190267500Y-24874514D01*
X190244530Y-24641296D01*
X190153755Y-24342051D01*
X190006345Y-24066265D01*
X189807963Y-23824537D01*
X189566234Y-23626155D01*
X189290448Y-23478745D01*
X188991203Y-23387970D01*
X188680000Y-23357319D01*
X188368796Y-23387970D01*
X188069551Y-23478745D01*
X187793765Y-23626155D01*
X187552037Y-23824537D01*
X187404838Y-24003900D01*
X187249437Y-23818685D01*
X187006923Y-23624031D01*
X186731094Y-23480429D01*
X186512980Y-23409437D01*
X186267000Y-23529406D01*
X186013000Y-23529406D01*
X185767020Y-23409437D01*
X185548906Y-23480429D01*
X185273077Y-23624031D01*
X185132059Y-23737219D01*
X185083037Y-23645506D01*
X185003685Y-23548815D01*
X184906994Y-23469463D01*
X184796680Y-23410498D01*
X184676982Y-23374188D01*
X184552500Y-23361928D01*
X182647500Y-23361928D01*
X182523018Y-23374188D01*
X182403320Y-23410498D01*
X182293006Y-23469463D01*
X182196315Y-23548815D01*
X182116963Y-23645506D01*
X182057998Y-23755820D01*
X182021688Y-23875518D01*
X182009428Y-24000000D01*
X178498892Y-24000000D01*
X178364175Y-23798382D01*
X178101618Y-23535825D01*
X177792882Y-23329534D01*
X177449834Y-23187439D01*
X177085656Y-23115000D01*
X176714344Y-23115000D01*
X176350166Y-23187439D01*
X176007118Y-23329534D01*
X175698382Y-23535825D01*
X175435825Y-23798382D01*
X175229534Y-24107118D01*
X175087439Y-24450166D01*
X175015000Y-24814344D01*
X173785000Y-24814344D01*
X173712561Y-24450166D01*
X173570466Y-24107118D01*
X173364175Y-23798382D01*
X173101618Y-23535825D01*
X172792882Y-23329534D01*
X172449834Y-23187439D01*
X172085656Y-23115000D01*
X171714344Y-23115000D01*
X171350166Y-23187439D01*
X171007118Y-23329534D01*
X170698382Y-23535825D01*
X170435825Y-23798382D01*
X170229534Y-24107118D01*
X170087439Y-24450166D01*
X170015000Y-24814344D01*
X168684906Y-24814344D01*
X168785000Y-24714250D01*
X168788072Y-23750000D01*
X168775812Y-23625518D01*
X168739502Y-23505820D01*
X168680537Y-23395506D01*
X168601185Y-23298815D01*
X168504494Y-23219463D01*
X168394180Y-23160498D01*
X168274482Y-23124188D01*
X168150000Y-23111928D01*
X167185750Y-23115000D01*
X167027000Y-23273750D01*
X166773000Y-23273750D01*
X166614250Y-23115000D01*
X165650000Y-23111928D01*
X165525518Y-23124188D01*
X165405820Y-23160498D01*
X165295506Y-23219463D01*
X165198815Y-23298815D01*
X165119463Y-23395506D01*
X165060498Y-23505820D01*
X165024188Y-23625518D01*
X165011928Y-23750000D01*
X164627000Y-23750000D01*
X164627000Y-17727000D01*
X191872624Y-17727000D01*
X191843496Y-27572524D01*
X191843496Y-27572524D01*
G37*
X191843496Y-27572524D02*
X191649870Y-27601213D01*
X191383708Y-27696397D01*
X191258486Y-27763329D01*
X191186903Y-28007298D01*
X191840276Y-28660671D01*
X191838262Y-29341343D01*
X191186903Y-29992702D01*
X191258486Y-30236671D01*
X191513996Y-30357571D01*
X191788184Y-30426300D01*
X191835046Y-30428610D01*
X191834642Y-30565000D01*
X191758665Y-30565000D01*
X191481426Y-30620147D01*
X191220273Y-30728320D01*
X190985241Y-30885363D01*
X190785363Y-31085241D01*
X190628320Y-31320273D01*
X190520147Y-31581426D01*
X190465000Y-31858665D01*
X190465000Y-32141335D01*
X190520147Y-32418574D01*
X190628320Y-32679727D01*
X190785363Y-32914759D01*
X190985241Y-33114637D01*
X191220273Y-33271680D01*
X191481426Y-33379853D01*
X191758665Y-33435000D01*
X191826151Y-33435000D01*
X191823376Y-34373000D01*
X184050000Y-34373000D01*
X184025224Y-34375440D01*
X184001399Y-34382667D01*
X183979443Y-34394403D01*
X183960197Y-34410197D01*
X183944403Y-34429443D01*
X183932667Y-34451399D01*
X183925440Y-34475224D01*
X183923000Y-34500278D01*
X183928825Y-37161928D01*
X182500000Y-37161928D01*
X182375518Y-37174188D01*
X182255820Y-37210498D01*
X182145506Y-37269463D01*
X182048815Y-37348815D01*
X181969463Y-37445506D01*
X181910498Y-37555820D01*
X181874188Y-37675518D01*
X181861928Y-37800000D01*
X181861928Y-39600000D01*
X181874188Y-39724482D01*
X181910498Y-39844180D01*
X181969463Y-39954494D01*
X182048815Y-40051185D01*
X182145506Y-40130537D01*
X182255820Y-40189502D01*
X182375518Y-40225812D01*
X182500000Y-40238072D01*
X183935558Y-40238072D01*
X183936191Y-40527500D01*
X183540969Y-40527500D01*
X183497500Y-40523219D01*
X183454031Y-40527500D01*
X183454023Y-40527500D01*
X183324010Y-40540305D01*
X183157187Y-40590911D01*
X183118566Y-40611554D01*
X182950492Y-40595000D01*
X182809508Y-40595000D01*
X182598691Y-40615764D01*
X182328192Y-40697818D01*
X182078899Y-40831068D01*
X181860392Y-41010392D01*
X181681068Y-41228899D01*
X181547818Y-41478192D01*
X181465764Y-41748691D01*
X181438057Y-42030000D01*
X181465764Y-42311309D01*
X181547818Y-42581808D01*
X181681068Y-42831101D01*
X181860392Y-43049608D01*
X182078899Y-43228932D01*
X182216682Y-43302579D01*
X182024869Y-43417615D01*
X181816481Y-43606586D01*
X181648963Y-43832580D01*
X181528754Y-44086913D01*
X181488096Y-44220961D01*
X181610085Y-44443000D01*
X182753000Y-44443000D01*
X182753000Y-44423000D01*
X183007000Y-44423000D01*
X183007000Y-44443000D01*
X183027000Y-44443000D01*
X183027000Y-44697000D01*
X183007000Y-44697000D01*
X183007000Y-44717000D01*
X182753000Y-44717000D01*
X182753000Y-44697000D01*
X181610085Y-44697000D01*
X181488096Y-44919039D01*
X181528754Y-45053087D01*
X181648963Y-45307420D01*
X181816481Y-45533414D01*
X182024869Y-45722385D01*
X182216682Y-45837421D01*
X182078899Y-45911068D01*
X181860392Y-46090392D01*
X181681068Y-46308899D01*
X181547818Y-46558192D01*
X181465764Y-46828691D01*
X181438057Y-47110000D01*
X181465764Y-47391309D01*
X181547818Y-47661808D01*
X181681068Y-47911101D01*
X181860392Y-48129608D01*
X182078899Y-48308932D01*
X182211858Y-48380000D01*
X182078899Y-48451068D01*
X181860392Y-48630392D01*
X181681068Y-48848899D01*
X181547818Y-49098192D01*
X181465764Y-49368691D01*
X181438057Y-49650000D01*
X181465764Y-49931309D01*
X181547818Y-50201808D01*
X181681068Y-50451101D01*
X181860392Y-50669608D01*
X182078899Y-50848932D01*
X182211858Y-50920000D01*
X182078899Y-50991068D01*
X181860392Y-51170392D01*
X181681068Y-51388899D01*
X181547818Y-51638192D01*
X181465764Y-51908691D01*
X181438057Y-52190000D01*
X181465764Y-52471309D01*
X181547818Y-52741808D01*
X181681068Y-52991101D01*
X181860392Y-53209608D01*
X182078899Y-53388932D01*
X182211858Y-53460000D01*
X182078899Y-53531068D01*
X181860392Y-53710392D01*
X181681068Y-53928899D01*
X181547818Y-54178192D01*
X181465764Y-54448691D01*
X181438057Y-54730000D01*
X181465764Y-55011309D01*
X181547818Y-55281808D01*
X181681068Y-55531101D01*
X181860392Y-55749608D01*
X182078899Y-55928932D01*
X182211858Y-56000000D01*
X182078899Y-56071068D01*
X181860392Y-56250392D01*
X181681068Y-56468899D01*
X181547818Y-56718192D01*
X181465764Y-56988691D01*
X181438057Y-57270000D01*
X181465764Y-57551309D01*
X181547818Y-57821808D01*
X181681068Y-58071101D01*
X181860392Y-58289608D01*
X182078899Y-58468932D01*
X182211858Y-58540000D01*
X182078899Y-58611068D01*
X181860392Y-58790392D01*
X181681068Y-59008899D01*
X181547818Y-59258192D01*
X181465764Y-59528691D01*
X181438057Y-59810000D01*
X181465764Y-60091309D01*
X181547818Y-60361808D01*
X181681068Y-60611101D01*
X181860392Y-60829608D01*
X182078899Y-61008932D01*
X182328192Y-61142182D01*
X182598691Y-61224236D01*
X182809508Y-61245000D01*
X182950492Y-61245000D01*
X183161309Y-61224236D01*
X183431808Y-61142182D01*
X183681101Y-61008932D01*
X183899608Y-60829608D01*
X183980409Y-60731152D01*
X184010223Y-74353548D01*
X176020000Y-74388007D01*
X176020000Y-64398061D01*
X178965000Y-64398061D01*
X178965000Y-64601939D01*
X179004774Y-64801898D01*
X179082795Y-64990256D01*
X179196063Y-65159774D01*
X179240001Y-65203712D01*
X179240000Y-68296289D01*
X179196063Y-68340226D01*
X179082795Y-68509744D01*
X179004774Y-68698102D01*
X178965000Y-68898061D01*
X178965000Y-69101939D01*
X179004774Y-69301898D01*
X179082795Y-69490256D01*
X179196063Y-69659774D01*
X179340226Y-69803937D01*
X179509744Y-69917205D01*
X179698102Y-69995226D01*
X179898061Y-70035000D01*
X180101939Y-70035000D01*
X180301898Y-69995226D01*
X180490256Y-69917205D01*
X180659774Y-69803937D01*
X180803937Y-69659774D01*
X180917205Y-69490256D01*
X180995226Y-69301898D01*
X181035000Y-69101939D01*
X181035000Y-68898061D01*
X180995226Y-68698102D01*
X180917205Y-68509744D01*
X180803937Y-68340226D01*
X180760000Y-68296289D01*
X180760000Y-65203711D01*
X180803937Y-65159774D01*
X180917205Y-64990256D01*
X180995226Y-64801898D01*
X181035000Y-64601939D01*
X181035000Y-64398061D01*
X181465000Y-64398061D01*
X181465000Y-64601939D01*
X181504774Y-64801898D01*
X181582795Y-64990256D01*
X181696063Y-65159774D01*
X181740001Y-65203712D01*
X181740000Y-68296289D01*
X181696063Y-68340226D01*
X181582795Y-68509744D01*
X181504774Y-68698102D01*
X181465000Y-68898061D01*
X181465000Y-69101939D01*
X181504774Y-69301898D01*
X181582795Y-69490256D01*
X181696063Y-69659774D01*
X181840226Y-69803937D01*
X182009744Y-69917205D01*
X182198102Y-69995226D01*
X182398061Y-70035000D01*
X182601939Y-70035000D01*
X182801898Y-69995226D01*
X182990256Y-69917205D01*
X183159774Y-69803937D01*
X183303937Y-69659774D01*
X183417205Y-69490256D01*
X183495226Y-69301898D01*
X183535000Y-69101939D01*
X183535000Y-68898061D01*
X183495226Y-68698102D01*
X183417205Y-68509744D01*
X183303937Y-68340226D01*
X183260000Y-68296289D01*
X183260000Y-65203711D01*
X183303937Y-65159774D01*
X183417205Y-64990256D01*
X183495226Y-64801898D01*
X183535000Y-64601939D01*
X183535000Y-64398061D01*
X183495226Y-64198102D01*
X183417205Y-64009744D01*
X183303937Y-63840226D01*
X183159774Y-63696063D01*
X182990256Y-63582795D01*
X182801898Y-63504774D01*
X182601939Y-63465000D01*
X182398061Y-63465000D01*
X182198102Y-63504774D01*
X182009744Y-63582795D01*
X181840226Y-63696063D01*
X181696063Y-63840226D01*
X181582795Y-64009744D01*
X181504774Y-64198102D01*
X181465000Y-64398061D01*
X181035000Y-64398061D01*
X180995226Y-64198102D01*
X180917205Y-64009744D01*
X180803937Y-63840226D01*
X180659774Y-63696063D01*
X180490256Y-63582795D01*
X180301898Y-63504774D01*
X180101939Y-63465000D01*
X179898061Y-63465000D01*
X179698102Y-63504774D01*
X179509744Y-63582795D01*
X179340226Y-63696063D01*
X179196063Y-63840226D01*
X179082795Y-64009744D01*
X179004774Y-64198102D01*
X178965000Y-64398061D01*
X176020000Y-64398061D01*
X176020000Y-61030901D01*
X176061101Y-61008932D01*
X176279608Y-60829608D01*
X176458932Y-60611101D01*
X176592182Y-60361808D01*
X176674236Y-60091309D01*
X176701943Y-59810000D01*
X176674236Y-59528691D01*
X176592182Y-59258192D01*
X176458932Y-59008899D01*
X176279608Y-58790392D01*
X176061101Y-58611068D01*
X175928142Y-58540000D01*
X176061101Y-58468932D01*
X176279608Y-58289608D01*
X176458932Y-58071101D01*
X176592182Y-57821808D01*
X176674236Y-57551309D01*
X176701943Y-57270000D01*
X176674236Y-56988691D01*
X176592182Y-56718192D01*
X176458932Y-56468899D01*
X176279608Y-56250392D01*
X176061101Y-56071068D01*
X175928142Y-56000000D01*
X176061101Y-55928932D01*
X176279608Y-55749608D01*
X176458932Y-55531101D01*
X176592182Y-55281808D01*
X176674236Y-55011309D01*
X176701943Y-54730000D01*
X176674236Y-54448691D01*
X176592182Y-54178192D01*
X176458932Y-53928899D01*
X176279608Y-53710392D01*
X176061101Y-53531068D01*
X175928142Y-53460000D01*
X176061101Y-53388932D01*
X176279608Y-53209608D01*
X176458932Y-52991101D01*
X176592182Y-52741808D01*
X176674236Y-52471309D01*
X176701943Y-52190000D01*
X176674236Y-51908691D01*
X176592182Y-51638192D01*
X176458932Y-51388899D01*
X176279608Y-51170392D01*
X176061101Y-50991068D01*
X175928142Y-50920000D01*
X176061101Y-50848932D01*
X176279608Y-50669608D01*
X176458932Y-50451101D01*
X176592182Y-50201808D01*
X176674236Y-49931309D01*
X176701943Y-49650000D01*
X176674236Y-49368691D01*
X176592182Y-49098192D01*
X176458932Y-48848899D01*
X176279608Y-48630392D01*
X176061101Y-48451068D01*
X175928142Y-48380000D01*
X176061101Y-48308932D01*
X176279608Y-48129608D01*
X176458932Y-47911101D01*
X176592182Y-47661808D01*
X176672187Y-47398061D01*
X178065000Y-47398061D01*
X178065000Y-47601939D01*
X178104774Y-47801898D01*
X178182795Y-47990256D01*
X178215000Y-48038455D01*
X178215001Y-51561544D01*
X178182795Y-51609744D01*
X178104774Y-51798102D01*
X178065000Y-51998061D01*
X178065000Y-52201939D01*
X178104774Y-52401898D01*
X178182795Y-52590256D01*
X178296063Y-52759774D01*
X178440226Y-52903937D01*
X178609744Y-53017205D01*
X178798102Y-53095226D01*
X178998061Y-53135000D01*
X179201939Y-53135000D01*
X179401898Y-53095226D01*
X179590256Y-53017205D01*
X179759774Y-52903937D01*
X179903937Y-52759774D01*
X180017205Y-52590256D01*
X180095226Y-52401898D01*
X180135000Y-52201939D01*
X180135000Y-51998061D01*
X180095226Y-51798102D01*
X180017205Y-51609744D01*
X179985000Y-51561546D01*
X179985000Y-48038454D01*
X180017205Y-47990256D01*
X180095226Y-47801898D01*
X180135000Y-47601939D01*
X180135000Y-47398061D01*
X180095226Y-47198102D01*
X180017205Y-47009744D01*
X179903937Y-46840226D01*
X179759774Y-46696063D01*
X179590256Y-46582795D01*
X179401898Y-46504774D01*
X179201939Y-46465000D01*
X178998061Y-46465000D01*
X178798102Y-46504774D01*
X178609744Y-46582795D01*
X178440226Y-46696063D01*
X178296063Y-46840226D01*
X178182795Y-47009744D01*
X178104774Y-47198102D01*
X178065000Y-47398061D01*
X176672187Y-47398061D01*
X176674236Y-47391309D01*
X176701943Y-47110000D01*
X176674236Y-46828691D01*
X176592182Y-46558192D01*
X176458932Y-46308899D01*
X176279608Y-46090392D01*
X176061101Y-45911068D01*
X175928142Y-45840000D01*
X176061101Y-45768932D01*
X176279608Y-45589608D01*
X176458932Y-45371101D01*
X176592182Y-45121808D01*
X176674236Y-44851309D01*
X176701943Y-44570000D01*
X176674236Y-44288691D01*
X176592182Y-44018192D01*
X176458932Y-43768899D01*
X176279608Y-43550392D01*
X176166518Y-43457581D01*
X176184482Y-43455812D01*
X176304180Y-43419502D01*
X176414494Y-43360537D01*
X176511185Y-43281185D01*
X176590537Y-43184494D01*
X176649502Y-43074180D01*
X176685812Y-42954482D01*
X176698072Y-42830000D01*
X176698072Y-41230000D01*
X176685812Y-41105518D01*
X176649502Y-40985820D01*
X176590537Y-40875506D01*
X176511185Y-40778815D01*
X176414494Y-40699463D01*
X176304180Y-40640498D01*
X176184482Y-40604188D01*
X176060000Y-40591928D01*
X174460000Y-40591928D01*
X174335518Y-40604188D01*
X174215820Y-40640498D01*
X174105506Y-40699463D01*
X174008815Y-40778815D01*
X173929463Y-40875506D01*
X173870498Y-40985820D01*
X173834188Y-41105518D01*
X173821928Y-41230000D01*
X173821928Y-41270000D01*
X173809822Y-41270000D01*
X173772499Y-41266324D01*
X173735177Y-41270000D01*
X173735167Y-41270000D01*
X173623514Y-41280997D01*
X173482574Y-41323750D01*
X173480253Y-41324454D01*
X173348223Y-41395026D01*
X173286714Y-41445506D01*
X173232499Y-41489999D01*
X173208701Y-41518997D01*
X172535770Y-42191928D01*
X171635000Y-42191928D01*
X171461746Y-42208992D01*
X171295150Y-42259528D01*
X171141614Y-42341595D01*
X171007038Y-42452038D01*
X170896595Y-42586614D01*
X170814528Y-42740150D01*
X170770624Y-42884884D01*
X170770000Y-42798250D01*
X170611250Y-42639500D01*
X169387000Y-42639500D01*
X169387000Y-43701250D01*
X169545750Y-43860000D01*
X170135000Y-43863072D01*
X170259482Y-43850812D01*
X170379180Y-43814502D01*
X170489494Y-43755537D01*
X170586185Y-43676185D01*
X170665537Y-43579494D01*
X170724502Y-43469180D01*
X170746928Y-43395251D01*
X170746928Y-44005000D01*
X170763992Y-44178254D01*
X170791532Y-44269040D01*
X170717485Y-44291502D01*
X170707753Y-44294454D01*
X170575723Y-44365026D01*
X170544999Y-44390241D01*
X170522522Y-44408687D01*
X170512962Y-44397038D01*
X170378386Y-44286595D01*
X170224850Y-44204528D01*
X170058254Y-44153992D01*
X169885000Y-44136928D01*
X168635000Y-44136928D01*
X168461746Y-44153992D01*
X168295150Y-44204528D01*
X168141614Y-44286595D01*
X168007038Y-44397038D01*
X167896595Y-44531614D01*
X167814528Y-44685150D01*
X167763992Y-44851746D01*
X167746928Y-45025000D01*
X167746928Y-45950000D01*
X167763992Y-46123254D01*
X167814528Y-46289850D01*
X167896595Y-46443386D01*
X168007038Y-46577962D01*
X168141614Y-46688405D01*
X168295150Y-46770472D01*
X168461746Y-46821008D01*
X168635000Y-46838072D01*
X169885000Y-46838072D01*
X170058254Y-46821008D01*
X170224850Y-46770472D01*
X170378386Y-46688405D01*
X170512962Y-46577962D01*
X170623405Y-46443386D01*
X170705472Y-46289850D01*
X170727752Y-46216402D01*
X170746928Y-46210585D01*
X170746928Y-46980000D01*
X170763992Y-47153254D01*
X170814528Y-47319850D01*
X170896595Y-47473386D01*
X171007038Y-47607962D01*
X171141614Y-47718405D01*
X171295150Y-47800472D01*
X171461746Y-47851008D01*
X171635000Y-47868072D01*
X172885000Y-47868072D01*
X173058254Y-47851008D01*
X173224850Y-47800472D01*
X173378386Y-47718405D01*
X173512962Y-47607962D01*
X173623405Y-47473386D01*
X173705472Y-47319850D01*
X173718319Y-47277500D01*
X173834555Y-47277500D01*
X173845764Y-47391309D01*
X173927818Y-47661808D01*
X174061068Y-47911101D01*
X174240392Y-48129608D01*
X174458899Y-48308932D01*
X174591858Y-48380000D01*
X174458899Y-48451068D01*
X174240392Y-48630392D01*
X174115560Y-48782500D01*
X173718319Y-48782500D01*
X173705472Y-48740150D01*
X173623405Y-48586614D01*
X173512962Y-48452038D01*
X173378386Y-48341595D01*
X173224850Y-48259528D01*
X173058254Y-48208992D01*
X172885000Y-48191928D01*
X171635000Y-48191928D01*
X171461746Y-48208992D01*
X171295150Y-48259528D01*
X171141614Y-48341595D01*
X171007038Y-48452038D01*
X170896595Y-48586614D01*
X170814528Y-48740150D01*
X170763992Y-48906746D01*
X170746928Y-49080000D01*
X170746928Y-50005000D01*
X170763992Y-50178254D01*
X170814528Y-50344850D01*
X170896595Y-50498386D01*
X171007038Y-50632962D01*
X171141614Y-50743405D01*
X171295150Y-50825472D01*
X171461746Y-50876008D01*
X171635000Y-50893072D01*
X172885000Y-50893072D01*
X173058254Y-50876008D01*
X173224850Y-50825472D01*
X173378386Y-50743405D01*
X173512962Y-50632962D01*
X173623405Y-50498386D01*
X173705472Y-50344850D01*
X173718319Y-50302500D01*
X173981639Y-50302500D01*
X174061068Y-50451101D01*
X174240392Y-50669608D01*
X174458899Y-50848932D01*
X174591858Y-50920000D01*
X174458899Y-50991068D01*
X174240392Y-51170392D01*
X174061068Y-51388899D01*
X173927818Y-51638192D01*
X173891627Y-51757500D01*
X173718319Y-51757500D01*
X173705472Y-51715150D01*
X173623405Y-51561614D01*
X173512962Y-51427038D01*
X173378386Y-51316595D01*
X173224850Y-51234528D01*
X173058254Y-51183992D01*
X172885000Y-51166928D01*
X171635000Y-51166928D01*
X171461746Y-51183992D01*
X171295150Y-51234528D01*
X171141614Y-51316595D01*
X171007038Y-51427038D01*
X170896595Y-51561614D01*
X170814528Y-51715150D01*
X170763992Y-51881746D01*
X170746928Y-52055000D01*
X170746928Y-52980000D01*
X170763992Y-53153254D01*
X170814528Y-53319850D01*
X170896595Y-53473386D01*
X171007038Y-53607962D01*
X171141614Y-53718405D01*
X171186650Y-53742478D01*
X171144538Y-53777038D01*
X171034095Y-53911614D01*
X170952028Y-54065150D01*
X170901492Y-54231746D01*
X170884428Y-54405000D01*
X170884428Y-55655000D01*
X170901492Y-55828254D01*
X170952028Y-55994850D01*
X171034095Y-56148386D01*
X171144538Y-56282962D01*
X171279114Y-56393405D01*
X171432650Y-56475472D01*
X171599246Y-56526008D01*
X171772500Y-56543072D01*
X172697500Y-56543072D01*
X172870754Y-56526008D01*
X173037350Y-56475472D01*
X173190886Y-56393405D01*
X173325462Y-56282962D01*
X173435905Y-56148386D01*
X173517972Y-55994850D01*
X173568508Y-55828254D01*
X173572276Y-55790000D01*
X174289610Y-55790000D01*
X174458899Y-55928932D01*
X174591858Y-56000000D01*
X174458899Y-56071068D01*
X174240392Y-56250392D01*
X174061068Y-56468899D01*
X173927818Y-56718192D01*
X173845764Y-56988691D01*
X173818057Y-57270000D01*
X173845764Y-57551309D01*
X173859292Y-57595907D01*
X173623997Y-57831202D01*
X173594999Y-57855000D01*
X173571201Y-57883998D01*
X173571200Y-57883999D01*
X173500025Y-57970725D01*
X173429453Y-58102755D01*
X173385997Y-58246016D01*
X173371323Y-58395001D01*
X173375000Y-58432334D01*
X173374999Y-78800199D01*
X169562081Y-82613118D01*
X169550000Y-82611928D01*
X169085750Y-82615000D01*
X168927000Y-82773750D01*
X168927000Y-83873000D01*
X168947000Y-83873000D01*
X168947000Y-84127000D01*
X168927000Y-84127000D01*
X168927000Y-84147000D01*
X168673000Y-84147000D01*
X168673000Y-84127000D01*
X167573750Y-84127000D01*
X167415000Y-84285750D01*
X167411928Y-84750000D01*
X167424188Y-84874482D01*
X167460498Y-84994180D01*
X167519463Y-85104494D01*
X167598815Y-85201185D01*
X167695506Y-85280537D01*
X167805820Y-85339502D01*
X167925518Y-85375812D01*
X168033483Y-85386445D01*
X167917114Y-85464201D01*
X167724201Y-85657114D01*
X167572629Y-85883957D01*
X167468225Y-86136011D01*
X167415000Y-86403589D01*
X167415000Y-86676411D01*
X167468225Y-86943989D01*
X167572629Y-87196043D01*
X167724201Y-87422886D01*
X167917114Y-87615799D01*
X168143957Y-87767371D01*
X168243279Y-87808511D01*
X168201168Y-87823723D01*
X168088137Y-87884140D01*
X168022612Y-88123007D01*
X168800000Y-88900395D01*
X169577388Y-88123007D01*
X169511863Y-87884140D01*
X169353523Y-87809836D01*
X169456043Y-87767371D01*
X169682886Y-87615799D01*
X169875799Y-87422886D01*
X170027371Y-87196043D01*
X170131775Y-86943989D01*
X170185000Y-86676411D01*
X170185000Y-86403589D01*
X170156167Y-86258635D01*
X170378618Y-86036184D01*
X170383007Y-86037388D01*
X171160395Y-85260000D01*
X171146253Y-85245858D01*
X171325858Y-85066253D01*
X171340000Y-85080395D01*
X172117388Y-84303007D01*
X172051863Y-84064140D01*
X171804884Y-83948240D01*
X171540040Y-83882750D01*
X171267508Y-83870188D01*
X170997762Y-83911035D01*
X170741168Y-84003723D01*
X170635010Y-84060466D01*
X170635010Y-83689791D01*
X174500001Y-79824801D01*
X174500001Y-83565197D01*
X172722666Y-85342532D01*
X172729812Y-85187508D01*
X172688965Y-84917762D01*
X172596277Y-84661168D01*
X172535860Y-84548137D01*
X172296993Y-84482612D01*
X171519605Y-85260000D01*
X171533748Y-85274143D01*
X171354143Y-85453748D01*
X171340000Y-85439605D01*
X170562612Y-86216993D01*
X170628137Y-86455860D01*
X170786477Y-86530164D01*
X170683957Y-86572629D01*
X170457114Y-86724201D01*
X170264201Y-86917114D01*
X170112629Y-87143957D01*
X170008225Y-87396011D01*
X169955000Y-87663589D01*
X169955000Y-87936411D01*
X170008225Y-88203989D01*
X170112629Y-88456043D01*
X170264201Y-88682886D01*
X170457114Y-88875799D01*
X170683957Y-89027371D01*
X170786873Y-89070000D01*
X170683957Y-89112629D01*
X170457114Y-89264201D01*
X170264201Y-89457114D01*
X170112629Y-89683957D01*
X170008225Y-89936011D01*
X169955000Y-90203589D01*
X169955000Y-90476411D01*
X170008225Y-90743989D01*
X170112629Y-90996043D01*
X170264201Y-91222886D01*
X170457114Y-91415799D01*
X170683957Y-91567371D01*
X170786873Y-91610000D01*
X170683957Y-91652629D01*
X170457114Y-91804201D01*
X170264201Y-91997114D01*
X170112629Y-92223957D01*
X170008225Y-92476011D01*
X169955000Y-92743589D01*
X169955000Y-93016411D01*
X170008225Y-93283989D01*
X170112629Y-93536043D01*
X170264201Y-93762886D01*
X170457114Y-93955799D01*
X170683957Y-94107371D01*
X170936011Y-94211775D01*
X171203589Y-94265000D01*
X171476411Y-94265000D01*
X171743989Y-94211775D01*
X171996043Y-94107371D01*
X172222886Y-93955799D01*
X172415799Y-93762886D01*
X172567371Y-93536043D01*
X172671775Y-93283989D01*
X172725000Y-93016411D01*
X172725000Y-92743589D01*
X172671775Y-92476011D01*
X172567371Y-92223957D01*
X172415799Y-91997114D01*
X172222886Y-91804201D01*
X171996043Y-91652629D01*
X171893127Y-91610000D01*
X171996043Y-91567371D01*
X172222886Y-91415799D01*
X172415799Y-91222886D01*
X172567371Y-90996043D01*
X172671775Y-90743989D01*
X172725000Y-90476411D01*
X172725000Y-90203589D01*
X172671775Y-89936011D01*
X172567371Y-89683957D01*
X172415799Y-89457114D01*
X172222886Y-89264201D01*
X171996043Y-89112629D01*
X171893127Y-89070000D01*
X171996043Y-89027371D01*
X172222886Y-88875799D01*
X172415799Y-88682886D01*
X172567371Y-88456043D01*
X172671775Y-88203989D01*
X172725000Y-87936411D01*
X172725000Y-87663589D01*
X172696167Y-87518635D01*
X174641335Y-85573467D01*
X174499078Y-102273000D01*
X163527000Y-102273000D01*
X163527000Y-100750000D01*
X167007815Y-100750000D01*
X167036487Y-101041111D01*
X167121401Y-101321034D01*
X167259294Y-101579014D01*
X167444866Y-101805134D01*
X167670986Y-101990706D01*
X167928966Y-102128599D01*
X168208889Y-102213513D01*
X168427050Y-102235000D01*
X168572950Y-102235000D01*
X168791111Y-102213513D01*
X169071034Y-102128599D01*
X169329014Y-101990706D01*
X169555134Y-101805134D01*
X169579607Y-101775313D01*
X169600498Y-101844180D01*
X169659463Y-101954494D01*
X169738815Y-102051185D01*
X169835506Y-102130537D01*
X169945820Y-102189502D01*
X170065518Y-102225812D01*
X170190000Y-102238072D01*
X171890000Y-102238072D01*
X172014482Y-102225812D01*
X172134180Y-102189502D01*
X172244494Y-102130537D01*
X172341185Y-102051185D01*
X172420537Y-101954494D01*
X172479502Y-101844180D01*
X172515812Y-101724482D01*
X172528072Y-101600000D01*
X172528072Y-99900000D01*
X172515812Y-99775518D01*
X172479502Y-99655820D01*
X172420537Y-99545506D01*
X172341185Y-99448815D01*
X172244494Y-99369463D01*
X172134180Y-99310498D01*
X172014482Y-99274188D01*
X171890000Y-99261928D01*
X170190000Y-99261928D01*
X170065518Y-99274188D01*
X169945820Y-99310498D01*
X169835506Y-99369463D01*
X169738815Y-99448815D01*
X169659463Y-99545506D01*
X169600498Y-99655820D01*
X169579607Y-99724687D01*
X169555134Y-99694866D01*
X169329014Y-99509294D01*
X169071034Y-99371401D01*
X168791111Y-99286487D01*
X168572950Y-99265000D01*
X168427050Y-99265000D01*
X168208889Y-99286487D01*
X167928966Y-99371401D01*
X167670986Y-99509294D01*
X167444866Y-99694866D01*
X167259294Y-99920986D01*
X167121401Y-100178966D01*
X167036487Y-100458889D01*
X167007815Y-100750000D01*
X163527000Y-100750000D01*
X163527000Y-97600000D01*
X163524560Y-97575224D01*
X163517333Y-97551399D01*
X163505597Y-97529443D01*
X163489803Y-97510197D01*
X163470557Y-97494403D01*
X163448601Y-97482667D01*
X163424776Y-97475440D01*
X163400000Y-97473000D01*
X156627000Y-97473000D01*
X156627000Y-93932409D01*
X160540000Y-93932409D01*
X160540000Y-94377591D01*
X160626851Y-94814218D01*
X160797214Y-95225511D01*
X161044544Y-95595666D01*
X161359334Y-95910456D01*
X161729489Y-96157786D01*
X162140782Y-96328149D01*
X162577409Y-96415000D01*
X163022591Y-96415000D01*
X163459218Y-96328149D01*
X163870511Y-96157786D01*
X163914607Y-96128322D01*
X163909025Y-96185000D01*
X163932870Y-96427102D01*
X164003489Y-96659901D01*
X164118167Y-96874449D01*
X164272498Y-97062502D01*
X164460551Y-97216833D01*
X164675099Y-97331511D01*
X164907898Y-97402130D01*
X165089335Y-97420000D01*
X166510665Y-97420000D01*
X166692102Y-97402130D01*
X166924901Y-97331511D01*
X167139449Y-97216833D01*
X167327502Y-97062502D01*
X167481833Y-96874449D01*
X167596511Y-96659901D01*
X167667130Y-96427102D01*
X167690975Y-96185000D01*
X167667130Y-95942898D01*
X167596511Y-95710099D01*
X167481833Y-95495551D01*
X167327502Y-95307498D01*
X167139449Y-95153167D01*
X166924901Y-95038489D01*
X166692102Y-94967870D01*
X166510665Y-94950000D01*
X165089335Y-94950000D01*
X164909573Y-94967705D01*
X164973149Y-94814218D01*
X165060000Y-94377591D01*
X165060000Y-93932409D01*
X164973149Y-93495782D01*
X164802786Y-93084489D01*
X164555456Y-92714334D01*
X164240666Y-92399544D01*
X163870511Y-92152214D01*
X163459218Y-91981851D01*
X163022591Y-91895000D01*
X162577409Y-91895000D01*
X162140782Y-91981851D01*
X161729489Y-92152214D01*
X161359334Y-92399544D01*
X161044544Y-92714334D01*
X160797214Y-93084489D01*
X160626851Y-93495782D01*
X160540000Y-93932409D01*
X156627000Y-93932409D01*
X156627000Y-91483589D01*
X167415000Y-91483589D01*
X167415000Y-91756411D01*
X167468225Y-92023989D01*
X167572629Y-92276043D01*
X167724201Y-92502886D01*
X167917114Y-92695799D01*
X168143957Y-92847371D01*
X168396011Y-92951775D01*
X168663589Y-93005000D01*
X168936411Y-93005000D01*
X169203989Y-92951775D01*
X169456043Y-92847371D01*
X169682886Y-92695799D01*
X169875799Y-92502886D01*
X170027371Y-92276043D01*
X170131775Y-92023989D01*
X170185000Y-91756411D01*
X170185000Y-91483589D01*
X170131775Y-91216011D01*
X170027371Y-90963957D01*
X169875799Y-90737114D01*
X169682886Y-90544201D01*
X169456043Y-90392629D01*
X169356721Y-90351489D01*
X169398832Y-90336277D01*
X169511863Y-90275860D01*
X169577388Y-90036993D01*
X168800000Y-89259605D01*
X168022612Y-90036993D01*
X168088137Y-90275860D01*
X168246477Y-90350164D01*
X168143957Y-90392629D01*
X167917114Y-90544201D01*
X167724201Y-90737114D01*
X167572629Y-90963957D01*
X167468225Y-91216011D01*
X167415000Y-91483589D01*
X156627000Y-91483589D01*
X156627000Y-89152492D01*
X167410188Y-89152492D01*
X167451035Y-89422238D01*
X167543723Y-89678832D01*
X167604140Y-89791863D01*
X167843007Y-89857388D01*
X168620395Y-89080000D01*
X168979605Y-89080000D01*
X169756993Y-89857388D01*
X169995860Y-89791863D01*
X170111760Y-89544884D01*
X170177250Y-89280040D01*
X170189812Y-89007508D01*
X170148965Y-88737762D01*
X170056277Y-88481168D01*
X169995860Y-88368137D01*
X169756993Y-88302612D01*
X168979605Y-89080000D01*
X168620395Y-89080000D01*
X167843007Y-88302612D01*
X167604140Y-88368137D01*
X167488240Y-88615116D01*
X167422750Y-88879960D01*
X167410188Y-89152492D01*
X156627000Y-89152492D01*
X156627000Y-82502409D01*
X160540000Y-82502409D01*
X160540000Y-82947591D01*
X160626851Y-83384218D01*
X160797214Y-83795511D01*
X161044544Y-84165666D01*
X161359334Y-84480456D01*
X161729489Y-84727786D01*
X162140782Y-84898149D01*
X162577409Y-84985000D01*
X163022591Y-84985000D01*
X163459218Y-84898149D01*
X163870511Y-84727786D01*
X164240666Y-84480456D01*
X164555456Y-84165666D01*
X164802786Y-83795511D01*
X164973149Y-83384218D01*
X164999846Y-83250000D01*
X167411928Y-83250000D01*
X167415000Y-83714250D01*
X167573750Y-83873000D01*
X168673000Y-83873000D01*
X168673000Y-82773750D01*
X168514250Y-82615000D01*
X168050000Y-82611928D01*
X167925518Y-82624188D01*
X167805820Y-82660498D01*
X167695506Y-82719463D01*
X167598815Y-82798815D01*
X167519463Y-82895506D01*
X167460498Y-83005820D01*
X167424188Y-83125518D01*
X167411928Y-83250000D01*
X164999846Y-83250000D01*
X165060000Y-82947591D01*
X165060000Y-82502409D01*
X164973149Y-82065782D01*
X164909573Y-81912295D01*
X165089335Y-81930000D01*
X166510665Y-81930000D01*
X166692102Y-81912130D01*
X166924901Y-81841511D01*
X167139449Y-81726833D01*
X167327502Y-81572502D01*
X167481833Y-81384449D01*
X167596511Y-81169901D01*
X167667130Y-80937102D01*
X167690975Y-80695000D01*
X167667130Y-80452898D01*
X167596511Y-80220099D01*
X167481833Y-80005551D01*
X167327502Y-79817498D01*
X167139449Y-79663167D01*
X166924901Y-79548489D01*
X166692102Y-79477870D01*
X166510665Y-79460000D01*
X165089335Y-79460000D01*
X164907898Y-79477870D01*
X164675099Y-79548489D01*
X164460551Y-79663167D01*
X164272498Y-79817498D01*
X164118167Y-80005551D01*
X164003489Y-80220099D01*
X163932870Y-80452898D01*
X163909025Y-80695000D01*
X163914607Y-80751678D01*
X163870511Y-80722214D01*
X163459218Y-80551851D01*
X163022591Y-80465000D01*
X162577409Y-80465000D01*
X162140782Y-80551851D01*
X161729489Y-80722214D01*
X161359334Y-80969544D01*
X161044544Y-81284334D01*
X160797214Y-81654489D01*
X160626851Y-82065782D01*
X160540000Y-82502409D01*
X156627000Y-82502409D01*
X156627000Y-75333329D01*
X162307284Y-75333329D01*
X162315558Y-75383443D01*
X162415044Y-75626657D01*
X162560067Y-75845789D01*
X162745054Y-76032418D01*
X162962896Y-76179372D01*
X163205222Y-76281003D01*
X163462719Y-76333406D01*
X163673000Y-76179715D01*
X163673000Y-75127000D01*
X163927000Y-75127000D01*
X163927000Y-76179715D01*
X164137281Y-76333406D01*
X164394778Y-76281003D01*
X164637104Y-76179372D01*
X164854946Y-76032418D01*
X165039933Y-75845789D01*
X165184956Y-75626657D01*
X165284442Y-75383443D01*
X165292716Y-75333329D01*
X169307284Y-75333329D01*
X169315558Y-75383443D01*
X169415044Y-75626657D01*
X169560067Y-75845789D01*
X169745054Y-76032418D01*
X169962896Y-76179372D01*
X170205222Y-76281003D01*
X170462719Y-76333406D01*
X170673000Y-76179715D01*
X170673000Y-75127000D01*
X170927000Y-75127000D01*
X170927000Y-76179715D01*
X171137281Y-76333406D01*
X171394778Y-76281003D01*
X171637104Y-76179372D01*
X171854946Y-76032418D01*
X172039933Y-75845789D01*
X172184956Y-75626657D01*
X172284442Y-75383443D01*
X172292716Y-75333329D01*
X172169374Y-75127000D01*
X170927000Y-75127000D01*
X170673000Y-75127000D01*
X169430626Y-75127000D01*
X169307284Y-75333329D01*
X165292716Y-75333329D01*
X165169374Y-75127000D01*
X163927000Y-75127000D01*
X163673000Y-75127000D01*
X162430626Y-75127000D01*
X162307284Y-75333329D01*
X156627000Y-75333329D01*
X156627000Y-74666671D01*
X162307284Y-74666671D01*
X162430626Y-74873000D01*
X163673000Y-74873000D01*
X163673000Y-73820285D01*
X163927000Y-73820285D01*
X163927000Y-74873000D01*
X165169374Y-74873000D01*
X165292716Y-74666671D01*
X169307284Y-74666671D01*
X169430626Y-74873000D01*
X170673000Y-74873000D01*
X170673000Y-73820285D01*
X170927000Y-73820285D01*
X170927000Y-74873000D01*
X172169374Y-74873000D01*
X172292716Y-74666671D01*
X172284442Y-74616557D01*
X172184956Y-74373343D01*
X172039933Y-74154211D01*
X171854946Y-73967582D01*
X171637104Y-73820628D01*
X171394778Y-73718997D01*
X171137281Y-73666594D01*
X170927000Y-73820285D01*
X170673000Y-73820285D01*
X170462719Y-73666594D01*
X170205222Y-73718997D01*
X169962896Y-73820628D01*
X169745054Y-73967582D01*
X169560067Y-74154211D01*
X169415044Y-74373343D01*
X169315558Y-74616557D01*
X169307284Y-74666671D01*
X165292716Y-74666671D01*
X165284442Y-74616557D01*
X165184956Y-74373343D01*
X165039933Y-74154211D01*
X164854946Y-73967582D01*
X164637104Y-73820628D01*
X164394778Y-73718997D01*
X164137281Y-73666594D01*
X163927000Y-73820285D01*
X163673000Y-73820285D01*
X163462719Y-73666594D01*
X163205222Y-73718997D01*
X162962896Y-73820628D01*
X162745054Y-73967582D01*
X162560067Y-74154211D01*
X162415044Y-74373343D01*
X162315558Y-74616557D01*
X162307284Y-74666671D01*
X156627000Y-74666671D01*
X156627000Y-71862408D01*
X163203000Y-71862408D01*
X163203000Y-72137592D01*
X163256686Y-72407490D01*
X163361995Y-72661727D01*
X163514880Y-72890535D01*
X163709465Y-73085120D01*
X163938273Y-73238005D01*
X164192510Y-73343314D01*
X164462408Y-73397000D01*
X164737592Y-73397000D01*
X165007490Y-73343314D01*
X165261727Y-73238005D01*
X165490535Y-73085120D01*
X165600000Y-72975655D01*
X165709465Y-73085120D01*
X165938273Y-73238005D01*
X166192510Y-73343314D01*
X166462408Y-73397000D01*
X166737592Y-73397000D01*
X167007490Y-73343314D01*
X167261727Y-73238005D01*
X167490535Y-73085120D01*
X167600000Y-72975655D01*
X167709465Y-73085120D01*
X167938273Y-73238005D01*
X168192510Y-73343314D01*
X168462408Y-73397000D01*
X168737592Y-73397000D01*
X169007490Y-73343314D01*
X169261727Y-73238005D01*
X169490535Y-73085120D01*
X169610090Y-72965565D01*
X169814040Y-72965565D01*
X169881020Y-73205656D01*
X170130048Y-73322756D01*
X170397135Y-73389023D01*
X170672017Y-73401910D01*
X170944133Y-73360922D01*
X171203023Y-73267636D01*
X171318980Y-73205656D01*
X171385960Y-72965565D01*
X170600000Y-72179605D01*
X169814040Y-72965565D01*
X169610090Y-72965565D01*
X169685120Y-72890535D01*
X169838005Y-72661727D01*
X169894105Y-72526290D01*
X170420395Y-72000000D01*
X170779605Y-72000000D01*
X171565565Y-72785960D01*
X171805656Y-72718980D01*
X171922756Y-72469952D01*
X171989023Y-72202865D01*
X172001910Y-71927983D01*
X171960922Y-71655867D01*
X171867636Y-71396977D01*
X171805656Y-71281020D01*
X171565565Y-71214040D01*
X170779605Y-72000000D01*
X170420395Y-72000000D01*
X169894105Y-71473710D01*
X169838005Y-71338273D01*
X169685120Y-71109465D01*
X169610090Y-71034435D01*
X169814040Y-71034435D01*
X170600000Y-71820395D01*
X171385960Y-71034435D01*
X171318980Y-70794344D01*
X171069952Y-70677244D01*
X170802865Y-70610977D01*
X170527983Y-70598090D01*
X170255867Y-70639078D01*
X169996977Y-70732364D01*
X169881020Y-70794344D01*
X169814040Y-71034435D01*
X169610090Y-71034435D01*
X169490535Y-70914880D01*
X169261727Y-70761995D01*
X169007490Y-70656686D01*
X168737592Y-70603000D01*
X168462408Y-70603000D01*
X168192510Y-70656686D01*
X167938273Y-70761995D01*
X167709465Y-70914880D01*
X167600000Y-71024345D01*
X167490535Y-70914880D01*
X167261727Y-70761995D01*
X167007490Y-70656686D01*
X166737592Y-70603000D01*
X166462408Y-70603000D01*
X166192510Y-70656686D01*
X165938273Y-70761995D01*
X165709465Y-70914880D01*
X165600000Y-71024345D01*
X165490535Y-70914880D01*
X165261727Y-70761995D01*
X165007490Y-70656686D01*
X164737592Y-70603000D01*
X164462408Y-70603000D01*
X164192510Y-70656686D01*
X163938273Y-70761995D01*
X163709465Y-70914880D01*
X163514880Y-71109465D01*
X163361995Y-71338273D01*
X163256686Y-71592510D01*
X163203000Y-71862408D01*
X156627000Y-71862408D01*
X156627000Y-69333329D01*
X162307284Y-69333329D01*
X162315558Y-69383443D01*
X162415044Y-69626657D01*
X162560067Y-69845789D01*
X162745054Y-70032418D01*
X162962896Y-70179372D01*
X163205222Y-70281003D01*
X163462719Y-70333406D01*
X163673000Y-70179715D01*
X163673000Y-69127000D01*
X163927000Y-69127000D01*
X163927000Y-70179715D01*
X164137281Y-70333406D01*
X164394778Y-70281003D01*
X164637104Y-70179372D01*
X164854946Y-70032418D01*
X165039933Y-69845789D01*
X165184956Y-69626657D01*
X165284442Y-69383443D01*
X165292716Y-69333329D01*
X169307284Y-69333329D01*
X169315558Y-69383443D01*
X169415044Y-69626657D01*
X169560067Y-69845789D01*
X169745054Y-70032418D01*
X169962896Y-70179372D01*
X170205222Y-70281003D01*
X170462719Y-70333406D01*
X170673000Y-70179715D01*
X170673000Y-69127000D01*
X170927000Y-69127000D01*
X170927000Y-70179715D01*
X171137281Y-70333406D01*
X171394778Y-70281003D01*
X171637104Y-70179372D01*
X171854946Y-70032418D01*
X172039933Y-69845789D01*
X172184956Y-69626657D01*
X172284442Y-69383443D01*
X172292716Y-69333329D01*
X172169374Y-69127000D01*
X170927000Y-69127000D01*
X170673000Y-69127000D01*
X169430626Y-69127000D01*
X169307284Y-69333329D01*
X165292716Y-69333329D01*
X165169374Y-69127000D01*
X163927000Y-69127000D01*
X163673000Y-69127000D01*
X162430626Y-69127000D01*
X162307284Y-69333329D01*
X156627000Y-69333329D01*
X156627000Y-68666671D01*
X162307284Y-68666671D01*
X162430626Y-68873000D01*
X163673000Y-68873000D01*
X163673000Y-67820285D01*
X163927000Y-67820285D01*
X163927000Y-68873000D01*
X165169374Y-68873000D01*
X165292716Y-68666671D01*
X169307284Y-68666671D01*
X169430626Y-68873000D01*
X170673000Y-68873000D01*
X170673000Y-67820285D01*
X170927000Y-67820285D01*
X170927000Y-68873000D01*
X172169374Y-68873000D01*
X172292716Y-68666671D01*
X172284442Y-68616557D01*
X172184956Y-68373343D01*
X172039933Y-68154211D01*
X171854946Y-67967582D01*
X171637104Y-67820628D01*
X171394778Y-67718997D01*
X171137281Y-67666594D01*
X170927000Y-67820285D01*
X170673000Y-67820285D01*
X170462719Y-67666594D01*
X170205222Y-67718997D01*
X169962896Y-67820628D01*
X169745054Y-67967582D01*
X169560067Y-68154211D01*
X169415044Y-68373343D01*
X169315558Y-68616557D01*
X169307284Y-68666671D01*
X165292716Y-68666671D01*
X165284442Y-68616557D01*
X165184956Y-68373343D01*
X165039933Y-68154211D01*
X164854946Y-67967582D01*
X164637104Y-67820628D01*
X164394778Y-67718997D01*
X164137281Y-67666594D01*
X163927000Y-67820285D01*
X163673000Y-67820285D01*
X163462719Y-67666594D01*
X163205222Y-67718997D01*
X162962896Y-67820628D01*
X162745054Y-67967582D01*
X162560067Y-68154211D01*
X162415044Y-68373343D01*
X162315558Y-68616557D01*
X162307284Y-68666671D01*
X156627000Y-68666671D01*
X156627000Y-61740475D01*
X160695000Y-61740475D01*
X160695000Y-62259525D01*
X160796261Y-62768601D01*
X160994893Y-63248141D01*
X161283262Y-63679715D01*
X161650285Y-64046738D01*
X162081859Y-64335107D01*
X162561399Y-64533739D01*
X163070475Y-64635000D01*
X163589525Y-64635000D01*
X164098601Y-64533739D01*
X164578141Y-64335107D01*
X165009715Y-64046738D01*
X165376738Y-63679715D01*
X165665107Y-63248141D01*
X165863739Y-62768601D01*
X165965000Y-62259525D01*
X165965000Y-61740475D01*
X165863739Y-61231399D01*
X165665107Y-60751859D01*
X165376738Y-60320285D01*
X165009715Y-59953262D01*
X164578141Y-59664893D01*
X164098601Y-59466261D01*
X163589525Y-59365000D01*
X163070475Y-59365000D01*
X162561399Y-59466261D01*
X162081859Y-59664893D01*
X161650285Y-59953262D01*
X161283262Y-60320285D01*
X160994893Y-60751859D01*
X160796261Y-61231399D01*
X160695000Y-61740475D01*
X156627000Y-61740475D01*
X156627000Y-45163665D01*
X160625000Y-45163665D01*
X160625000Y-45446335D01*
X160680147Y-45723574D01*
X160788320Y-45984727D01*
X160945363Y-46219759D01*
X161145241Y-46419637D01*
X161380273Y-46576680D01*
X161641426Y-46684853D01*
X161667301Y-46690000D01*
X161641426Y-46695147D01*
X161380273Y-46803320D01*
X161145241Y-46960363D01*
X160945363Y-47160241D01*
X160788320Y-47395273D01*
X160680147Y-47656426D01*
X160625000Y-47933665D01*
X160625000Y-48216335D01*
X160680147Y-48493574D01*
X160788320Y-48754727D01*
X160945363Y-48989759D01*
X161145241Y-49189637D01*
X161380273Y-49346680D01*
X161641426Y-49454853D01*
X161667301Y-49460000D01*
X161641426Y-49465147D01*
X161380273Y-49573320D01*
X161145241Y-49730363D01*
X160945363Y-49930241D01*
X160788320Y-50165273D01*
X160680147Y-50426426D01*
X160625000Y-50703665D01*
X160625000Y-50986335D01*
X160680147Y-51263574D01*
X160788320Y-51524727D01*
X160945363Y-51759759D01*
X161145241Y-51959637D01*
X161380273Y-52116680D01*
X161641426Y-52224853D01*
X161667301Y-52230000D01*
X161641426Y-52235147D01*
X161380273Y-52343320D01*
X161145241Y-52500363D01*
X160945363Y-52700241D01*
X160788320Y-52935273D01*
X160680147Y-53196426D01*
X160625000Y-53473665D01*
X160625000Y-53756335D01*
X160680147Y-54033574D01*
X160788320Y-54294727D01*
X160945363Y-54529759D01*
X161145241Y-54729637D01*
X161380273Y-54886680D01*
X161641426Y-54994853D01*
X161918665Y-55050000D01*
X162201335Y-55050000D01*
X162478574Y-54994853D01*
X162739727Y-54886680D01*
X162974759Y-54729637D01*
X163161928Y-54542468D01*
X163161928Y-55800000D01*
X163174188Y-55924482D01*
X163210498Y-56044180D01*
X163269463Y-56154494D01*
X163348815Y-56251185D01*
X163445506Y-56330537D01*
X163555820Y-56389502D01*
X163675518Y-56425812D01*
X163800000Y-56438072D01*
X165400000Y-56438072D01*
X165524482Y-56425812D01*
X165644180Y-56389502D01*
X165754494Y-56330537D01*
X165851185Y-56251185D01*
X165930537Y-56154494D01*
X165989502Y-56044180D01*
X166025812Y-55924482D01*
X166027730Y-55905000D01*
X167909428Y-55905000D01*
X167921688Y-56029482D01*
X167957998Y-56149180D01*
X168016963Y-56259494D01*
X168096315Y-56356185D01*
X168193006Y-56435537D01*
X168303320Y-56494502D01*
X168423018Y-56530812D01*
X168547500Y-56543072D01*
X168974250Y-56540000D01*
X169133000Y-56381250D01*
X169133000Y-55157000D01*
X169387000Y-55157000D01*
X169387000Y-56381250D01*
X169545750Y-56540000D01*
X169972500Y-56543072D01*
X170096982Y-56530812D01*
X170216680Y-56494502D01*
X170326994Y-56435537D01*
X170423685Y-56356185D01*
X170503037Y-56259494D01*
X170562002Y-56149180D01*
X170598312Y-56029482D01*
X170610572Y-55905000D01*
X170607500Y-55315750D01*
X170448750Y-55157000D01*
X169387000Y-55157000D01*
X169133000Y-55157000D01*
X168071250Y-55157000D01*
X167912500Y-55315750D01*
X167909428Y-55905000D01*
X166027730Y-55905000D01*
X166038072Y-55800000D01*
X166038072Y-54200000D01*
X166033641Y-54155000D01*
X167909428Y-54155000D01*
X167912500Y-54744250D01*
X168071250Y-54903000D01*
X169133000Y-54903000D01*
X169133000Y-53678750D01*
X169387000Y-53678750D01*
X169387000Y-54903000D01*
X170448750Y-54903000D01*
X170607500Y-54744250D01*
X170610572Y-54155000D01*
X170598312Y-54030518D01*
X170562002Y-53910820D01*
X170503037Y-53800506D01*
X170423685Y-53703815D01*
X170326994Y-53624463D01*
X170216680Y-53565498D01*
X170096982Y-53529188D01*
X169972500Y-53516928D01*
X169545750Y-53520000D01*
X169387000Y-53678750D01*
X169133000Y-53678750D01*
X168974250Y-53520000D01*
X168547500Y-53516928D01*
X168423018Y-53529188D01*
X168303320Y-53565498D01*
X168193006Y-53624463D01*
X168096315Y-53703815D01*
X168016963Y-53800506D01*
X167957998Y-53910820D01*
X167921688Y-54030518D01*
X167909428Y-54155000D01*
X166033641Y-54155000D01*
X166025812Y-54075518D01*
X165989502Y-53955820D01*
X165930537Y-53845506D01*
X165851185Y-53748815D01*
X165754494Y-53669463D01*
X165644180Y-53610498D01*
X165524482Y-53574188D01*
X165400000Y-53561928D01*
X165134275Y-53561928D01*
X165279727Y-53501680D01*
X165514759Y-53344637D01*
X165714637Y-53144759D01*
X165871680Y-52909727D01*
X165979853Y-52648574D01*
X166035000Y-52371335D01*
X166035000Y-52088665D01*
X165979853Y-51811426D01*
X165871680Y-51550273D01*
X165714637Y-51315241D01*
X165514759Y-51115363D01*
X165279727Y-50958320D01*
X165018574Y-50850147D01*
X164992699Y-50845000D01*
X165018574Y-50839853D01*
X165279727Y-50731680D01*
X165514759Y-50574637D01*
X165714637Y-50374759D01*
X165871680Y-50139727D01*
X165979853Y-49878574D01*
X166035000Y-49601335D01*
X166035000Y-49318665D01*
X165979853Y-49041426D01*
X165871680Y-48780273D01*
X165714637Y-48545241D01*
X165514759Y-48345363D01*
X165279727Y-48188320D01*
X165018574Y-48080147D01*
X164992699Y-48075000D01*
X165018574Y-48069853D01*
X165279727Y-47961680D01*
X165514759Y-47804637D01*
X165714637Y-47604759D01*
X165871680Y-47369727D01*
X165979853Y-47108574D01*
X166035000Y-46831335D01*
X166035000Y-46548665D01*
X165979853Y-46271426D01*
X165871680Y-46010273D01*
X165714637Y-45775241D01*
X165514759Y-45575363D01*
X165279727Y-45418320D01*
X165018574Y-45310147D01*
X164990118Y-45304487D01*
X165216292Y-45223603D01*
X165341514Y-45156671D01*
X165413097Y-44912702D01*
X164600000Y-44099605D01*
X163786903Y-44912702D01*
X163858486Y-45156671D01*
X164113996Y-45277571D01*
X164216289Y-45303212D01*
X164181426Y-45310147D01*
X163920273Y-45418320D01*
X163685241Y-45575363D01*
X163485363Y-45775241D01*
X163328320Y-46010273D01*
X163220147Y-46271426D01*
X163165000Y-46548665D01*
X163165000Y-46831335D01*
X163220147Y-47108574D01*
X163328320Y-47369727D01*
X163485363Y-47604759D01*
X163685241Y-47804637D01*
X163920273Y-47961680D01*
X164181426Y-48069853D01*
X164207301Y-48075000D01*
X164181426Y-48080147D01*
X163920273Y-48188320D01*
X163685241Y-48345363D01*
X163485363Y-48545241D01*
X163328320Y-48780273D01*
X163220147Y-49041426D01*
X163165000Y-49318665D01*
X163165000Y-49601335D01*
X163220147Y-49878574D01*
X163328320Y-50139727D01*
X163485363Y-50374759D01*
X163685241Y-50574637D01*
X163920273Y-50731680D01*
X164181426Y-50839853D01*
X164207301Y-50845000D01*
X164181426Y-50850147D01*
X163920273Y-50958320D01*
X163685241Y-51115363D01*
X163485363Y-51315241D01*
X163328320Y-51550273D01*
X163220147Y-51811426D01*
X163165000Y-52088665D01*
X163165000Y-52371335D01*
X163220147Y-52648574D01*
X163328320Y-52909727D01*
X163485363Y-53144759D01*
X163685241Y-53344637D01*
X163920273Y-53501680D01*
X164065725Y-53561928D01*
X163800000Y-53561928D01*
X163675518Y-53574188D01*
X163555820Y-53610498D01*
X163495000Y-53643007D01*
X163495000Y-53473665D01*
X163439853Y-53196426D01*
X163331680Y-52935273D01*
X163174637Y-52700241D01*
X162974759Y-52500363D01*
X162739727Y-52343320D01*
X162478574Y-52235147D01*
X162452699Y-52230000D01*
X162478574Y-52224853D01*
X162739727Y-52116680D01*
X162974759Y-51959637D01*
X163174637Y-51759759D01*
X163331680Y-51524727D01*
X163439853Y-51263574D01*
X163495000Y-50986335D01*
X163495000Y-50703665D01*
X163439853Y-50426426D01*
X163331680Y-50165273D01*
X163174637Y-49930241D01*
X162974759Y-49730363D01*
X162739727Y-49573320D01*
X162478574Y-49465147D01*
X162452699Y-49460000D01*
X162478574Y-49454853D01*
X162739727Y-49346680D01*
X162974759Y-49189637D01*
X163174637Y-48989759D01*
X163331680Y-48754727D01*
X163439853Y-48493574D01*
X163495000Y-48216335D01*
X163495000Y-47933665D01*
X163439853Y-47656426D01*
X163331680Y-47395273D01*
X163174637Y-47160241D01*
X162974759Y-46960363D01*
X162739727Y-46803320D01*
X162478574Y-46695147D01*
X162452699Y-46690000D01*
X162478574Y-46684853D01*
X162739727Y-46576680D01*
X162974759Y-46419637D01*
X163174637Y-46219759D01*
X163331680Y-45984727D01*
X163439853Y-45723574D01*
X163495000Y-45446335D01*
X163495000Y-45163665D01*
X163439853Y-44886426D01*
X163331680Y-44625273D01*
X163174637Y-44390241D01*
X162974759Y-44190363D01*
X162739727Y-44033320D01*
X162636380Y-43990512D01*
X163159783Y-43990512D01*
X163201213Y-44270130D01*
X163296397Y-44536292D01*
X163363329Y-44661514D01*
X163607298Y-44733097D01*
X164420395Y-43920000D01*
X164779605Y-43920000D01*
X165592702Y-44733097D01*
X165836671Y-44661514D01*
X165957571Y-44406004D01*
X166026300Y-44131816D01*
X166040217Y-43849488D01*
X165998787Y-43569870D01*
X165903603Y-43303708D01*
X165861534Y-43225000D01*
X167746928Y-43225000D01*
X167759188Y-43349482D01*
X167795498Y-43469180D01*
X167854463Y-43579494D01*
X167933815Y-43676185D01*
X168030506Y-43755537D01*
X168140820Y-43814502D01*
X168260518Y-43850812D01*
X168385000Y-43863072D01*
X168974250Y-43860000D01*
X169133000Y-43701250D01*
X169133000Y-42639500D01*
X167908750Y-42639500D01*
X167750000Y-42798250D01*
X167746928Y-43225000D01*
X165861534Y-43225000D01*
X165836671Y-43178486D01*
X165592702Y-43106903D01*
X164779605Y-43920000D01*
X164420395Y-43920000D01*
X163607298Y-43106903D01*
X163363329Y-43178486D01*
X163242429Y-43433996D01*
X163173700Y-43708184D01*
X163159783Y-43990512D01*
X162636380Y-43990512D01*
X162478574Y-43925147D01*
X162201335Y-43870000D01*
X161918665Y-43870000D01*
X161641426Y-43925147D01*
X161380273Y-44033320D01*
X161145241Y-44190363D01*
X160945363Y-44390241D01*
X160788320Y-44625273D01*
X160680147Y-44886426D01*
X160625000Y-45163665D01*
X156627000Y-45163665D01*
X156627000Y-42927298D01*
X163786903Y-42927298D01*
X164600000Y-43740395D01*
X165413097Y-42927298D01*
X165341514Y-42683329D01*
X165086004Y-42562429D01*
X164811816Y-42493700D01*
X164529488Y-42479783D01*
X164249870Y-42521213D01*
X163983708Y-42616397D01*
X163858486Y-42683329D01*
X163786903Y-42927298D01*
X156627000Y-42927298D01*
X156627000Y-41800000D01*
X167746928Y-41800000D01*
X167750000Y-42226750D01*
X167908750Y-42385500D01*
X169133000Y-42385500D01*
X169133000Y-41323750D01*
X169387000Y-41323750D01*
X169387000Y-42385500D01*
X170611250Y-42385500D01*
X170770000Y-42226750D01*
X170773072Y-41800000D01*
X170760812Y-41675518D01*
X170724502Y-41555820D01*
X170665537Y-41445506D01*
X170586185Y-41348815D01*
X170489494Y-41269463D01*
X170379180Y-41210498D01*
X170259482Y-41174188D01*
X170135000Y-41161928D01*
X169545750Y-41165000D01*
X169387000Y-41323750D01*
X169133000Y-41323750D01*
X168974250Y-41165000D01*
X168385000Y-41161928D01*
X168260518Y-41174188D01*
X168140820Y-41210498D01*
X168030506Y-41269463D01*
X167933815Y-41348815D01*
X167854463Y-41445506D01*
X167795498Y-41555820D01*
X167759188Y-41675518D01*
X167746928Y-41800000D01*
X156627000Y-41800000D01*
X156627000Y-36660475D01*
X160695000Y-36660475D01*
X160695000Y-37179525D01*
X160796261Y-37688601D01*
X160994893Y-38168141D01*
X161283262Y-38599715D01*
X161650285Y-38966738D01*
X162081859Y-39255107D01*
X162561399Y-39453739D01*
X163070475Y-39555000D01*
X163589525Y-39555000D01*
X164098601Y-39453739D01*
X164578141Y-39255107D01*
X165009715Y-38966738D01*
X165376738Y-38599715D01*
X165665107Y-38168141D01*
X165817596Y-37800000D01*
X178261928Y-37800000D01*
X178261928Y-39600000D01*
X178274188Y-39724482D01*
X178310498Y-39844180D01*
X178369463Y-39954494D01*
X178448815Y-40051185D01*
X178545506Y-40130537D01*
X178655820Y-40189502D01*
X178775518Y-40225812D01*
X178900000Y-40238072D01*
X180700000Y-40238072D01*
X180824482Y-40225812D01*
X180944180Y-40189502D01*
X181054494Y-40130537D01*
X181151185Y-40051185D01*
X181230537Y-39954494D01*
X181289502Y-39844180D01*
X181325812Y-39724482D01*
X181338072Y-39600000D01*
X181338072Y-37800000D01*
X181325812Y-37675518D01*
X181289502Y-37555820D01*
X181230537Y-37445506D01*
X181151185Y-37348815D01*
X181054494Y-37269463D01*
X180944180Y-37210498D01*
X180824482Y-37174188D01*
X180700000Y-37161928D01*
X178900000Y-37161928D01*
X178775518Y-37174188D01*
X178655820Y-37210498D01*
X178545506Y-37269463D01*
X178448815Y-37348815D01*
X178369463Y-37445506D01*
X178310498Y-37555820D01*
X178274188Y-37675518D01*
X178261928Y-37800000D01*
X165817596Y-37800000D01*
X165863739Y-37688601D01*
X165965000Y-37179525D01*
X165965000Y-36660475D01*
X165863739Y-36151399D01*
X165665107Y-35671859D01*
X165376738Y-35240285D01*
X165175420Y-35038967D01*
X168165000Y-35038967D01*
X168165000Y-35361033D01*
X168227832Y-35676912D01*
X168351082Y-35974463D01*
X168530013Y-36242252D01*
X168757748Y-36469987D01*
X169025537Y-36648918D01*
X169323088Y-36772168D01*
X169638967Y-36835000D01*
X169961033Y-36835000D01*
X170276912Y-36772168D01*
X170574463Y-36648918D01*
X170842252Y-36469987D01*
X171069987Y-36242252D01*
X171248918Y-35974463D01*
X171372168Y-35676912D01*
X171435000Y-35361033D01*
X171435000Y-35048967D01*
X173245000Y-35048967D01*
X173245000Y-35371033D01*
X173307832Y-35686912D01*
X173431082Y-35984463D01*
X173610013Y-36252252D01*
X173837748Y-36479987D01*
X174105537Y-36658918D01*
X174403088Y-36782168D01*
X174718967Y-36845000D01*
X175041033Y-36845000D01*
X175356912Y-36782168D01*
X175654463Y-36658918D01*
X175922252Y-36479987D01*
X176149987Y-36252252D01*
X176328918Y-35984463D01*
X176452168Y-35686912D01*
X176515000Y-35371033D01*
X176515000Y-35048967D01*
X176452168Y-34733088D01*
X176328918Y-34435537D01*
X176149987Y-34167748D01*
X175922252Y-33940013D01*
X175654463Y-33761082D01*
X175356912Y-33637832D01*
X175041033Y-33575000D01*
X174718967Y-33575000D01*
X174403088Y-33637832D01*
X174105537Y-33761082D01*
X173837748Y-33940013D01*
X173610013Y-34167748D01*
X173431082Y-34435537D01*
X173307832Y-34733088D01*
X173245000Y-35048967D01*
X171435000Y-35048967D01*
X171435000Y-35038967D01*
X171372168Y-34723088D01*
X171248918Y-34425537D01*
X171069987Y-34157748D01*
X170842252Y-33930013D01*
X170574463Y-33751082D01*
X170276912Y-33627832D01*
X169961033Y-33565000D01*
X169638967Y-33565000D01*
X169323088Y-33627832D01*
X169025537Y-33751082D01*
X168757748Y-33930013D01*
X168530013Y-34157748D01*
X168351082Y-34425537D01*
X168227832Y-34723088D01*
X168165000Y-35038967D01*
X165175420Y-35038967D01*
X165009715Y-34873262D01*
X164578141Y-34584893D01*
X164098601Y-34386261D01*
X163589525Y-34285000D01*
X163070475Y-34285000D01*
X162561399Y-34386261D01*
X162081859Y-34584893D01*
X161650285Y-34873262D01*
X161283262Y-35240285D01*
X160994893Y-35671859D01*
X160796261Y-36151399D01*
X160695000Y-36660475D01*
X156627000Y-36660475D01*
X156627000Y-32992702D01*
X186086903Y-32992702D01*
X186158486Y-33236671D01*
X186413996Y-33357571D01*
X186688184Y-33426300D01*
X186970512Y-33440217D01*
X187250130Y-33398787D01*
X187516292Y-33303603D01*
X187641514Y-33236671D01*
X187713097Y-32992702D01*
X186900000Y-32179605D01*
X186086903Y-32992702D01*
X156627000Y-32992702D01*
X156627000Y-31827000D01*
X164500000Y-31827000D01*
X164524776Y-31824560D01*
X164548601Y-31817333D01*
X164570557Y-31805597D01*
X164589803Y-31789803D01*
X164605597Y-31770557D01*
X164617333Y-31748601D01*
X164624560Y-31724776D01*
X164627000Y-31700000D01*
X164627000Y-26250000D01*
X165011928Y-26250000D01*
X165024188Y-26374482D01*
X165060498Y-26494180D01*
X165119463Y-26604494D01*
X165198815Y-26701185D01*
X165295506Y-26780537D01*
X165405820Y-26839502D01*
X165525518Y-26875812D01*
X165650000Y-26888072D01*
X166614250Y-26885000D01*
X166773000Y-26726250D01*
X166773000Y-25127000D01*
X167027000Y-25127000D01*
X167027000Y-26726250D01*
X167185750Y-26885000D01*
X168150000Y-26888072D01*
X168274482Y-26875812D01*
X168394180Y-26839502D01*
X168504494Y-26780537D01*
X168601185Y-26701185D01*
X168680537Y-26604494D01*
X168739502Y-26494180D01*
X168775812Y-26374482D01*
X168788072Y-26250000D01*
X168785000Y-25285750D01*
X168626250Y-25127000D01*
X167027000Y-25127000D01*
X166773000Y-25127000D01*
X165173750Y-25127000D01*
X165015000Y-25285750D01*
X165011928Y-26250000D01*
X164627000Y-26250000D01*
X164627000Y-23750000D01*
X165011928Y-23750000D01*
X165015000Y-24714250D01*
X165173750Y-24873000D01*
X166773000Y-24873000D01*
X166773000Y-23273750D01*
X167027000Y-23273750D01*
X167027000Y-24873000D01*
X168626250Y-24873000D01*
X168684906Y-24814344D01*
X170015000Y-24814344D01*
X170015000Y-25185656D01*
X170087439Y-25549834D01*
X170229534Y-25892882D01*
X170435825Y-26201618D01*
X170698382Y-26464175D01*
X171007118Y-26670466D01*
X171350166Y-26812561D01*
X171714344Y-26885000D01*
X172085656Y-26885000D01*
X172449834Y-26812561D01*
X172792882Y-26670466D01*
X173101618Y-26464175D01*
X173364175Y-26201618D01*
X173570466Y-25892882D01*
X173712561Y-25549834D01*
X173785000Y-25185656D01*
X173785000Y-24814344D01*
X175015000Y-24814344D01*
X175015000Y-25185656D01*
X175087439Y-25549834D01*
X175229534Y-25892882D01*
X175435825Y-26201618D01*
X175698382Y-26464175D01*
X176007118Y-26670466D01*
X176350166Y-26812561D01*
X176714344Y-26885000D01*
X177085656Y-26885000D01*
X177449834Y-26812561D01*
X177457717Y-26809296D01*
X178915001Y-28266580D01*
X178915000Y-29820558D01*
X178709339Y-29989339D01*
X178517519Y-30223073D01*
X178374983Y-30489739D01*
X178287210Y-30779087D01*
X178257573Y-31080000D01*
X178287210Y-31380913D01*
X178374983Y-31670261D01*
X178517519Y-31936927D01*
X178709339Y-32170661D01*
X178943073Y-32362481D01*
X179209739Y-32505017D01*
X179499087Y-32592790D01*
X179724592Y-32615000D01*
X179875408Y-32615000D01*
X180100913Y-32592790D01*
X180390261Y-32505017D01*
X180656927Y-32362481D01*
X180890661Y-32170661D01*
X181082481Y-31936927D01*
X181225017Y-31670261D01*
X181312790Y-31380913D01*
X181342427Y-31080000D01*
X181857573Y-31080000D01*
X181887210Y-31380913D01*
X181974983Y-31670261D01*
X182117519Y-31936927D01*
X182309339Y-32170661D01*
X182543073Y-32362481D01*
X182809739Y-32505017D01*
X183099087Y-32592790D01*
X183324592Y-32615000D01*
X183475408Y-32615000D01*
X183700913Y-32592790D01*
X183990261Y-32505017D01*
X184256927Y-32362481D01*
X184490661Y-32170661D01*
X184572850Y-32070512D01*
X185459783Y-32070512D01*
X185501213Y-32350130D01*
X185596397Y-32616292D01*
X185663329Y-32741514D01*
X185907298Y-32813097D01*
X186720395Y-32000000D01*
X187079605Y-32000000D01*
X187892702Y-32813097D01*
X188136671Y-32741514D01*
X188257571Y-32486004D01*
X188326300Y-32211816D01*
X188340217Y-31929488D01*
X188298787Y-31649870D01*
X188203603Y-31383708D01*
X188136671Y-31258486D01*
X187892702Y-31186903D01*
X187079605Y-32000000D01*
X186720395Y-32000000D01*
X185907298Y-31186903D01*
X185663329Y-31258486D01*
X185542429Y-31513996D01*
X185473700Y-31788184D01*
X185459783Y-32070512D01*
X184572850Y-32070512D01*
X184682481Y-31936927D01*
X184825017Y-31670261D01*
X184912790Y-31380913D01*
X184942427Y-31080000D01*
X184935267Y-31007298D01*
X186086903Y-31007298D01*
X186900000Y-31820395D01*
X187713097Y-31007298D01*
X187641514Y-30763329D01*
X187386004Y-30642429D01*
X187111816Y-30573700D01*
X186829488Y-30559783D01*
X186549870Y-30601213D01*
X186283708Y-30696397D01*
X186158486Y-30763329D01*
X186086903Y-31007298D01*
X184935267Y-31007298D01*
X184912790Y-30779087D01*
X184825017Y-30489739D01*
X184682481Y-30223073D01*
X184490661Y-29989339D01*
X184256927Y-29797519D01*
X183990261Y-29654983D01*
X183700913Y-29567210D01*
X183475408Y-29545000D01*
X183324592Y-29545000D01*
X183099087Y-29567210D01*
X182809739Y-29654983D01*
X182543073Y-29797519D01*
X182309339Y-29989339D01*
X182117519Y-30223073D01*
X181974983Y-30489739D01*
X181887210Y-30779087D01*
X181857573Y-31080000D01*
X181342427Y-31080000D01*
X181312790Y-30779087D01*
X181225017Y-30489739D01*
X181082481Y-30223073D01*
X180890661Y-29989339D01*
X180685000Y-29820558D01*
X180685000Y-28858665D01*
X185565000Y-28858665D01*
X185565000Y-29141335D01*
X185620147Y-29418574D01*
X185728320Y-29679727D01*
X185885363Y-29914759D01*
X186085241Y-30114637D01*
X186320273Y-30271680D01*
X186581426Y-30379853D01*
X186858665Y-30435000D01*
X187141335Y-30435000D01*
X187418574Y-30379853D01*
X187679727Y-30271680D01*
X187914759Y-30114637D01*
X188114637Y-29914759D01*
X188271680Y-29679727D01*
X188379853Y-29418574D01*
X188435000Y-29141335D01*
X188435000Y-29070512D01*
X190559783Y-29070512D01*
X190601213Y-29350130D01*
X190696397Y-29616292D01*
X190763329Y-29741514D01*
X191007298Y-29813097D01*
X191820395Y-29000000D01*
X191007298Y-28186903D01*
X190763329Y-28258486D01*
X190642429Y-28513996D01*
X190573700Y-28788184D01*
X190559783Y-29070512D01*
X188435000Y-29070512D01*
X188435000Y-28858665D01*
X188379853Y-28581426D01*
X188271680Y-28320273D01*
X188114637Y-28085241D01*
X187914759Y-27885363D01*
X187679727Y-27728320D01*
X187418574Y-27620147D01*
X187141335Y-27565000D01*
X186858665Y-27565000D01*
X186581426Y-27620147D01*
X186320273Y-27728320D01*
X186085241Y-27885363D01*
X185885363Y-28085241D01*
X185728320Y-28320273D01*
X185620147Y-28581426D01*
X185565000Y-28858665D01*
X180685000Y-28858665D01*
X180685000Y-27943465D01*
X180689281Y-27899999D01*
X180685000Y-27856533D01*
X180685000Y-27856523D01*
X180672195Y-27726510D01*
X180621589Y-27559687D01*
X180539411Y-27405941D01*
X180428817Y-27271183D01*
X180395049Y-27243470D01*
X178709296Y-25557717D01*
X178712561Y-25549834D01*
X178785000Y-25185656D01*
X178785000Y-24814344D01*
X178712561Y-24450166D01*
X178570466Y-24107118D01*
X178498892Y-24000000D01*
X182009428Y-24000000D01*
X182009428Y-26000000D01*
X182021688Y-26124482D01*
X182057998Y-26244180D01*
X182116963Y-26354494D01*
X182196315Y-26451185D01*
X182293006Y-26530537D01*
X182403320Y-26589502D01*
X182523018Y-26625812D01*
X182647500Y-26638072D01*
X184552500Y-26638072D01*
X184676982Y-26625812D01*
X184796680Y-26589502D01*
X184906994Y-26530537D01*
X185003685Y-26451185D01*
X185083037Y-26354494D01*
X185132059Y-26262781D01*
X185273077Y-26375969D01*
X185548906Y-26519571D01*
X185767020Y-26590563D01*
X186013000Y-26470594D01*
X186013000Y-25127000D01*
X185993000Y-25127000D01*
X185993000Y-24873000D01*
X186013000Y-24873000D01*
X186013000Y-23529406D01*
X186267000Y-23529406D01*
X186267000Y-24873000D01*
X186287000Y-24873000D01*
X186287000Y-25127000D01*
X186267000Y-25127000D01*
X186267000Y-26470594D01*
X186512980Y-26590563D01*
X186731094Y-26519571D01*
X187006923Y-26375969D01*
X187249437Y-26181315D01*
X187404837Y-25996101D01*
X187552037Y-26175463D01*
X187793766Y-26373845D01*
X188069552Y-26521255D01*
X188368797Y-26612030D01*
X188680000Y-26642681D01*
X188991204Y-26612030D01*
X189290449Y-26521255D01*
X189566235Y-26373845D01*
X189807963Y-26175463D01*
X190006345Y-25933734D01*
X190153755Y-25657948D01*
X190244530Y-25358703D01*
X190267500Y-25125485D01*
X190267500Y-24874514D01*
X190244530Y-24641296D01*
X190153755Y-24342051D01*
X190006345Y-24066265D01*
X189807963Y-23824537D01*
X189566234Y-23626155D01*
X189290448Y-23478745D01*
X188991203Y-23387970D01*
X188680000Y-23357319D01*
X188368796Y-23387970D01*
X188069551Y-23478745D01*
X187793765Y-23626155D01*
X187552037Y-23824537D01*
X187404838Y-24003900D01*
X187249437Y-23818685D01*
X187006923Y-23624031D01*
X186731094Y-23480429D01*
X186512980Y-23409437D01*
X186267000Y-23529406D01*
X186013000Y-23529406D01*
X185767020Y-23409437D01*
X185548906Y-23480429D01*
X185273077Y-23624031D01*
X185132059Y-23737219D01*
X185083037Y-23645506D01*
X185003685Y-23548815D01*
X184906994Y-23469463D01*
X184796680Y-23410498D01*
X184676982Y-23374188D01*
X184552500Y-23361928D01*
X182647500Y-23361928D01*
X182523018Y-23374188D01*
X182403320Y-23410498D01*
X182293006Y-23469463D01*
X182196315Y-23548815D01*
X182116963Y-23645506D01*
X182057998Y-23755820D01*
X182021688Y-23875518D01*
X182009428Y-24000000D01*
X178498892Y-24000000D01*
X178364175Y-23798382D01*
X178101618Y-23535825D01*
X177792882Y-23329534D01*
X177449834Y-23187439D01*
X177085656Y-23115000D01*
X176714344Y-23115000D01*
X176350166Y-23187439D01*
X176007118Y-23329534D01*
X175698382Y-23535825D01*
X175435825Y-23798382D01*
X175229534Y-24107118D01*
X175087439Y-24450166D01*
X175015000Y-24814344D01*
X173785000Y-24814344D01*
X173712561Y-24450166D01*
X173570466Y-24107118D01*
X173364175Y-23798382D01*
X173101618Y-23535825D01*
X172792882Y-23329534D01*
X172449834Y-23187439D01*
X172085656Y-23115000D01*
X171714344Y-23115000D01*
X171350166Y-23187439D01*
X171007118Y-23329534D01*
X170698382Y-23535825D01*
X170435825Y-23798382D01*
X170229534Y-24107118D01*
X170087439Y-24450166D01*
X170015000Y-24814344D01*
X168684906Y-24814344D01*
X168785000Y-24714250D01*
X168788072Y-23750000D01*
X168775812Y-23625518D01*
X168739502Y-23505820D01*
X168680537Y-23395506D01*
X168601185Y-23298815D01*
X168504494Y-23219463D01*
X168394180Y-23160498D01*
X168274482Y-23124188D01*
X168150000Y-23111928D01*
X167185750Y-23115000D01*
X167027000Y-23273750D01*
X166773000Y-23273750D01*
X166614250Y-23115000D01*
X165650000Y-23111928D01*
X165525518Y-23124188D01*
X165405820Y-23160498D01*
X165295506Y-23219463D01*
X165198815Y-23298815D01*
X165119463Y-23395506D01*
X165060498Y-23505820D01*
X165024188Y-23625518D01*
X165011928Y-23750000D01*
X164627000Y-23750000D01*
X164627000Y-17727000D01*
X191872624Y-17727000D01*
X191843496Y-27572524D01*
M02*
