G04 #@! TF.GenerationSoftware,KiCad,Pcbnew,5.1.4*
G04 #@! TF.CreationDate,2019-10-01T21:08:12+02:00*
G04 #@! TF.ProjectId,bluetoothkiste,626c7565-746f-46f7-9468-6b697374652e,rev?*
G04 #@! TF.SameCoordinates,Original*
G04 #@! TF.FileFunction,Legend,Top*
G04 #@! TF.FilePolarity,Positive*
%FSLAX46Y46*%
G04 Gerber Fmt 4.6, Leading zero omitted, Abs format (unit mm)*
G04 Created by KiCad (PCBNEW 5.1.4) date 2019-10-01 21:08:12*
%MOMM*%
%LPD*%
G04 APERTURE LIST*
%ADD10C,0.120000*%
%ADD11C,0.150000*%
%ADD12C,0.300000*%
%ADD13C,0.010000*%
G04 APERTURE END LIST*
D10*
X200300000Y-71700000D02*
X184300000Y-71700000D01*
X184300000Y-71700000D02*
X184300000Y-34700000D01*
X184300000Y-34700000D02*
X200300000Y-34700000D01*
X200300000Y-34700000D02*
X200300000Y-71700000D01*
D11*
X165982142Y-103951785D02*
X165553571Y-103951785D01*
X165767857Y-103951785D02*
X165767857Y-103201785D01*
X165696428Y-103308928D01*
X165625000Y-103380357D01*
X165553571Y-103416071D01*
X166267857Y-103273214D02*
X166303571Y-103237500D01*
X166375000Y-103201785D01*
X166553571Y-103201785D01*
X166625000Y-103237500D01*
X166660714Y-103273214D01*
X166696428Y-103344642D01*
X166696428Y-103416071D01*
X166660714Y-103523214D01*
X166232142Y-103951785D01*
X166696428Y-103951785D01*
X166910714Y-103201785D02*
X167160714Y-103951785D01*
X167410714Y-103201785D01*
X167660714Y-103666071D02*
X168232142Y-103666071D01*
X167946428Y-103951785D02*
X167946428Y-103380357D01*
X169589285Y-103880357D02*
X169553571Y-103916071D01*
X169446428Y-103951785D01*
X169375000Y-103951785D01*
X169267857Y-103916071D01*
X169196428Y-103844642D01*
X169160714Y-103773214D01*
X169125000Y-103630357D01*
X169125000Y-103523214D01*
X169160714Y-103380357D01*
X169196428Y-103308928D01*
X169267857Y-103237500D01*
X169375000Y-103201785D01*
X169446428Y-103201785D01*
X169553571Y-103237500D01*
X169589285Y-103273214D01*
X170053571Y-103201785D02*
X170196428Y-103201785D01*
X170267857Y-103237500D01*
X170339285Y-103308928D01*
X170375000Y-103451785D01*
X170375000Y-103701785D01*
X170339285Y-103844642D01*
X170267857Y-103916071D01*
X170196428Y-103951785D01*
X170053571Y-103951785D01*
X169982142Y-103916071D01*
X169910714Y-103844642D01*
X169875000Y-103701785D01*
X169875000Y-103451785D01*
X169910714Y-103308928D01*
X169982142Y-103237500D01*
X170053571Y-103201785D01*
X170696428Y-103951785D02*
X170696428Y-103201785D01*
X171125000Y-103951785D01*
X171125000Y-103201785D01*
X171482142Y-103951785D02*
X171482142Y-103201785D01*
X171910714Y-103951785D01*
X171910714Y-103201785D01*
X172267857Y-103558928D02*
X172517857Y-103558928D01*
X172625000Y-103951785D02*
X172267857Y-103951785D01*
X172267857Y-103201785D01*
X172625000Y-103201785D01*
X173375000Y-103880357D02*
X173339285Y-103916071D01*
X173232142Y-103951785D01*
X173160714Y-103951785D01*
X173053571Y-103916071D01*
X172982142Y-103844642D01*
X172946428Y-103773214D01*
X172910714Y-103630357D01*
X172910714Y-103523214D01*
X172946428Y-103380357D01*
X172982142Y-103308928D01*
X173053571Y-103237500D01*
X173160714Y-103201785D01*
X173232142Y-103201785D01*
X173339285Y-103237500D01*
X173375000Y-103273214D01*
X173589285Y-103201785D02*
X174017857Y-103201785D01*
X173803571Y-103951785D02*
X173803571Y-103201785D01*
X166625000Y-104833928D02*
X166375000Y-104833928D01*
X166375000Y-105226785D02*
X166375000Y-104476785D01*
X166732142Y-104476785D01*
X167375000Y-105226785D02*
X167017857Y-105226785D01*
X167017857Y-104476785D01*
X167589285Y-105012500D02*
X167946428Y-105012500D01*
X167517857Y-105226785D02*
X167767857Y-104476785D01*
X168017857Y-105226785D01*
X168696428Y-105226785D02*
X168446428Y-104869642D01*
X168267857Y-105226785D02*
X168267857Y-104476785D01*
X168553571Y-104476785D01*
X168625000Y-104512500D01*
X168660714Y-104548214D01*
X168696428Y-104619642D01*
X168696428Y-104726785D01*
X168660714Y-104798214D01*
X168625000Y-104833928D01*
X168553571Y-104869642D01*
X168267857Y-104869642D01*
X169017857Y-105226785D02*
X169017857Y-104476785D01*
X169267857Y-105012500D01*
X169517857Y-104476785D01*
X169517857Y-105226785D01*
X170410714Y-104441071D02*
X169767857Y-105405357D01*
X170910714Y-104833928D02*
X171017857Y-104869642D01*
X171053571Y-104905357D01*
X171089285Y-104976785D01*
X171089285Y-105083928D01*
X171053571Y-105155357D01*
X171017857Y-105191071D01*
X170946428Y-105226785D01*
X170660714Y-105226785D01*
X170660714Y-104476785D01*
X170910714Y-104476785D01*
X170982142Y-104512500D01*
X171017857Y-104548214D01*
X171053571Y-104619642D01*
X171053571Y-104691071D01*
X171017857Y-104762500D01*
X170982142Y-104798214D01*
X170910714Y-104833928D01*
X170660714Y-104833928D01*
X171767857Y-105226785D02*
X171410714Y-105226785D01*
X171410714Y-104476785D01*
X172017857Y-104476785D02*
X172017857Y-105083928D01*
X172053571Y-105155357D01*
X172089285Y-105191071D01*
X172160714Y-105226785D01*
X172303571Y-105226785D01*
X172375000Y-105191071D01*
X172410714Y-105155357D01*
X172446428Y-105083928D01*
X172446428Y-104476785D01*
X172803571Y-104833928D02*
X173053571Y-104833928D01*
X173160714Y-105226785D02*
X172803571Y-105226785D01*
X172803571Y-104476785D01*
X173160714Y-104476785D01*
X165982142Y-19196428D02*
X166089285Y-19232142D01*
X166125000Y-19267857D01*
X166160714Y-19339285D01*
X166160714Y-19446428D01*
X166125000Y-19517857D01*
X166089285Y-19553571D01*
X166017857Y-19589285D01*
X165732142Y-19589285D01*
X165732142Y-18839285D01*
X165982142Y-18839285D01*
X166053571Y-18875000D01*
X166089285Y-18910714D01*
X166125000Y-18982142D01*
X166125000Y-19053571D01*
X166089285Y-19125000D01*
X166053571Y-19160714D01*
X165982142Y-19196428D01*
X165732142Y-19196428D01*
X166446428Y-19375000D02*
X166803571Y-19375000D01*
X166375000Y-19589285D02*
X166625000Y-18839285D01*
X166875000Y-19589285D01*
X167017857Y-18839285D02*
X167446428Y-18839285D01*
X167232142Y-19589285D02*
X167232142Y-18839285D01*
X167696428Y-19303571D02*
X168267857Y-19303571D01*
X176071428Y-18951785D02*
X175642857Y-18951785D01*
X175857142Y-18951785D02*
X175857142Y-18201785D01*
X175785714Y-18308928D01*
X175714285Y-18380357D01*
X175642857Y-18416071D01*
X176357142Y-18273214D02*
X176392857Y-18237500D01*
X176464285Y-18201785D01*
X176642857Y-18201785D01*
X176714285Y-18237500D01*
X176750000Y-18273214D01*
X176785714Y-18344642D01*
X176785714Y-18416071D01*
X176750000Y-18523214D01*
X176321428Y-18951785D01*
X176785714Y-18951785D01*
X177000000Y-18201785D02*
X177250000Y-18951785D01*
X177500000Y-18201785D01*
X177750000Y-18666071D02*
X178321428Y-18666071D01*
X178035714Y-18951785D02*
X178035714Y-18380357D01*
X176017857Y-19833928D02*
X176125000Y-19869642D01*
X176160714Y-19905357D01*
X176196428Y-19976785D01*
X176196428Y-20083928D01*
X176160714Y-20155357D01*
X176125000Y-20191071D01*
X176053571Y-20226785D01*
X175767857Y-20226785D01*
X175767857Y-19476785D01*
X176017857Y-19476785D01*
X176089285Y-19512500D01*
X176125000Y-19548214D01*
X176160714Y-19619642D01*
X176160714Y-19691071D01*
X176125000Y-19762500D01*
X176089285Y-19798214D01*
X176017857Y-19833928D01*
X175767857Y-19833928D01*
X176875000Y-20226785D02*
X176517857Y-20226785D01*
X176517857Y-19476785D01*
X177125000Y-19476785D02*
X177125000Y-20083928D01*
X177160714Y-20155357D01*
X177196428Y-20191071D01*
X177267857Y-20226785D01*
X177410714Y-20226785D01*
X177482142Y-20191071D01*
X177517857Y-20155357D01*
X177553571Y-20083928D01*
X177553571Y-19476785D01*
X177910714Y-19833928D02*
X178160714Y-19833928D01*
X178267857Y-20226785D02*
X177910714Y-20226785D01*
X177910714Y-19476785D01*
X178267857Y-19476785D01*
D12*
X189001428Y-62032142D02*
X187501428Y-62532142D01*
X189001428Y-63032142D01*
X187644285Y-64389285D02*
X187572857Y-64317857D01*
X187501428Y-64103571D01*
X187501428Y-63960714D01*
X187572857Y-63746428D01*
X187715714Y-63603571D01*
X187858571Y-63532142D01*
X188144285Y-63460714D01*
X188358571Y-63460714D01*
X188644285Y-63532142D01*
X188787142Y-63603571D01*
X188930000Y-63746428D01*
X189001428Y-63960714D01*
X189001428Y-64103571D01*
X188930000Y-64317857D01*
X188858571Y-64389285D01*
X187644285Y-65889285D02*
X187572857Y-65817857D01*
X187501428Y-65603571D01*
X187501428Y-65460714D01*
X187572857Y-65246428D01*
X187715714Y-65103571D01*
X187858571Y-65032142D01*
X188144285Y-64960714D01*
X188358571Y-64960714D01*
X188644285Y-65032142D01*
X188787142Y-65103571D01*
X188930000Y-65246428D01*
X189001428Y-65460714D01*
X189001428Y-65603571D01*
X188930000Y-65817857D01*
X188858571Y-65889285D01*
X195301428Y-62960714D02*
X196015714Y-62460714D01*
X195301428Y-62103571D02*
X196801428Y-62103571D01*
X196801428Y-62675000D01*
X196730000Y-62817857D01*
X196658571Y-62889285D01*
X196515714Y-62960714D01*
X196301428Y-62960714D01*
X196158571Y-62889285D01*
X196087142Y-62817857D01*
X196015714Y-62675000D01*
X196015714Y-62103571D01*
X196801428Y-63460714D02*
X195301428Y-64460714D01*
X196801428Y-64460714D02*
X195301428Y-63460714D01*
X195301428Y-65032142D02*
X196801428Y-65032142D01*
X196801428Y-65389285D01*
X196730000Y-65603571D01*
X196587142Y-65746428D01*
X196444285Y-65817857D01*
X196158571Y-65889285D01*
X195944285Y-65889285D01*
X195658571Y-65817857D01*
X195515714Y-65746428D01*
X195372857Y-65603571D01*
X195301428Y-65389285D01*
X195301428Y-65032142D01*
X194101428Y-62246428D02*
X194101428Y-63103571D01*
X192601428Y-62675000D02*
X194101428Y-62675000D01*
X194101428Y-63460714D02*
X192601428Y-64460714D01*
X194101428Y-64460714D02*
X192601428Y-63460714D01*
X192601428Y-65032142D02*
X194101428Y-65032142D01*
X194101428Y-65389285D01*
X194030000Y-65603571D01*
X193887142Y-65746428D01*
X193744285Y-65817857D01*
X193458571Y-65889285D01*
X193244285Y-65889285D01*
X192958571Y-65817857D01*
X192815714Y-65746428D01*
X192672857Y-65603571D01*
X192601428Y-65389285D01*
X192601428Y-65032142D01*
X191530000Y-62746428D02*
X191601428Y-62603571D01*
X191601428Y-62389285D01*
X191530000Y-62175000D01*
X191387142Y-62032142D01*
X191244285Y-61960714D01*
X190958571Y-61889285D01*
X190744285Y-61889285D01*
X190458571Y-61960714D01*
X190315714Y-62032142D01*
X190172857Y-62175000D01*
X190101428Y-62389285D01*
X190101428Y-62532142D01*
X190172857Y-62746428D01*
X190244285Y-62817857D01*
X190744285Y-62817857D01*
X190744285Y-62532142D01*
X190101428Y-63460714D02*
X191601428Y-63460714D01*
X190101428Y-64317857D01*
X191601428Y-64317857D01*
X190101428Y-65032142D02*
X191601428Y-65032142D01*
X191601428Y-65389285D01*
X191530000Y-65603571D01*
X191387142Y-65746428D01*
X191244285Y-65817857D01*
X190958571Y-65889285D01*
X190744285Y-65889285D01*
X190458571Y-65817857D01*
X190315714Y-65746428D01*
X190172857Y-65603571D01*
X190101428Y-65389285D01*
X190101428Y-65032142D01*
X188964285Y-55403571D02*
X188964285Y-53903571D01*
X188964285Y-54617857D02*
X189821428Y-54617857D01*
X189821428Y-55403571D02*
X189821428Y-53903571D01*
X191392857Y-55260714D02*
X191321428Y-55332142D01*
X191107142Y-55403571D01*
X190964285Y-55403571D01*
X190750000Y-55332142D01*
X190607142Y-55189285D01*
X190535714Y-55046428D01*
X190464285Y-54760714D01*
X190464285Y-54546428D01*
X190535714Y-54260714D01*
X190607142Y-54117857D01*
X190750000Y-53975000D01*
X190964285Y-53903571D01*
X191107142Y-53903571D01*
X191321428Y-53975000D01*
X191392857Y-54046428D01*
X192035714Y-54832142D02*
X193178571Y-54832142D01*
X194178571Y-53903571D02*
X194321428Y-53903571D01*
X194464285Y-53975000D01*
X194535714Y-54046428D01*
X194607142Y-54189285D01*
X194678571Y-54475000D01*
X194678571Y-54832142D01*
X194607142Y-55117857D01*
X194535714Y-55260714D01*
X194464285Y-55332142D01*
X194321428Y-55403571D01*
X194178571Y-55403571D01*
X194035714Y-55332142D01*
X193964285Y-55260714D01*
X193892857Y-55117857D01*
X193821428Y-54832142D01*
X193821428Y-54475000D01*
X193892857Y-54189285D01*
X193964285Y-54046428D01*
X194035714Y-53975000D01*
X194178571Y-53903571D01*
X195964285Y-53903571D02*
X195678571Y-53903571D01*
X195535714Y-53975000D01*
X195464285Y-54046428D01*
X195321428Y-54260714D01*
X195250000Y-54546428D01*
X195250000Y-55117857D01*
X195321428Y-55260714D01*
X195392857Y-55332142D01*
X195535714Y-55403571D01*
X195821428Y-55403571D01*
X195964285Y-55332142D01*
X196035714Y-55260714D01*
X196107142Y-55117857D01*
X196107142Y-54760714D01*
X196035714Y-54617857D01*
X195964285Y-54546428D01*
X195821428Y-54475000D01*
X195535714Y-54475000D01*
X195392857Y-54546428D01*
X195321428Y-54617857D01*
X195250000Y-54760714D01*
X192250000Y-57953571D02*
X191535714Y-57953571D01*
X191535714Y-56453571D01*
X192607142Y-56453571D02*
X193607142Y-57953571D01*
X193607142Y-56453571D02*
X192607142Y-57953571D01*
X162619285Y-30917857D02*
X162119285Y-30917857D01*
X162119285Y-31703571D02*
X162119285Y-30203571D01*
X162833571Y-30203571D01*
X164047857Y-30703571D02*
X164047857Y-31703571D01*
X163405000Y-30703571D02*
X163405000Y-31489285D01*
X163476428Y-31632142D01*
X163619285Y-31703571D01*
X163833571Y-31703571D01*
X163976428Y-31632142D01*
X164047857Y-31560714D01*
X164690714Y-31632142D02*
X164833571Y-31703571D01*
X165119285Y-31703571D01*
X165262142Y-31632142D01*
X165333571Y-31489285D01*
X165333571Y-31417857D01*
X165262142Y-31275000D01*
X165119285Y-31203571D01*
X164905000Y-31203571D01*
X164762142Y-31132142D01*
X164690714Y-30989285D01*
X164690714Y-30917857D01*
X164762142Y-30775000D01*
X164905000Y-30703571D01*
X165119285Y-30703571D01*
X165262142Y-30775000D01*
X166547857Y-31632142D02*
X166405000Y-31703571D01*
X166119285Y-31703571D01*
X165976428Y-31632142D01*
X165905000Y-31489285D01*
X165905000Y-30917857D01*
X165976428Y-30775000D01*
X166119285Y-30703571D01*
X166405000Y-30703571D01*
X166547857Y-30775000D01*
X166619285Y-30917857D01*
X166619285Y-31060714D01*
X165905000Y-31203571D01*
X164476428Y-32896428D02*
X164547857Y-32825000D01*
X164690714Y-32753571D01*
X165047857Y-32753571D01*
X165190714Y-32825000D01*
X165262142Y-32896428D01*
X165333571Y-33039285D01*
X165333571Y-33182142D01*
X165262142Y-33396428D01*
X164405000Y-34253571D01*
X165333571Y-34253571D01*
X165905000Y-33825000D02*
X166619285Y-33825000D01*
X165762142Y-34253571D02*
X166262142Y-32753571D01*
X166762142Y-34253571D01*
D11*
X171071428Y-18951785D02*
X170642857Y-18951785D01*
X170857142Y-18951785D02*
X170857142Y-18201785D01*
X170785714Y-18308928D01*
X170714285Y-18380357D01*
X170642857Y-18416071D01*
X171357142Y-18273214D02*
X171392857Y-18237500D01*
X171464285Y-18201785D01*
X171642857Y-18201785D01*
X171714285Y-18237500D01*
X171750000Y-18273214D01*
X171785714Y-18344642D01*
X171785714Y-18416071D01*
X171750000Y-18523214D01*
X171321428Y-18951785D01*
X171785714Y-18951785D01*
X172000000Y-18201785D02*
X172250000Y-18951785D01*
X172500000Y-18201785D01*
X172750000Y-18666071D02*
X173321428Y-18666071D01*
X173035714Y-18951785D02*
X173035714Y-18380357D01*
X170678571Y-19833928D02*
X170428571Y-19833928D01*
X170428571Y-20226785D02*
X170428571Y-19476785D01*
X170785714Y-19476785D01*
X171428571Y-20226785D02*
X171071428Y-20226785D01*
X171071428Y-19476785D01*
X171642857Y-20012500D02*
X172000000Y-20012500D01*
X171571428Y-20226785D02*
X171821428Y-19476785D01*
X172071428Y-20226785D01*
X172750000Y-20226785D02*
X172500000Y-19869642D01*
X172321428Y-20226785D02*
X172321428Y-19476785D01*
X172607142Y-19476785D01*
X172678571Y-19512500D01*
X172714285Y-19548214D01*
X172750000Y-19619642D01*
X172750000Y-19726785D01*
X172714285Y-19798214D01*
X172678571Y-19833928D01*
X172607142Y-19869642D01*
X172321428Y-19869642D01*
X173071428Y-20226785D02*
X173071428Y-19476785D01*
X173321428Y-20012500D01*
X173571428Y-19476785D01*
X173571428Y-20226785D01*
D12*
X184250000Y-83123571D02*
X184178571Y-83266428D01*
X184178571Y-83480714D01*
X184250000Y-83695000D01*
X184392857Y-83837857D01*
X184535714Y-83909285D01*
X184821428Y-83980714D01*
X185035714Y-83980714D01*
X185321428Y-83909285D01*
X185464285Y-83837857D01*
X185607142Y-83695000D01*
X185678571Y-83480714D01*
X185678571Y-83337857D01*
X185607142Y-83123571D01*
X185535714Y-83052142D01*
X185035714Y-83052142D01*
X185035714Y-83337857D01*
X185678571Y-82409285D02*
X184178571Y-82409285D01*
X185678571Y-81552142D01*
X184178571Y-81552142D01*
X185678571Y-80837857D02*
X184178571Y-80837857D01*
X184178571Y-80480714D01*
X184250000Y-80266428D01*
X184392857Y-80123571D01*
X184535714Y-80052142D01*
X184821428Y-79980714D01*
X185035714Y-79980714D01*
X185321428Y-80052142D01*
X185464285Y-80123571D01*
X185607142Y-80266428D01*
X185678571Y-80480714D01*
X185678571Y-80837857D01*
X181678571Y-83623571D02*
X181678571Y-82766428D01*
X183178571Y-83195000D02*
X181678571Y-83195000D01*
X181678571Y-82409285D02*
X183178571Y-81409285D01*
X181678571Y-81409285D02*
X183178571Y-82409285D01*
X183178571Y-80837857D02*
X181678571Y-80837857D01*
X181678571Y-80480714D01*
X181750000Y-80266428D01*
X181892857Y-80123571D01*
X182035714Y-80052142D01*
X182321428Y-79980714D01*
X182535714Y-79980714D01*
X182821428Y-80052142D01*
X182964285Y-80123571D01*
X183107142Y-80266428D01*
X183178571Y-80480714D01*
X183178571Y-80837857D01*
X180478571Y-82909285D02*
X179764285Y-83409285D01*
X180478571Y-83766428D02*
X178978571Y-83766428D01*
X178978571Y-83195000D01*
X179050000Y-83052142D01*
X179121428Y-82980714D01*
X179264285Y-82909285D01*
X179478571Y-82909285D01*
X179621428Y-82980714D01*
X179692857Y-83052142D01*
X179764285Y-83195000D01*
X179764285Y-83766428D01*
X178978571Y-82409285D02*
X180478571Y-81409285D01*
X178978571Y-81409285D02*
X180478571Y-82409285D01*
X180478571Y-80837857D02*
X178978571Y-80837857D01*
X178978571Y-80480714D01*
X179050000Y-80266428D01*
X179192857Y-80123571D01*
X179335714Y-80052142D01*
X179621428Y-79980714D01*
X179835714Y-79980714D01*
X180121428Y-80052142D01*
X180264285Y-80123571D01*
X180407142Y-80266428D01*
X180478571Y-80480714D01*
X180478571Y-80837857D01*
X186778571Y-83837857D02*
X188278571Y-83337857D01*
X186778571Y-82837857D01*
X188135714Y-81480714D02*
X188207142Y-81552142D01*
X188278571Y-81766428D01*
X188278571Y-81909285D01*
X188207142Y-82123571D01*
X188064285Y-82266428D01*
X187921428Y-82337857D01*
X187635714Y-82409285D01*
X187421428Y-82409285D01*
X187135714Y-82337857D01*
X186992857Y-82266428D01*
X186850000Y-82123571D01*
X186778571Y-81909285D01*
X186778571Y-81766428D01*
X186850000Y-81552142D01*
X186921428Y-81480714D01*
X188135714Y-79980714D02*
X188207142Y-80052142D01*
X188278571Y-80266428D01*
X188278571Y-80409285D01*
X188207142Y-80623571D01*
X188064285Y-80766428D01*
X187921428Y-80837857D01*
X187635714Y-80909285D01*
X187421428Y-80909285D01*
X187135714Y-80837857D01*
X186992857Y-80766428D01*
X186850000Y-80623571D01*
X186778571Y-80409285D01*
X186778571Y-80266428D01*
X186850000Y-80052142D01*
X186921428Y-79980714D01*
X180664285Y-98403571D02*
X180664285Y-96903571D01*
X180664285Y-97617857D02*
X181521428Y-97617857D01*
X181521428Y-98403571D02*
X181521428Y-96903571D01*
X183092857Y-98260714D02*
X183021428Y-98332142D01*
X182807142Y-98403571D01*
X182664285Y-98403571D01*
X182450000Y-98332142D01*
X182307142Y-98189285D01*
X182235714Y-98046428D01*
X182164285Y-97760714D01*
X182164285Y-97546428D01*
X182235714Y-97260714D01*
X182307142Y-97117857D01*
X182450000Y-96975000D01*
X182664285Y-96903571D01*
X182807142Y-96903571D01*
X183021428Y-96975000D01*
X183092857Y-97046428D01*
X183735714Y-97832142D02*
X184878571Y-97832142D01*
X185878571Y-96903571D02*
X186021428Y-96903571D01*
X186164285Y-96975000D01*
X186235714Y-97046428D01*
X186307142Y-97189285D01*
X186378571Y-97475000D01*
X186378571Y-97832142D01*
X186307142Y-98117857D01*
X186235714Y-98260714D01*
X186164285Y-98332142D01*
X186021428Y-98403571D01*
X185878571Y-98403571D01*
X185735714Y-98332142D01*
X185664285Y-98260714D01*
X185592857Y-98117857D01*
X185521428Y-97832142D01*
X185521428Y-97475000D01*
X185592857Y-97189285D01*
X185664285Y-97046428D01*
X185735714Y-96975000D01*
X185878571Y-96903571D01*
X187664285Y-96903571D02*
X187378571Y-96903571D01*
X187235714Y-96975000D01*
X187164285Y-97046428D01*
X187021428Y-97260714D01*
X186950000Y-97546428D01*
X186950000Y-98117857D01*
X187021428Y-98260714D01*
X187092857Y-98332142D01*
X187235714Y-98403571D01*
X187521428Y-98403571D01*
X187664285Y-98332142D01*
X187735714Y-98260714D01*
X187807142Y-98117857D01*
X187807142Y-97760714D01*
X187735714Y-97617857D01*
X187664285Y-97546428D01*
X187521428Y-97475000D01*
X187235714Y-97475000D01*
X187092857Y-97546428D01*
X187021428Y-97617857D01*
X186950000Y-97760714D01*
X181557142Y-100167857D02*
X181057142Y-100167857D01*
X181057142Y-100953571D02*
X181057142Y-99453571D01*
X181771428Y-99453571D01*
X183057142Y-100953571D02*
X182342857Y-100953571D01*
X182342857Y-99453571D01*
X183485714Y-100525000D02*
X184200000Y-100525000D01*
X183342857Y-100953571D02*
X183842857Y-99453571D01*
X184342857Y-100953571D01*
X185700000Y-100953571D02*
X185200000Y-100239285D01*
X184842857Y-100953571D02*
X184842857Y-99453571D01*
X185414285Y-99453571D01*
X185557142Y-99525000D01*
X185628571Y-99596428D01*
X185700000Y-99739285D01*
X185700000Y-99953571D01*
X185628571Y-100096428D01*
X185557142Y-100167857D01*
X185414285Y-100239285D01*
X184842857Y-100239285D01*
X186342857Y-100953571D02*
X186342857Y-99453571D01*
X186842857Y-100525000D01*
X187342857Y-99453571D01*
X187342857Y-100953571D01*
X170471190Y-108004166D02*
X171161666Y-108004166D01*
X170333095Y-108418452D02*
X170816428Y-106968452D01*
X171299761Y-108418452D01*
X171783095Y-108418452D02*
X171783095Y-106968452D01*
X171921190Y-107866071D02*
X172335476Y-108418452D01*
X172335476Y-107451785D02*
X171783095Y-108004166D01*
X173578333Y-108418452D02*
X173578333Y-107658928D01*
X173509285Y-107520833D01*
X173371190Y-107451785D01*
X173095000Y-107451785D01*
X172956904Y-107520833D01*
X173578333Y-108349404D02*
X173440238Y-108418452D01*
X173095000Y-108418452D01*
X172956904Y-108349404D01*
X172887857Y-108211309D01*
X172887857Y-108073214D01*
X172956904Y-107935119D01*
X173095000Y-107866071D01*
X173440238Y-107866071D01*
X173578333Y-107797023D01*
X174061666Y-107451785D02*
X174614047Y-107451785D01*
X174268809Y-108418452D02*
X174268809Y-107175595D01*
X174337857Y-107037500D01*
X174475952Y-106968452D01*
X174614047Y-106968452D01*
X175304523Y-108418452D02*
X175166428Y-108349404D01*
X175097380Y-108211309D01*
X175097380Y-106968452D01*
X175856904Y-108418452D02*
X175856904Y-107451785D01*
X175856904Y-106968452D02*
X175787857Y-107037500D01*
X175856904Y-107106547D01*
X175925952Y-107037500D01*
X175856904Y-106968452D01*
X175856904Y-107106547D01*
X177099761Y-108349404D02*
X176961666Y-108418452D01*
X176685476Y-108418452D01*
X176547380Y-108349404D01*
X176478333Y-108211309D01*
X176478333Y-107658928D01*
X176547380Y-107520833D01*
X176685476Y-107451785D01*
X176961666Y-107451785D01*
X177099761Y-107520833D01*
X177168809Y-107658928D01*
X177168809Y-107797023D01*
X176478333Y-107935119D01*
X178411666Y-107451785D02*
X178411666Y-108625595D01*
X178342619Y-108763690D01*
X178273571Y-108832738D01*
X178135476Y-108901785D01*
X177928333Y-108901785D01*
X177790238Y-108832738D01*
X178411666Y-108349404D02*
X178273571Y-108418452D01*
X177997380Y-108418452D01*
X177859285Y-108349404D01*
X177790238Y-108280357D01*
X177721190Y-108142261D01*
X177721190Y-107727976D01*
X177790238Y-107589880D01*
X177859285Y-107520833D01*
X177997380Y-107451785D01*
X178273571Y-107451785D01*
X178411666Y-107520833D01*
X180690238Y-107658928D02*
X180897380Y-107727976D01*
X180966428Y-107797023D01*
X181035476Y-107935119D01*
X181035476Y-108142261D01*
X180966428Y-108280357D01*
X180897380Y-108349404D01*
X180759285Y-108418452D01*
X180206904Y-108418452D01*
X180206904Y-106968452D01*
X180690238Y-106968452D01*
X180828333Y-107037500D01*
X180897380Y-107106547D01*
X180966428Y-107244642D01*
X180966428Y-107382738D01*
X180897380Y-107520833D01*
X180828333Y-107589880D01*
X180690238Y-107658928D01*
X180206904Y-107658928D01*
X182209285Y-108349404D02*
X182071190Y-108418452D01*
X181795000Y-108418452D01*
X181656904Y-108349404D01*
X181587857Y-108211309D01*
X181587857Y-107658928D01*
X181656904Y-107520833D01*
X181795000Y-107451785D01*
X182071190Y-107451785D01*
X182209285Y-107520833D01*
X182278333Y-107658928D01*
X182278333Y-107797023D01*
X181587857Y-107935119D01*
X182899761Y-108418452D02*
X182899761Y-107451785D01*
X182899761Y-107727976D02*
X182968809Y-107589880D01*
X183037857Y-107520833D01*
X183175952Y-107451785D01*
X183314047Y-107451785D01*
X184004523Y-108418452D02*
X183866428Y-108349404D01*
X183797380Y-108211309D01*
X183797380Y-106968452D01*
X184556904Y-108418452D02*
X184556904Y-107451785D01*
X184556904Y-106968452D02*
X184487857Y-107037500D01*
X184556904Y-107106547D01*
X184625952Y-107037500D01*
X184556904Y-106968452D01*
X184556904Y-107106547D01*
X185247380Y-107451785D02*
X185247380Y-108418452D01*
X185247380Y-107589880D02*
X185316428Y-107520833D01*
X185454523Y-107451785D01*
X185661666Y-107451785D01*
X185799761Y-107520833D01*
X185868809Y-107658928D01*
X185868809Y-108418452D01*
X171023571Y-110133928D02*
X171230714Y-110202976D01*
X171299761Y-110272023D01*
X171368809Y-110410119D01*
X171368809Y-110617261D01*
X171299761Y-110755357D01*
X171230714Y-110824404D01*
X171092619Y-110893452D01*
X170540238Y-110893452D01*
X170540238Y-109443452D01*
X171023571Y-109443452D01*
X171161666Y-109512500D01*
X171230714Y-109581547D01*
X171299761Y-109719642D01*
X171299761Y-109857738D01*
X171230714Y-109995833D01*
X171161666Y-110064880D01*
X171023571Y-110133928D01*
X170540238Y-110133928D01*
X172197380Y-110893452D02*
X172059285Y-110824404D01*
X171990238Y-110686309D01*
X171990238Y-109443452D01*
X173371190Y-109926785D02*
X173371190Y-110893452D01*
X172749761Y-109926785D02*
X172749761Y-110686309D01*
X172818809Y-110824404D01*
X172956904Y-110893452D01*
X173164047Y-110893452D01*
X173302142Y-110824404D01*
X173371190Y-110755357D01*
X174614047Y-110824404D02*
X174475952Y-110893452D01*
X174199761Y-110893452D01*
X174061666Y-110824404D01*
X173992619Y-110686309D01*
X173992619Y-110133928D01*
X174061666Y-109995833D01*
X174199761Y-109926785D01*
X174475952Y-109926785D01*
X174614047Y-109995833D01*
X174683095Y-110133928D01*
X174683095Y-110272023D01*
X173992619Y-110410119D01*
X175097380Y-109926785D02*
X175649761Y-109926785D01*
X175304523Y-109443452D02*
X175304523Y-110686309D01*
X175373571Y-110824404D01*
X175511666Y-110893452D01*
X175649761Y-110893452D01*
X176340238Y-110893452D02*
X176202142Y-110824404D01*
X176133095Y-110755357D01*
X176064047Y-110617261D01*
X176064047Y-110202976D01*
X176133095Y-110064880D01*
X176202142Y-109995833D01*
X176340238Y-109926785D01*
X176547380Y-109926785D01*
X176685476Y-109995833D01*
X176754523Y-110064880D01*
X176823571Y-110202976D01*
X176823571Y-110617261D01*
X176754523Y-110755357D01*
X176685476Y-110824404D01*
X176547380Y-110893452D01*
X176340238Y-110893452D01*
X177652142Y-110893452D02*
X177514047Y-110824404D01*
X177445000Y-110755357D01*
X177375952Y-110617261D01*
X177375952Y-110202976D01*
X177445000Y-110064880D01*
X177514047Y-109995833D01*
X177652142Y-109926785D01*
X177859285Y-109926785D01*
X177997380Y-109995833D01*
X178066428Y-110064880D01*
X178135476Y-110202976D01*
X178135476Y-110617261D01*
X178066428Y-110755357D01*
X177997380Y-110824404D01*
X177859285Y-110893452D01*
X177652142Y-110893452D01*
X178549761Y-109926785D02*
X179102142Y-109926785D01*
X178756904Y-109443452D02*
X178756904Y-110686309D01*
X178825952Y-110824404D01*
X178964047Y-110893452D01*
X179102142Y-110893452D01*
X179585476Y-110893452D02*
X179585476Y-109443452D01*
X180206904Y-110893452D02*
X180206904Y-110133928D01*
X180137857Y-109995833D01*
X179999761Y-109926785D01*
X179792619Y-109926785D01*
X179654523Y-109995833D01*
X179585476Y-110064880D01*
X180897380Y-110893452D02*
X180897380Y-109443452D01*
X181035476Y-110341071D02*
X181449761Y-110893452D01*
X181449761Y-109926785D02*
X180897380Y-110479166D01*
X182071190Y-110893452D02*
X182071190Y-109926785D01*
X182071190Y-109443452D02*
X182002142Y-109512500D01*
X182071190Y-109581547D01*
X182140238Y-109512500D01*
X182071190Y-109443452D01*
X182071190Y-109581547D01*
X182692619Y-110824404D02*
X182830714Y-110893452D01*
X183106904Y-110893452D01*
X183245000Y-110824404D01*
X183314047Y-110686309D01*
X183314047Y-110617261D01*
X183245000Y-110479166D01*
X183106904Y-110410119D01*
X182899761Y-110410119D01*
X182761666Y-110341071D01*
X182692619Y-110202976D01*
X182692619Y-110133928D01*
X182761666Y-109995833D01*
X182899761Y-109926785D01*
X183106904Y-109926785D01*
X183245000Y-109995833D01*
X183728333Y-109926785D02*
X184280714Y-109926785D01*
X183935476Y-109443452D02*
X183935476Y-110686309D01*
X184004523Y-110824404D01*
X184142619Y-110893452D01*
X184280714Y-110893452D01*
X185316428Y-110824404D02*
X185178333Y-110893452D01*
X184902142Y-110893452D01*
X184764047Y-110824404D01*
X184695000Y-110686309D01*
X184695000Y-110133928D01*
X184764047Y-109995833D01*
X184902142Y-109926785D01*
X185178333Y-109926785D01*
X185316428Y-109995833D01*
X185385476Y-110133928D01*
X185385476Y-110272023D01*
X184695000Y-110410119D01*
X186973571Y-109926785D02*
X187318809Y-110893452D01*
X187664047Y-109926785D01*
X188975952Y-110893452D02*
X188147380Y-110893452D01*
X188561666Y-110893452D02*
X188561666Y-109443452D01*
X188423571Y-109650595D01*
X188285476Y-109788690D01*
X188147380Y-109857738D01*
X189597380Y-110755357D02*
X189666428Y-110824404D01*
X189597380Y-110893452D01*
X189528333Y-110824404D01*
X189597380Y-110755357D01*
X189597380Y-110893452D01*
X191047380Y-110893452D02*
X190218809Y-110893452D01*
X190633095Y-110893452D02*
X190633095Y-109443452D01*
X190495000Y-109650595D01*
X190356904Y-109788690D01*
X190218809Y-109857738D01*
D10*
X175800000Y-111700000D02*
X175800000Y-74700000D01*
X191800000Y-111700000D02*
X175800000Y-111700000D01*
X191800000Y-74700000D02*
X191800000Y-111700000D01*
X175800000Y-74700000D02*
X191800000Y-74700000D01*
X180070000Y-40700000D02*
G75*
G02X178070000Y-40700000I-1000000J0D01*
G01*
X178070000Y-40700000D02*
X176420000Y-40700000D01*
X176420000Y-40700000D02*
X176420000Y-61140000D01*
X176420000Y-61140000D02*
X181720000Y-61140000D01*
X181720000Y-61140000D02*
X181720000Y-40700000D01*
X181720000Y-40700000D02*
X180070000Y-40700000D01*
X170145436Y-55940000D02*
X171349564Y-55940000D01*
X170145436Y-54120000D02*
X171349564Y-54120000D01*
X170170000Y-43397936D02*
X170170000Y-44602064D01*
X168350000Y-43397936D02*
X168350000Y-44602064D01*
X171350000Y-50427936D02*
X171350000Y-51632064D01*
X173170000Y-50427936D02*
X173170000Y-51632064D01*
X173170000Y-44427936D02*
X173170000Y-45632064D01*
X171350000Y-44427936D02*
X171350000Y-45632064D01*
X177090000Y-35210000D02*
G75*
G03X177090000Y-35210000I-4750000J0D01*
G01*
X175290000Y-39190000D02*
X175160000Y-39040000D01*
X175470000Y-39270000D02*
X175290000Y-39190000D01*
X175760000Y-39310000D02*
X175470000Y-39270000D01*
X176050000Y-39230000D02*
X175760000Y-39310000D01*
X176270000Y-39060000D02*
X176050000Y-39230000D01*
X176420000Y-38800000D02*
X176270000Y-39060000D01*
X176450000Y-38540000D02*
X176420000Y-38800000D01*
X176400000Y-38290000D02*
X176450000Y-38540000D01*
X176310000Y-38130000D02*
X176400000Y-38290000D01*
X176190000Y-37990000D02*
X176310000Y-38130000D01*
X186410000Y-42297936D02*
X186410000Y-43502064D01*
X184590000Y-42297936D02*
X184590000Y-43502064D01*
X193120000Y-27880000D02*
X193120000Y-30120000D01*
X185880000Y-27880000D02*
X185880000Y-30120000D01*
X185880000Y-30120000D02*
X193120000Y-30120000D01*
X185880000Y-27880000D02*
X193120000Y-27880000D01*
X185780000Y-33120000D02*
X185780000Y-30880000D01*
X193020000Y-33120000D02*
X193020000Y-30880000D01*
X193020000Y-30880000D02*
X185780000Y-30880000D01*
X193020000Y-33120000D02*
X185780000Y-33120000D01*
X181020000Y-21730000D02*
X191260000Y-21730000D01*
X181020000Y-26371000D02*
X191260000Y-26371000D01*
X181020000Y-21730000D02*
X181020000Y-26371000D01*
X191260000Y-21730000D02*
X191260000Y-26371000D01*
X181020000Y-23240000D02*
X191260000Y-23240000D01*
X184290000Y-21730000D02*
X184290000Y-23240000D01*
X187991000Y-21730000D02*
X187991000Y-23240000D01*
D13*
G36*
X167182597Y-106525792D02*
G01*
X167412078Y-106553032D01*
X167639048Y-106601923D01*
X167861991Y-106672566D01*
X168079388Y-106765060D01*
X168091045Y-106770730D01*
X168304979Y-106887715D01*
X168502830Y-107021267D01*
X168684501Y-107171286D01*
X168849893Y-107337675D01*
X168998909Y-107520337D01*
X169131451Y-107719173D01*
X169240815Y-107920500D01*
X169334122Y-108136431D01*
X169405473Y-108356793D01*
X169455256Y-108580178D01*
X169483856Y-108805179D01*
X169491660Y-109030388D01*
X169479052Y-109254398D01*
X169446419Y-109475803D01*
X169394147Y-109693194D01*
X169322623Y-109905164D01*
X169232231Y-110110306D01*
X169123358Y-110307212D01*
X168996391Y-110494476D01*
X168851714Y-110670689D01*
X168689714Y-110834445D01*
X168510776Y-110984337D01*
X168373909Y-111081408D01*
X168171632Y-111201246D01*
X167958845Y-111301179D01*
X167737537Y-111380719D01*
X167509698Y-111439375D01*
X167277314Y-111476660D01*
X167042377Y-111492084D01*
X166806873Y-111485158D01*
X166751772Y-111480246D01*
X166538263Y-111448136D01*
X166323128Y-111395420D01*
X166110945Y-111323736D01*
X165906289Y-111234720D01*
X165713739Y-111130008D01*
X165637636Y-111081781D01*
X165444233Y-110939927D01*
X165267002Y-110782128D01*
X165106682Y-110609615D01*
X164964013Y-110423617D01*
X164839734Y-110225367D01*
X164734584Y-110016095D01*
X164649302Y-109797031D01*
X164584627Y-109569406D01*
X164541298Y-109334451D01*
X164538649Y-109311727D01*
X164838378Y-109311727D01*
X164846133Y-109363440D01*
X164883964Y-109546861D01*
X164942089Y-109733102D01*
X165018741Y-109918167D01*
X165112153Y-110098061D01*
X165220556Y-110268788D01*
X165285670Y-110357003D01*
X165428109Y-110521453D01*
X165585844Y-110669740D01*
X165757102Y-110801135D01*
X165940107Y-110914907D01*
X166133085Y-111010328D01*
X166334260Y-111086667D01*
X166541859Y-111143197D01*
X166754106Y-111179186D01*
X166969226Y-111193906D01*
X167185444Y-111186628D01*
X167279386Y-111176412D01*
X167501296Y-111135873D01*
X167714473Y-111074572D01*
X167917828Y-110993511D01*
X168110276Y-110893695D01*
X168290730Y-110776127D01*
X168458103Y-110641811D01*
X168611309Y-110491751D01*
X168749262Y-110326951D01*
X168870874Y-110148414D01*
X168975060Y-109957144D01*
X169060732Y-109754145D01*
X169126805Y-109540421D01*
X169147903Y-109450272D01*
X169159618Y-109399811D01*
X169171170Y-109357942D01*
X169181046Y-109329749D01*
X169186553Y-109320563D01*
X169178656Y-109318506D01*
X169150275Y-109316618D01*
X169104017Y-109314962D01*
X169042487Y-109313602D01*
X168968293Y-109312601D01*
X168884041Y-109312022D01*
X168829794Y-109311904D01*
X168460179Y-109311727D01*
X168304636Y-109155863D01*
X168149093Y-109000000D01*
X167731188Y-109000000D01*
X167621626Y-109000064D01*
X167532926Y-109000327D01*
X167462860Y-109000896D01*
X167409199Y-109001877D01*
X167369717Y-109003376D01*
X167342183Y-109005499D01*
X167324370Y-109008352D01*
X167314050Y-109012042D01*
X167308994Y-109016676D01*
X167307486Y-109020204D01*
X167303452Y-109036463D01*
X167294967Y-109072308D01*
X167282591Y-109125291D01*
X167266886Y-109192962D01*
X167248413Y-109272873D01*
X167227733Y-109362575D01*
X167205406Y-109459618D01*
X167181994Y-109561555D01*
X167158059Y-109665935D01*
X167134160Y-109770310D01*
X167110859Y-109872231D01*
X167088718Y-109969249D01*
X167068297Y-110058916D01*
X167050157Y-110138781D01*
X167034860Y-110206397D01*
X167022967Y-110259315D01*
X167015037Y-110295084D01*
X167011634Y-110311258D01*
X167011545Y-110311907D01*
X167010787Y-110317341D01*
X167008287Y-110313931D01*
X167003705Y-110300294D01*
X166996704Y-110275044D01*
X166986944Y-110236799D01*
X166974086Y-110184172D01*
X166957791Y-110115781D01*
X166937721Y-110030240D01*
X166913537Y-109926165D01*
X166884899Y-109802173D01*
X166855691Y-109675248D01*
X166828563Y-109557300D01*
X166802870Y-109445759D01*
X166779099Y-109342716D01*
X166757732Y-109250265D01*
X166739255Y-109170497D01*
X166724152Y-109105503D01*
X166712907Y-109057376D01*
X166706005Y-109028207D01*
X166704021Y-109020204D01*
X166701184Y-109014908D01*
X166694515Y-109010623D01*
X166681787Y-109007244D01*
X166660772Y-109004663D01*
X166629240Y-109002775D01*
X166584965Y-109001473D01*
X166525717Y-109000652D01*
X166449269Y-109000204D01*
X166353393Y-109000024D01*
X166280357Y-109000000D01*
X165862452Y-109000000D01*
X165706909Y-109155863D01*
X165551366Y-109311727D01*
X164838378Y-109311727D01*
X164538649Y-109311727D01*
X164530000Y-109237563D01*
X164518674Y-109004148D01*
X164521871Y-108937091D01*
X164817909Y-108937091D01*
X164817909Y-109011545D01*
X165034360Y-109011545D01*
X165349868Y-108705591D01*
X165665376Y-108399636D01*
X165850665Y-108399044D01*
X165929908Y-108398595D01*
X166016298Y-108397784D01*
X166100430Y-108396717D01*
X166172899Y-108395502D01*
X166186045Y-108395231D01*
X166255543Y-108393881D01*
X166338451Y-108392488D01*
X166425089Y-108391203D01*
X166505776Y-108390178D01*
X166517310Y-108390051D01*
X166698484Y-108388091D01*
X166845132Y-108142750D01*
X166885896Y-108074719D01*
X166922952Y-108013196D01*
X166954596Y-107960985D01*
X166979122Y-107920890D01*
X166994826Y-107895717D01*
X166999799Y-107888304D01*
X167007618Y-107895292D01*
X167025494Y-107919676D01*
X167051784Y-107958945D01*
X167084843Y-108010587D01*
X167123029Y-108072091D01*
X167160329Y-108133645D01*
X167312839Y-108388091D01*
X168356751Y-108388091D01*
X168979885Y-109011545D01*
X169193636Y-109011545D01*
X169193636Y-108937091D01*
X169188636Y-108833077D01*
X169174482Y-108714949D01*
X169152443Y-108589195D01*
X169123787Y-108462306D01*
X169089782Y-108340772D01*
X169059798Y-108252350D01*
X168971965Y-108047433D01*
X168866626Y-107856326D01*
X168745135Y-107679567D01*
X168608847Y-107517692D01*
X168459114Y-107371237D01*
X168297292Y-107240741D01*
X168124732Y-107126740D01*
X167942790Y-107029770D01*
X167752819Y-106950368D01*
X167556173Y-106889073D01*
X167354206Y-106846419D01*
X167148270Y-106822945D01*
X166939721Y-106819186D01*
X166729912Y-106835681D01*
X166520196Y-106872965D01*
X166311928Y-106931576D01*
X166106460Y-107012050D01*
X166027048Y-107049642D01*
X165836124Y-107157292D01*
X165657728Y-107283483D01*
X165493117Y-107426645D01*
X165343547Y-107585206D01*
X165210273Y-107757596D01*
X165094550Y-107942243D01*
X164997635Y-108137578D01*
X164920782Y-108342028D01*
X164881156Y-108483259D01*
X164862644Y-108568352D01*
X164846128Y-108661198D01*
X164832575Y-108754861D01*
X164822953Y-108842402D01*
X164818229Y-108916883D01*
X164817909Y-108937091D01*
X164521871Y-108937091D01*
X164529721Y-108772504D01*
X164562424Y-108544125D01*
X164616067Y-108320508D01*
X164689934Y-108103150D01*
X164783307Y-107893547D01*
X164895471Y-107693196D01*
X165025708Y-107503592D01*
X165173303Y-107326234D01*
X165337539Y-107162616D01*
X165517699Y-107014235D01*
X165633473Y-106932923D01*
X165838017Y-106811411D01*
X166050677Y-106710849D01*
X166269936Y-106631337D01*
X166494276Y-106572975D01*
X166722178Y-106535863D01*
X166952124Y-106520102D01*
X167182597Y-106525792D01*
X167182597Y-106525792D01*
G37*
X167182597Y-106525792D02*
X167412078Y-106553032D01*
X167639048Y-106601923D01*
X167861991Y-106672566D01*
X168079388Y-106765060D01*
X168091045Y-106770730D01*
X168304979Y-106887715D01*
X168502830Y-107021267D01*
X168684501Y-107171286D01*
X168849893Y-107337675D01*
X168998909Y-107520337D01*
X169131451Y-107719173D01*
X169240815Y-107920500D01*
X169334122Y-108136431D01*
X169405473Y-108356793D01*
X169455256Y-108580178D01*
X169483856Y-108805179D01*
X169491660Y-109030388D01*
X169479052Y-109254398D01*
X169446419Y-109475803D01*
X169394147Y-109693194D01*
X169322623Y-109905164D01*
X169232231Y-110110306D01*
X169123358Y-110307212D01*
X168996391Y-110494476D01*
X168851714Y-110670689D01*
X168689714Y-110834445D01*
X168510776Y-110984337D01*
X168373909Y-111081408D01*
X168171632Y-111201246D01*
X167958845Y-111301179D01*
X167737537Y-111380719D01*
X167509698Y-111439375D01*
X167277314Y-111476660D01*
X167042377Y-111492084D01*
X166806873Y-111485158D01*
X166751772Y-111480246D01*
X166538263Y-111448136D01*
X166323128Y-111395420D01*
X166110945Y-111323736D01*
X165906289Y-111234720D01*
X165713739Y-111130008D01*
X165637636Y-111081781D01*
X165444233Y-110939927D01*
X165267002Y-110782128D01*
X165106682Y-110609615D01*
X164964013Y-110423617D01*
X164839734Y-110225367D01*
X164734584Y-110016095D01*
X164649302Y-109797031D01*
X164584627Y-109569406D01*
X164541298Y-109334451D01*
X164538649Y-109311727D01*
X164838378Y-109311727D01*
X164846133Y-109363440D01*
X164883964Y-109546861D01*
X164942089Y-109733102D01*
X165018741Y-109918167D01*
X165112153Y-110098061D01*
X165220556Y-110268788D01*
X165285670Y-110357003D01*
X165428109Y-110521453D01*
X165585844Y-110669740D01*
X165757102Y-110801135D01*
X165940107Y-110914907D01*
X166133085Y-111010328D01*
X166334260Y-111086667D01*
X166541859Y-111143197D01*
X166754106Y-111179186D01*
X166969226Y-111193906D01*
X167185444Y-111186628D01*
X167279386Y-111176412D01*
X167501296Y-111135873D01*
X167714473Y-111074572D01*
X167917828Y-110993511D01*
X168110276Y-110893695D01*
X168290730Y-110776127D01*
X168458103Y-110641811D01*
X168611309Y-110491751D01*
X168749262Y-110326951D01*
X168870874Y-110148414D01*
X168975060Y-109957144D01*
X169060732Y-109754145D01*
X169126805Y-109540421D01*
X169147903Y-109450272D01*
X169159618Y-109399811D01*
X169171170Y-109357942D01*
X169181046Y-109329749D01*
X169186553Y-109320563D01*
X169178656Y-109318506D01*
X169150275Y-109316618D01*
X169104017Y-109314962D01*
X169042487Y-109313602D01*
X168968293Y-109312601D01*
X168884041Y-109312022D01*
X168829794Y-109311904D01*
X168460179Y-109311727D01*
X168304636Y-109155863D01*
X168149093Y-109000000D01*
X167731188Y-109000000D01*
X167621626Y-109000064D01*
X167532926Y-109000327D01*
X167462860Y-109000896D01*
X167409199Y-109001877D01*
X167369717Y-109003376D01*
X167342183Y-109005499D01*
X167324370Y-109008352D01*
X167314050Y-109012042D01*
X167308994Y-109016676D01*
X167307486Y-109020204D01*
X167303452Y-109036463D01*
X167294967Y-109072308D01*
X167282591Y-109125291D01*
X167266886Y-109192962D01*
X167248413Y-109272873D01*
X167227733Y-109362575D01*
X167205406Y-109459618D01*
X167181994Y-109561555D01*
X167158059Y-109665935D01*
X167134160Y-109770310D01*
X167110859Y-109872231D01*
X167088718Y-109969249D01*
X167068297Y-110058916D01*
X167050157Y-110138781D01*
X167034860Y-110206397D01*
X167022967Y-110259315D01*
X167015037Y-110295084D01*
X167011634Y-110311258D01*
X167011545Y-110311907D01*
X167010787Y-110317341D01*
X167008287Y-110313931D01*
X167003705Y-110300294D01*
X166996704Y-110275044D01*
X166986944Y-110236799D01*
X166974086Y-110184172D01*
X166957791Y-110115781D01*
X166937721Y-110030240D01*
X166913537Y-109926165D01*
X166884899Y-109802173D01*
X166855691Y-109675248D01*
X166828563Y-109557300D01*
X166802870Y-109445759D01*
X166779099Y-109342716D01*
X166757732Y-109250265D01*
X166739255Y-109170497D01*
X166724152Y-109105503D01*
X166712907Y-109057376D01*
X166706005Y-109028207D01*
X166704021Y-109020204D01*
X166701184Y-109014908D01*
X166694515Y-109010623D01*
X166681787Y-109007244D01*
X166660772Y-109004663D01*
X166629240Y-109002775D01*
X166584965Y-109001473D01*
X166525717Y-109000652D01*
X166449269Y-109000204D01*
X166353393Y-109000024D01*
X166280357Y-109000000D01*
X165862452Y-109000000D01*
X165706909Y-109155863D01*
X165551366Y-109311727D01*
X164838378Y-109311727D01*
X164538649Y-109311727D01*
X164530000Y-109237563D01*
X164518674Y-109004148D01*
X164521871Y-108937091D01*
X164817909Y-108937091D01*
X164817909Y-109011545D01*
X165034360Y-109011545D01*
X165349868Y-108705591D01*
X165665376Y-108399636D01*
X165850665Y-108399044D01*
X165929908Y-108398595D01*
X166016298Y-108397784D01*
X166100430Y-108396717D01*
X166172899Y-108395502D01*
X166186045Y-108395231D01*
X166255543Y-108393881D01*
X166338451Y-108392488D01*
X166425089Y-108391203D01*
X166505776Y-108390178D01*
X166517310Y-108390051D01*
X166698484Y-108388091D01*
X166845132Y-108142750D01*
X166885896Y-108074719D01*
X166922952Y-108013196D01*
X166954596Y-107960985D01*
X166979122Y-107920890D01*
X166994826Y-107895717D01*
X166999799Y-107888304D01*
X167007618Y-107895292D01*
X167025494Y-107919676D01*
X167051784Y-107958945D01*
X167084843Y-108010587D01*
X167123029Y-108072091D01*
X167160329Y-108133645D01*
X167312839Y-108388091D01*
X168356751Y-108388091D01*
X168979885Y-109011545D01*
X169193636Y-109011545D01*
X169193636Y-108937091D01*
X169188636Y-108833077D01*
X169174482Y-108714949D01*
X169152443Y-108589195D01*
X169123787Y-108462306D01*
X169089782Y-108340772D01*
X169059798Y-108252350D01*
X168971965Y-108047433D01*
X168866626Y-107856326D01*
X168745135Y-107679567D01*
X168608847Y-107517692D01*
X168459114Y-107371237D01*
X168297292Y-107240741D01*
X168124732Y-107126740D01*
X167942790Y-107029770D01*
X167752819Y-106950368D01*
X167556173Y-106889073D01*
X167354206Y-106846419D01*
X167148270Y-106822945D01*
X166939721Y-106819186D01*
X166729912Y-106835681D01*
X166520196Y-106872965D01*
X166311928Y-106931576D01*
X166106460Y-107012050D01*
X166027048Y-107049642D01*
X165836124Y-107157292D01*
X165657728Y-107283483D01*
X165493117Y-107426645D01*
X165343547Y-107585206D01*
X165210273Y-107757596D01*
X165094550Y-107942243D01*
X164997635Y-108137578D01*
X164920782Y-108342028D01*
X164881156Y-108483259D01*
X164862644Y-108568352D01*
X164846128Y-108661198D01*
X164832575Y-108754861D01*
X164822953Y-108842402D01*
X164818229Y-108916883D01*
X164817909Y-108937091D01*
X164521871Y-108937091D01*
X164529721Y-108772504D01*
X164562424Y-108544125D01*
X164616067Y-108320508D01*
X164689934Y-108103150D01*
X164783307Y-107893547D01*
X164895471Y-107693196D01*
X165025708Y-107503592D01*
X165173303Y-107326234D01*
X165337539Y-107162616D01*
X165517699Y-107014235D01*
X165633473Y-106932923D01*
X165838017Y-106811411D01*
X166050677Y-106710849D01*
X166269936Y-106631337D01*
X166494276Y-106572975D01*
X166722178Y-106535863D01*
X166952124Y-106520102D01*
X167182597Y-106525792D01*
D10*
X152720000Y-40850000D02*
X156820000Y-40850000D01*
X156820000Y-40850000D02*
X156820000Y-42860000D01*
X156820000Y-42860000D02*
X165660000Y-42860000D01*
X165660000Y-42860000D02*
X165660000Y-56060000D01*
X165660000Y-56060000D02*
X156820000Y-56060000D01*
X156820000Y-56060000D02*
X156820000Y-58070000D01*
X156820000Y-58070000D02*
X152720000Y-58070000D01*
X166354338Y-54750000D02*
X166354338Y-55250000D01*
X166354338Y-55250000D02*
X165921325Y-55000000D01*
X165921325Y-55000000D02*
X166354338Y-54750000D01*
X173060000Y-80320000D02*
X173060000Y-96560000D01*
X173060000Y-96560000D02*
X167150000Y-96560000D01*
X173060000Y-80320000D02*
X167150000Y-80320000D01*
X163870000Y-80320000D02*
X151420000Y-80320000D01*
X151420000Y-96560000D02*
X151420000Y-80320000D01*
X163870000Y-96560000D02*
X151420000Y-96560000D01*
X151690000Y-80440000D02*
X151690000Y-80190000D01*
X151540000Y-80540000D02*
X151290000Y-80540000D01*
D11*
X152600000Y-72000000D02*
X152600000Y-69000000D01*
X152600000Y-69000000D02*
X171600000Y-69000000D01*
X171600000Y-69000000D02*
X171600000Y-74000000D01*
X171600000Y-74000000D02*
X171600000Y-75000000D01*
X171600000Y-75000000D02*
X152600000Y-75000000D01*
X152600000Y-75000000D02*
X152600000Y-72000000D01*
D10*
X167170000Y-99420000D02*
X167170000Y-102080000D01*
X169770000Y-99420000D02*
X167170000Y-99420000D01*
X169770000Y-102080000D02*
X167170000Y-102080000D01*
X169770000Y-99420000D02*
X169770000Y-102080000D01*
X171040000Y-99420000D02*
X172370000Y-99420000D01*
X172370000Y-99420000D02*
X172370000Y-100750000D01*
X167688712Y-26483352D02*
G75*
G02X166900000Y-26680000I-788712J1483352D01*
G01*
X168383953Y-24210912D02*
G75*
G02X168384000Y-25789000I-1483953J-789088D01*
G01*
X166110912Y-23516047D02*
G75*
G02X167689000Y-23516000I789088J-1483953D01*
G01*
X165416047Y-25789088D02*
G75*
G02X165416000Y-24211000I1483953J789088D01*
G01*
X166929383Y-26680450D02*
G75*
G02X166111000Y-26484000I-29383J1680450D01*
G01*
X173580000Y-25000000D02*
G75*
G03X173580000Y-25000000I-1680000J0D01*
G01*
X178580000Y-25000000D02*
G75*
G03X178580000Y-25000000I-1680000J0D01*
G01*
X164340000Y-27000000D02*
X179460000Y-27000000D01*
X164340000Y-23000000D02*
X179460000Y-23000000D01*
X164340000Y-20940000D02*
X179460000Y-20940000D01*
X164340000Y-29060000D02*
X179460000Y-29060000D01*
X164340000Y-20940000D02*
X164340000Y-29060000D01*
X179460000Y-20940000D02*
X179460000Y-29060000D01*
X173175000Y-23931000D02*
X173081000Y-24024000D01*
X170890000Y-26216000D02*
X170831000Y-26274000D01*
X172970000Y-23725000D02*
X172911000Y-23784000D01*
X170720000Y-25976000D02*
X170626000Y-26069000D01*
X178175000Y-23931000D02*
X178081000Y-24024000D01*
X175890000Y-26216000D02*
X175831000Y-26274000D01*
X177970000Y-23725000D02*
X177911000Y-23784000D01*
X175720000Y-25976000D02*
X175626000Y-26069000D01*
X164100000Y-27060000D02*
X164100000Y-29300000D01*
X164100000Y-29300000D02*
X166100000Y-29300000D01*
X182260000Y-37610000D02*
X181930000Y-37610000D01*
X181930000Y-37610000D02*
X181930000Y-32170000D01*
X181930000Y-32170000D02*
X182260000Y-32170000D01*
X184540000Y-37610000D02*
X184870000Y-37610000D01*
X184870000Y-37610000D02*
X184870000Y-32170000D01*
X184870000Y-32170000D02*
X184540000Y-32170000D01*
X181930000Y-36710000D02*
X184870000Y-36710000D01*
X181930000Y-36590000D02*
X184870000Y-36590000D01*
X181930000Y-36830000D02*
X184870000Y-36830000D01*
X178330000Y-36830000D02*
X181270000Y-36830000D01*
X178330000Y-36590000D02*
X181270000Y-36590000D01*
X178330000Y-36710000D02*
X181270000Y-36710000D01*
X181270000Y-32170000D02*
X180940000Y-32170000D01*
X181270000Y-37610000D02*
X181270000Y-32170000D01*
X180940000Y-37610000D02*
X181270000Y-37610000D01*
X178330000Y-32170000D02*
X178660000Y-32170000D01*
X178330000Y-37610000D02*
X178330000Y-32170000D01*
X178660000Y-37610000D02*
X178330000Y-37610000D01*
X187050000Y-67670000D02*
X187050000Y-70330000D01*
X194730000Y-67670000D02*
X187050000Y-67670000D01*
X194730000Y-70330000D02*
X187050000Y-70330000D01*
X194730000Y-67670000D02*
X194730000Y-70330000D01*
X196000000Y-67670000D02*
X197330000Y-67670000D01*
X197330000Y-67670000D02*
X197330000Y-69000000D01*
X178670000Y-78330000D02*
X178670000Y-77000000D01*
X180000000Y-78330000D02*
X178670000Y-78330000D01*
X181270000Y-78330000D02*
X181270000Y-75670000D01*
X181270000Y-75670000D02*
X188950000Y-75670000D01*
X181270000Y-78330000D02*
X188950000Y-78330000D01*
X188950000Y-78330000D02*
X188950000Y-75670000D01*
D11*
X178238095Y-44452380D02*
X178238095Y-45261904D01*
X178285714Y-45357142D01*
X178333333Y-45404761D01*
X178428571Y-45452380D01*
X178619047Y-45452380D01*
X178714285Y-45404761D01*
X178761904Y-45357142D01*
X178809523Y-45261904D01*
X178809523Y-44452380D01*
X179238095Y-44547619D02*
X179285714Y-44500000D01*
X179380952Y-44452380D01*
X179619047Y-44452380D01*
X179714285Y-44500000D01*
X179761904Y-44547619D01*
X179809523Y-44642857D01*
X179809523Y-44738095D01*
X179761904Y-44880952D01*
X179190476Y-45452380D01*
X179809523Y-45452380D01*
X170580833Y-57357142D02*
X170533214Y-57404761D01*
X170390357Y-57452380D01*
X170295119Y-57452380D01*
X170152261Y-57404761D01*
X170057023Y-57309523D01*
X170009404Y-57214285D01*
X169961785Y-57023809D01*
X169961785Y-56880952D01*
X170009404Y-56690476D01*
X170057023Y-56595238D01*
X170152261Y-56500000D01*
X170295119Y-56452380D01*
X170390357Y-56452380D01*
X170533214Y-56500000D01*
X170580833Y-56547619D01*
X171437976Y-56452380D02*
X171247500Y-56452380D01*
X171152261Y-56500000D01*
X171104642Y-56547619D01*
X171009404Y-56690476D01*
X170961785Y-56880952D01*
X170961785Y-57261904D01*
X171009404Y-57357142D01*
X171057023Y-57404761D01*
X171152261Y-57452380D01*
X171342738Y-57452380D01*
X171437976Y-57404761D01*
X171485595Y-57357142D01*
X171533214Y-57261904D01*
X171533214Y-57023809D01*
X171485595Y-56928571D01*
X171437976Y-56880952D01*
X171342738Y-56833333D01*
X171152261Y-56833333D01*
X171057023Y-56880952D01*
X171009404Y-56928571D01*
X170961785Y-57023809D01*
X171333333Y-42327142D02*
X171285714Y-42374761D01*
X171142857Y-42422380D01*
X171047619Y-42422380D01*
X170904761Y-42374761D01*
X170809523Y-42279523D01*
X170761904Y-42184285D01*
X170714285Y-41993809D01*
X170714285Y-41850952D01*
X170761904Y-41660476D01*
X170809523Y-41565238D01*
X170904761Y-41470000D01*
X171047619Y-41422380D01*
X171142857Y-41422380D01*
X171285714Y-41470000D01*
X171333333Y-41517619D01*
X172238095Y-41422380D02*
X171761904Y-41422380D01*
X171714285Y-41898571D01*
X171761904Y-41850952D01*
X171857142Y-41803333D01*
X172095238Y-41803333D01*
X172190476Y-41850952D01*
X172238095Y-41898571D01*
X172285714Y-41993809D01*
X172285714Y-42231904D01*
X172238095Y-42327142D01*
X172190476Y-42374761D01*
X172095238Y-42422380D01*
X171857142Y-42422380D01*
X171761904Y-42374761D01*
X171714285Y-42327142D01*
X169833333Y-51357142D02*
X169785714Y-51404761D01*
X169642857Y-51452380D01*
X169547619Y-51452380D01*
X169404761Y-51404761D01*
X169309523Y-51309523D01*
X169261904Y-51214285D01*
X169214285Y-51023809D01*
X169214285Y-50880952D01*
X169261904Y-50690476D01*
X169309523Y-50595238D01*
X169404761Y-50500000D01*
X169547619Y-50452380D01*
X169642857Y-50452380D01*
X169785714Y-50500000D01*
X169833333Y-50547619D01*
X170690476Y-50785714D02*
X170690476Y-51452380D01*
X170452380Y-50404761D02*
X170214285Y-51119047D01*
X170833333Y-51119047D01*
X169833333Y-47357142D02*
X169785714Y-47404761D01*
X169642857Y-47452380D01*
X169547619Y-47452380D01*
X169404761Y-47404761D01*
X169309523Y-47309523D01*
X169261904Y-47214285D01*
X169214285Y-47023809D01*
X169214285Y-46880952D01*
X169261904Y-46690476D01*
X169309523Y-46595238D01*
X169404761Y-46500000D01*
X169547619Y-46452380D01*
X169642857Y-46452380D01*
X169785714Y-46500000D01*
X169833333Y-46547619D01*
X170166666Y-46452380D02*
X170785714Y-46452380D01*
X170452380Y-46833333D01*
X170595238Y-46833333D01*
X170690476Y-46880952D01*
X170738095Y-46928571D01*
X170785714Y-47023809D01*
X170785714Y-47261904D01*
X170738095Y-47357142D01*
X170690476Y-47404761D01*
X170595238Y-47452380D01*
X170309523Y-47452380D01*
X170214285Y-47404761D01*
X170166666Y-47357142D01*
X172266666Y-32428571D02*
X171933333Y-32428571D01*
X171933333Y-32952380D02*
X171933333Y-31952380D01*
X172409523Y-31952380D01*
X173314285Y-32952380D02*
X172742857Y-32952380D01*
X173028571Y-32952380D02*
X173028571Y-31952380D01*
X172933333Y-32095238D01*
X172838095Y-32190476D01*
X172742857Y-32238095D01*
X185033333Y-46657142D02*
X184985714Y-46704761D01*
X184842857Y-46752380D01*
X184747619Y-46752380D01*
X184604761Y-46704761D01*
X184509523Y-46609523D01*
X184461904Y-46514285D01*
X184414285Y-46323809D01*
X184414285Y-46180952D01*
X184461904Y-45990476D01*
X184509523Y-45895238D01*
X184604761Y-45800000D01*
X184747619Y-45752380D01*
X184842857Y-45752380D01*
X184985714Y-45800000D01*
X185033333Y-45847619D01*
X185366666Y-45752380D02*
X186033333Y-45752380D01*
X185604761Y-46752380D01*
X192333333Y-27257142D02*
X192285714Y-27304761D01*
X192142857Y-27352380D01*
X192047619Y-27352380D01*
X191904761Y-27304761D01*
X191809523Y-27209523D01*
X191761904Y-27114285D01*
X191714285Y-26923809D01*
X191714285Y-26780952D01*
X191761904Y-26590476D01*
X191809523Y-26495238D01*
X191904761Y-26400000D01*
X192047619Y-26352380D01*
X192142857Y-26352380D01*
X192285714Y-26400000D01*
X192333333Y-26447619D01*
X193285714Y-27352380D02*
X192714285Y-27352380D01*
X193000000Y-27352380D02*
X193000000Y-26352380D01*
X192904761Y-26495238D01*
X192809523Y-26590476D01*
X192714285Y-26638095D01*
X194333333Y-32357142D02*
X194285714Y-32404761D01*
X194142857Y-32452380D01*
X194047619Y-32452380D01*
X193904761Y-32404761D01*
X193809523Y-32309523D01*
X193761904Y-32214285D01*
X193714285Y-32023809D01*
X193714285Y-31880952D01*
X193761904Y-31690476D01*
X193809523Y-31595238D01*
X193904761Y-31500000D01*
X194047619Y-31452380D01*
X194142857Y-31452380D01*
X194285714Y-31500000D01*
X194333333Y-31547619D01*
X194714285Y-31547619D02*
X194761904Y-31500000D01*
X194857142Y-31452380D01*
X195095238Y-31452380D01*
X195190476Y-31500000D01*
X195238095Y-31547619D01*
X195285714Y-31642857D01*
X195285714Y-31738095D01*
X195238095Y-31880952D01*
X194666666Y-32452380D01*
X195285714Y-32452380D01*
X185378095Y-20182380D02*
X185378095Y-20991904D01*
X185425714Y-21087142D01*
X185473333Y-21134761D01*
X185568571Y-21182380D01*
X185759047Y-21182380D01*
X185854285Y-21134761D01*
X185901904Y-21087142D01*
X185949523Y-20991904D01*
X185949523Y-20182380D01*
X186949523Y-21182380D02*
X186378095Y-21182380D01*
X186663809Y-21182380D02*
X186663809Y-20182380D01*
X186568571Y-20325238D01*
X186473333Y-20420476D01*
X186378095Y-20468095D01*
X165852380Y-49793333D02*
X166566666Y-49793333D01*
X166709523Y-49840952D01*
X166804761Y-49936190D01*
X166852380Y-50079047D01*
X166852380Y-50174285D01*
X166852380Y-48793333D02*
X166852380Y-49364761D01*
X166852380Y-49079047D02*
X165852380Y-49079047D01*
X165995238Y-49174285D01*
X166090476Y-49269523D01*
X166138095Y-49364761D01*
X173212380Y-88783333D02*
X173926666Y-88783333D01*
X174069523Y-88830952D01*
X174164761Y-88926190D01*
X174212380Y-89069047D01*
X174212380Y-89164285D01*
X173545714Y-87878571D02*
X174212380Y-87878571D01*
X173164761Y-88116666D02*
X173879047Y-88354761D01*
X173879047Y-87735714D01*
X164266666Y-77452380D02*
X164266666Y-78166666D01*
X164219047Y-78309523D01*
X164123809Y-78404761D01*
X163980952Y-78452380D01*
X163885714Y-78452380D01*
X165219047Y-77452380D02*
X164742857Y-77452380D01*
X164695238Y-77928571D01*
X164742857Y-77880952D01*
X164838095Y-77833333D01*
X165076190Y-77833333D01*
X165171428Y-77880952D01*
X165219047Y-77928571D01*
X165266666Y-78023809D01*
X165266666Y-78261904D01*
X165219047Y-78357142D01*
X165171428Y-78404761D01*
X165076190Y-78452380D01*
X164838095Y-78452380D01*
X164742857Y-78404761D01*
X164695238Y-78357142D01*
X172822380Y-101583333D02*
X173536666Y-101583333D01*
X173679523Y-101630952D01*
X173774761Y-101726190D01*
X173822380Y-101869047D01*
X173822380Y-101964285D01*
X173822380Y-101107142D02*
X172822380Y-101107142D01*
X172822380Y-100726190D01*
X172870000Y-100630952D01*
X172917619Y-100583333D01*
X173012857Y-100535714D01*
X173155714Y-100535714D01*
X173250952Y-100583333D01*
X173298571Y-100630952D01*
X173346190Y-100726190D01*
X173346190Y-101107142D01*
X173822380Y-99583333D02*
X173822380Y-100154761D01*
X173822380Y-99869047D02*
X172822380Y-99869047D01*
X172965238Y-99964285D01*
X173060476Y-100059523D01*
X173108095Y-100154761D01*
X180666666Y-28452380D02*
X180666666Y-29166666D01*
X180619047Y-29309523D01*
X180523809Y-29404761D01*
X180380952Y-29452380D01*
X180285714Y-29452380D01*
X181095238Y-28547619D02*
X181142857Y-28500000D01*
X181238095Y-28452380D01*
X181476190Y-28452380D01*
X181571428Y-28500000D01*
X181619047Y-28547619D01*
X181666666Y-28642857D01*
X181666666Y-28738095D01*
X181619047Y-28880952D01*
X181047619Y-29452380D01*
X181666666Y-29452380D01*
X183852380Y-35238095D02*
X182852380Y-35238095D01*
X182852380Y-35000000D01*
X182900000Y-34857142D01*
X182995238Y-34761904D01*
X183090476Y-34714285D01*
X183280952Y-34666666D01*
X183423809Y-34666666D01*
X183614285Y-34714285D01*
X183709523Y-34761904D01*
X183804761Y-34857142D01*
X183852380Y-35000000D01*
X183852380Y-35238095D01*
X183852380Y-33714285D02*
X183852380Y-34285714D01*
X183852380Y-34000000D02*
X182852380Y-34000000D01*
X182995238Y-34095238D01*
X183090476Y-34190476D01*
X183138095Y-34285714D01*
X180252380Y-35338095D02*
X179252380Y-35338095D01*
X179252380Y-35100000D01*
X179300000Y-34957142D01*
X179395238Y-34861904D01*
X179490476Y-34814285D01*
X179680952Y-34766666D01*
X179823809Y-34766666D01*
X180014285Y-34814285D01*
X180109523Y-34861904D01*
X180204761Y-34957142D01*
X180252380Y-35100000D01*
X180252380Y-35338095D01*
X179347619Y-34385714D02*
X179300000Y-34338095D01*
X179252380Y-34242857D01*
X179252380Y-34004761D01*
X179300000Y-33909523D01*
X179347619Y-33861904D01*
X179442857Y-33814285D01*
X179538095Y-33814285D01*
X179680952Y-33861904D01*
X180252380Y-34433333D01*
X180252380Y-33814285D01*
X197782380Y-69333333D02*
X198496666Y-69333333D01*
X198639523Y-69380952D01*
X198734761Y-69476190D01*
X198782380Y-69619047D01*
X198782380Y-69714285D01*
X197782380Y-68952380D02*
X197782380Y-68333333D01*
X198163333Y-68666666D01*
X198163333Y-68523809D01*
X198210952Y-68428571D01*
X198258571Y-68380952D01*
X198353809Y-68333333D01*
X198591904Y-68333333D01*
X198687142Y-68380952D01*
X198734761Y-68428571D01*
X198782380Y-68523809D01*
X198782380Y-68809523D01*
X198734761Y-68904761D01*
X198687142Y-68952380D01*
X177122380Y-77333333D02*
X177836666Y-77333333D01*
X177979523Y-77380952D01*
X178074761Y-77476190D01*
X178122380Y-77619047D01*
X178122380Y-77714285D01*
X177122380Y-76428571D02*
X177122380Y-76619047D01*
X177170000Y-76714285D01*
X177217619Y-76761904D01*
X177360476Y-76857142D01*
X177550952Y-76904761D01*
X177931904Y-76904761D01*
X178027142Y-76857142D01*
X178074761Y-76809523D01*
X178122380Y-76714285D01*
X178122380Y-76523809D01*
X178074761Y-76428571D01*
X178027142Y-76380952D01*
X177931904Y-76333333D01*
X177693809Y-76333333D01*
X177598571Y-76380952D01*
X177550952Y-76428571D01*
X177503333Y-76523809D01*
X177503333Y-76714285D01*
X177550952Y-76809523D01*
X177598571Y-76857142D01*
X177693809Y-76904761D01*
M02*
