G04 #@! TF.GenerationSoftware,KiCad,Pcbnew,5.1.9*
G04 #@! TF.CreationDate,2021-01-14T22:06:05+01:00*
G04 #@! TF.ProjectId,bluetoothkiste,626c7565-746f-46f7-9468-6b697374652e,rev?*
G04 #@! TF.SameCoordinates,Original*
G04 #@! TF.FileFunction,Paste,Top*
G04 #@! TF.FilePolarity,Positive*
%FSLAX46Y46*%
G04 Gerber Fmt 4.6, Leading zero omitted, Abs format (unit mm)*
G04 Created by KiCad (PCBNEW 5.1.9) date 2021-01-14 22:06:05*
%MOMM*%
%LPD*%
G01*
G04 APERTURE LIST*
G04 APERTURE END LIST*
G36*
G01*
X171522500Y-55655000D02*
X171522500Y-54405000D01*
G75*
G02*
X171772500Y-54155000I250000J0D01*
G01*
X172697500Y-54155000D01*
G75*
G02*
X172947500Y-54405000I0J-250000D01*
G01*
X172947500Y-55655000D01*
G75*
G02*
X172697500Y-55905000I-250000J0D01*
G01*
X171772500Y-55905000D01*
G75*
G02*
X171522500Y-55655000I0J250000D01*
G01*
G37*
G36*
G01*
X168547500Y-55655000D02*
X168547500Y-54405000D01*
G75*
G02*
X168797500Y-54155000I250000J0D01*
G01*
X169722500Y-54155000D01*
G75*
G02*
X169972500Y-54405000I0J-250000D01*
G01*
X169972500Y-55655000D01*
G75*
G02*
X169722500Y-55905000I-250000J0D01*
G01*
X168797500Y-55905000D01*
G75*
G02*
X168547500Y-55655000I0J250000D01*
G01*
G37*
G36*
G01*
X168635000Y-41800000D02*
X169885000Y-41800000D01*
G75*
G02*
X170135000Y-42050000I0J-250000D01*
G01*
X170135000Y-42975000D01*
G75*
G02*
X169885000Y-43225000I-250000J0D01*
G01*
X168635000Y-43225000D01*
G75*
G02*
X168385000Y-42975000I0J250000D01*
G01*
X168385000Y-42050000D01*
G75*
G02*
X168635000Y-41800000I250000J0D01*
G01*
G37*
G36*
G01*
X168635000Y-44775000D02*
X169885000Y-44775000D01*
G75*
G02*
X170135000Y-45025000I0J-250000D01*
G01*
X170135000Y-45950000D01*
G75*
G02*
X169885000Y-46200000I-250000J0D01*
G01*
X168635000Y-46200000D01*
G75*
G02*
X168385000Y-45950000I0J250000D01*
G01*
X168385000Y-45025000D01*
G75*
G02*
X168635000Y-44775000I250000J0D01*
G01*
G37*
G36*
G01*
X171635000Y-51805000D02*
X172885000Y-51805000D01*
G75*
G02*
X173135000Y-52055000I0J-250000D01*
G01*
X173135000Y-52980000D01*
G75*
G02*
X172885000Y-53230000I-250000J0D01*
G01*
X171635000Y-53230000D01*
G75*
G02*
X171385000Y-52980000I0J250000D01*
G01*
X171385000Y-52055000D01*
G75*
G02*
X171635000Y-51805000I250000J0D01*
G01*
G37*
G36*
G01*
X171635000Y-48830000D02*
X172885000Y-48830000D01*
G75*
G02*
X173135000Y-49080000I0J-250000D01*
G01*
X173135000Y-50005000D01*
G75*
G02*
X172885000Y-50255000I-250000J0D01*
G01*
X171635000Y-50255000D01*
G75*
G02*
X171385000Y-50005000I0J250000D01*
G01*
X171385000Y-49080000D01*
G75*
G02*
X171635000Y-48830000I250000J0D01*
G01*
G37*
G36*
G01*
X171635000Y-42830000D02*
X172885000Y-42830000D01*
G75*
G02*
X173135000Y-43080000I0J-250000D01*
G01*
X173135000Y-44005000D01*
G75*
G02*
X172885000Y-44255000I-250000J0D01*
G01*
X171635000Y-44255000D01*
G75*
G02*
X171385000Y-44005000I0J250000D01*
G01*
X171385000Y-43080000D01*
G75*
G02*
X171635000Y-42830000I250000J0D01*
G01*
G37*
G36*
G01*
X171635000Y-45805000D02*
X172885000Y-45805000D01*
G75*
G02*
X173135000Y-46055000I0J-250000D01*
G01*
X173135000Y-46980000D01*
G75*
G02*
X172885000Y-47230000I-250000J0D01*
G01*
X171635000Y-47230000D01*
G75*
G02*
X171385000Y-46980000I0J250000D01*
G01*
X171385000Y-46055000D01*
G75*
G02*
X171635000Y-45805000I250000J0D01*
G01*
G37*
G36*
G01*
X184875000Y-40700000D02*
X186125000Y-40700000D01*
G75*
G02*
X186375000Y-40950000I0J-250000D01*
G01*
X186375000Y-41875000D01*
G75*
G02*
X186125000Y-42125000I-250000J0D01*
G01*
X184875000Y-42125000D01*
G75*
G02*
X184625000Y-41875000I0J250000D01*
G01*
X184625000Y-40950000D01*
G75*
G02*
X184875000Y-40700000I250000J0D01*
G01*
G37*
G36*
G01*
X184875000Y-43675000D02*
X186125000Y-43675000D01*
G75*
G02*
X186375000Y-43925000I0J-250000D01*
G01*
X186375000Y-44850000D01*
G75*
G02*
X186125000Y-45100000I-250000J0D01*
G01*
X184875000Y-45100000D01*
G75*
G02*
X184625000Y-44850000I0J250000D01*
G01*
X184625000Y-43925000D01*
G75*
G02*
X184875000Y-43675000I250000J0D01*
G01*
G37*
M02*
